# MagicaVoxel @ Ephtracy

# group
o 

# material
mtllib get-color.mtl
usemtl palette

# normals
vn 0 0 1
vn 0 0 -1
vn 1 0 0
vn -1 0 0
vn 0 -1 0
vn 0 1 0

# texcoords
vt 0.232422 0.5
vt 0.263672 0.5
vt 0.267578 0.5
vt 0.271484 0.5

# verts
v -0.2 0 0.7
v -0.4 0 0.7
v -0.2 0.1 0.7
v -0.4 0.1 0.7
v 0.1 0 0.6
v 0 0 0.6
v -0.4 0 0.6
v -0.5 0 0.6
v 0.1 0.1 0.6
v 0 0.1 0.6
v -0.4 0.1 0.6
v -0.5 0.1 0.6
v 0.2 0 0.5
v 0.1 0 0.5
v 0 0 0.5
v -0.2 0 0.5
v 0.2 0.1 0.5
v 0.1 0.1 0.5
v 0 0.1 0.5
v -0.1 0.1 0.5
v -0.2 0.1 0.5
v -0.3 0.1 0.5
v -0.1 0.2 0.5
v -0.3 0.2 0.5
v 0.2 0 0.3
v 0.1 0 0.3
v -0.4 0 0.3
v -0.5 0 0.3
v 0.2 0.1 0.3
v 0.1 0.1 0.3
v 0 0.1 0.3
v -0.1 0.1 0.3
v -0.4 0.1 0.3
v -0.5 0.1 0.3
v 0 0.2 0.3
v -0.1 0.2 0.3
v 0.1 0.1 0.2
v 0 0.1 0.2
v 0.1 0.2 0.2
v 0 0.2 0.2
v 0.3 0 0.1
v 0.2 0 0.1
v 0.3 0.1 0.1
v 0.2 0.1 0.1
v 0.4 0 0
v 0.3 0 0
v 0.4 0.1 0
v 0.3 0.1 0
v 0.2 0.1 0
v 0.1 0.1 0
v 0.2 0.2 0
v 0.1 0.2 0
v 0.3 0.1 -0.1
v 0.2 0.1 -0.1
v 0.3 0.2 -0.1
v 0.2 0.2 -0.1
v 0.5 0 -0.4
v 0.4 0 -0.4
v 0.5 0.1 -0.4
v 0.4 0.1 -0.4
v 0.3 0.1 -0.4
v 0.2 0.1 -0.4
v 0.3 0.2 -0.4
v 0.2 0.2 -0.4
v 0.2 0 0.4
v 0.1 0 0.4
v -0.4 0 0.4
v -0.5 0 0.4
v 0.2 0.1 0.4
v 0.1 0.1 0.4
v -0.4 0.1 0.4
v -0.5 0.1 0.4
v -0.2 0.1 0.1
v -0.3 0.1 0.1
v -0.2 0.2 0.1
v -0.3 0.2 0.1
v -0.4 0 -0.3
v -0.5 0 -0.3
v 0.3 0.1 -0.3
v 0.2 0.1 -0.3
v -0.1 0.1 -0.3
v -0.2 0.1 -0.3
v -0.4 0.1 -0.3
v -0.5 0.1 -0.3
v 0.3 0.2 -0.3
v 0.2 0.2 -0.3
v -0.1 0.2 -0.3
v -0.2 0.2 -0.3
v 0.5 0 -0.5
v 0.4 0 -0.5
v 0.3 0 -0.5
v -0.3 0 -0.5
v -0.4 0 -0.5
v 0.5 0.1 -0.5
v 0.4 0.1 -0.5
v 0.3 0.1 -0.5
v 0.2 0.1 -0.5
v 0 0.1 -0.5
v -0.1 0.1 -0.5
v -0.3 0.1 -0.5
v -0.4 0.1 -0.5
v 0.3 0.2 -0.5
v 0.2 0.2 -0.5
v 0 0.2 -0.5
v -0.1 0.2 -0.5
v 0.3 0 -0.6
v 0.2 0 -0.6
v 0 0 -0.6
v -0.2 0 -0.6
v 0.3 0.1 -0.6
v 0.2 0.1 -0.6
v 0.1 0.1 -0.6
v 0 0.1 -0.6
v -0.2 0.1 -0.6
v 0.2 0.2 -0.6
v 0.1 0.2 -0.6
v 0 0.2 -0.6
v 0.2 0 -0.7
v 0.1 0 -0.7
v 0 0 -0.7
v -0.2 0 -0.7
v -0.3 0 -0.7
v 0.2 0.1 -0.7
v 0.1 0.1 -0.7
v 0 0.1 -0.7
v -0.2 0.1 -0.7
v -0.3 0.1 -0.7
v 0.5 0 -0.4
v 0.5 0.1 -0.4
v 0.5 0 -0.5
v 0.5 0.1 -0.5
v 0.4 0 0
v 0.4 0.1 0
v 0.4 0 -0.2
v 0.4 0.1 -0.2
v 0.4 0 -0.4
v 0.4 0.1 -0.4
v 0.3 0 0.1
v 0.3 0.1 0.1
v 0.3 0 0
v 0.3 0.1 0
v 0.3 0.1 -0.1
v 0.3 0.2 -0.1
v 0.3 0.1 -0.2
v 0.3 0.1 -0.3
v 0.3 0.2 -0.3
v 0.3 0.1 -0.4
v 0.3 0.2 -0.4
v 0.3 0 -0.5
v 0.3 0.1 -0.5
v 0.3 0.2 -0.5
v 0.3 0 -0.6
v 0.3 0.1 -0.6
v 0.2 0 0.5
v 0.2 0.1 0.5
v 0.2 0 0.4
v 0.2 0.1 0.4
v 0.2 0 0.3
v 0.2 0.1 0.3
v 0.2 0 0.1
v 0.2 0.1 0.1
v 0.2 0.1 0
v 0.2 0.2 0
v 0.2 0.1 -0.1
v 0.2 0.2 -0.1
v 0.2 0.1 -0.3
v 0.2 0.2 -0.3
v 0.2 0.1 -0.4
v 0.2 0.2 -0.4
v 0.2 0.1 -0.5
v 0.2 0.2 -0.5
v 0.2 0 -0.6
v 0.2 0.1 -0.6
v 0.2 0.2 -0.6
v 0.2 0 -0.7
v 0.2 0.1 -0.7
v 0.1 0 0.6
v 0.1 0.1 0.6
v 0.1 0 0.5
v 0.1 0.1 0.5
v 0.1 0 0.4
v 0.1 0.1 0.4
v 0.1 0 0.3
v 0.1 0.1 0.3
v 0.1 0.1 0.2
v 0.1 0.2 0.2
v 0.1 0.1 0.1
v 0.1 0.1 0
v 0.1 0.2 0
v 0 0.1 0.3
v 0 0.2 0.3
v 0 0.1 0.2
v 0 0.2 0.2
v -0.1 0.1 0.5
v -0.1 0.2 0.5
v -0.1 0.1 0.4
v -0.1 0.1 0.3
v -0.1 0.2 0.3
v -0.2 0 0.7
v -0.2 0.1 0.7
v -0.2 0 0.5
v -0.2 0.1 0.5
v -0.2 0 -0.6
v -0.2 0.1 -0.6
v -0.2 0 -0.7
v -0.2 0.1 -0.7
v 0 0 0.6
v 0 0.1 0.6
v 0 0 0.5
v 0 0.1 0.5
v 0 0.1 -0.5
v 0 0.2 -0.5
v 0 0 -0.6
v 0 0.1 -0.6
v 0 0.2 -0.6
v 0 0 -0.7
v 0 0.1 -0.7
v -0.1 0.1 -0.3
v -0.1 0.2 -0.3
v -0.1 0.1 -0.5
v -0.1 0.2 -0.5
v -0.2 0.1 0.1
v -0.2 0.2 0.1
v -0.2 0.1 0
v -0.2 0.1 -0.3
v -0.2 0.2 -0.3
v -0.3 0.1 0.5
v -0.3 0.2 0.5
v -0.3 0.1 0.4
v -0.3 0.1 0.1
v -0.3 0.2 0.1
v -0.3 0 -0.5
v -0.3 0.1 -0.5
v -0.3 0 -0.7
v -0.3 0.1 -0.7
v -0.4 0 0.7
v -0.4 0.1 0.7
v -0.4 0 0.6
v -0.4 0.1 0.6
v -0.4 0 0.4
v -0.4 0.1 0.4
v -0.4 0 0.3
v -0.4 0.1 0.3
v -0.4 0 -0.3
v -0.4 0.1 -0.3
v -0.4 0 -0.5
v -0.4 0.1 -0.5
v -0.5 0 0.6
v -0.5 0.1 0.6
v -0.5 0 0.4
v -0.5 0.1 0.4
v -0.5 0 0.3
v -0.5 0.1 0.3
v -0.5 0 0.2
v -0.5 0.1 0.2
v -0.5 0 0.1
v -0.5 0.1 0.1
v -0.5 0 -0.3
v -0.5 0.1 -0.3
v 0.5 0 -0.4
v 0.5 0 -0.5
v 0.4 0 0
v 0.4 0 -0.2
v 0.4 0 -0.4
v 0.4 0 -0.5
v 0.3 0 0.1
v 0.3 0 0
v 0.3 0 -0.1
v 0.3 0 -0.2
v 0.3 0 -0.3
v 0.3 0 -0.4
v 0.3 0 -0.5
v 0.3 0 -0.6
v 0.2 0 0.5
v 0.2 0 0.4
v 0.2 0 0.3
v 0.2 0 0.1
v 0.2 0 0
v 0.2 0 -0.1
v 0.2 0 -0.3
v 0.2 0 -0.4
v 0.2 0 -0.5
v 0.2 0 -0.6
v 0.2 0 -0.7
v 0.1 0 0.6
v 0.1 0 0.5
v 0.1 0 0.4
v 0.1 0 0.3
v 0.1 0 0.1
v 0.1 0 0
v 0.1 0 -0.6
v 0.1 0 -0.7
v 0 0 0.6
v 0 0 0.5
v 0 0 0.4
v 0 0 0.3
v 0 0 -0.6
v 0 0 -0.7
v -0.1 0 0.4
v -0.1 0 0.3
v -0.2 0 0.7
v -0.2 0 0.5
v -0.2 0 0.1
v -0.2 0 0
v -0.2 0 -0.6
v -0.2 0 -0.7
v -0.3 0 0.5
v -0.3 0 0.4
v -0.3 0 0.1
v -0.3 0 0
v -0.3 0 -0.5
v -0.3 0 -0.7
v -0.4 0 0.7
v -0.4 0 0.6
v -0.4 0 0.5
v -0.4 0 0.4
v -0.4 0 0.3
v -0.4 0 0.2
v -0.4 0 0.1
v -0.4 0 -0.3
v -0.4 0 -0.5
v -0.5 0 0.6
v -0.5 0 0.4
v -0.5 0 0.3
v -0.5 0 0.2
v -0.5 0 0.1
v -0.5 0 -0.3
v 0.5 0.1 -0.4
v 0.5 0.1 -0.5
v 0.4 0.1 0
v 0.4 0.1 -0.2
v 0.4 0.1 -0.4
v 0.4 0.1 -0.5
v 0.3 0.1 0.1
v 0.3 0.1 0
v 0.3 0.1 -0.1
v 0.3 0.1 -0.2
v 0.3 0.1 -0.3
v 0.3 0.1 -0.4
v 0.3 0.1 -0.5
v 0.3 0.1 -0.6
v 0.2 0.1 0.5
v 0.2 0.1 0.4
v 0.2 0.1 0.3
v 0.2 0.1 0.1
v 0.2 0.1 0
v 0.2 0.1 -0.1
v 0.2 0.1 -0.3
v 0.2 0.1 -0.4
v 0.2 0.1 -0.5
v 0.2 0.1 -0.6
v 0.2 0.1 -0.7
v 0.1 0.1 0.6
v 0.1 0.1 0.5
v 0.1 0.1 0.4
v 0.1 0.1 0.3
v 0.1 0.1 0.2
v 0.1 0.1 0.1
v 0.1 0.1 0
v 0.1 0.1 -0.6
v 0.1 0.1 -0.7
v 0 0.1 0.6
v 0 0.1 0.5
v 0 0.1 0.4
v 0 0.1 0.3
v 0 0.1 0.2
v 0 0.1 -0.5
v 0 0.1 -0.6
v 0 0.1 -0.7
v -0.1 0.1 0.5
v -0.1 0.1 0.4
v -0.1 0.1 0.3
v -0.1 0.1 -0.3
v -0.1 0.1 -0.5
v -0.2 0.1 0.7
v -0.2 0.1 0.5
v -0.2 0.1 0.1
v -0.2 0.1 0
v -0.2 0.1 -0.3
v -0.2 0.1 -0.6
v -0.2 0.1 -0.7
v -0.3 0.1 0.5
v -0.3 0.1 0.4
v -0.3 0.1 0.1
v -0.3 0.1 0
v -0.3 0.1 -0.5
v -0.3 0.1 -0.7
v -0.4 0.1 0.7
v -0.4 0.1 0.6
v -0.4 0.1 0.5
v -0.4 0.1 0.4
v -0.4 0.1 0.3
v -0.4 0.1 0.2
v -0.4 0.1 0.1
v -0.4 0.1 -0.3
v -0.4 0.1 -0.5
v -0.5 0.1 0.6
v -0.5 0.1 0.4
v -0.5 0.1 0.3
v -0.5 0.1 0.2
v -0.5 0.1 0.1
v -0.5 0.1 -0.3
v 0.3 0.2 -0.1
v 0.3 0.2 -0.3
v 0.3 0.2 -0.4
v 0.3 0.2 -0.5
v 0.2 0.2 0
v 0.2 0.2 -0.1
v 0.2 0.2 -0.2
v 0.2 0.2 -0.3
v 0.2 0.2 -0.4
v 0.2 0.2 -0.5
v 0.2 0.2 -0.6
v 0.1 0.2 0.2
v 0.1 0.2 0
v 0.1 0.2 -0.1
v 0.1 0.2 -0.5
v 0.1 0.2 -0.6
v 0 0.2 0.3
v 0 0.2 0.2
v 0 0.2 0
v 0 0.2 -0.1
v 0 0.2 -0.4
v 0 0.2 -0.5
v 0 0.2 -0.6
v -0.1 0.2 0.5
v -0.1 0.2 0.3
v -0.1 0.2 -0.1
v -0.1 0.2 -0.2
v -0.1 0.2 -0.3
v -0.1 0.2 -0.5
v -0.2 0.2 0.1
v -0.2 0.2 -0.3
v -0.3 0.2 0.5
v -0.3 0.2 0.1

# faces
f 3/3/1 2/3/1 1/3/1
f 4/3/1 2/3/1 3/3/1
f 9/3/1 6/3/1 5/3/1
f 10/3/1 6/3/1 9/3/1
f 11/3/1 8/3/1 7/3/1
f 12/3/1 8/3/1 11/3/1
f 17/3/1 14/3/1 13/3/1
f 18/3/1 14/3/1 17/3/1
f 19/3/1 16/3/1 15/3/1
f 20/3/1 16/3/1 19/3/1
f 21/3/1 16/3/1 20/3/1
f 23/3/1 22/3/1 21/3/1
f 23/3/1 21/3/1 20/3/1
f 24/3/1 22/3/1 23/3/1
f 29/3/1 26/3/1 25/3/1
f 30/3/1 26/3/1 29/3/1
f 33/3/1 28/3/1 27/3/1
f 34/3/1 28/3/1 33/3/1
f 35/3/1 32/3/1 31/3/1
f 36/3/1 32/3/1 35/3/1
f 39/3/1 38/3/1 37/3/1
f 40/3/1 38/3/1 39/3/1
f 43/3/1 42/3/1 41/3/1
f 44/3/1 42/3/1 43/3/1
f 47/2/1 46/2/1 45/2/1
f 48/2/1 46/2/1 47/2/1
f 51/1/1 50/1/1 49/1/1
f 52/1/1 50/1/1 51/1/1
f 55/1/1 54/1/1 53/1/1
f 56/1/1 54/1/1 55/1/1
f 59/2/1 58/2/1 57/2/1
f 60/2/1 58/2/1 59/2/1
f 63/2/1 62/2/1 61/2/1
f 64/2/1 62/2/1 63/2/1
f 65/3/2 66/3/2 69/3/2
f 69/3/2 66/3/2 70/3/2
f 67/3/2 68/3/2 71/3/2
f 71/3/2 68/3/2 72/3/2
f 73/3/2 74/3/2 75/3/2
f 75/3/2 74/3/2 76/3/2
f 77/3/2 78/3/2 83/3/2
f 83/3/2 78/3/2 84/3/2
f 79/1/2 80/1/2 85/1/2
f 85/1/2 80/1/2 86/1/2
f 81/3/2 82/3/2 87/3/2
f 87/3/2 82/3/2 88/3/2
f 89/2/2 90/2/2 94/2/2
f 90/1/2 91/1/2 95/1/2
f 94/2/2 90/2/2 95/2/2
f 95/1/2 91/1/2 96/1/2
f 92/3/2 93/3/2 100/3/2
f 100/3/2 93/3/2 101/3/2
f 96/2/2 97/2/2 102/2/2
f 102/2/2 97/2/2 103/2/2
f 98/3/2 99/3/2 104/3/2
f 104/3/2 99/3/2 105/3/2
f 106/4/2 107/4/2 110/4/2
f 110/4/2 107/4/2 111/4/2
f 108/3/2 109/3/2 113/3/2
f 113/3/2 109/3/2 114/3/2
f 111/4/2 112/4/2 115/4/2
f 112/3/2 113/3/2 116/3/2
f 115/4/2 112/4/2 116/4/2
f 116/3/2 113/3/2 117/3/2
f 118/4/2 119/4/2 123/4/2
f 119/3/2 120/3/2 124/3/2
f 123/4/2 119/4/2 124/4/2
f 124/3/2 120/3/2 125/3/2
f 121/3/2 122/3/2 126/3/2
f 126/3/2 122/3/2 127/3/2
f 130/2/3 129/2/3 128/2/3
f 131/2/3 129/2/3 130/2/3
f 134/2/3 133/2/3 132/2/3
f 135/2/3 133/2/3 134/2/3
f 136/3/3 135/3/3 134/3/3
f 137/3/3 135/3/3 136/3/3
f 140/3/3 139/3/3 138/3/3
f 141/3/3 139/3/3 140/3/3
f 144/1/3 143/1/3 142/1/3
f 145/1/3 143/1/3 144/1/3
f 146/1/3 143/1/3 145/1/3
f 150/2/3 148/2/3 147/2/3
f 151/2/3 148/2/3 150/2/3
f 152/4/3 150/4/3 149/4/3
f 153/4/3 150/4/3 152/4/3
f 156/3/3 155/3/3 154/3/3
f 157/3/3 155/3/3 156/3/3
f 160/3/3 159/3/3 158/3/3
f 161/3/3 159/3/3 160/3/3
f 164/1/3 163/1/3 162/1/3
f 165/1/3 163/1/3 164/1/3
f 168/3/3 167/3/3 166/3/3
f 169/3/3 167/3/3 168/3/3
f 173/4/3 171/4/3 170/4/3
f 174/4/3 171/4/3 173/4/3
f 175/4/3 173/4/3 172/4/3
f 176/4/3 173/4/3 175/4/3
f 179/3/3 178/3/3 177/3/3
f 180/3/3 178/3/3 179/3/3
f 183/1/3 182/1/3 181/1/3
f 184/1/3 182/1/3 183/1/3
f 187/3/3 186/3/3 185/3/3
f 188/3/3 186/3/3 187/3/3
f 189/3/3 186/3/3 188/3/3
f 192/3/3 191/3/3 190/3/3
f 193/3/3 191/3/3 192/3/3
f 196/3/3 195/3/3 194/3/3
f 197/3/3 195/3/3 196/3/3
f 198/3/3 195/3/3 197/3/3
f 201/3/3 200/3/3 199/3/3
f 202/3/3 200/3/3 201/3/3
f 205/3/3 204/3/3 203/3/3
f 206/3/3 204/3/3 205/3/3
f 207/3/4 208/3/4 209/3/4
f 209/3/4 208/3/4 210/3/4
f 211/3/4 212/3/4 214/3/4
f 214/3/4 212/3/4 215/3/4
f 213/3/4 214/3/4 216/3/4
f 216/3/4 214/3/4 217/3/4
f 218/3/4 219/3/4 220/3/4
f 220/3/4 219/3/4 221/3/4
f 222/3/4 223/3/4 224/3/4
f 224/3/4 223/3/4 225/3/4
f 225/3/4 223/3/4 226/3/4
f 227/3/4 228/3/4 229/3/4
f 229/3/4 228/3/4 230/3/4
f 230/3/4 228/3/4 231/3/4
f 232/3/4 233/3/4 234/3/4
f 234/3/4 233/3/4 235/3/4
f 236/3/4 237/3/4 238/3/4
f 238/3/4 237/3/4 239/3/4
f 240/3/4 241/3/4 242/3/4
f 242/3/4 241/3/4 243/3/4
f 244/3/4 245/3/4 246/3/4
f 246/3/4 245/3/4 247/3/4
f 248/3/4 249/3/4 250/3/4
f 250/3/4 249/3/4 251/3/4
f 252/3/4 253/3/4 254/3/4
f 254/3/4 253/3/4 255/3/4
f 254/1/4 255/1/4 256/1/4
f 256/1/4 255/1/4 257/1/4
f 256/3/4 257/3/4 258/3/4
f 258/3/4 257/3/4 259/3/4
f 264/2/5 261/2/5 260/2/5
f 265/2/5 261/2/5 264/2/5
f 267/2/5 263/2/5 262/2/5
f 268/2/5 263/2/5 267/2/5
f 269/3/5 264/3/5 263/3/5
f 269/2/5 263/2/5 268/2/5
f 270/3/5 264/3/5 269/3/5
f 271/1/5 265/1/5 264/1/5
f 271/3/5 264/3/5 270/3/5
f 272/1/5 265/1/5 271/1/5
f 277/3/5 267/3/5 266/3/5
f 278/1/5 268/1/5 267/1/5
f 278/3/5 267/3/5 277/3/5
f 279/3/5 270/3/5 269/3/5
f 279/1/5 268/1/5 278/1/5
f 279/3/5 269/3/5 268/3/5
f 280/1/5 271/1/5 270/1/5
f 280/3/5 270/3/5 279/3/5
f 281/3/5 272/3/5 271/3/5
f 281/1/5 271/1/5 280/1/5
f 282/4/5 273/4/5 272/4/5
f 282/3/5 272/3/5 281/3/5
f 283/4/5 273/4/5 282/4/5
f 286/3/5 275/3/5 274/3/5
f 287/3/5 275/3/5 286/3/5
f 288/3/5 277/3/5 276/3/5
f 289/1/5 278/1/5 277/1/5
f 289/3/5 277/3/5 288/3/5
f 290/3/5 280/3/5 279/3/5
f 290/1/5 278/1/5 289/1/5
f 290/3/5 279/3/5 278/3/5
f 290/3/5 281/3/5 280/3/5
f 290/3/5 282/3/5 281/3/5
f 290/3/5 283/3/5 282/3/5
f 291/4/5 284/4/5 283/4/5
f 291/3/5 283/3/5 290/3/5
f 292/4/5 284/4/5 291/4/5
f 293/3/5 287/3/5 286/3/5
f 293/3/5 286/3/5 285/3/5
f 294/3/5 287/3/5 293/3/5
f 295/1/5 288/1/5 287/1/5
f 295/3/5 287/3/5 294/3/5
f 296/3/5 289/3/5 288/3/5
f 296/1/5 288/1/5 295/1/5
f 296/3/5 290/3/5 289/3/5
f 296/3/5 292/3/5 291/3/5
f 296/3/5 291/3/5 290/3/5
f 297/3/5 292/3/5 296/3/5
f 298/3/5 292/3/5 297/3/5
f 299/3/5 295/3/5 294/3/5
f 299/2/5 296/2/5 295/2/5
f 300/3/5 297/3/5 296/3/5
f 300/2/5 296/2/5 299/2/5
f 302/3/5 299/3/5 294/3/5
f 302/3/5 300/3/5 299/3/5
f 303/3/5 297/3/5 300/3/5
f 303/3/5 300/3/5 302/3/5
f 304/3/5 297/3/5 303/3/5
f 305/3/5 297/3/5 304/3/5
f 307/3/5 302/3/5 301/3/5
f 307/3/5 303/3/5 302/3/5
f 308/3/5 303/3/5 307/3/5
f 309/2/5 304/2/5 303/2/5
f 309/3/5 303/3/5 308/3/5
f 310/3/5 306/3/5 305/3/5
f 310/2/5 304/2/5 309/2/5
f 310/3/5 305/3/5 304/3/5
f 311/3/5 306/3/5 310/3/5
f 312/3/5 306/3/5 311/3/5
f 313/3/5 307/3/5 301/3/5
f 314/3/5 307/3/5 313/3/5
f 315/2/5 308/2/5 307/2/5
f 315/3/5 307/3/5 314/3/5
f 316/3/5 309/3/5 308/3/5
f 316/2/5 308/2/5 315/2/5
f 316/3/5 310/3/5 309/3/5
f 316/3/5 311/3/5 310/3/5
f 317/3/5 311/3/5 316/3/5
f 318/3/5 311/3/5 317/3/5
f 319/3/5 311/3/5 318/3/5
f 320/3/5 311/3/5 319/3/5
f 321/3/5 311/3/5 320/3/5
f 322/3/5 315/3/5 314/3/5
f 322/3/5 316/3/5 315/3/5
f 323/3/5 316/3/5 322/3/5
f 324/3/5 318/3/5 317/3/5
f 325/1/5 319/1/5 318/1/5
f 325/3/5 318/3/5 324/3/5
f 326/3/5 320/3/5 319/3/5
f 326/1/5 319/1/5 325/1/5
f 327/3/5 320/3/5 326/3/5
f 328/2/6 329/2/6 332/2/6
f 332/2/6 329/2/6 333/2/6
f 330/2/6 331/2/6 335/2/6
f 335/2/6 331/2/6 336/2/6
f 331/3/6 332/3/6 337/3/6
f 336/2/6 331/2/6 337/2/6
f 337/3/6 332/3/6 338/3/6
f 332/1/6 333/1/6 339/1/6
f 338/3/6 332/3/6 339/3/6
f 339/1/6 333/1/6 340/1/6
f 334/3/6 335/3/6 345/3/6
f 335/1/6 336/1/6 346/1/6
f 345/3/6 335/3/6 346/3/6
f 346/1/6 336/1/6 347/1/6
f 338/1/6 339/1/6 348/1/6
f 348/1/6 339/1/6 349/1/6
f 340/4/6 341/4/6 350/4/6
f 350/4/6 341/4/6 351/4/6
f 342/3/6 343/3/6 354/3/6
f 354/3/6 343/3/6 355/3/6
f 344/3/6 345/3/6 356/3/6
f 356/3/6 345/3/6 357/3/6
f 345/1/6 346/1/6 358/1/6
f 357/3/6 345/3/6 358/3/6
f 358/1/6 346/1/6 359/1/6
f 351/4/6 352/4/6 360/4/6
f 360/4/6 352/4/6 361/4/6
f 354/3/6 355/3/6 362/3/6
f 353/3/6 354/3/6 362/3/6
f 362/3/6 355/3/6 363/3/6
f 355/1/6 356/1/6 364/1/6
f 363/3/6 355/3/6 364/3/6
f 356/3/6 357/3/6 365/3/6
f 364/1/6 356/1/6 365/1/6
f 365/3/6 357/3/6 366/3/6
f 360/3/6 361/3/6 368/3/6
f 368/3/6 361/3/6 369/3/6
f 363/3/6 364/3/6 370/3/6
f 364/2/6 365/2/6 371/2/6
f 370/3/6 364/3/6 371/3/6
f 371/2/6 365/2/6 372/2/6
f 367/3/6 368/3/6 374/3/6
f 373/3/6 374/3/6 379/3/6
f 374/3/6 368/3/6 380/3/6
f 379/3/6 374/3/6 380/3/6
f 375/3/6 376/3/6 382/3/6
f 377/2/6 378/2/6 384/2/6
f 378/3/6 379/3/6 385/3/6
f 380/3/6 381/3/6 385/3/6
f 384/2/6 378/2/6 385/2/6
f 379/3/6 380/3/6 385/3/6
f 385/3/6 381/3/6 386/3/6
f 386/3/6 381/3/6 387/3/6
f 375/3/6 382/3/6 388/3/6
f 388/3/6 382/3/6 389/3/6
f 382/2/6 383/2/6 390/2/6
f 389/3/6 382/3/6 390/3/6
f 383/3/6 384/3/6 391/3/6
f 390/2/6 383/2/6 391/2/6
f 384/3/6 385/3/6 391/3/6
f 385/3/6 386/3/6 391/3/6
f 391/3/6 386/3/6 392/3/6
f 392/3/6 386/3/6 393/3/6
f 393/3/6 386/3/6 394/3/6
f 394/3/6 386/3/6 395/3/6
f 395/3/6 386/3/6 396/3/6
f 389/3/6 390/3/6 397/3/6
f 390/3/6 391/3/6 397/3/6
f 397/3/6 391/3/6 398/3/6
f 392/3/6 393/3/6 399/3/6
f 393/1/6 394/1/6 400/1/6
f 399/3/6 393/3/6 400/3/6
f 394/3/6 395/3/6 401/3/6
f 400/1/6 394/1/6 401/1/6
f 401/3/6 395/3/6 402/3/6
f 403/1/6 404/1/6 408/1/6
f 408/1/6 404/1/6 409/1/6
f 409/1/6 404/1/6 410/1/6
f 405/2/6 406/2/6 411/2/6
f 411/2/6 406/2/6 412/2/6
f 407/1/6 408/1/6 415/1/6
f 408/2/6 409/2/6 416/2/6
f 415/1/6 408/1/6 416/1/6
f 412/4/6 413/4/6 417/4/6
f 411/2/6 412/2/6 417/2/6
f 417/4/6 413/4/6 418/4/6
f 414/3/6 415/3/6 420/3/6
f 415/2/6 416/2/6 421/2/6
f 420/3/6 415/3/6 421/3/6
f 416/2/6 409/2/6 422/2/6
f 421/2/6 416/2/6 422/2/6
f 409/3/6 410/3/6 423/3/6
f 410/3/6 411/3/6 423/3/6
f 411/2/6 417/2/6 423/2/6
f 417/3/6 418/3/6 424/3/6
f 423/2/6 417/2/6 424/2/6
f 424/3/6 418/3/6 425/3/6
f 420/3/6 421/3/6 427/3/6
f 421/3/6 422/3/6 427/3/6
f 419/3/6 420/3/6 427/3/6
f 422/2/6 409/2/6 428/2/6
f 427/3/6 422/3/6 428/3/6
f 423/3/6 424/3/6 429/3/6
f 428/2/6 409/2/6 429/2/6
f 409/3/6 423/3/6 429/3/6
f 429/3/6 424/3/6 430/3/6
f 430/3/6 424/3/6 431/3/6
f 426/3/6 427/3/6 432/3/6
f 427/3/6 428/3/6 432/3/6
f 429/3/6 430/3/6 432/3/6
f 428/3/6 429/3/6 432/3/6
f 432/3/6 430/3/6 433/3/6
f 426/3/6 432/3/6 434/3/6
f 434/3/6 432/3/6 435/3/6
