# MagicaVoxel @ Ephtracy

# group
o 

# material
mtllib get-color.mtl
usemtl palette

# normals
vn 0 0 1
vn 0 0 -1
vn 1 0 0
vn -1 0 0
vn 0 -1 0
vn 0 1 0

# texcoords
vt 0.232422 0.5
vt 0.263672 0.5
vt 0.267578 0.5

# verts
v -0.3 0 0.9
v -0.5 0 0.9
v -0.3 0.1 0.9
v -0.5 0.1 0.9
v -0.1 0 0.7
v -0.3 0 0.7
v -0.1 0.1 0.7
v -0.3 0.1 0.7
v -0.4 0.1 0.7
v -0.3 0.2 0.7
v -0.4 0.2 0.7
v 0 0 0.6
v -0.1 0 0.6
v -0.5 0 0.6
v -0.6 0 0.6
v 0 0.1 0.6
v -0.1 0.1 0.6
v -0.2 0.1 0.6
v -0.3 0.1 0.6
v -0.5 0.1 0.6
v -0.6 0.1 0.6
v -0.2 0.2 0.6
v -0.3 0.2 0.6
v 0.2 0 0.5
v 0.1 0 0.5
v 0 0 0.5
v -0.6 0 0.5
v -0.7 0 0.5
v 0.2 0.1 0.5
v 0.1 0.1 0.5
v 0 0.1 0.5
v -0.1 0.1 0.5
v -0.2 0.1 0.5
v -0.6 0.1 0.5
v -0.7 0.1 0.5
v -0.1 0.2 0.5
v -0.2 0.2 0.5
v 0 0.1 0.4
v -0.1 0.1 0.4
v -0.4 0.1 0.4
v -0.5 0.1 0.4
v -0.6 0.1 0.4
v 0 0.2 0.4
v -0.1 0.2 0.4
v -0.4 0.2 0.4
v -0.6 0.2 0.4
v 0.3 0 0.3
v 0.2 0 0.3
v 0.3 0.1 0.3
v 0.2 0.1 0.3
v 0.1 0.1 0.3
v 0 0.1 0.3
v -0.1 0.1 0.3
v -0.2 0.1 0.3
v 0.1 0.2 0.3
v 0 0.2 0.3
v -0.1 0.2 0.3
v -0.2 0.2 0.3
v 0.6 0 0.2
v 0.5 0 0.2
v 0.4 0 0.2
v 0.3 0 0.2
v 0.6 0.1 0.2
v 0.5 0.1 0.2
v 0.4 0.1 0.2
v 0.3 0.1 0.2
v 0.6 0.1 0.1
v 0.5 0.1 0.1
v 0.4 0.1 0.1
v 0.3 0.1 0.1
v 0.2 0.1 0.1
v 0.1 0.1 0.1
v 0.6 0.2 0.1
v 0.5 0.2 0.1
v 0.4 0.2 0.1
v 0.3 0.2 0.1
v 0.2 0.2 0.1
v 0.1 0.2 0.1
v 0.7 0 0
v 0.6 0 0
v 0.7 0.1 0
v 0.6 0.1 0
v 0.5 0.1 0
v 0.4 0.1 0
v 0.5 0.2 0
v 0.4 0.2 0
v 0.8 0 -0.1
v 0.7 0 -0.1
v 0.8 0.1 -0.1
v 0.7 0.1 -0.1
v 0.4 0.1 -0.1
v 0.3 0.1 -0.1
v -0.2 0.1 -0.1
v -0.3 0.1 -0.1
v 0.4 0.2 -0.1
v 0.3 0.2 -0.1
v -0.2 0.2 -0.1
v -0.3 0.2 -0.1
v 0.5 0.1 -0.2
v 0.4 0.1 -0.2
v -0.1 0.1 -0.2
v -0.2 0.1 -0.2
v 0.5 0.2 -0.2
v 0.4 0.2 -0.2
v -0.1 0.2 -0.2
v -0.2 0.2 -0.2
v 0.5 0.1 -0.4
v 0.4 0.1 -0.4
v 0.5 0.2 -0.4
v 0.4 0.2 -0.4
v -0.1 0.1 0.4
v -0.2 0.1 0.4
v -0.1 0.2 0.4
v -0.2 0.2 0.4
v -0.6 0 0.2
v -0.7 0 0.2
v -0.4 0.1 0.2
v -0.6 0.1 0.2
v -0.7 0.1 0.2
v -0.4 0.2 0.2
v -0.6 0.2 0.2
v -0.5 0 0.1
v -0.6 0 0.1
v -0.2 0.1 0.1
v -0.3 0.1 0.1
v -0.5 0.1 0.1
v -0.6 0.1 0.1
v -0.2 0.2 0.1
v -0.3 0.2 0.1
v 0.6 0.1 0
v 0.5 0.1 0
v 0.4 0.1 0
v 0.3 0.1 0
v -0.3 0.1 0
v -0.4 0.1 0
v 0.6 0.2 0
v 0.5 0.2 0
v 0.4 0.2 0
v 0.3 0.2 0
v -0.3 0.2 0
v -0.4 0.2 0
v -0.4 0 -0.1
v -0.5 0 -0.1
v 0.5 0.1 -0.1
v 0.4 0.1 -0.1
v -0.1 0.1 -0.1
v -0.2 0.1 -0.1
v -0.4 0.1 -0.1
v -0.5 0.1 -0.1
v 0.5 0.2 -0.1
v 0.4 0.2 -0.1
v -0.1 0.2 -0.1
v -0.2 0.2 -0.1
v -0.3 0 -0.2
v -0.4 0 -0.2
v -0.2 0.1 -0.2
v -0.3 0.1 -0.2
v -0.4 0.1 -0.2
v -0.2 0.2 -0.2
v -0.3 0.2 -0.2
v 0.8 0 -0.3
v 0.7 0 -0.3
v -0.2 0 -0.3
v -0.3 0 -0.3
v 0.8 0.1 -0.3
v 0.7 0.1 -0.3
v 0.5 0.1 -0.3
v 0.4 0.1 -0.3
v -0.1 0.1 -0.3
v -0.2 0.1 -0.3
v -0.3 0.1 -0.3
v 0.5 0.2 -0.3
v 0.4 0.2 -0.3
v -0.1 0.2 -0.3
v -0.2 0.2 -0.3
v 0.7 0 -0.4
v 0.6 0 -0.4
v 0.7 0.1 -0.4
v 0.6 0.1 -0.4
v 0 0.1 -0.4
v -0.1 0.1 -0.4
v 0 0.2 -0.4
v -0.1 0.2 -0.4
v -0.1 0 -0.5
v -0.2 0 -0.5
v 0.4 0.1 -0.5
v 0.3 0.1 -0.5
v 0.1 0.1 -0.5
v 0 0.1 -0.5
v -0.1 0.1 -0.5
v -0.2 0.1 -0.5
v 0.4 0.2 -0.5
v 0.3 0.2 -0.5
v 0.1 0.2 -0.5
v 0 0.2 -0.5
v 0 0 -0.6
v -0.1 0 -0.6
v 0.5 0.1 -0.6
v 0.4 0.1 -0.6
v 0.2 0.1 -0.6
v 0.1 0.1 -0.6
v 0 0.1 -0.6
v -0.1 0.1 -0.6
v 0.5 0.2 -0.6
v 0.4 0.2 -0.6
v 0.2 0.2 -0.6
v 0.1 0.2 -0.6
v 0.1 0 -0.7
v 0 0 -0.7
v 0.3 0.1 -0.7
v 0.2 0.1 -0.7
v 0.1 0.1 -0.7
v 0 0.1 -0.7
v 0.3 0.2 -0.7
v 0.2 0.2 -0.7
v 0.6 0 -0.8
v 0.5 0 -0.8
v 0.3 0 -0.8
v 0.1 0 -0.8
v 0.6 0.1 -0.8
v 0.5 0.1 -0.8
v 0.3 0.1 -0.8
v 0.1 0.1 -0.8
v 0.5 0 -0.9
v 0.4 0 -0.9
v 0.3 0 -0.9
v 0.5 0.1 -0.9
v 0.4 0.1 -0.9
v 0.3 0.1 -0.9
v 0.8 0 -0.1
v 0.8 0.1 -0.1
v 0.8 0 -0.3
v 0.8 0.1 -0.3
v 0.7 0 0
v 0.7 0.1 0
v 0.7 0 -0.1
v 0.7 0.1 -0.1
v 0.7 0 -0.3
v 0.7 0.1 -0.3
v 0.7 0 -0.4
v 0.7 0.1 -0.4
v 0.6 0 0.2
v 0.6 0.1 0.2
v 0.6 0 0.1
v 0.6 0.1 0.1
v 0.6 0.2 0.1
v 0.6 0 0
v 0.6 0.1 0
v 0.6 0.2 0
v 0.6 0 -0.4
v 0.6 0.1 -0.4
v 0.6 0 -0.8
v 0.6 0.1 -0.8
v 0.5 0.1 0
v 0.5 0.2 0
v 0.5 0.1 -0.1
v 0.5 0.2 -0.1
v 0.5 0.1 -0.2
v 0.5 0.2 -0.2
v 0.5 0.1 -0.3
v 0.5 0.2 -0.3
v 0.5 0.1 -0.4
v 0.5 0.2 -0.4
v 0.5 0.1 -0.6
v 0.5 0.2 -0.6
v 0.5 0 -0.8
v 0.5 0.1 -0.8
v 0.5 0 -0.9
v 0.5 0.1 -0.9
v 0.4 0.1 0.1
v 0.4 0.2 0.1
v 0.4 0.1 0
v 0.4 0.2 0
v 0.4 0.1 -0.1
v 0.4 0.2 -0.1
v 0.4 0.1 -0.2
v 0.4 0.2 -0.2
v 0.4 0.1 -0.3
v 0.4 0.2 -0.3
v 0.4 0.1 -0.4
v 0.4 0.2 -0.4
v 0.3 0 0.3
v 0.3 0.1 0.3
v 0.3 0 0.2
v 0.3 0.1 0.2
v 0.3 0.1 0
v 0.3 0.2 0
v 0.3 0.1 -0.1
v 0.3 0.2 -0.1
v 0.3 0.1 -0.5
v 0.3 0.2 -0.5
v 0.3 0.1 -0.7
v 0.3 0.2 -0.7
v 0.2 0 0.5
v 0.2 0.1 0.5
v 0.2 0 0.3
v 0.2 0.1 0.3
v 0.1 0.1 0.3
v 0.1 0.2 0.3
v 0.1 0.1 0.1
v 0.1 0.2 0.1
v 0 0 0.6
v 0 0.1 0.6
v 0 0 0.5
v 0 0.1 0.5
v 0 0.1 0.4
v 0 0.2 0.4
v 0 0.1 0.3
v 0 0.2 0.3
v -0.1 0 0.7
v -0.1 0.1 0.7
v -0.1 0 0.6
v -0.1 0.1 0.6
v -0.1 0.1 0.5
v -0.1 0.2 0.5
v -0.1 0.1 0.4
v -0.1 0.2 0.4
v -0.2 0.1 0.6
v -0.2 0.2 0.6
v -0.2 0.1 0.5
v -0.2 0.2 0.5
v -0.2 0.1 0.4
v -0.2 0.2 0.4
v -0.2 0.1 0.3
v -0.2 0.2 0.3
v -0.2 0.1 -0.1
v -0.2 0.2 -0.1
v -0.2 0.1 -0.2
v -0.2 0.2 -0.2
v -0.3 0 0.9
v -0.3 0.1 0.9
v -0.3 0 0.7
v -0.3 0.1 0.7
v -0.3 0.2 0.7
v -0.3 0.1 0.6
v -0.3 0.2 0.6
v -0.3 0.1 0.1
v -0.3 0.2 0.1
v -0.3 0.1 0
v -0.3 0.2 0
v 0.5 0.1 0.1
v 0.5 0.2 0.1
v 0.5 0.1 0
v 0.5 0.2 0
v 0.4 0.1 0
v 0.4 0.2 0
v 0.4 0.1 -0.1
v 0.4 0.2 -0.1
v 0.4 0.1 -0.5
v 0.4 0.2 -0.5
v 0.4 0.1 -0.6
v 0.4 0.2 -0.6
v 0.3 0 -0.8
v 0.3 0.1 -0.8
v 0.3 0 -0.9
v 0.3 0.1 -0.9
v 0.2 0.1 -0.6
v 0.2 0.2 -0.6
v 0.2 0.1 -0.7
v 0.2 0.2 -0.7
v 0.1 0.1 -0.5
v 0.1 0.2 -0.5
v 0.1 0.1 -0.6
v 0.1 0.2 -0.6
v 0.1 0 -0.7
v 0.1 0.1 -0.7
v 0.1 0 -0.8
v 0.1 0.1 -0.8
v 0 0.1 -0.4
v 0 0.2 -0.4
v 0 0.1 -0.5
v 0 0.2 -0.5
v 0 0 -0.6
v 0 0.1 -0.6
v 0 0 -0.7
v 0 0.1 -0.7
v -0.1 0.1 0.4
v -0.1 0.2 0.4
v -0.1 0.1 0.3
v -0.1 0.2 0.3
v -0.1 0.1 -0.1
v -0.1 0.2 -0.1
v -0.1 0.1 -0.2
v -0.1 0.2 -0.2
v -0.1 0.1 -0.3
v -0.1 0.2 -0.3
v -0.1 0.1 -0.4
v -0.1 0.2 -0.4
v -0.1 0 -0.5
v -0.1 0.1 -0.5
v -0.1 0 -0.6
v -0.1 0.1 -0.6
v -0.2 0.1 0.1
v -0.2 0.2 0.1
v -0.2 0.1 0
v -0.2 0.1 -0.1
v -0.2 0.2 -0.1
v -0.2 0.1 -0.2
v -0.2 0.2 -0.2
v -0.2 0 -0.3
v -0.2 0.1 -0.3
v -0.2 0.2 -0.3
v -0.2 0 -0.5
v -0.2 0.1 -0.5
v -0.3 0.1 -0.1
v -0.3 0.2 -0.1
v -0.3 0 -0.2
v -0.3 0.1 -0.2
v -0.3 0.2 -0.2
v -0.3 0 -0.3
v -0.3 0.1 -0.3
v -0.4 0.1 0.7
v -0.4 0.2 0.7
v -0.4 0.1 0.6
v -0.4 0.1 0.5
v -0.4 0.1 0.4
v -0.4 0.2 0.4
v -0.4 0.1 0.2
v -0.4 0.2 0.2
v -0.4 0.1 0
v -0.4 0.2 0
v -0.4 0 -0.1
v -0.4 0.1 -0.1
v -0.4 0 -0.2
v -0.4 0.1 -0.2
v -0.5 0 0.9
v -0.5 0.1 0.9
v -0.5 0 0.8
v -0.5 0.1 0.8
v -0.5 0 0.6
v -0.5 0.1 0.6
v -0.5 0 0.1
v -0.5 0.1 0.1
v -0.5 0 -0.1
v -0.5 0.1 -0.1
v -0.6 0 0.6
v -0.6 0.1 0.6
v -0.6 0 0.5
v -0.6 0.1 0.5
v -0.6 0.1 0.4
v -0.6 0.2 0.4
v -0.6 0 0.2
v -0.6 0.1 0.2
v -0.6 0.2 0.2
v -0.6 0 0.1
v -0.6 0.1 0.1
v -0.7 0 0.5
v -0.7 0.1 0.5
v -0.7 0 0.4
v -0.7 0.1 0.4
v -0.7 0 0.2
v -0.7 0.1 0.2
v 0.8 0 -0.1
v 0.8 0 -0.3
v 0.7 0 0
v 0.7 0 -0.1
v 0.7 0 -0.3
v 0.7 0 -0.4
v 0.6 0 0.2
v 0.6 0 0.1
v 0.6 0 0
v 0.6 0 -0.1
v 0.6 0 -0.3
v 0.6 0 -0.4
v 0.6 0 -0.8
v 0.5 0 0.2
v 0.5 0 0.1
v 0.5 0 0
v 0.5 0 -0.1
v 0.5 0 -0.3
v 0.5 0 -0.7
v 0.5 0 -0.8
v 0.5 0 -0.9
v 0.4 0 0.2
v 0.4 0 0.1
v 0.4 0 0
v 0.4 0 -0.1
v 0.4 0 -0.5
v 0.4 0 -0.7
v 0.4 0 -0.8
v 0.4 0 -0.9
v 0.3 0 0.3
v 0.3 0 0.2
v 0.3 0 0.1
v 0.3 0 0
v 0.3 0 -0.1
v 0.3 0 -0.5
v 0.3 0 -0.8
v 0.3 0 -0.9
v 0.2 0 0.5
v 0.2 0 0.3
v 0.2 0 0.2
v 0.1 0 0.5
v 0.1 0 0.3
v 0.1 0 -0.5
v 0.1 0 -0.7
v 0.1 0 -0.8
v 0 0 0.6
v 0 0 0.5
v 0 0 0.4
v 0 0 -0.5
v 0 0 -0.6
v 0 0 -0.7
v -0.1 0 0.7
v -0.1 0 0.6
v -0.1 0 0.4
v -0.1 0 -0.5
v -0.1 0 -0.6
v -0.2 0 0.1
v -0.2 0 0
v -0.2 0 -0.3
v -0.2 0 -0.5
v -0.3 0 0.9
v -0.3 0 0.7
v -0.3 0 0.1
v -0.3 0 0
v -0.3 0 -0.2
v -0.3 0 -0.3
v -0.4 0 0.8
v -0.4 0 0.6
v -0.4 0 0.5
v -0.4 0 0.4
v -0.4 0 -0.1
v -0.4 0 -0.2
v -0.5 0 0.9
v -0.5 0 0.8
v -0.5 0 0.6
v -0.5 0 0.5
v -0.5 0 0.4
v -0.5 0 0.1
v -0.5 0 -0.1
v -0.6 0 0.6
v -0.6 0 0.5
v -0.6 0 0.4
v -0.6 0 0.2
v -0.6 0 0.1
v -0.7 0 0.5
v -0.7 0 0.4
v -0.7 0 0.2
v 0.8 0.1 -0.1
v 0.8 0.1 -0.3
v 0.7 0.1 0
v 0.7 0.1 -0.1
v 0.7 0.1 -0.3
v 0.7 0.1 -0.4
v 0.6 0.1 0.2
v 0.6 0.1 0.1
v 0.6 0.1 0
v 0.6 0.1 -0.1
v 0.6 0.1 -0.3
v 0.6 0.1 -0.4
v 0.6 0.1 -0.8
v 0.5 0.1 0.2
v 0.5 0.1 0.1
v 0.5 0.1 0
v 0.5 0.1 -0.1
v 0.5 0.1 -0.2
v 0.5 0.1 -0.3
v 0.5 0.1 -0.4
v 0.5 0.1 -0.6
v 0.5 0.1 -0.7
v 0.5 0.1 -0.8
v 0.5 0.1 -0.9
v 0.4 0.1 0.2
v 0.4 0.1 0.1
v 0.4 0.1 0
v 0.4 0.1 -0.1
v 0.4 0.1 -0.2
v 0.4 0.1 -0.3
v 0.4 0.1 -0.4
v 0.4 0.1 -0.5
v 0.4 0.1 -0.6
v 0.4 0.1 -0.7
v 0.4 0.1 -0.8
v 0.4 0.1 -0.9
v 0.3 0.1 0.3
v 0.3 0.1 0.2
v 0.3 0.1 0.1
v 0.3 0.1 0
v 0.3 0.1 -0.1
v 0.3 0.1 -0.5
v 0.3 0.1 -0.7
v 0.3 0.1 -0.8
v 0.3 0.1 -0.9
v 0.2 0.1 0.5
v 0.2 0.1 0.3
v 0.2 0.1 0.2
v 0.2 0.1 0.1
v 0.2 0.1 -0.6
v 0.2 0.1 -0.7
v 0.1 0.1 0.5
v 0.1 0.1 0.3
v 0.1 0.1 0.1
v 0.1 0.1 -0.5
v 0.1 0.1 -0.6
v 0.1 0.1 -0.7
v 0.1 0.1 -0.8
v 0 0.1 0.6
v 0 0.1 0.5
v 0 0.1 0.4
v 0 0.1 0.3
v 0 0.1 -0.4
v 0 0.1 -0.5
v 0 0.1 -0.6
v 0 0.1 -0.7
v -0.1 0.1 0.7
v -0.1 0.1 0.6
v -0.1 0.1 0.5
v -0.1 0.1 0.4
v -0.1 0.1 0.3
v -0.1 0.1 -0.1
v -0.1 0.1 -0.2
v -0.1 0.1 -0.3
v -0.1 0.1 -0.4
v -0.1 0.1 -0.5
v -0.1 0.1 -0.6
v -0.2 0.1 0.6
v -0.2 0.1 0.5
v -0.2 0.1 0.4
v -0.2 0.1 0.3
v -0.2 0.1 0.1
v -0.2 0.1 0
v -0.2 0.1 -0.1
v -0.2 0.1 -0.2
v -0.2 0.1 -0.3
v -0.2 0.1 -0.5
v -0.3 0.1 0.9
v -0.3 0.1 0.7
v -0.3 0.1 0.6
v -0.3 0.1 0.1
v -0.3 0.1 0
v -0.3 0.1 -0.1
v -0.3 0.1 -0.2
v -0.3 0.1 -0.3
v -0.4 0.1 0.8
v -0.4 0.1 0.7
v -0.4 0.1 0.6
v -0.4 0.1 0.5
v -0.4 0.1 0.4
v -0.4 0.1 0.2
v -0.4 0.1 0
v -0.4 0.1 -0.1
v -0.4 0.1 -0.2
v -0.5 0.1 0.9
v -0.5 0.1 0.8
v -0.5 0.1 0.6
v -0.5 0.1 0.5
v -0.5 0.1 0.4
v -0.5 0.1 0.1
v -0.5 0.1 -0.1
v -0.6 0.1 0.6
v -0.6 0.1 0.5
v -0.6 0.1 0.4
v -0.6 0.1 0.2
v -0.6 0.1 0.1
v -0.7 0.1 0.5
v -0.7 0.1 0.4
v -0.7 0.1 0.2
v 0.6 0.2 0.1
v 0.6 0.2 0
v 0.5 0.2 0.1
v 0.5 0.2 0
v 0.5 0.2 -0.1
v 0.5 0.2 -0.2
v 0.5 0.2 -0.3
v 0.5 0.2 -0.4
v 0.5 0.2 -0.6
v 0.4 0.2 0.1
v 0.4 0.2 0
v 0.4 0.2 -0.1
v 0.4 0.2 -0.2
v 0.4 0.2 -0.3
v 0.4 0.2 -0.4
v 0.4 0.2 -0.5
v 0.4 0.2 -0.6
v 0.3 0.2 0.1
v 0.3 0.2 0
v 0.3 0.2 -0.1
v 0.3 0.2 -0.5
v 0.3 0.2 -0.7
v 0.2 0.2 0.1
v 0.2 0.2 -0.1
v 0.2 0.2 -0.2
v 0.2 0.2 -0.5
v 0.2 0.2 -0.6
v 0.2 0.2 -0.7
v 0.1 0.2 0.3
v 0.1 0.2 0.1
v 0.1 0.2 -0.1
v 0.1 0.2 -0.2
v 0.1 0.2 -0.5
v 0.1 0.2 -0.6
v 0 0.2 0.4
v 0 0.2 0.3
v 0 0.2 -0.4
v 0 0.2 -0.5
v -0.1 0.2 0.5
v -0.1 0.2 0.4
v -0.1 0.2 0.3
v -0.1 0.2 -0.1
v -0.1 0.2 -0.2
v -0.1 0.2 -0.3
v -0.1 0.2 -0.4
v -0.2 0.2 0.6
v -0.2 0.2 0.5
v -0.2 0.2 0.4
v -0.2 0.2 0.3
v -0.2 0.2 0.1
v -0.2 0.2 -0.1
v -0.2 0.2 -0.2
v -0.2 0.2 -0.3
v -0.3 0.2 0.7
v -0.3 0.2 0.6
v -0.3 0.2 0.5
v -0.3 0.2 0.4
v -0.3 0.2 0.1
v -0.3 0.2 0
v -0.3 0.2 -0.1
v -0.3 0.2 -0.2
v -0.4 0.2 0.7
v -0.4 0.2 0.4
v -0.4 0.2 0.2
v -0.4 0.2 0
v -0.6 0.2 0.4
v -0.6 0.2 0.2

# faces
f 3/3/1 2/3/1 1/3/1
f 4/3/1 2/3/1 3/3/1
f 7/3/1 6/3/1 5/3/1
f 8/3/1 6/3/1 7/3/1
f 10/3/1 9/3/1 8/3/1
f 11/3/1 9/3/1 10/3/1
f 16/1/1 13/1/1 12/1/1
f 17/1/1 13/1/1 16/1/1
f 20/1/1 15/1/1 14/1/1
f 21/1/1 15/1/1 20/1/1
f 22/3/1 19/3/1 18/3/1
f 23/3/1 19/3/1 22/3/1
f 29/1/1 25/1/1 24/1/1
f 30/3/1 26/3/1 25/3/1
f 30/1/1 25/1/1 29/1/1
f 31/3/1 26/3/1 30/3/1
f 34/2/1 28/2/1 27/2/1
f 35/2/1 28/2/1 34/2/1
f 36/3/1 33/3/1 32/3/1
f 37/3/1 33/3/1 36/3/1
f 43/1/1 39/1/1 38/1/1
f 44/1/1 39/1/1 43/1/1
f 45/3/1 42/3/1 41/3/1
f 45/3/1 41/3/1 40/3/1
f 46/3/1 42/3/1 45/3/1
f 49/1/1 48/1/1 47/1/1
f 50/1/1 48/1/1 49/1/1
f 55/3/1 52/3/1 51/3/1
f 56/3/1 52/3/1 55/3/1
f 57/3/1 54/3/1 53/3/1
f 58/3/1 54/3/1 57/3/1
f 63/1/1 60/1/1 59/1/1
f 64/3/1 61/3/1 60/3/1
f 64/1/1 60/1/1 63/1/1
f 65/1/1 62/1/1 61/1/1
f 65/3/1 61/3/1 64/3/1
f 66/1/1 62/1/1 65/1/1
f 73/2/1 68/2/1 67/2/1
f 74/2/1 68/2/1 73/2/1
f 75/1/1 70/1/1 69/1/1
f 76/3/1 71/3/1 70/3/1
f 76/1/1 70/1/1 75/1/1
f 77/1/1 72/1/1 71/1/1
f 77/3/1 71/3/1 76/3/1
f 78/1/1 72/1/1 77/1/1
f 81/1/1 80/1/1 79/1/1
f 82/1/1 80/1/1 81/1/1
f 85/3/1 84/3/1 83/3/1
f 86/3/1 84/3/1 85/3/1
f 89/1/1 88/1/1 87/1/1
f 90/1/1 88/1/1 89/1/1
f 95/3/1 92/3/1 91/3/1
f 96/3/1 92/3/1 95/3/1
f 97/3/1 94/3/1 93/3/1
f 98/3/1 94/3/1 97/3/1
f 103/3/1 100/3/1 99/3/1
f 104/3/1 100/3/1 103/3/1
f 105/3/1 102/3/1 101/3/1
f 106/3/1 102/3/1 105/3/1
f 109/3/1 108/3/1 107/3/1
f 110/3/1 108/3/1 109/3/1
f 111/3/2 112/3/2 113/3/2
f 113/3/2 112/3/2 114/3/2
f 115/3/2 116/3/2 118/3/2
f 118/3/2 116/3/2 119/3/2
f 117/3/2 118/3/2 120/3/2
f 120/3/2 118/3/2 121/3/2
f 122/3/2 123/3/2 126/3/2
f 126/3/2 123/3/2 127/3/2
f 124/3/2 125/3/2 128/3/2
f 128/3/2 125/3/2 129/3/2
f 130/2/2 131/2/2 136/2/2
f 136/2/2 131/2/2 137/2/2
f 132/1/2 133/1/2 138/1/2
f 138/1/2 133/1/2 139/1/2
f 134/3/2 135/3/2 140/3/2
f 140/3/2 135/3/2 141/3/2
f 142/3/2 143/3/2 148/3/2
f 148/3/2 143/3/2 149/3/2
f 144/3/2 145/3/2 150/3/2
f 150/3/2 145/3/2 151/3/2
f 146/3/2 147/3/2 152/3/2
f 152/3/2 147/3/2 153/3/2
f 154/3/2 155/3/2 157/3/2
f 157/3/2 155/3/2 158/3/2
f 156/3/2 157/3/2 159/3/2
f 159/3/2 157/3/2 160/3/2
f 161/1/2 162/1/2 165/1/2
f 165/1/2 162/1/2 166/1/2
f 163/3/2 164/3/2 170/3/2
f 170/3/2 164/3/2 171/3/2
f 167/3/2 168/3/2 172/3/2
f 172/3/2 168/3/2 173/3/2
f 169/3/2 170/3/2 174/3/2
f 174/3/2 170/3/2 175/3/2
f 176/1/2 177/1/2 178/1/2
f 178/1/2 177/1/2 179/1/2
f 180/3/2 181/3/2 182/3/2
f 182/3/2 181/3/2 183/3/2
f 184/3/2 185/3/2 190/3/2
f 190/3/2 185/3/2 191/3/2
f 186/3/2 187/3/2 192/3/2
f 192/3/2 187/3/2 193/3/2
f 188/3/2 189/3/2 194/3/2
f 194/3/2 189/3/2 195/3/2
f 196/3/2 197/3/2 202/3/2
f 202/3/2 197/3/2 203/3/2
f 198/3/2 199/3/2 204/3/2
f 204/3/2 199/3/2 205/3/2
f 200/1/2 201/1/2 206/1/2
f 206/1/2 201/1/2 207/1/2
f 208/1/2 209/1/2 212/1/2
f 212/1/2 209/1/2 213/1/2
f 210/3/2 211/3/2 214/3/2
f 214/3/2 211/3/2 215/3/2
f 216/3/2 217/3/2 220/3/2
f 220/3/2 217/3/2 221/3/2
f 218/3/2 219/3/2 222/3/2
f 222/3/2 219/3/2 223/3/2
f 224/1/2 225/1/2 227/1/2
f 225/2/2 226/2/2 228/2/2
f 227/1/2 225/1/2 228/1/2
f 228/2/2 226/2/2 229/2/2
f 232/1/3 231/1/3 230/1/3
f 233/1/3 231/1/3 232/1/3
f 236/1/3 235/1/3 234/1/3
f 237/1/3 235/1/3 236/1/3
f 240/1/3 239/1/3 238/1/3
f 241/1/3 239/1/3 240/1/3
f 244/1/3 243/1/3 242/1/3
f 245/1/3 243/1/3 244/1/3
f 247/2/3 245/2/3 244/2/3
f 247/2/3 246/2/3 245/2/3
f 248/2/3 246/2/3 247/2/3
f 249/2/3 246/2/3 248/2/3
f 252/3/3 251/3/3 250/3/3
f 253/3/3 251/3/3 252/3/3
f 256/3/3 255/3/3 254/3/3
f 257/3/3 255/3/3 256/3/3
f 260/3/3 259/3/3 258/3/3
f 261/3/3 259/3/3 260/3/3
f 264/3/3 263/3/3 262/3/3
f 265/3/3 263/3/3 264/3/3
f 268/1/3 267/1/3 266/1/3
f 269/1/3 267/1/3 268/1/3
f 272/1/3 271/1/3 270/1/3
f 273/1/3 271/1/3 272/1/3
f 276/3/3 275/3/3 274/3/3
f 277/3/3 275/3/3 276/3/3
f 280/3/3 279/3/3 278/3/3
f 281/3/3 279/3/3 280/3/3
f 284/1/3 283/1/3 282/1/3
f 285/1/3 283/1/3 284/1/3
f 288/3/3 287/3/3 286/3/3
f 289/3/3 287/3/3 288/3/3
f 292/3/3 291/3/3 290/3/3
f 293/3/3 291/3/3 292/3/3
f 296/1/3 295/1/3 294/1/3
f 297/1/3 295/1/3 296/1/3
f 300/3/3 299/3/3 298/3/3
f 301/3/3 299/3/3 300/3/3
f 304/1/3 303/1/3 302/1/3
f 305/1/3 303/1/3 304/1/3
f 308/1/3 307/1/3 306/1/3
f 309/1/3 307/1/3 308/1/3
f 312/3/3 311/3/3 310/3/3
f 313/3/3 311/3/3 312/3/3
f 316/3/3 315/3/3 314/3/3
f 317/3/3 315/3/3 316/3/3
f 320/3/3 319/3/3 318/3/3
f 321/3/3 319/3/3 320/3/3
f 324/3/3 323/3/3 322/3/3
f 325/3/3 323/3/3 324/3/3
f 328/3/3 327/3/3 326/3/3
f 329/3/3 327/3/3 328/3/3
f 332/3/3 331/3/3 330/3/3
f 333/3/3 331/3/3 332/3/3
f 335/3/3 334/3/3 333/3/3
f 336/3/3 334/3/3 335/3/3
f 339/3/3 338/3/3 337/3/3
f 340/3/3 338/3/3 339/3/3
f 341/2/4 342/2/4 343/2/4
f 343/2/4 342/2/4 344/2/4
f 345/3/4 346/3/4 347/3/4
f 347/3/4 346/3/4 348/3/4
f 349/3/4 350/3/4 351/3/4
f 351/3/4 350/3/4 352/3/4
f 353/2/4 354/2/4 355/2/4
f 355/2/4 354/2/4 356/2/4
f 357/3/4 358/3/4 359/3/4
f 359/3/4 358/3/4 360/3/4
f 361/1/4 362/1/4 363/1/4
f 363/1/4 362/1/4 364/1/4
f 365/3/4 366/3/4 367/3/4
f 367/3/4 366/3/4 368/3/4
f 369/3/4 370/3/4 371/3/4
f 371/3/4 370/3/4 372/3/4
f 373/1/4 374/1/4 375/1/4
f 375/1/4 374/1/4 376/1/4
f 377/1/4 378/1/4 379/1/4
f 379/1/4 378/1/4 380/1/4
f 381/3/4 382/3/4 383/3/4
f 383/3/4 382/3/4 384/3/4
f 385/3/4 386/3/4 387/3/4
f 387/3/4 386/3/4 388/3/4
f 389/3/4 390/3/4 391/3/4
f 391/3/4 390/3/4 392/3/4
f 393/3/4 394/3/4 395/3/4
f 395/3/4 394/3/4 396/3/4
f 396/3/4 394/3/4 397/3/4
f 398/3/4 399/3/4 401/3/4
f 401/3/4 399/3/4 402/3/4
f 400/3/4 401/3/4 403/3/4
f 403/3/4 401/3/4 404/3/4
f 405/3/4 406/3/4 408/3/4
f 408/3/4 406/3/4 409/3/4
f 407/3/4 408/3/4 410/3/4
f 410/3/4 408/3/4 411/3/4
f 412/3/4 413/3/4 414/3/4
f 414/3/4 413/3/4 415/3/4
f 415/3/4 413/3/4 416/3/4
f 416/3/4 413/3/4 417/3/4
f 418/3/4 419/3/4 420/3/4
f 420/3/4 419/3/4 421/3/4
f 422/3/4 423/3/4 424/3/4
f 424/3/4 423/3/4 425/3/4
f 426/3/4 427/3/4 428/3/4
f 428/3/4 427/3/4 429/3/4
f 428/1/4 429/1/4 430/1/4
f 430/1/4 429/1/4 431/1/4
f 432/3/4 433/3/4 434/3/4
f 434/3/4 433/3/4 435/3/4
f 436/1/4 437/1/4 438/1/4
f 438/1/4 437/1/4 439/1/4
f 440/3/4 441/3/4 443/3/4
f 443/3/4 441/3/4 444/3/4
f 442/3/4 443/3/4 445/3/4
f 445/3/4 443/3/4 446/3/4
f 447/2/4 448/2/4 449/2/4
f 449/2/4 448/2/4 450/2/4
f 449/3/4 450/3/4 451/3/4
f 451/3/4 450/3/4 452/3/4
f 456/1/5 454/1/5 453/1/5
f 457/1/5 454/1/5 456/1/5
f 461/1/5 456/1/5 455/1/5
f 462/3/5 457/3/5 456/3/5
f 462/1/5 456/1/5 461/1/5
f 463/1/5 458/1/5 457/1/5
f 463/3/5 457/3/5 462/3/5
f 464/1/5 458/1/5 463/1/5
f 466/1/5 460/1/5 459/1/5
f 467/2/5 461/2/5 460/2/5
f 467/1/5 460/1/5 466/1/5
f 468/3/5 462/3/5 461/3/5
f 468/2/5 461/2/5 467/2/5
f 469/1/5 463/1/5 462/1/5
f 469/3/5 462/3/5 468/3/5
f 470/3/5 465/3/5 464/3/5
f 470/1/5 463/1/5 469/1/5
f 470/3/5 464/3/5 463/3/5
f 471/3/5 465/3/5 470/3/5
f 472/3/5 465/3/5 471/3/5
f 474/3/5 467/3/5 466/3/5
f 475/1/5 468/1/5 467/1/5
f 475/3/5 467/3/5 474/3/5
f 476/3/5 469/3/5 468/3/5
f 476/1/5 468/1/5 475/1/5
f 476/3/5 470/3/5 469/3/5
f 476/3/5 471/3/5 470/3/5
f 477/3/5 471/3/5 476/3/5
f 478/3/5 471/3/5 477/3/5
f 479/2/5 472/2/5 471/2/5
f 479/3/5 471/3/5 478/3/5
f 480/1/5 473/1/5 472/1/5
f 480/2/5 472/2/5 479/2/5
f 481/1/5 473/1/5 480/1/5
f 483/1/5 475/1/5 474/1/5
f 484/3/5 476/3/5 475/3/5
f 484/1/5 475/1/5 483/1/5
f 485/2/5 477/2/5 476/2/5
f 485/3/5 476/3/5 484/3/5
f 486/3/5 478/3/5 477/3/5
f 486/2/5 477/2/5 485/2/5
f 487/1/5 479/1/5 478/1/5
f 487/3/5 478/3/5 486/3/5
f 487/1/5 480/1/5 479/1/5
f 488/2/5 481/2/5 480/2/5
f 488/1/5 480/1/5 487/1/5
f 489/2/5 481/2/5 488/2/5
f 491/1/5 483/1/5 482/1/5
f 492/3/5 486/3/5 485/3/5
f 492/3/5 485/3/5 484/3/5
f 492/1/5 483/1/5 491/1/5
f 492/3/5 484/3/5 483/3/5
f 492/3/5 488/3/5 487/3/5
f 492/3/5 487/3/5 486/3/5
f 493/1/5 491/1/5 490/1/5
f 494/3/5 492/3/5 491/3/5
f 494/1/5 491/1/5 493/1/5
f 495/3/5 488/3/5 492/3/5
f 495/3/5 492/3/5 494/3/5
f 496/3/5 488/3/5 495/3/5
f 497/3/5 488/3/5 496/3/5
f 499/3/5 494/3/5 493/3/5
f 499/3/5 495/3/5 494/3/5
f 500/3/5 495/3/5 499/3/5
f 501/1/5 496/1/5 495/1/5
f 501/3/5 495/3/5 500/3/5
f 502/1/5 496/1/5 501/1/5
f 503/1/5 496/1/5 502/1/5
f 505/1/5 500/1/5 499/1/5
f 505/1/5 499/1/5 498/1/5
f 506/3/5 502/3/5 501/3/5
f 506/3/5 501/3/5 500/3/5
f 506/1/5 500/1/5 505/1/5
f 507/3/5 502/3/5 506/3/5
f 508/3/5 502/3/5 507/3/5
f 509/3/5 505/3/5 504/3/5
f 509/3/5 506/3/5 505/3/5
f 509/3/5 507/3/5 506/3/5
f 510/3/5 507/3/5 509/3/5
f 511/3/5 507/3/5 510/3/5
f 512/3/5 507/3/5 511/3/5
f 514/3/5 509/3/5 504/3/5
f 515/1/5 510/1/5 509/1/5
f 515/3/5 509/3/5 514/3/5
f 516/3/5 511/3/5 510/3/5
f 516/1/5 510/1/5 515/1/5
f 517/3/5 511/3/5 516/3/5
f 518/3/5 511/3/5 517/3/5
f 519/3/5 514/3/5 513/3/5
f 519/3/5 515/3/5 514/3/5
f 519/3/5 517/3/5 516/3/5
f 519/3/5 516/3/5 515/3/5
f 520/3/5 517/3/5 519/3/5
f 521/3/5 517/3/5 520/3/5
f 522/3/5 517/3/5 521/3/5
f 523/3/5 517/3/5 522/3/5
f 524/3/5 517/3/5 523/3/5
f 525/3/5 519/3/5 513/3/5
f 526/1/5 520/1/5 519/1/5
f 526/3/5 519/3/5 525/3/5
f 527/3/5 521/3/5 520/3/5
f 527/1/5 520/1/5 526/1/5
f 528/1/5 522/1/5 521/1/5
f 528/3/5 521/3/5 527/3/5
f 529/3/5 523/3/5 522/3/5
f 529/1/5 522/1/5 528/1/5
f 530/3/5 523/3/5 529/3/5
f 531/3/5 523/3/5 530/3/5
f 532/1/5 528/1/5 527/1/5
f 533/3/5 530/3/5 529/3/5
f 533/1/5 528/1/5 532/1/5
f 533/3/5 529/3/5 528/3/5
f 534/3/5 530/3/5 533/3/5
f 535/3/5 530/3/5 534/3/5
f 536/3/5 530/3/5 535/3/5
f 537/2/5 534/2/5 533/2/5
f 538/3/5 535/3/5 534/3/5
f 538/2/5 534/2/5 537/2/5
f 539/3/5 535/3/5 538/3/5
f 540/1/6 541/1/6 543/1/6
f 543/1/6 541/1/6 544/1/6
f 542/1/6 543/1/6 548/1/6
f 543/3/6 544/3/6 549/3/6
f 548/1/6 543/1/6 549/1/6
f 544/1/6 545/1/6 550/1/6
f 549/3/6 544/3/6 550/3/6
f 550/1/6 545/1/6 551/1/6
f 546/1/6 547/1/6 553/1/6
f 553/1/6 547/1/6 554/1/6
f 548/3/6 549/3/6 555/3/6
f 549/1/6 550/1/6 556/1/6
f 555/3/6 549/3/6 556/3/6
f 556/1/6 550/1/6 557/1/6
f 551/3/6 552/3/6 558/3/6
f 557/1/6 550/1/6 558/1/6
f 550/3/6 551/3/6 558/3/6
f 558/3/6 552/3/6 559/3/6
f 559/3/6 552/3/6 560/3/6
f 560/3/6 552/3/6 561/3/6
f 561/3/6 552/3/6 562/3/6
f 553/3/6 554/3/6 564/3/6
f 554/1/6 555/1/6 565/1/6
f 564/3/6 554/3/6 565/3/6
f 565/1/6 555/1/6 566/1/6
f 556/3/6 557/3/6 567/3/6
f 567/3/6 557/3/6 568/3/6
f 558/3/6 559/3/6 569/3/6
f 569/3/6 559/3/6 570/3/6
f 560/3/6 561/3/6 572/3/6
f 561/2/6 562/2/6 573/2/6
f 572/3/6 561/3/6 573/3/6
f 562/1/6 563/1/6 574/1/6
f 573/2/6 562/2/6 574/2/6
f 574/1/6 563/1/6 575/1/6
f 564/1/6 565/1/6 577/1/6
f 577/1/6 565/1/6 578/1/6
f 566/2/6 567/2/6 579/2/6
f 579/2/6 567/2/6 580/2/6
f 572/1/6 573/1/6 581/1/6
f 571/1/6 572/1/6 581/1/6
f 573/1/6 574/1/6 581/1/6
f 581/1/6 574/1/6 582/1/6
f 574/2/6 575/2/6 583/2/6
f 582/1/6 574/1/6 583/1/6
f 583/2/6 575/2/6 584/2/6
f 576/1/6 577/1/6 586/1/6
f 577/3/6 578/3/6 587/3/6
f 586/1/6 577/1/6 587/1/6
f 587/3/6 578/3/6 588/3/6
f 582/3/6 583/3/6 590/3/6
f 585/1/6 586/1/6 591/1/6
f 587/3/6 588/3/6 592/3/6
f 591/1/6 586/1/6 592/1/6
f 586/3/6 587/3/6 592/3/6
f 592/3/6 588/3/6 593/3/6
f 589/3/6 590/3/6 595/3/6
f 590/3/6 583/3/6 596/3/6
f 595/3/6 590/3/6 596/3/6
f 596/3/6 583/3/6 597/3/6
f 591/3/6 592/3/6 599/3/6
f 599/3/6 592/3/6 600/3/6
f 600/3/6 592/3/6 601/3/6
f 594/1/6 595/1/6 603/1/6
f 595/1/6 596/1/6 603/1/6
f 603/1/6 596/1/6 604/1/6
f 604/1/6 596/1/6 605/1/6
f 599/1/6 600/1/6 607/1/6
f 598/1/6 599/1/6 607/1/6
f 607/1/6 600/1/6 608/1/6
f 608/1/6 600/1/6 609/1/6
f 603/3/6 604/3/6 614/3/6
f 602/3/6 603/3/6 614/3/6
f 614/3/6 604/3/6 615/3/6
f 615/3/6 604/3/6 616/3/6
f 606/3/6 607/3/6 617/3/6
f 607/3/6 608/3/6 617/3/6
f 617/3/6 608/3/6 618/3/6
f 609/3/6 610/3/6 619/3/6
f 619/3/6 610/3/6 620/3/6
f 611/3/6 612/3/6 623/3/6
f 623/3/6 612/3/6 624/3/6
f 614/3/6 615/3/6 625/3/6
f 613/3/6 614/3/6 625/3/6
f 625/3/6 615/3/6 626/3/6
f 606/3/6 617/3/6 628/3/6
f 628/3/6 617/3/6 629/3/6
f 621/1/6 622/1/6 630/1/6
f 622/3/6 623/3/6 631/3/6
f 630/1/6 622/1/6 631/1/6
f 631/3/6 623/3/6 632/3/6
f 624/3/6 625/3/6 633/3/6
f 633/3/6 625/3/6 634/3/6
f 627/3/6 628/3/6 635/3/6
f 635/3/6 628/3/6 636/3/6
f 631/3/6 632/3/6 641/3/6
f 632/3/6 633/3/6 641/3/6
f 641/3/6 633/3/6 642/3/6
f 642/3/6 633/3/6 643/3/6
f 627/3/6 635/3/6 644/3/6
f 635/1/6 636/1/6 645/1/6
f 644/3/6 635/3/6 645/3/6
f 636/1/6 637/1/6 645/1/6
f 637/3/6 638/3/6 646/3/6
f 645/1/6 637/1/6 646/1/6
f 638/1/6 639/1/6 647/1/6
f 646/3/6 638/3/6 647/3/6
f 647/1/6 639/1/6 648/1/6
f 641/3/6 642/3/6 649/3/6
f 640/3/6 641/3/6 649/3/6
f 649/3/6 642/3/6 650/3/6
f 646/1/6 647/1/6 651/1/6
f 647/3/6 648/3/6 652/3/6
f 651/1/6 647/1/6 652/1/6
f 652/3/6 648/3/6 653/3/6
f 640/3/6 649/3/6 654/3/6
f 654/3/6 649/3/6 655/3/6
f 652/2/6 653/2/6 656/2/6
f 653/3/6 654/3/6 657/3/6
f 656/2/6 653/2/6 657/2/6
f 657/3/6 654/3/6 658/3/6
f 659/2/6 660/2/6 661/2/6
f 661/2/6 660/2/6 662/2/6
f 662/3/6 663/3/6 669/3/6
f 669/3/6 663/3/6 670/3/6
f 664/3/6 665/3/6 671/3/6
f 671/3/6 665/3/6 672/3/6
f 666/3/6 667/3/6 673/3/6
f 673/3/6 667/3/6 674/3/6
f 674/3/6 667/3/6 675/3/6
f 668/1/6 669/1/6 676/1/6
f 676/1/6 669/1/6 677/1/6
f 671/3/6 672/3/6 678/3/6
f 673/3/6 674/3/6 678/3/6
f 670/3/6 671/3/6 678/3/6
f 672/3/6 673/3/6 678/3/6
f 678/3/6 674/3/6 679/3/6
f 676/3/6 677/3/6 681/3/6
f 677/3/6 678/3/6 681/3/6
f 678/1/6 679/1/6 682/1/6
f 681/3/6 678/3/6 682/3/6
f 682/1/6 679/1/6 683/1/6
f 679/3/6 680/3/6 684/3/6
f 683/1/6 679/1/6 684/1/6
f 684/3/6 680/3/6 685/3/6
f 685/3/6 680/3/6 686/3/6
f 681/1/6 682/1/6 688/1/6
f 682/3/6 683/3/6 689/3/6
f 688/1/6 682/1/6 689/1/6
f 683/1/6 684/1/6 690/1/6
f 689/3/6 683/3/6 690/3/6
f 684/1/6 685/1/6 690/1/6
f 690/1/6 685/1/6 691/1/6
f 691/1/6 685/1/6 692/1/6
f 687/3/6 688/3/6 694/3/6
f 688/3/6 689/3/6 694/3/6
f 690/3/6 691/3/6 694/3/6
f 689/3/6 690/3/6 694/3/6
f 694/3/6 691/3/6 695/3/6
f 695/3/6 691/3/6 696/3/6
f 693/1/6 694/1/6 698/1/6
f 694/3/6 695/3/6 699/3/6
f 698/1/6 694/1/6 699/1/6
f 699/3/6 695/3/6 700/3/6
f 700/3/6 695/3/6 701/3/6
f 701/3/6 695/3/6 702/3/6
f 702/3/6 695/3/6 703/3/6
f 697/3/6 698/3/6 705/3/6
f 705/3/6 698/3/6 706/3/6
f 699/3/6 700/3/6 707/3/6
f 707/3/6 700/3/6 708/3/6
f 708/3/6 700/3/6 709/3/6
f 701/3/6 702/3/6 710/3/6
f 710/3/6 702/3/6 711/3/6
f 704/3/6 705/3/6 713/3/6
f 705/1/6 706/1/6 714/1/6
f 713/3/6 705/3/6 714/3/6
f 706/3/6 707/3/6 715/3/6
f 714/1/6 706/1/6 715/1/6
f 707/3/6 708/3/6 715/3/6
f 715/3/6 708/3/6 716/3/6
f 709/3/6 710/3/6 718/3/6
f 718/3/6 710/3/6 719/3/6
f 712/3/6 713/3/6 720/3/6
f 716/3/6 717/3/6 720/3/6
f 713/3/6 714/3/6 720/3/6
f 715/3/6 716/3/6 720/3/6
f 714/3/6 715/3/6 720/3/6
f 720/3/6 717/3/6 721/3/6
f 721/3/6 717/3/6 722/3/6
f 722/3/6 717/3/6 723/3/6
f 721/3/6 722/3/6 724/3/6
f 724/3/6 722/3/6 725/3/6
