# MagicaVoxel @ Ephtracy

# group
o 

# material
mtllib get-color.mtl
usemtl palette

# normals
vn 0 0 1
vn 0 0 -1
vn 1 0 0
vn -1 0 0
vn 0 -1 0
vn 0 1 0

# texcoords
vt 0.232422 0.5
vt 0.263672 0.5
vt 0.267578 0.5

# verts
v -0.2 0 0.8
v -0.3 0 0.8
v -0.4 0 0.8
v -0.2 0.1 0.8
v -0.3 0.1 0.8
v -0.4 0.1 0.8
v 0.2 0 0.7
v 5.96046e-08 0 0.7
v -0.1 0 0.7
v -0.2 0 0.7
v -0.4 0 0.7
v -0.5 0 0.7
v 0.2 0.1 0.7
v 5.96046e-08 0.1 0.7
v -0.1 0.1 0.7
v -0.2 0.1 0.7
v -0.3 0.1 0.7
v -0.4 0.1 0.7
v -0.5 0.1 0.7
v 5.96046e-08 0.2 0.7
v -0.2 0.2 0.7
v -0.3 0.2 0.7
v 0.4 0 0.6
v 0.2 0 0.6
v 0.4 0.1 0.6
v 0.2 0.1 0.6
v 0.2 0.1 0.5
v 0.1 0.1 0.5
v 5.96046e-08 0.1 0.5
v -0.3 0.1 0.5
v -0.4 0.1 0.5
v 0.2 0.2 0.5
v 0.1 0.2 0.5
v 5.96046e-08 0.2 0.5
v -0.3 0.2 0.5
v -0.4 0.2 0.5
v 0.5 0 0.4
v 0.4 0 0.4
v 0.5 0.1 0.4
v 0.4 0.1 0.4
v 0.3 0.1 0.4
v 0.2 0.1 0.4
v -0.1 0.1 0.4
v -0.2 0.1 0.4
v 0.3 0.2 0.4
v 0.2 0.2 0.4
v -0.1 0.2 0.4
v -0.2 0.2 0.4
v 0.4 0.1 0.3
v 0.3 0.1 0.3
v 0.4 0.2 0.3
v 0.3 0.2 0.3
v 0.6 0 0.2
v 0.5 0 0.2
v 0.6 0.1 0.2
v 0.5 0.1 0.2
v 0.5 0.1 0.1
v 0.4 0.1 0.1
v 0.5 0.2 0.1
v 0.4 0.2 0.1
v 0.1 0.1 -0.2
v 5.96046e-08 0.1 -0.2
v 0.1 0.2 -0.2
v 5.96046e-08 0.2 -0.2
v -0.1 0 -0.3
v -0.2 0 -0.3
v -0.1 0.1 -0.3
v -0.2 0.1 -0.3
v 5.96046e-08 0 -0.4
v -0.1 0 -0.4
v -0.2 0 -0.4
v -0.3 0 -0.4
v 5.96046e-08 0.1 -0.4
v -0.1 0.1 -0.4
v -0.2 0.1 -0.4
v -0.3 0.1 -0.4
v 0.3 0 -0.7
v 0.2 0 -0.7
v 0.3 0.1 -0.7
v 0.2 0.1 -0.7
v -0.4 0 0.6
v -0.5 0 0.6
v -0.1 0.1 0.6
v -0.2 0.1 0.6
v -0.4 0.1 0.6
v -0.5 0.1 0.6
v -0.1 0.2 0.6
v -0.2 0.2 0.6
v -0.3 0.1 0.4
v -0.4 0.1 0.4
v -0.3 0.2 0.4
v -0.4 0.2 0.4
v -0.3 0 0.3
v -0.4 0 0.3
v -0.3 0.1 0.3
v -0.4 0.1 0.3
v -0.2 0 0.2
v -0.3 0 0.2
v -0.2 0.1 0.2
v -0.3 0.1 0.2
v -0.2 0.2 0.2
v -0.3 0.2 0.2
v -0.1 0 0.1
v -0.2 0 0.1
v -0.1 0.1 0.1
v -0.2 0.1 0.1
v -0.1 0.2 0.1
v -0.2 0.2 0.1
v 5.96046e-08 0.1 0
v -0.1 0.1 0
v 5.96046e-08 0.2 0
v -0.1 0.2 0
v 0.1 0.1 -0.1
v 5.96046e-08 0.1 -0.1
v 0.1 0.2 -0.1
v 5.96046e-08 0.2 -0.1
v 5.96046e-08 0 -0.2
v -0.1 0 -0.2
v 0.5 0.1 -0.2
v 0.4 0.1 -0.2
v 5.96046e-08 0.1 -0.2
v -0.1 0.1 -0.2
v 0.5 0.2 -0.2
v 0.4 0.2 -0.2
v 0.4 0.1 -0.4
v 0.3 0.1 -0.4
v 0.4 0.2 -0.4
v 0.3 0.2 -0.4
v 0.6 0 -0.5
v 0.5 0 -0.5
v 0.6 0.1 -0.5
v 0.5 0.1 -0.5
v 0.3 0.1 -0.5
v 0.2 0.1 -0.5
v 0.3 0.2 -0.5
v 0.2 0.2 -0.5
v 0.4 0 -0.6
v 0.2 0 -0.6
v 0.4 0.1 -0.6
v 0.2 0.1 -0.6
v 0.1 0.1 -0.6
v 5.96046e-08 0.1 -0.6
v 0.1 0.2 -0.6
v 5.96046e-08 0.2 -0.6
v 0.5 0 -0.7
v 0.4 0 -0.7
v -0.2 0 -0.7
v -0.3 0 -0.7
v 0.5 0.1 -0.7
v 0.4 0.1 -0.7
v -0.2 0.1 -0.7
v -0.3 0.1 -0.7
v 0.3 0 -0.8
v 0.1 0 -0.8
v -0.1 0 -0.8
v -0.2 0 -0.8
v 0.3 0.1 -0.8
v 0.2 0.1 -0.8
v 0.1 0.1 -0.8
v -0.1 0.1 -0.8
v -0.2 0.1 -0.8
v 0.2 0.2 -0.8
v 0.1 0.2 -0.8
v 0.1 0 -0.9
v -0.1 0 -0.9
v 0.1 0.1 -0.9
v -0.1 0.1 -0.9
v 0.6 0 0.2
v 0.6 0.1 0.2
v 0.6 0 -0.4
v 0.6 0.1 -0.4
v 0.6 0 -0.5
v 0.6 0.1 -0.5
v 0.5 0 0.4
v 0.5 0.1 0.4
v 0.5 0 0.2
v 0.5 0.1 0.2
v 0.5 0.1 0.1
v 0.5 0.2 0.1
v 0.5 0.1 -0.1
v 0.5 0.2 -0.1
v 0.5 0.1 -0.2
v 0.5 0.2 -0.2
v 0.5 0 -0.5
v 0.5 0.1 -0.5
v 0.5 0 -0.7
v 0.5 0.1 -0.7
v 0.4 0 0.6
v 0.4 0.1 0.6
v 0.4 0 0.4
v 0.4 0.1 0.4
v 0.4 0.1 0.3
v 0.4 0.2 0.3
v 0.4 0.1 0.2
v 0.4 0.1 0.1
v 0.4 0.2 0.1
v 0.4 0.1 -0.2
v 0.4 0.2 -0.2
v 0.4 0.1 -0.4
v 0.4 0.2 -0.4
v 0.3 0.1 0.4
v 0.3 0.2 0.4
v 0.3 0.1 0.3
v 0.3 0.2 0.3
v 0.3 0.1 -0.4
v 0.3 0.2 -0.4
v 0.3 0.1 -0.5
v 0.3 0.2 -0.5
v 0.3 0 -0.7
v 0.3 0.1 -0.7
v 0.3 0 -0.8
v 0.3 0.1 -0.8
v 0.2 0 0.7
v 0.2 0.1 0.7
v 0.2 0 0.6
v 0.2 0.1 0.6
v 0.2 0.1 0.5
v 0.2 0.2 0.5
v 0.2 0.1 0.4
v 0.2 0.2 0.4
v 0.2 0.1 -0.5
v 0.2 0.2 -0.5
v 0.2 0 -0.6
v 0.2 0.1 -0.6
v 0.2 0.2 -0.6
v 0.2 0 -0.7
v 0.2 0.1 -0.7
v 0.2 0.1 -0.8
v 0.2 0.2 -0.8
v 0.1 0 -0.8
v 0.1 0.1 -0.8
v 0.1 0 -0.9
v 0.1 0.1 -0.9
v 5.96046e-08 0.1 0.7
v 5.96046e-08 0.2 0.7
v 5.96046e-08 0.1 0.5
v 5.96046e-08 0.2 0.5
v -0.1 0 -0.3
v -0.1 0.1 -0.3
v -0.1 0 -0.4
v -0.1 0.1 -0.4
v -0.2 0 0.8
v -0.2 0.1 0.8
v -0.2 0 0.7
v -0.2 0.1 0.7
v -0.2 0.1 0.6
v -0.2 0.2 0.6
v -0.2 0.1 0.4
v -0.2 0.2 0.4
v 0.4 0 -0.6
v 0.4 0.1 -0.6
v 0.4 0 -0.7
v 0.4 0.1 -0.7
v 0.1 0.1 -0.1
v 0.1 0.2 -0.1
v 0.1 0.1 -0.2
v 0.1 0.2 -0.2
v 0.1 0.1 -0.6
v 0.1 0.2 -0.6
v 0.1 0.1 -0.8
v 0.1 0.2 -0.8
v 5.96046e-08 0.1 0
v 5.96046e-08 0.2 0
v 5.96046e-08 0.1 -0.1
v 5.96046e-08 0.2 -0.1
v 5.96046e-08 0 -0.2
v 5.96046e-08 0.1 -0.2
v 5.96046e-08 0.2 -0.2
v 5.96046e-08 0 -0.4
v 5.96046e-08 0.1 -0.4
v 5.96046e-08 0.1 -0.5
v 5.96046e-08 0.1 -0.6
v 5.96046e-08 0.2 -0.6
v -0.1 0.1 0.6
v -0.1 0.2 0.6
v -0.1 0.1 0.5
v -0.1 0.2 0.5
v -0.1 0.1 0.4
v -0.1 0.2 0.4
v -0.1 0 0.1
v -0.1 0.1 0.1
v -0.1 0.2 0.1
v -0.1 0.1 0
v -0.1 0.2 0
v -0.1 0 -0.2
v -0.1 0.1 -0.2
v -0.1 0 -0.8
v -0.1 0.1 -0.8
v -0.1 0 -0.9
v -0.1 0.1 -0.9
v -0.2 0 0.2
v -0.2 0.1 0.2
v -0.2 0.2 0.2
v -0.2 0 0.1
v -0.2 0.1 0.1
v -0.2 0.2 0.1
v -0.2 0 -0.3
v -0.2 0.1 -0.3
v -0.2 0 -0.4
v -0.2 0.1 -0.4
v -0.2 0 -0.7
v -0.2 0.1 -0.7
v -0.2 0 -0.8
v -0.2 0.1 -0.8
v -0.3 0.1 0.7
v -0.3 0.2 0.7
v -0.3 0.1 0.6
v -0.3 0.2 0.6
v -0.3 0.1 0.5
v -0.3 0.2 0.5
v -0.3 0.1 0.4
v -0.3 0.2 0.4
v -0.3 0 0.3
v -0.3 0.1 0.3
v -0.3 0 0.2
v -0.3 0.1 0.2
v -0.3 0.2 0.2
v -0.3 0 -0.4
v -0.3 0.1 -0.4
v -0.3 0 -0.5
v -0.3 0.1 -0.5
v -0.3 0 -0.7
v -0.3 0.1 -0.7
v -0.4 0 0.8
v -0.4 0.1 0.8
v -0.4 0 0.7
v -0.4 0.1 0.7
v -0.4 0 0.6
v -0.4 0.1 0.6
v -0.4 0 0.5
v -0.4 0.1 0.5
v -0.4 0.2 0.5
v -0.4 0 0.4
v -0.4 0.1 0.4
v -0.4 0.2 0.4
v -0.4 0 0.3
v -0.4 0.1 0.3
v -0.5 0 0.7
v -0.5 0.1 0.7
v -0.5 0 0.6
v -0.5 0.1 0.6
v 0.6 0 0.2
v 0.6 0 -0.4
v 0.6 0 -0.5
v 0.5 0 0.4
v 0.5 0 0.2
v 0.5 0 0.1
v 0.5 0 -0.2
v 0.5 0 -0.4
v 0.5 0 -0.5
v 0.5 0 -0.7
v 0.4 0 0.6
v 0.4 0 0.4
v 0.4 0 0.3
v 0.4 0 0.2
v 0.4 0 0.1
v 0.4 0 -0.2
v 0.4 0 -0.4
v 0.4 0 -0.6
v 0.4 0 -0.7
v 0.3 0 0.4
v 0.3 0 0.3
v 0.3 0 -0.7
v 0.3 0 -0.8
v 0.2 0 0.7
v 0.2 0 0.6
v 0.2 0 -0.6
v 0.2 0 -0.7
v 0.1 0 -0.8
v 0.1 0 -0.9
v 5.96046e-08 0 0.7
v 5.96046e-08 0 0.6
v 5.96046e-08 0 -0.2
v 5.96046e-08 0 -0.4
v 5.96046e-08 0 -0.5
v 5.96046e-08 0 -0.6
v 5.96046e-08 0 -0.7
v 5.96046e-08 0 -0.8
v -0.1 0 0.7
v -0.1 0 0.6
v -0.1 0 0.4
v -0.1 0 0.1
v -0.1 0 -0.2
v -0.1 0 -0.3
v -0.1 0 -0.4
v -0.1 0 -0.5
v -0.1 0 -0.6
v -0.1 0 -0.7
v -0.1 0 -0.8
v -0.1 0 -0.9
v -0.2 0 0.8
v -0.2 0 0.7
v -0.2 0 0.6
v -0.2 0 0.4
v -0.2 0 0.2
v -0.2 0 0.1
v -0.2 0 -0.3
v -0.2 0 -0.4
v -0.2 0 -0.5
v -0.2 0 -0.7
v -0.2 0 -0.8
v -0.3 0 0.8
v -0.3 0 0.6
v -0.3 0 0.5
v -0.3 0 0.4
v -0.3 0 0.3
v -0.3 0 0.2
v -0.3 0 -0.4
v -0.3 0 -0.5
v -0.3 0 -0.7
v -0.4 0 0.8
v -0.4 0 0.7
v -0.4 0 0.6
v -0.4 0 0.5
v -0.4 0 0.4
v -0.4 0 0.3
v -0.5 0 0.7
v -0.5 0 0.6
v 0.6 0.1 0.2
v 0.6 0.1 -0.4
v 0.6 0.1 -0.5
v 0.5 0.1 0.4
v 0.5 0.1 0.2
v 0.5 0.1 0.1
v 0.5 0.1 -0.1
v 0.5 0.1 -0.2
v 0.5 0.1 -0.4
v 0.5 0.1 -0.5
v 0.5 0.1 -0.7
v 0.4 0.1 0.6
v 0.4 0.1 0.4
v 0.4 0.1 0.3
v 0.4 0.1 0.2
v 0.4 0.1 0.1
v 0.4 0.1 -0.2
v 0.4 0.1 -0.4
v 0.4 0.1 -0.6
v 0.4 0.1 -0.7
v 0.3 0.1 0.4
v 0.3 0.1 0.3
v 0.3 0.1 -0.4
v 0.3 0.1 -0.5
v 0.3 0.1 -0.7
v 0.3 0.1 -0.8
v 0.2 0.1 0.7
v 0.2 0.1 0.6
v 0.2 0.1 0.5
v 0.2 0.1 0.4
v 0.2 0.1 -0.5
v 0.2 0.1 -0.6
v 0.2 0.1 -0.7
v 0.2 0.1 -0.8
v 0.1 0.1 0.5
v 0.1 0.1 -0.1
v 0.1 0.1 -0.2
v 0.1 0.1 -0.6
v 0.1 0.1 -0.8
v 0.1 0.1 -0.9
v 5.96046e-08 0.1 0.7
v 5.96046e-08 0.1 0.5
v 5.96046e-08 0.1 0
v 5.96046e-08 0.1 -0.1
v 5.96046e-08 0.1 -0.2
v 5.96046e-08 0.1 -0.4
v 5.96046e-08 0.1 -0.5
v 5.96046e-08 0.1 -0.6
v 5.96046e-08 0.1 -0.7
v 5.96046e-08 0.1 -0.8
v -0.1 0.1 0.6
v -0.1 0.1 0.5
v -0.1 0.1 0.4
v -0.1 0.1 0
v -0.1 0.1 -0.2
v -0.1 0.1 -0.3
v -0.1 0.1 -0.4
v -0.1 0.1 -0.5
v -0.1 0.1 -0.6
v -0.1 0.1 -0.7
v -0.1 0.1 -0.8
v -0.1 0.1 -0.9
v -0.2 0.1 0.8
v -0.2 0.1 0.7
v -0.2 0.1 0.6
v -0.2 0.1 0.4
v -0.2 0.1 -0.3
v -0.2 0.1 -0.4
v -0.2 0.1 -0.5
v -0.2 0.1 -0.7
v -0.2 0.1 -0.8
v -0.3 0.1 0.8
v -0.3 0.1 0.7
v -0.3 0.1 0.6
v -0.3 0.1 0.5
v -0.3 0.1 0.4
v -0.3 0.1 0.3
v -0.3 0.1 -0.4
v -0.3 0.1 -0.5
v -0.3 0.1 -0.7
v -0.4 0.1 0.8
v -0.4 0.1 0.7
v -0.4 0.1 0.6
v -0.4 0.1 0.5
v -0.4 0.1 0.4
v -0.4 0.1 0.3
v -0.5 0.1 0.7
v -0.5 0.1 0.6
v 0.5 0.2 0.1
v 0.5 0.2 -0.1
v 0.5 0.2 -0.2
v 0.4 0.2 0.3
v 0.4 0.2 0.1
v 0.4 0.2 -0.1
v 0.4 0.2 -0.2
v 0.4 0.2 -0.4
v 0.3 0.2 0.4
v 0.3 0.2 0.3
v 0.3 0.2 0.2
v 0.3 0.2 -0.1
v 0.3 0.2 -0.4
v 0.3 0.2 -0.5
v 0.2 0.2 0.5
v 0.2 0.2 0.4
v 0.2 0.2 0.3
v 0.2 0.2 0.2
v 0.2 0.2 0
v 0.2 0.2 -0.1
v 0.2 0.2 -0.4
v 0.2 0.2 -0.5
v 0.2 0.2 -0.6
v 0.2 0.2 -0.8
v 0.1 0.2 0.5
v 0.1 0.2 0.3
v 0.1 0.2 0
v 0.1 0.2 -0.1
v 0.1 0.2 -0.2
v 0.1 0.2 -0.4
v 0.1 0.2 -0.5
v 0.1 0.2 -0.6
v 0.1 0.2 -0.8
v 5.96046e-08 0.2 0.7
v 5.96046e-08 0.2 0.5
v 5.96046e-08 0.2 0.4
v 5.96046e-08 0.2 0
v 5.96046e-08 0.2 -0.1
v 5.96046e-08 0.2 -0.2
v 5.96046e-08 0.2 -0.6
v -0.1 0.2 0.6
v -0.1 0.2 0.5
v -0.1 0.2 0.4
v -0.1 0.2 0.2
v -0.1 0.2 0.1
v -0.1 0.2 0
v -0.2 0.2 0.7
v -0.2 0.2 0.6
v -0.2 0.2 0.4
v -0.2 0.2 0.3
v -0.2 0.2 0.2
v -0.2 0.2 0.1
v -0.3 0.2 0.7
v -0.3 0.2 0.6
v -0.3 0.2 0.5
v -0.3 0.2 0.4
v -0.3 0.2 0.2
v -0.4 0.2 0.5
v -0.4 0.2 0.4

# faces
f 4/3/1 2/3/1 1/3/1
f 5/1/1 3/1/1 2/1/1
f 5/3/1 2/3/1 4/3/1
f 6/1/1 3/1/1 5/1/1
f 13/3/1 8/3/1 7/3/1
f 14/2/1 9/2/1 8/2/1
f 14/3/1 8/3/1 13/3/1
f 15/3/1 10/3/1 9/3/1
f 15/2/1 9/2/1 14/2/1
f 16/3/1 10/3/1 15/3/1
f 18/1/1 12/1/1 11/1/1
f 19/1/1 12/1/1 18/1/1
f 20/1/1 15/1/1 14/1/1
f 20/1/1 16/1/1 15/1/1
f 21/3/1 17/3/1 16/3/1
f 21/1/1 16/1/1 20/1/1
f 22/3/1 17/3/1 21/3/1
f 25/3/1 24/3/1 23/3/1
f 26/3/1 24/3/1 25/3/1
f 32/3/1 28/3/1 27/3/1
f 33/1/1 29/1/1 28/1/1
f 33/3/1 28/3/1 32/3/1
f 34/1/1 29/1/1 33/1/1
f 35/1/1 31/1/1 30/1/1
f 36/1/1 31/1/1 35/1/1
f 39/3/1 38/3/1 37/3/1
f 40/3/1 38/3/1 39/3/1
f 45/3/1 42/3/1 41/3/1
f 46/3/1 42/3/1 45/3/1
f 47/1/1 44/1/1 43/1/1
f 48/1/1 44/1/1 47/1/1
f 51/3/1 50/3/1 49/3/1
f 52/3/1 50/3/1 51/3/1
f 55/3/1 54/3/1 53/3/1
f 56/3/1 54/3/1 55/3/1
f 59/3/1 58/3/1 57/3/1
f 60/3/1 58/3/1 59/3/1
f 63/3/1 62/3/1 61/3/1
f 64/3/1 62/3/1 63/3/1
f 67/3/1 66/3/1 65/3/1
f 68/3/1 66/3/1 67/3/1
f 73/3/1 70/3/1 69/3/1
f 74/3/1 70/3/1 73/3/1
f 75/1/1 72/1/1 71/1/1
f 76/1/1 72/1/1 75/1/1
f 79/3/1 78/3/1 77/3/1
f 80/3/1 78/3/1 79/3/1
f 81/1/2 82/1/2 85/1/2
f 85/1/2 82/1/2 86/1/2
f 83/1/2 84/1/2 87/1/2
f 87/1/2 84/1/2 88/1/2
f 89/1/2 90/1/2 91/1/2
f 91/1/2 90/1/2 92/1/2
f 93/1/2 94/1/2 95/1/2
f 95/1/2 94/1/2 96/1/2
f 97/3/2 98/3/2 99/3/2
f 99/3/2 98/3/2 100/3/2
f 99/1/2 100/1/2 101/1/2
f 101/1/2 100/1/2 102/1/2
f 103/3/2 104/3/2 105/3/2
f 105/3/2 104/3/2 106/3/2
f 105/1/2 106/1/2 107/1/2
f 107/1/2 106/1/2 108/1/2
f 109/3/2 110/3/2 111/3/2
f 111/3/2 110/3/2 112/3/2
f 113/3/2 114/3/2 115/3/2
f 115/3/2 114/3/2 116/3/2
f 117/3/2 118/3/2 121/3/2
f 121/3/2 118/3/2 122/3/2
f 119/1/2 120/1/2 123/1/2
f 123/1/2 120/1/2 124/1/2
f 125/3/2 126/3/2 127/3/2
f 127/3/2 126/3/2 128/3/2
f 129/1/2 130/1/2 131/1/2
f 131/1/2 130/1/2 132/1/2
f 133/3/2 134/3/2 135/3/2
f 135/3/2 134/3/2 136/3/2
f 137/3/2 138/3/2 139/3/2
f 139/3/2 138/3/2 140/3/2
f 141/3/2 142/3/2 143/3/2
f 143/3/2 142/3/2 144/3/2
f 145/3/2 146/3/2 149/3/2
f 149/3/2 146/3/2 150/3/2
f 147/3/2 148/3/2 151/3/2
f 151/3/2 148/3/2 152/3/2
f 153/3/2 154/3/2 157/3/2
f 157/3/2 154/3/2 158/3/2
f 158/3/2 154/3/2 159/3/2
f 155/3/2 156/3/2 160/3/2
f 160/3/2 156/3/2 161/3/2
f 158/1/2 159/1/2 162/1/2
f 162/1/2 159/1/2 163/1/2
f 164/3/2 165/3/2 166/3/2
f 166/3/2 165/3/2 167/3/2
f 170/3/3 169/3/3 168/3/3
f 171/3/3 169/3/3 170/3/3
f 172/1/3 171/1/3 170/1/3
f 173/1/3 171/1/3 172/1/3
f 176/3/3 175/3/3 174/3/3
f 177/3/3 175/3/3 176/3/3
f 180/3/3 179/3/3 178/3/3
f 181/3/3 179/3/3 180/3/3
f 182/1/3 181/1/3 180/1/3
f 183/1/3 181/1/3 182/1/3
f 186/3/3 185/3/3 184/3/3
f 187/3/3 185/3/3 186/3/3
f 190/3/3 189/3/3 188/3/3
f 191/3/3 189/3/3 190/3/3
f 194/3/3 193/3/3 192/3/3
f 195/3/3 193/3/3 194/3/3
f 196/3/3 193/3/3 195/3/3
f 199/3/3 198/3/3 197/3/3
f 200/3/3 198/3/3 199/3/3
f 203/3/3 202/3/3 201/3/3
f 204/3/3 202/3/3 203/3/3
f 207/3/3 206/3/3 205/3/3
f 208/3/3 206/3/3 207/3/3
f 211/3/3 210/3/3 209/3/3
f 212/3/3 210/3/3 211/3/3
f 215/3/3 214/3/3 213/3/3
f 216/3/3 214/3/3 215/3/3
f 219/3/3 218/3/3 217/3/3
f 220/3/3 218/3/3 219/3/3
f 224/3/3 222/3/3 221/3/3
f 225/3/3 222/3/3 224/3/3
f 226/3/3 224/3/3 223/3/3
f 227/1/3 225/1/3 224/1/3
f 227/3/3 224/3/3 226/3/3
f 228/1/3 225/1/3 227/1/3
f 229/1/3 225/1/3 228/1/3
f 232/3/3 231/3/3 230/3/3
f 233/3/3 231/3/3 232/3/3
f 236/1/3 235/1/3 234/1/3
f 237/1/3 235/1/3 236/1/3
f 240/3/3 239/3/3 238/3/3
f 241/3/3 239/3/3 240/3/3
f 244/3/3 243/3/3 242/3/3
f 245/3/3 243/3/3 244/3/3
f 248/1/3 247/1/3 246/1/3
f 249/1/3 247/1/3 248/1/3
f 250/3/4 251/3/4 252/3/4
f 252/3/4 251/3/4 253/3/4
f 254/3/4 255/3/4 256/3/4
f 256/3/4 255/3/4 257/3/4
f 258/1/4 259/1/4 260/1/4
f 260/1/4 259/1/4 261/1/4
f 262/3/4 263/3/4 264/3/4
f 264/3/4 263/3/4 265/3/4
f 266/3/4 267/3/4 269/3/4
f 267/3/4 268/3/4 269/3/4
f 269/3/4 268/3/4 270/3/4
f 270/3/4 268/3/4 271/3/4
f 271/3/4 268/3/4 272/3/4
f 272/3/4 268/3/4 273/3/4
f 274/1/4 275/1/4 276/1/4
f 276/1/4 275/1/4 277/1/4
f 276/3/4 277/3/4 278/3/4
f 278/3/4 277/3/4 279/3/4
f 280/3/4 281/3/4 283/3/4
f 281/3/4 282/3/4 283/3/4
f 283/3/4 282/3/4 284/3/4
f 280/3/4 283/3/4 285/3/4
f 285/3/4 283/3/4 286/3/4
f 287/3/4 288/3/4 289/3/4
f 289/3/4 288/3/4 290/3/4
f 291/3/4 292/3/4 294/3/4
f 292/1/4 293/1/4 295/1/4
f 294/3/4 292/3/4 295/3/4
f 295/1/4 293/1/4 296/1/4
f 297/3/4 298/3/4 299/3/4
f 299/3/4 298/3/4 300/3/4
f 301/3/4 302/3/4 303/3/4
f 303/3/4 302/3/4 304/3/4
f 305/3/4 306/3/4 307/3/4
f 307/3/4 306/3/4 308/3/4
f 307/1/4 308/1/4 309/1/4
f 309/1/4 308/1/4 310/1/4
f 311/1/4 312/1/4 314/1/4
f 313/3/4 314/3/4 315/3/4
f 314/1/4 312/1/4 316/1/4
f 315/3/4 314/3/4 316/3/4
f 316/1/4 312/1/4 317/1/4
f 318/1/4 319/1/4 320/1/4
f 320/1/4 319/1/4 321/1/4
f 320/3/4 321/3/4 322/3/4
f 322/3/4 321/3/4 323/3/4
f 324/1/4 325/1/4 326/1/4
f 326/1/4 325/1/4 327/1/4
f 328/2/4 329/2/4 330/2/4
f 330/2/4 329/2/4 331/2/4
f 330/3/4 331/3/4 333/3/4
f 331/1/4 332/1/4 334/1/4
f 333/3/4 331/3/4 334/3/4
f 334/1/4 332/1/4 335/1/4
f 333/1/4 334/1/4 336/1/4
f 336/1/4 334/1/4 337/1/4
f 338/1/4 339/1/4 340/1/4
f 340/1/4 339/1/4 341/1/4
f 346/3/5 343/3/5 342/3/5
f 347/3/5 343/3/5 346/3/5
f 348/3/5 343/3/5 347/3/5
f 349/1/5 344/1/5 343/1/5
f 349/3/5 343/3/5 348/3/5
f 350/1/5 344/1/5 349/1/5
f 353/3/5 346/3/5 345/3/5
f 354/3/5 346/3/5 353/3/5
f 355/2/5 347/2/5 346/2/5
f 355/3/5 346/3/5 354/3/5
f 356/3/5 348/3/5 347/3/5
f 356/2/5 347/2/5 355/2/5
f 357/1/5 349/1/5 348/1/5
f 357/3/5 348/3/5 356/3/5
f 358/3/5 351/3/5 350/3/5
f 358/1/5 349/1/5 357/1/5
f 358/3/5 350/3/5 349/3/5
f 359/3/5 351/3/5 358/3/5
f 360/3/5 351/3/5 359/3/5
f 361/2/5 354/2/5 353/2/5
f 361/3/5 353/3/5 352/3/5
f 362/3/5 355/3/5 354/3/5
f 362/2/5 354/2/5 361/2/5
f 362/3/5 357/3/5 356/3/5
f 362/3/5 358/3/5 357/3/5
f 362/3/5 356/3/5 355/3/5
f 362/3/5 359/3/5 358/3/5
f 366/3/5 361/3/5 352/3/5
f 366/3/5 362/3/5 361/3/5
f 367/3/5 359/3/5 362/3/5
f 367/3/5 362/3/5 366/3/5
f 368/3/5 364/3/5 363/3/5
f 369/3/5 367/3/5 366/3/5
f 369/3/5 368/3/5 367/3/5
f 369/3/5 364/3/5 368/3/5
f 369/3/5 366/3/5 365/3/5
f 371/3/5 369/3/5 365/3/5
f 371/3/5 370/3/5 369/3/5
f 372/3/5 370/3/5 371/3/5
f 373/3/5 370/3/5 372/3/5
f 374/3/5 370/3/5 373/3/5
f 375/3/5 370/3/5 374/3/5
f 376/3/5 370/3/5 375/3/5
f 377/3/5 370/3/5 376/3/5
f 378/3/5 370/3/5 377/3/5
f 379/2/5 372/2/5 371/2/5
f 380/3/5 373/3/5 372/3/5
f 380/2/5 372/2/5 379/2/5
f 381/3/5 373/3/5 380/3/5
f 382/3/5 373/3/5 381/3/5
f 383/3/5 373/3/5 382/3/5
f 385/3/5 375/3/5 374/3/5
f 386/1/5 376/1/5 375/1/5
f 386/3/5 375/3/5 385/3/5
f 387/3/5 377/3/5 376/3/5
f 387/1/5 376/1/5 386/1/5
f 388/1/5 378/1/5 377/1/5
f 388/3/5 377/3/5 387/3/5
f 389/3/5 370/3/5 378/3/5
f 389/1/5 378/1/5 388/1/5
f 390/3/5 370/3/5 389/3/5
f 392/3/5 380/3/5 379/3/5
f 393/1/5 381/1/5 380/1/5
f 393/3/5 380/3/5 392/3/5
f 394/3/5 382/3/5 381/3/5
f 394/1/5 381/1/5 393/1/5
f 395/3/5 382/3/5 394/3/5
f 396/3/5 382/3/5 395/3/5
f 397/3/5 388/3/5 387/3/5
f 397/3/5 387/3/5 386/3/5
f 397/3/5 385/3/5 384/3/5
f 397/3/5 386/3/5 385/3/5
f 397/3/5 389/3/5 388/3/5
f 398/3/5 389/3/5 397/3/5
f 399/3/5 389/3/5 398/3/5
f 400/3/5 389/3/5 399/3/5
f 401/3/5 389/3/5 400/3/5
f 402/3/5 395/3/5 394/3/5
f 402/3/5 394/3/5 393/3/5
f 402/3/5 392/3/5 391/3/5
f 402/3/5 393/3/5 392/3/5
f 403/3/5 395/3/5 402/3/5
f 404/3/5 395/3/5 403/3/5
f 405/3/5 395/3/5 404/3/5
f 406/3/5 395/3/5 405/3/5
f 407/3/5 395/3/5 406/3/5
f 408/1/5 399/1/5 398/1/5
f 409/3/5 400/3/5 399/3/5
f 409/1/5 399/1/5 408/1/5
f 410/3/5 400/3/5 409/3/5
f 411/1/5 403/1/5 402/1/5
f 412/1/5 403/1/5 411/1/5
f 413/2/5 404/2/5 403/2/5
f 413/1/5 403/1/5 412/1/5
f 414/3/5 405/3/5 404/3/5
f 414/2/5 404/2/5 413/2/5
f 415/1/5 406/1/5 405/1/5
f 415/3/5 405/3/5 414/3/5
f 416/1/5 406/1/5 415/1/5
f 417/1/5 413/1/5 412/1/5
f 418/1/5 413/1/5 417/1/5
f 419/3/6 420/3/6 423/3/6
f 423/3/6 420/3/6 424/3/6
f 424/3/6 420/3/6 425/3/6
f 425/3/6 420/3/6 426/3/6
f 420/1/6 421/1/6 427/1/6
f 426/3/6 420/3/6 427/3/6
f 427/1/6 421/1/6 428/1/6
f 422/3/6 423/3/6 431/3/6
f 431/3/6 423/3/6 432/3/6
f 423/2/6 424/2/6 433/2/6
f 432/3/6 423/3/6 433/3/6
f 433/2/6 424/2/6 434/2/6
f 426/1/6 427/1/6 435/1/6
f 428/3/6 429/3/6 436/3/6
f 435/1/6 427/1/6 436/1/6
f 427/3/6 428/3/6 436/3/6
f 436/3/6 429/3/6 437/3/6
f 437/3/6 429/3/6 438/3/6
f 431/2/6 432/2/6 439/2/6
f 430/3/6 431/3/6 439/3/6
f 439/2/6 432/2/6 440/2/6
f 436/3/6 437/3/6 441/3/6
f 441/3/6 437/3/6 442/3/6
f 430/3/6 439/3/6 446/3/6
f 446/3/6 439/3/6 447/3/6
f 447/3/6 439/3/6 448/3/6
f 442/3/6 437/3/6 449/3/6
f 449/3/6 437/3/6 450/3/6
f 443/3/6 444/3/6 451/3/6
f 451/3/6 444/3/6 452/3/6
f 445/3/6 446/3/6 453/3/6
f 446/3/6 447/3/6 453/3/6
f 445/3/6 453/3/6 459/3/6
f 459/3/6 453/3/6 460/3/6
f 454/3/6 455/3/6 462/3/6
f 462/3/6 455/3/6 463/3/6
f 456/3/6 457/3/6 466/3/6
f 457/3/6 458/3/6 466/3/6
f 466/3/6 458/3/6 467/3/6
f 467/3/6 458/3/6 468/3/6
f 462/3/6 463/3/6 472/3/6
f 461/3/6 462/3/6 472/3/6
f 472/3/6 463/3/6 473/3/6
f 464/3/6 465/3/6 475/3/6
f 465/1/6 466/1/6 476/1/6
f 475/3/6 465/3/6 476/3/6
f 466/3/6 467/3/6 477/3/6
f 476/1/6 466/1/6 477/1/6
f 467/1/6 468/1/6 478/1/6
f 477/3/6 467/3/6 478/3/6
f 468/3/6 458/3/6 479/3/6
f 478/1/6 468/1/6 479/1/6
f 479/3/6 458/3/6 480/3/6
f 470/1/6 471/1/6 483/1/6
f 469/1/6 470/1/6 483/1/6
f 483/1/6 471/1/6 484/1/6
f 477/3/6 478/3/6 485/3/6
f 478/3/6 479/3/6 485/3/6
f 474/3/6 475/3/6 485/3/6
f 475/3/6 476/3/6 485/3/6
f 476/3/6 477/3/6 485/3/6
f 485/3/6 479/3/6 486/3/6
f 486/3/6 479/3/6 487/3/6
f 487/3/6 479/3/6 488/3/6
f 488/3/6 479/3/6 489/3/6
f 481/3/6 482/3/6 490/3/6
f 490/3/6 482/3/6 491/3/6
f 486/1/6 487/1/6 496/1/6
f 487/3/6 488/3/6 497/3/6
f 496/1/6 487/1/6 497/1/6
f 497/3/6 488/3/6 498/3/6
f 490/1/6 491/1/6 499/1/6
f 491/1/6 492/1/6 499/1/6
f 499/1/6 492/1/6 500/1/6
f 492/2/6 493/2/6 501/2/6
f 500/1/6 492/1/6 501/1/6
f 501/2/6 493/2/6 502/2/6
f 494/1/6 495/1/6 503/1/6
f 503/1/6 495/1/6 504/1/6
f 500/1/6 501/1/6 505/1/6
f 505/1/6 501/1/6 506/1/6
f 507/3/6 508/3/6 511/3/6
f 508/1/6 509/1/6 512/1/6
f 511/3/6 508/3/6 512/3/6
f 512/1/6 509/1/6 513/1/6
f 510/3/6 511/3/6 516/3/6
f 513/3/6 514/3/6 516/3/6
f 512/3/6 513/3/6 516/3/6
f 511/3/6 512/3/6 516/3/6
f 516/3/6 514/3/6 517/3/6
f 517/3/6 514/3/6 518/3/6
f 518/3/6 514/3/6 519/3/6
f 515/3/6 516/3/6 522/3/6
f 516/3/6 517/3/6 522/3/6
f 522/3/6 517/3/6 523/3/6
f 517/1/6 518/1/6 524/1/6
f 523/3/6 517/3/6 524/3/6
f 524/1/6 518/1/6 525/1/6
f 519/3/6 520/3/6 526/3/6
f 525/1/6 518/1/6 526/1/6
f 518/3/6 519/3/6 526/3/6
f 526/3/6 520/3/6 527/3/6
f 527/3/6 520/3/6 528/3/6
f 522/3/6 523/3/6 531/3/6
f 521/3/6 522/3/6 531/3/6
f 524/1/6 525/1/6 532/1/6
f 531/3/6 523/3/6 532/3/6
f 523/1/6 524/1/6 532/1/6
f 525/2/6 526/2/6 533/2/6
f 532/1/6 525/1/6 533/1/6
f 526/3/6 527/3/6 534/3/6
f 533/2/6 526/2/6 534/2/6
f 534/3/6 527/3/6 535/3/6
f 527/1/6 528/1/6 536/1/6
f 535/3/6 527/3/6 536/3/6
f 528/3/6 529/3/6 537/3/6
f 536/1/6 528/1/6 537/1/6
f 529/1/6 530/1/6 538/1/6
f 537/3/6 529/3/6 538/3/6
f 538/1/6 530/1/6 539/1/6
f 531/1/6 532/1/6 541/1/6
f 541/1/6 532/1/6 542/1/6
f 532/3/6 533/3/6 543/3/6
f 533/3/6 534/3/6 543/3/6
f 543/3/6 534/3/6 544/3/6
f 536/3/6 537/3/6 545/3/6
f 535/3/6 536/3/6 545/3/6
f 537/3/6 538/3/6 545/3/6
f 545/3/6 538/3/6 546/3/6
f 540/1/6 541/1/6 547/1/6
f 541/3/6 542/3/6 548/3/6
f 547/1/6 541/1/6 548/1/6
f 542/1/6 532/1/6 549/1/6
f 548/3/6 542/3/6 549/3/6
f 532/3/6 543/3/6 550/3/6
f 550/3/6 543/3/6 551/3/6
f 551/3/6 543/3/6 552/3/6
f 540/1/6 547/1/6 553/1/6
f 553/1/6 547/1/6 554/1/6
f 549/1/6 532/1/6 555/1/6
f 532/3/6 550/3/6 556/3/6
f 555/1/6 532/1/6 556/1/6
f 550/1/6 551/1/6 557/1/6
f 556/3/6 550/3/6 557/3/6
f 557/1/6 551/1/6 558/1/6
f 553/3/6 554/3/6 559/3/6
f 555/1/6 556/1/6 560/1/6
f 559/3/6 554/3/6 560/3/6
f 554/1/6 555/1/6 560/1/6
f 556/1/6 557/1/6 560/1/6
f 560/1/6 557/1/6 561/1/6
f 561/1/6 557/1/6 562/1/6
f 562/1/6 557/1/6 563/1/6
f 561/1/6 562/1/6 564/1/6
f 564/1/6 562/1/6 565/1/6
