# MagicaVoxel @ Ephtracy

# group
o 

# material
mtllib get-color.mtl
usemtl palette

# normals
vn -1 0 0
vn 1 0 0
vn 0 0 1
vn 0 0 -1
vn 0 -1 0
vn 0 1 0

# texcoords
vt 0.662109 0.5
vt 0.666016 0.5

# verts
v -0.5 0 0
v -0.5 0 -0.2
v -0.5 0 -0.5
v -0.5 0.1 0
v -0.5 0.1 -0.2
v -0.5 0.1 -0.5
v -0.4 0 0.1
v -0.4 0 0
v -0.4 0.1 0.1
v -0.4 0.1 0
v -0.1 0 0.2
v -0.1 0 0.1
v -0.1 0.1 0.2
v -0.1 0.1 0.1
v 0.1 0 0.3
v 0.1 0 0.2
v 0.1 0.1 0.3
v 0.1 0.1 0.2
v 0.3 0 0.4
v 0.3 0 0.3
v 0.3 0.1 0.4
v 0.3 0.1 0.3
v 0.5 0 0.4
v 0.5 0 0.2
v 0.5 0 -0.5
v 0.5 0.1 0.4
v 0.5 0.1 0.2
v 0.5 0.1 -0.5
v 0.3 0 0.4
v 0.3 0.1 0.4
v 0.5 0 0.4
v 0.5 0.1 0.4
v 0.1 0 0.3
v 0.1 0.1 0.3
v 0.3 0 0.3
v 0.3 0.1 0.3
v -0.1 0 0.2
v -0.1 0.1 0.2
v 0.1 0 0.2
v 0.1 0.1 0.2
v -0.4 0 0.1
v -0.4 0.1 0.1
v -0.1 0 0.1
v -0.1 0.1 0.1
v -0.5 0 0
v -0.5 0.1 0
v -0.4 0 0
v -0.4 0.1 0
v -0.5 0 -0.5
v -0.5 0.1 -0.5
v 0.5 0 -0.5
v 0.5 0.1 -0.5
v 0.3 0 0.4
v 0.5 0 0.4
v 0.1 0 0.3
v 0.3 0 0.3
v -0.1 0 0.2
v 0.1 0 0.2
v 0.3 0 0.2
v 0.5 0 0.2
v -0.4 0 0.1
v -0.1 0 0.1
v 0.1 0 0.1
v 0.3 0 0.1
v -0.5 0 0
v -0.4 0 0
v -0.2 0 0
v 0.1 0 0
v -0.4 0 -0.1
v -0.2 0 -0.1
v -0.5 0 -0.2
v -0.4 0 -0.2
v -0.5 0 -0.5
v 0.5 0 -0.5
v 0.3 0.1 0.4
v 0.5 0.1 0.4
v 0.1 0.1 0.3
v 0.3 0.1 0.3
v -0.1 0.1 0.2
v 0.1 0.1 0.2
v 0.3 0.1 0.2
v 0.5 0.1 0.2
v -0.4 0.1 0.1
v -0.1 0.1 0.1
v 0.1 0.1 0.1
v 0.3 0.1 0.1
v -0.5 0.1 0
v -0.4 0.1 0
v -0.2 0.1 0
v 0.1 0.1 0
v -0.4 0.1 -0.1
v -0.2 0.1 -0.1
v -0.5 0.1 -0.2
v -0.4 0.1 -0.2
v -0.5 0.1 -0.5
v 0.5 0.1 -0.5

# faces
f 4/2/1 2/2/1 1/2/1
f 5/1/1 3/1/1 2/1/1
f 5/2/1 2/2/1 4/2/1
f 6/1/1 3/1/1 5/1/1
f 9/2/1 8/2/1 7/2/1
f 10/2/1 8/2/1 9/2/1
f 13/2/1 12/2/1 11/2/1
f 14/2/1 12/2/1 13/2/1
f 17/2/1 16/2/1 15/2/1
f 18/2/1 16/2/1 17/2/1
f 21/2/1 20/2/1 19/2/1
f 22/2/1 20/2/1 21/2/1
f 23/2/2 24/2/2 26/2/2
f 24/1/2 25/1/2 27/1/2
f 26/2/2 24/2/2 27/2/2
f 27/1/2 25/1/2 28/1/2
f 31/2/3 30/2/3 29/2/3
f 32/2/3 30/2/3 31/2/3
f 35/2/3 34/2/3 33/2/3
f 36/2/3 34/2/3 35/2/3
f 39/2/3 38/2/3 37/2/3
f 40/2/3 38/2/3 39/2/3
f 43/2/3 42/2/3 41/2/3
f 44/2/3 42/2/3 43/2/3
f 47/2/3 46/2/3 45/2/3
f 48/2/3 46/2/3 47/2/3
f 49/1/4 50/1/4 51/1/4
f 51/1/4 50/1/4 52/1/4
f 56/2/5 54/2/5 53/2/5
f 58/2/5 56/2/5 55/2/5
f 59/2/5 54/2/5 56/2/5
f 59/2/5 56/2/5 58/2/5
f 60/2/5 54/2/5 59/2/5
f 62/2/5 58/2/5 57/2/5
f 62/2/5 59/2/5 58/2/5
f 63/2/5 59/2/5 62/2/5
f 64/1/5 60/1/5 59/1/5
f 64/2/5 59/2/5 63/2/5
f 66/2/5 63/2/5 62/2/5
f 66/2/5 62/2/5 61/2/5
f 67/2/5 63/2/5 66/2/5
f 68/1/5 64/1/5 63/1/5
f 68/2/5 63/2/5 67/2/5
f 69/2/5 67/2/5 66/2/5
f 69/2/5 66/2/5 65/2/5
f 70/1/5 68/1/5 67/1/5
f 70/2/5 67/2/5 69/2/5
f 71/2/5 69/2/5 65/2/5
f 72/1/5 70/1/5 69/1/5
f 72/2/5 69/2/5 71/2/5
f 73/1/5 72/1/5 71/1/5
f 74/1/5 60/1/5 64/1/5
f 74/1/5 72/1/5 73/1/5
f 74/1/5 64/1/5 68/1/5
f 74/1/5 70/1/5 72/1/5
f 74/1/5 68/1/5 70/1/5
f 75/2/6 76/2/6 78/2/6
f 77/2/6 78/2/6 80/2/6
f 78/2/6 76/2/6 81/2/6
f 80/2/6 78/2/6 81/2/6
f 81/2/6 76/2/6 82/2/6
f 79/2/6 80/2/6 84/2/6
f 80/2/6 81/2/6 84/2/6
f 84/2/6 81/2/6 85/2/6
f 81/1/6 82/1/6 86/1/6
f 85/2/6 81/2/6 86/2/6
f 84/2/6 85/2/6 88/2/6
f 83/2/6 84/2/6 88/2/6
f 88/2/6 85/2/6 89/2/6
f 85/1/6 86/1/6 90/1/6
f 89/2/6 85/2/6 90/2/6
f 88/2/6 89/2/6 91/2/6
f 87/2/6 88/2/6 91/2/6
f 89/1/6 90/1/6 92/1/6
f 91/2/6 89/2/6 92/2/6
f 87/2/6 91/2/6 93/2/6
f 91/1/6 92/1/6 94/1/6
f 93/2/6 91/2/6 94/2/6
f 93/1/6 94/1/6 95/1/6
f 86/1/6 82/1/6 96/1/6
f 95/1/6 94/1/6 96/1/6
f 90/1/6 86/1/6 96/1/6
f 94/1/6 92/1/6 96/1/6
f 92/1/6 90/1/6 96/1/6
