# MagicaVoxel @ Ephtracy

# group
o 

# material
mtllib get-color.mtl
usemtl palette

# normals
vn -1 0 0
vn 1 0 0
vn 0 0 1
vn 0 0 -1
vn 0 -1 0
vn 0 1 0

# texcoords
vt 0.662109 0.5
vt 0.666016 0.5

# verts
v -0.3 0 0.5
v -0.3 0 0.4
v -0.3 0.1 0.5
v -0.3 0.1 0.4
v -0.2 0 0.4
v -0.2 0 0.3
v -0.2 0.1 0.4
v -0.2 0.1 0.3
v -0.1 0 0.3
v -0.1 0 0.2
v -0.1 0.1 0.3
v -0.1 0.1 0.2
v 0 0 0.2
v 0 0 0.1
v 0 0.1 0.2
v 0 0.1 0.1
v 0.1 0 0.1
v 0.1 0 0
v 0.1 0.1 0.1
v 0.1 0.1 0
v 0.2 0 0
v 0.2 0 -0.1
v 0.2 0.1 0
v 0.2 0.1 -0.1
v 0.3 0 -0.1
v 0.3 0 -0.2
v 0.3 0.1 -0.1
v 0.3 0.1 -0.2
v 0.4 0 -0.2
v 0.4 0 -0.3
v 0.4 0.1 -0.2
v 0.4 0.1 -0.3
v 0.5 0 0.5
v 0.5 0 0
v 0.5 0 -0.3
v 0.5 0.1 0.5
v 0.5 0.1 0
v 0.5 0.1 -0.3
v -0.3 0 0.5
v -0.3 0.1 0.5
v 0 0 0.5
v 0 0.1 0.5
v 0.5 0 0.5
v 0.5 0.1 0.5
v -0.3 0 0.4
v -0.3 0.1 0.4
v -0.2 0 0.4
v -0.2 0.1 0.4
v -0.2 0 0.3
v -0.2 0.1 0.3
v -0.1 0 0.3
v -0.1 0.1 0.3
v -0.1 0 0.2
v -0.1 0.1 0.2
v 0 0 0.2
v 0 0.1 0.2
v 0 0 0.1
v 0 0.1 0.1
v 0.1 0 0.1
v 0.1 0.1 0.1
v 0.1 0 0
v 0.1 0.1 0
v 0.2 0 0
v 0.2 0.1 0
v 0.2 0 -0.1
v 0.2 0.1 -0.1
v 0.3 0 -0.1
v 0.3 0.1 -0.1
v 0.3 0 -0.2
v 0.3 0.1 -0.2
v 0.4 0 -0.2
v 0.4 0.1 -0.2
v 0.4 0 -0.3
v 0.4 0.1 -0.3
v 0.5 0 -0.3
v 0.5 0.1 -0.3
v -0.3 0 0.5
v 0 0 0.5
v 0.5 0 0.5
v -0.3 0 0.4
v -0.2 0 0.4
v 0 0 0.4
v 0.1 0 0.4
v -0.2 0 0.3
v -0.1 0 0.3
v 0.1 0 0.3
v 0.2 0 0.3
v -0.1 0 0.2
v 0 0 0.2
v 0.2 0 0.2
v 0.3 0 0.2
v 0 0 0.1
v 0.1 0 0.1
v 0.3 0 0.1
v 0.4 0 0.1
v 0.1 0 0
v 0.2 0 0
v 0.4 0 0
v 0.5 0 0
v 0.2 0 -0.1
v 0.3 0 -0.1
v 0.3 0 -0.2
v 0.4 0 -0.2
v 0.4 0 -0.3
v 0.5 0 -0.3
v -0.3 0.1 0.5
v 0 0.1 0.5
v 0.5 0.1 0.5
v -0.3 0.1 0.4
v -0.2 0.1 0.4
v 0 0.1 0.4
v 0.1 0.1 0.4
v -0.2 0.1 0.3
v -0.1 0.1 0.3
v 0.1 0.1 0.3
v 0.2 0.1 0.3
v -0.1 0.1 0.2
v 0 0.1 0.2
v 0.2 0.1 0.2
v 0.3 0.1 0.2
v 0 0.1 0.1
v 0.1 0.1 0.1
v 0.3 0.1 0.1
v 0.4 0.1 0.1
v 0.1 0.1 0
v 0.2 0.1 0
v 0.4 0.1 0
v 0.5 0.1 0
v 0.2 0.1 -0.1
v 0.3 0.1 -0.1
v 0.3 0.1 -0.2
v 0.4 0.1 -0.2
v 0.4 0.1 -0.3
v 0.5 0.1 -0.3

# faces
f 3/2/1 2/2/1 1/2/1
f 4/2/1 2/2/1 3/2/1
f 7/2/1 6/2/1 5/2/1
f 8/2/1 6/2/1 7/2/1
f 11/2/1 10/2/1 9/2/1
f 12/2/1 10/2/1 11/2/1
f 15/2/1 14/2/1 13/2/1
f 16/2/1 14/2/1 15/2/1
f 19/2/1 18/2/1 17/2/1
f 20/2/1 18/2/1 19/2/1
f 23/2/1 22/2/1 21/2/1
f 24/2/1 22/2/1 23/2/1
f 27/2/1 26/2/1 25/2/1
f 28/2/1 26/2/1 27/2/1
f 31/2/1 30/2/1 29/2/1
f 32/2/1 30/2/1 31/2/1
f 33/1/2 34/1/2 36/1/2
f 34/2/2 35/2/2 37/2/2
f 36/1/2 34/1/2 37/1/2
f 37/2/2 35/2/2 38/2/2
f 41/2/3 40/2/3 39/2/3
f 42/2/3 40/2/3 41/2/3
f 43/1/3 42/1/3 41/1/3
f 44/1/3 42/1/3 43/1/3
f 45/2/4 46/2/4 47/2/4
f 47/2/4 46/2/4 48/2/4
f 49/2/4 50/2/4 51/2/4
f 51/2/4 50/2/4 52/2/4
f 53/2/4 54/2/4 55/2/4
f 55/2/4 54/2/4 56/2/4
f 57/2/4 58/2/4 59/2/4
f 59/2/4 58/2/4 60/2/4
f 61/2/4 62/2/4 63/2/4
f 63/2/4 62/2/4 64/2/4
f 65/2/4 66/2/4 67/2/4
f 67/2/4 66/2/4 68/2/4
f 69/2/4 70/2/4 71/2/4
f 71/2/4 70/2/4 72/2/4
f 73/2/4 74/2/4 75/2/4
f 75/2/4 74/2/4 76/2/4
f 80/2/5 78/2/5 77/2/5
f 81/2/5 78/2/5 80/2/5
f 82/1/5 79/1/5 78/1/5
f 82/2/5 78/2/5 81/2/5
f 83/1/5 79/1/5 82/1/5
f 84/2/5 82/2/5 81/2/5
f 84/2/5 83/2/5 82/2/5
f 85/2/5 83/2/5 84/2/5
f 86/1/5 79/1/5 83/1/5
f 86/2/5 83/2/5 85/2/5
f 87/1/5 79/1/5 86/1/5
f 88/2/5 86/2/5 85/2/5
f 88/2/5 87/2/5 86/2/5
f 89/2/5 87/2/5 88/2/5
f 90/1/5 79/1/5 87/1/5
f 90/2/5 87/2/5 89/2/5
f 91/1/5 79/1/5 90/1/5
f 92/2/5 90/2/5 89/2/5
f 92/2/5 91/2/5 90/2/5
f 93/2/5 91/2/5 92/2/5
f 94/1/5 79/1/5 91/1/5
f 94/2/5 91/2/5 93/2/5
f 95/1/5 79/1/5 94/1/5
f 96/2/5 94/2/5 93/2/5
f 96/2/5 95/2/5 94/2/5
f 97/2/5 95/2/5 96/2/5
f 98/1/5 79/1/5 95/1/5
f 98/2/5 95/2/5 97/2/5
f 99/1/5 79/1/5 98/1/5
f 100/2/5 98/2/5 97/2/5
f 100/2/5 99/2/5 98/2/5
f 101/2/5 99/2/5 100/2/5
f 102/2/5 99/2/5 101/2/5
f 103/2/5 99/2/5 102/2/5
f 104/2/5 99/2/5 103/2/5
f 105/2/5 99/2/5 104/2/5
f 106/2/6 107/2/6 109/2/6
f 109/2/6 107/2/6 110/2/6
f 107/1/6 108/1/6 111/1/6
f 110/2/6 107/2/6 111/2/6
f 111/1/6 108/1/6 112/1/6
f 110/2/6 111/2/6 113/2/6
f 111/2/6 112/2/6 113/2/6
f 113/2/6 112/2/6 114/2/6
f 112/1/6 108/1/6 115/1/6
f 114/2/6 112/2/6 115/2/6
f 115/1/6 108/1/6 116/1/6
f 114/2/6 115/2/6 117/2/6
f 115/2/6 116/2/6 117/2/6
f 117/2/6 116/2/6 118/2/6
f 116/1/6 108/1/6 119/1/6
f 118/2/6 116/2/6 119/2/6
f 119/1/6 108/1/6 120/1/6
f 118/2/6 119/2/6 121/2/6
f 119/2/6 120/2/6 121/2/6
f 121/2/6 120/2/6 122/2/6
f 120/1/6 108/1/6 123/1/6
f 122/2/6 120/2/6 123/2/6
f 123/1/6 108/1/6 124/1/6
f 122/2/6 123/2/6 125/2/6
f 123/2/6 124/2/6 125/2/6
f 125/2/6 124/2/6 126/2/6
f 124/1/6 108/1/6 127/1/6
f 126/2/6 124/2/6 127/2/6
f 127/1/6 108/1/6 128/1/6
f 126/2/6 127/2/6 129/2/6
f 127/2/6 128/2/6 129/2/6
f 129/2/6 128/2/6 130/2/6
f 130/2/6 128/2/6 131/2/6
f 131/2/6 128/2/6 132/2/6
f 132/2/6 128/2/6 133/2/6
f 133/2/6 128/2/6 134/2/6
