# MagicaVoxel @ Ephtracy

# group
o 

# material
mtllib get-color.mtl
usemtl palette

# normals
vn -1 0 0
vn 1 0 0
vn 0 0 1
vn 0 0 -1
vn 0 -1 0
vn 0 1 0

# texcoords
vt 0.173828 0.5
vt 0.232422 0.5
vt 0.263672 0.5
vt 0.267578 0.5
vt 0.541016 0.5

# verts
v -0.2 0.2 0.1
v -0.2 0.2 0
v -0.2 0.3 0.1
v -0.2 0.3 0
v -0.2 0.4 0.1
v -0.2 0.4 0
v -0.1 0.1 0
v -0.1 0.1 -0.1
v -0.1 0.2 0
v -0.1 0.2 -0.1
v -0.1 0.3 0
v -0.1 0.3 -0.1
v -0.1 0.4 0.1
v -0.1 0.4 0
v -0.1 0.4 -0.1
v -0.1 0.5 0.1
v -0.1 0.5 0
v 0 0 0
v 0 0 -0.1
v 0 0.1 0.1
v 0 0.1 0
v 0 0.1 -0.1
v 0 0.1 -0.2
v 0 0.2 0.1
v 0 0.2 0
v 0 0.2 -0.1
v 0 0.2 -0.2
v 0 0.2 -0.3
v 0 0.3 0.1
v 0 0.3 0
v 0 0.3 -0.1
v 0 0.3 -0.2
v 0 0.3 -0.3
v 0 0.4 0
v 0 0.4 -0.1
v 0 0.4 -0.2
v 0 0.4 -0.3
v 0 0.5 0.1
v 0 0.5 0
v 0 0.5 -0.1
v 0 0.6 0.1
v 0 0.6 0
v 0.1 0.4 -0.1
v 0.1 0.4 -0.2
v 0.1 0.5 0
v 0.1 0.5 -0.1
v 0.1 0.5 -0.2
v 0.1 0.6 0
v 0.1 0.6 -0.1
v -0.1 0.2 0.1
v -0.1 0.2 0
v -0.1 0.3 0.1
v -0.1 0.3 0
v -0.1 0.4 0.1
v -0.1 0.4 0
v 0.1 0 0
v 0.1 0 -0.1
v 0.1 0.1 0.1
v 0.1 0.1 0
v 0.1 0.1 -0.1
v 0.1 0.1 -0.2
v 0.1 0.2 0.1
v 0.1 0.2 0
v 0.1 0.2 -0.1
v 0.1 0.2 -0.2
v 0.1 0.2 -0.3
v 0.1 0.3 -0.1
v 0.1 0.3 -0.2
v 0.1 0.3 -0.3
v 0.1 0.4 0.1
v 0.1 0.4 0
v 0.1 0.4 -0.1
v 0.1 0.4 -0.2
v 0.1 0.4 -0.3
v 0.1 0.6 0.1
v 0.1 0.6 0
v 0.2 0.2 0.1
v 0.2 0.2 0
v 0.2 0.2 -0.1
v 0.2 0.3 0.1
v 0.2 0.3 0
v 0.2 0.3 -0.1
v 0.2 0.4 0
v 0.2 0.4 -0.1
v 0.2 0.4 -0.2
v 0.2 0.5 -0.1
v 0.2 0.5 -0.2
v 0.2 0.6 0
v 0.2 0.6 -0.1
v 0.3 0.3 0
v 0.3 0.3 -0.1
v 0.3 0.4 0
v 0.3 0.4 -0.1
v -0.2 0.2 0.1
v -0.2 0.3 0.1
v -0.2 0.4 0.1
v -0.1 0.2 0.1
v -0.1 0.3 0.1
v -0.1 0.4 0.1
v -0.1 0.5 0.1
v 0 0.1 0.1
v 0 0.2 0.1
v 0 0.3 0.1
v 0 0.5 0.1
v 0 0.6 0.1
v 0.1 0.1 0.1
v 0.1 0.2 0.1
v 0.1 0.4 0.1
v 0.1 0.6 0.1
v 0.2 0.2 0.1
v 0.2 0.3 0.1
v -0.1 0.1 0
v -0.1 0.2 0
v -0.1 0.3 0
v -0.1 0.4 0
v 0 0 0
v 0 0.1 0
v 0 0.2 0
v 0 0.3 0
v 0 0.4 0
v 0.1 0 0
v 0.1 0.1 0
v 0.1 0.4 0
v 0.1 0.6 0
v 0.2 0.3 0
v 0.2 0.4 0
v 0.2 0.6 0
v 0.3 0.3 0
v 0.3 0.4 0
v -0.2 0.2 0
v -0.2 0.3 0
v -0.2 0.4 0
v -0.1 0.2 0
v -0.1 0.3 0
v -0.1 0.4 0
v -0.1 0.5 0
v 0 0.4 0
v 0 0.5 0
v 0 0.6 0
v 0.1 0.5 0
v 0.1 0.6 0
v -0.1 0.1 -0.1
v -0.1 0.2 -0.1
v -0.1 0.3 -0.1
v -0.1 0.4 -0.1
v 0 0 -0.1
v 0 0.1 -0.1
v 0 0.2 -0.1
v 0 0.3 -0.1
v 0 0.4 -0.1
v 0 0.5 -0.1
v 0.1 0 -0.1
v 0.1 0.1 -0.1
v 0.1 0.2 -0.1
v 0.1 0.3 -0.1
v 0.1 0.4 -0.1
v 0.1 0.5 -0.1
v 0.1 0.6 -0.1
v 0.2 0.2 -0.1
v 0.2 0.3 -0.1
v 0.2 0.4 -0.1
v 0.2 0.5 -0.1
v 0.2 0.6 -0.1
v 0.3 0.3 -0.1
v 0.3 0.4 -0.1
v 0 0.1 -0.2
v 0 0.2 -0.2
v 0.1 0.1 -0.2
v 0.1 0.2 -0.2
v 0.1 0.4 -0.2
v 0.1 0.5 -0.2
v 0.2 0.4 -0.2
v 0.2 0.5 -0.2
v 0 0.2 -0.3
v 0 0.3 -0.3
v 0 0.4 -0.3
v 0.1 0.2 -0.3
v 0.1 0.3 -0.3
v 0.1 0.4 -0.3
v 0 0 0
v 0.1 0 0
v 0 0 -0.1
v 0.1 0 -0.1
v 0 0.1 0.1
v 0.1 0.1 0.1
v -0.1 0.1 0
v 0 0.1 0
v 0.1 0.1 0
v -0.1 0.1 -0.1
v 0 0.1 -0.1
v 0.1 0.1 -0.1
v 0 0.1 -0.2
v 0.1 0.1 -0.2
v -0.2 0.2 0.1
v -0.1 0.2 0.1
v 0.1 0.2 0.1
v 0.2 0.2 0.1
v -0.2 0.2 0
v -0.1 0.2 0
v 0.1 0.2 0
v 0.2 0.2 0
v 0.1 0.2 -0.1
v 0.2 0.2 -0.1
v 0 0.2 -0.2
v 0.1 0.2 -0.2
v 0 0.2 -0.3
v 0.1 0.2 -0.3
v 0.2 0.3 0
v 0.3 0.3 0
v 0.2 0.3 -0.1
v 0.3 0.3 -0.1
v -0.1 0.4 0.1
v 0.1 0.4 0.1
v -0.1 0.4 0
v 0 0.4 0
v 0.1 0.4 0
v 0.1 0.4 -0.1
v 0.2 0.4 -0.1
v 0.1 0.4 -0.2
v 0.2 0.4 -0.2
v 0 0.3 0.1
v 0.2 0.3 0.1
v 0 0.3 0
v 0.2 0.3 0
v -0.2 0.4 0.1
v -0.1 0.4 0.1
v -0.2 0.4 0
v -0.1 0.4 0
v 0 0.4 0
v 0.2 0.4 0
v 0.3 0.4 0
v -0.1 0.4 -0.1
v 0 0.4 -0.1
v 0.1 0.4 -0.1
v 0.2 0.4 -0.1
v 0.3 0.4 -0.1
v 0 0.4 -0.2
v 0.1 0.4 -0.2
v 0 0.4 -0.3
v 0.1 0.4 -0.3
v -0.1 0.5 0.1
v 0 0.5 0.1
v -0.1 0.5 0
v 0 0.5 0
v 0.1 0.5 0
v 0 0.5 -0.1
v 0.1 0.5 -0.1
v 0.2 0.5 -0.1
v 0.1 0.5 -0.2
v 0.2 0.5 -0.2
v 0 0.6 0.1
v 0.1 0.6 0.1
v 0 0.6 0
v 0.1 0.6 0
v 0.2 0.6 0
v 0.1 0.6 -0.1
v 0.2 0.6 -0.1

# faces
f 3/2/1 2/2/1 1/2/1
f 4/2/1 2/2/1 3/2/1
f 5/3/1 4/3/1 3/3/1
f 6/3/1 4/3/1 5/3/1
f 9/4/1 8/4/1 7/4/1
f 10/4/1 8/4/1 9/4/1
f 11/3/1 10/3/1 9/3/1
f 12/3/1 10/3/1 11/3/1
f 14/5/1 12/5/1 11/5/1
f 15/5/1 12/5/1 14/5/1
f 16/5/1 14/5/1 13/5/1
f 17/5/1 14/5/1 16/5/1
f 21/3/1 19/3/1 18/3/1
f 22/3/1 19/3/1 21/3/1
f 24/4/1 21/4/1 20/4/1
f 25/4/1 21/4/1 24/4/1
f 26/3/1 23/3/1 22/3/1
f 27/3/1 23/3/1 26/3/1
f 29/2/1 25/2/1 24/2/1
f 30/2/1 25/2/1 29/2/1
f 31/4/1 27/4/1 26/4/1
f 32/3/1 28/3/1 27/3/1
f 32/4/1 27/4/1 31/4/1
f 33/3/1 28/3/1 32/3/1
f 35/5/1 32/5/1 31/5/1
f 36/2/1 33/2/1 32/2/1
f 36/5/1 32/5/1 35/5/1
f 37/2/1 33/2/1 36/2/1
f 39/1/1 35/1/1 34/1/1
f 40/1/1 35/1/1 39/1/1
f 41/5/1 39/5/1 38/5/1
f 42/5/1 39/5/1 41/5/1
f 46/5/1 44/5/1 43/5/1
f 47/5/1 44/5/1 46/5/1
f 48/5/1 46/5/1 45/5/1
f 49/5/1 46/5/1 48/5/1
f 50/2/2 51/2/2 52/2/2
f 52/2/2 51/2/2 53/2/2
f 52/3/2 53/3/2 54/3/2
f 54/3/2 53/3/2 55/3/2
f 56/3/2 57/3/2 59/3/2
f 59/3/2 57/3/2 60/3/2
f 58/4/2 59/4/2 62/4/2
f 59/4/2 60/4/2 62/4/2
f 62/4/2 60/4/2 63/4/2
f 60/3/2 61/3/2 64/3/2
f 63/4/2 60/4/2 64/4/2
f 64/3/2 61/3/2 65/3/2
f 64/4/2 65/4/2 67/4/2
f 65/3/2 66/3/2 68/3/2
f 67/4/2 65/4/2 68/4/2
f 68/3/2 66/3/2 69/3/2
f 67/5/2 68/5/2 72/5/2
f 68/2/2 69/2/2 73/2/2
f 72/5/2 68/5/2 73/5/2
f 73/2/2 69/2/2 74/2/2
f 70/5/2 71/5/2 75/5/2
f 75/5/2 71/5/2 76/5/2
f 77/2/2 78/2/2 80/2/2
f 78/3/2 79/3/2 81/3/2
f 80/2/2 78/2/2 81/2/2
f 81/3/2 79/3/2 82/3/2
f 83/5/2 84/5/2 86/5/2
f 84/5/2 85/5/2 86/5/2
f 86/5/2 85/5/2 87/5/2
f 83/5/2 86/5/2 88/5/2
f 88/5/2 86/5/2 89/5/2
f 90/2/2 91/2/2 92/2/2
f 92/2/2 91/2/2 93/2/2
f 97/2/3 95/2/3 94/2/3
f 98/3/3 96/3/3 95/3/3
f 98/2/3 95/2/3 97/2/3
f 99/3/3 96/3/3 98/3/3
f 104/5/3 100/5/3 99/5/3
f 106/4/3 102/4/3 101/4/3
f 107/2/3 103/2/3 102/2/3
f 107/4/3 102/4/3 106/4/3
f 108/5/3 105/5/3 104/5/3
f 108/5/3 104/5/3 99/5/3
f 109/5/3 105/5/3 108/5/3
f 110/2/3 103/2/3 107/2/3
f 111/2/3 103/2/3 110/2/3
f 117/4/3 113/4/3 112/4/3
f 118/3/3 114/3/3 113/3/3
f 118/4/3 113/4/3 117/4/3
f 119/5/3 115/5/3 114/5/3
f 119/3/3 114/3/3 118/3/3
f 120/5/3 115/5/3 119/5/3
f 121/3/3 117/3/3 116/3/3
f 122/3/3 117/3/3 121/3/3
f 123/4/3 120/4/3 119/4/3
f 125/4/3 123/4/3 119/4/3
f 126/5/3 124/5/3 123/5/3
f 126/4/3 123/4/3 125/4/3
f 127/5/3 124/5/3 126/5/3
f 128/2/3 126/2/3 125/2/3
f 129/2/3 126/2/3 128/2/3
f 130/2/4 131/2/4 133/2/4
f 131/3/4 132/3/4 134/3/4
f 133/2/4 131/2/4 134/2/4
f 134/3/4 132/3/4 135/3/4
f 135/5/4 136/5/4 137/5/4
f 137/5/4 136/5/4 138/5/4
f 138/5/4 139/5/4 140/5/4
f 140/5/4 139/5/4 141/5/4
f 142/4/4 143/4/4 147/4/4
f 143/3/4 144/3/4 148/3/4
f 147/4/4 143/4/4 148/4/4
f 144/5/4 145/5/4 149/5/4
f 148/3/4 144/3/4 149/3/4
f 149/5/4 145/5/4 150/5/4
f 146/3/4 147/3/4 152/3/4
f 152/3/4 147/3/4 153/3/4
f 150/1/4 151/1/4 156/1/4
f 156/1/4 151/1/4 157/1/4
f 154/3/4 155/3/4 159/3/4
f 155/4/4 156/4/4 160/4/4
f 159/3/4 155/3/4 160/3/4
f 160/4/4 156/4/4 161/4/4
f 157/5/4 158/5/4 162/5/4
f 162/5/4 158/5/4 163/5/4
f 160/2/4 161/2/4 164/2/4
f 164/2/4 161/2/4 165/2/4
f 166/3/4 167/3/4 168/3/4
f 168/3/4 167/3/4 169/3/4
f 170/5/4 171/5/4 172/5/4
f 172/5/4 171/5/4 173/5/4
f 174/3/4 175/3/4 177/3/4
f 175/2/4 176/2/4 178/2/4
f 177/3/4 175/3/4 178/3/4
f 178/2/4 176/2/4 179/2/4
f 182/3/5 181/3/5 180/3/5
f 183/3/5 181/3/5 182/3/5
f 187/4/5 185/4/5 184/4/5
f 188/4/5 185/4/5 187/4/5
f 189/4/5 187/4/5 186/4/5
f 190/4/5 187/4/5 189/4/5
f 192/3/5 191/3/5 190/3/5
f 193/3/5 191/3/5 192/3/5
f 198/2/5 195/2/5 194/2/5
f 199/2/5 195/2/5 198/2/5
f 200/2/5 197/2/5 196/2/5
f 201/2/5 197/2/5 200/2/5
f 202/3/5 201/3/5 200/3/5
f 203/3/5 201/3/5 202/3/5
f 206/3/5 205/3/5 204/3/5
f 207/3/5 205/3/5 206/3/5
f 210/2/5 209/2/5 208/2/5
f 211/2/5 209/2/5 210/2/5
f 214/5/5 213/5/5 212/5/5
f 215/5/5 213/5/5 214/5/5
f 216/5/5 213/5/5 215/5/5
f 219/5/5 218/5/5 217/5/5
f 220/5/5 218/5/5 219/5/5
f 221/2/6 222/2/6 223/2/6
f 223/2/6 222/2/6 224/2/6
f 225/3/6 226/3/6 227/3/6
f 227/3/6 226/3/6 228/3/6
f 228/5/6 229/5/6 232/5/6
f 232/5/6 229/5/6 233/5/6
f 230/2/6 231/2/6 235/2/6
f 235/2/6 231/2/6 236/2/6
f 233/5/6 234/5/6 237/5/6
f 237/5/6 234/5/6 238/5/6
f 237/2/6 238/2/6 239/2/6
f 239/2/6 238/2/6 240/2/6
f 241/5/6 242/5/6 243/5/6
f 243/5/6 242/5/6 244/5/6
f 244/1/6 245/1/6 246/1/6
f 246/1/6 245/1/6 247/1/6
f 247/5/6 248/5/6 249/5/6
f 249/5/6 248/5/6 250/5/6
f 251/5/6 252/5/6 253/5/6
f 253/5/6 252/5/6 254/5/6
f 254/5/6 255/5/6 256/5/6
f 256/5/6 255/5/6 257/5/6
