# MagicaVoxel @ Ephtracy

# group
o 

# material
mtllib get-color.mtl
usemtl palette

# normals
vn -1 0 0
vn 1 0 0
vn 0 0 1
vn 0 0 -1
vn 0 -1 0
vn 0 1 0

# texcoords
vt 0.232422 0.5
vt 0.263672 0.5

# verts
v -0.1 0 -0.1
v -0.1 0 -0.2
v -0.1 0.1 -0.1
v -0.1 0.1 -0.2
v -0.1 0.2 -0.1
v -0.1 0.2 -0.2
v 0 0 0
v 0 0 -0.1
v 0 0.1 -0.1
v 0 0.2 -0.1
v 0 0.3 0
v 0 0.3 -0.1
v 0.1 0 0.1
v 0.1 0 0
v 0.1 0.1 0.1
v 0.1 0.1 0
v 0 0 -0.1
v 0 0 -0.2
v 0 0.1 -0.1
v 0 0.1 -0.2
v 0 0.2 -0.1
v 0 0.2 -0.2
v 0.1 0 0
v 0.1 0 -0.1
v 0.1 0.1 0
v 0.1 0.3 0
v 0.1 0.3 -0.1
v 0.2 0 0.1
v 0.2 0 0
v 0.2 0.1 0.1
v 0.2 0.1 0
v 0.1 0 0.1
v 0.1 0.1 0.1
v 0.2 0 0.1
v 0.2 0.1 0.1
v 0 0 0
v 0 0.3 0
v 0.1 0 0
v 0.1 0.1 0
v 0.1 0.3 0
v -0.1 0 -0.1
v -0.1 0.1 -0.1
v -0.1 0.2 -0.1
v 0 0 -0.1
v 0 0.1 -0.1
v 0 0.2 -0.1
v 0.1 0 0
v 0.1 0.1 0
v 0.2 0 0
v 0.2 0.1 0
v 0 0 -0.1
v 0 0.1 -0.1
v 0 0.2 -0.1
v 0 0.3 -0.1
v 0.1 0 -0.1
v 0.1 0.3 -0.1
v -0.1 0 -0.2
v -0.1 0.1 -0.2
v -0.1 0.2 -0.2
v 0 0 -0.2
v 0 0.1 -0.2
v 0 0.2 -0.2
v 0.1 0 0.1
v 0.2 0 0.1
v 0 0 0
v 0.1 0 0
v 0.2 0 0
v -0.1 0 -0.1
v 0 0 -0.1
v 0.1 0 -0.1
v -0.1 0 -0.2
v 0 0 -0.2
v 0.1 0.1 0.1
v 0.2 0.1 0.1
v 0.1 0.1 0
v 0.2 0.1 0
v -0.1 0.2 -0.1
v 0 0.2 -0.1
v -0.1 0.2 -0.2
v 0 0.2 -0.2
v 0 0.3 0
v 0.1 0.3 0
v 0 0.3 -0.1
v 0.1 0.3 -0.1

# faces
f 3/1/1 2/1/1 1/1/1
f 4/1/1 2/1/1 3/1/1
f 5/2/1 4/2/1 3/2/1
f 6/2/1 4/2/1 5/2/1
f 9/1/1 8/1/1 7/1/1
f 10/1/1 9/1/1 7/1/1
f 11/1/1 10/1/1 7/1/1
f 12/1/1 10/1/1 11/1/1
f 15/1/1 14/1/1 13/1/1
f 16/1/1 14/1/1 15/1/1
f 17/1/2 18/1/2 19/1/2
f 19/1/2 18/1/2 20/1/2
f 19/2/2 20/2/2 21/2/2
f 21/2/2 20/2/2 22/2/2
f 23/1/2 24/1/2 25/1/2
f 25/1/2 24/1/2 26/1/2
f 26/1/2 24/1/2 27/1/2
f 28/1/2 29/1/2 30/1/2
f 30/1/2 29/1/2 31/1/2
f 34/1/3 33/1/3 32/1/3
f 35/1/3 33/1/3 34/1/3
f 38/1/3 37/1/3 36/1/3
f 39/1/3 37/1/3 38/1/3
f 40/1/3 37/1/3 39/1/3
f 44/1/3 42/1/3 41/1/3
f 45/2/3 43/2/3 42/2/3
f 45/1/3 42/1/3 44/1/3
f 46/2/3 43/2/3 45/2/3
f 47/1/4 48/1/4 49/1/4
f 49/1/4 48/1/4 50/1/4
f 51/1/4 52/1/4 55/1/4
f 53/1/4 54/1/4 55/1/4
f 52/1/4 53/1/4 55/1/4
f 55/1/4 54/1/4 56/1/4
f 57/1/4 58/1/4 60/1/4
f 58/2/4 59/2/4 61/2/4
f 60/1/4 58/1/4 61/1/4
f 61/2/4 59/2/4 62/2/4
f 66/1/5 64/1/5 63/1/5
f 67/1/5 64/1/5 66/1/5
f 69/1/5 66/1/5 65/1/5
f 70/1/5 66/1/5 69/1/5
f 71/1/5 69/1/5 68/1/5
f 72/1/5 69/1/5 71/1/5
f 73/1/6 74/1/6 75/1/6
f 75/1/6 74/1/6 76/1/6
f 77/2/6 78/2/6 79/2/6
f 79/2/6 78/2/6 80/2/6
f 81/1/6 82/1/6 83/1/6
f 83/1/6 82/1/6 84/1/6
