# MagicaVoxel @ Ephtracy

# group
o 

# material
mtllib get-color.mtl
usemtl palette

# normals
vn 0 0 1
vn 0 0 -1
vn 1 0 0
vn -1 0 0
vn 0 -1 0
vn 0 1 0

# texcoords
vt 0.232422 0.5
vt 0.263672 0.5
vt 0.267578 0.5

# verts
v 0.1 0 0.8
v -0.1 0 0.8
v -0.3 0 0.8
v -0.4 0 0.8
v 0.1 0.1 0.8
v -0.1 0.1 0.8
v -0.3 0.1 0.8
v -0.4 0.1 0.8
v 0.2 0 0.7
v 0.1 0 0.7
v -0.4 0 0.7
v -0.5 0 0.7
v 0.2 0.1 0.7
v 0.1 0.1 0.7
v 0 0.1 0.7
v -0.1 0.1 0.7
v -0.4 0.1 0.7
v -0.5 0.1 0.7
v 0.1 0.2 0.7
v 0 0.2 0.7
v -0.1 0.2 0.7
v 0.5 0 0.6
v 0.2 0 0.6
v -0.5 0 0.6
v -0.6 0 0.6
v 0.5 0.1 0.6
v 0.2 0.1 0.6
v 0.1 0.1 0.6
v -0.1 0.1 0.6
v -0.2 0.1 0.6
v -0.3 0.1 0.6
v -0.5 0.1 0.6
v -0.6 0.1 0.6
v 0.2 0.2 0.6
v 0.1 0.2 0.6
v -0.1 0.2 0.6
v -0.2 0.2 0.6
v -0.3 0.2 0.6
v 0.6 0 0.5
v 0.5 0 0.5
v 0.6 0.1 0.5
v 0.5 0.1 0.5
v 0.3 0.1 0.5
v 0.2 0.1 0.5
v -0.3 0.1 0.5
v -0.4 0.1 0.5
v 0.3 0.2 0.5
v 0.2 0.2 0.5
v -0.3 0.2 0.5
v -0.4 0.2 0.5
v 0.4 0.1 0.4
v 0.3 0.1 0.4
v 0.4 0.2 0.4
v 0.3 0.2 0.4
v 0.7 0 0.3
v 0.6 0 0.3
v 0.7 0.1 0.3
v 0.6 0.1 0.3
v 0.5 0.1 0.2
v 0.4 0.1 0.2
v 0.5 0.2 0.2
v 0.4 0.2 0.2
v -0.3 0.1 0.4
v -0.4 0.1 0.4
v -0.3 0.2 0.4
v -0.4 0.2 0.4
v -0.5 0 0.3
v -0.6 0 0.3
v -0.5 0.1 0.3
v -0.6 0.1 0.3
v -0.4 0 0.2
v -0.5 0 0.2
v -0.1 0.1 0.2
v -0.3 0.1 0.2
v -0.4 0.1 0.2
v -0.5 0.1 0.2
v -0.1 0.2 0.2
v -0.3 0.2 0.2
v -0.3 0 0.1
v -0.4 0 0.1
v -0.3 0.1 0.1
v -0.4 0.1 0.1
v 0.7 0 -5.96046e-08
v 0.6 0 -5.96046e-08
v 0.7 0.1 -5.96046e-08
v 0.6 0.1 -5.96046e-08
v 0 0.1 -5.96046e-08
v -0.1 0.1 -5.96046e-08
v 0 0.2 -5.96046e-08
v -0.1 0.2 -5.96046e-08
v -0.2 0 -0.1
v -0.3 0 -0.1
v -0.2 0.1 -0.1
v -0.3 0.1 -0.1
v 0.5 0.1 -0.2
v 0.4 0.1 -0.2
v 0.5 0.2 -0.2
v 0.4 0.2 -0.2
v 0.6 0 -0.4
v 0.5 0 -0.4
v -0.1 0 -0.4
v -0.2 0 -0.4
v 0.6 0.1 -0.4
v 0.5 0.1 -0.4
v 0.4 0.1 -0.4
v 0.3 0.1 -0.4
v 0.1 0.1 -0.4
v 0 0.1 -0.4
v -0.1 0.1 -0.4
v -0.2 0.1 -0.4
v 0.4 0.2 -0.4
v 0.3 0.2 -0.4
v 0.1 0.2 -0.4
v 0 0.2 -0.4
v 0.5 0 -0.5
v 0.4 0 -0.5
v 0.5 0.1 -0.5
v 0.4 0.1 -0.5
v 0.4 0 -0.6
v 0.3 0 -0.6
v 0 0 -0.6
v -0.1 0 -0.6
v 0.4 0.1 -0.6
v 0.3 0.1 -0.6
v 0 0.1 -0.6
v -0.1 0.1 -0.6
v 0.2 0.1 -0.7
v 0.1 0.1 -0.7
v 0.2 0.2 -0.7
v 0.1 0.2 -0.7
v 0.1 0 -0.8
v 0 0 -0.8
v 0.3 0.1 -0.8
v 0.2 0.1 -0.8
v 0.1 0.1 -0.8
v 0 0.1 -0.8
v 0.3 0.2 -0.8
v 0.2 0.2 -0.8
v 0.3 0 -1
v 0.1 0 -1
v 0.3 0.1 -1
v 0.1 0.1 -1
v 0.7 0 0.3
v 0.7 0.1 0.3
v 0.7 0 0.2
v 0.7 0.1 0.2
v 0.7 0 0.1
v 0.7 0.1 0.1
v 0.7 0 -5.96046e-08
v 0.7 0.1 -5.96046e-08
v 0.6 0 0.5
v 0.6 0.1 0.5
v 0.6 0 0.4
v 0.6 0.1 0.4
v 0.6 0 0.3
v 0.6 0.1 0.3
v 0.6 0 -5.96046e-08
v 0.6 0.1 -5.96046e-08
v 0.6 0 -0.1
v 0.6 0.1 -0.1
v 0.6 0 -0.3
v 0.6 0.1 -0.3
v 0.6 0 -0.4
v 0.6 0.1 -0.4
v 0.5 0 0.6
v 0.5 0.1 0.6
v 0.5 0 0.5
v 0.5 0.1 0.5
v 0.5 0.1 0.2
v 0.5 0.2 0.2
v 0.5 0.1 -5.96046e-08
v 0.5 0.1 -0.1
v 0.5 0.2 -0.1
v 0.5 0.1 -0.2
v 0.5 0.2 -0.2
v 0.5 0 -0.4
v 0.5 0.1 -0.4
v 0.5 0 -0.5
v 0.5 0.1 -0.5
v 0.4 0.1 0.4
v 0.4 0.2 0.4
v 0.4 0.1 0.3
v 0.4 0.2 0.3
v 0.4 0.1 0.2
v 0.4 0.2 0.2
v 0.4 0.1 -0.2
v 0.4 0.2 -0.2
v 0.4 0.1 -0.4
v 0.4 0.2 -0.4
v 0.4 0 -0.5
v 0.4 0.1 -0.5
v 0.4 0 -0.6
v 0.4 0.1 -0.6
v 0.3 0.1 0.5
v 0.3 0.2 0.5
v 0.3 0.1 0.4
v 0.3 0.2 0.4
v 0.3 0.1 -0.4
v 0.3 0.2 -0.4
v 0.3 0.1 -0.5
v 0.3 0.2 -0.5
v 0.3 0 -0.6
v 0.3 0.1 -0.6
v 0.3 0 -0.7
v 0.3 0.1 -0.7
v 0.3 0.2 -0.7
v 0.3 0 -0.8
v 0.3 0.1 -0.8
v 0.3 0.2 -0.8
v 0.3 0 -0.9
v 0.3 0.1 -0.9
v 0.3 0 -1
v 0.3 0.1 -1
v 0.2 0 0.7
v 0.2 0.1 0.7
v 0.2 0 0.6
v 0.2 0.1 0.6
v 0.2 0.2 0.6
v 0.2 0.1 0.5
v 0.2 0.2 0.5
v 0.1 0 0.8
v 0.1 0.1 0.8
v 0.1 0 0.7
v 0.1 0.1 0.7
v 0.1 0.2 0.7
v 0.1 0.1 0.6
v 0.1 0.2 0.6
v 0.2 0.1 -0.7
v 0.2 0.2 -0.7
v 0.2 0.1 -0.8
v 0.2 0.2 -0.8
v 0.1 0.1 -0.4
v 0.1 0.2 -0.4
v 0.1 0.1 -0.7
v 0.1 0.2 -0.7
v 0.1 0 -0.8
v 0.1 0.1 -0.8
v 0.1 0 -1
v 0.1 0.1 -1
v 0 0.1 -5.96046e-08
v 0 0.2 -5.96046e-08
v 0 0.1 -0.1
v 0 0.1 -0.2
v 0 0.2 -0.2
v 0 0.1 -0.3
v 0 0.2 -0.3
v 0 0.1 -0.4
v 0 0.2 -0.4
v 0 0 -0.6
v 0 0.1 -0.6
v 0 0 -0.7
v 0 0.1 -0.7
v 0 0 -0.8
v 0 0.1 -0.8
v -0.1 0.1 0.7
v -0.1 0.2 0.7
v -0.1 0.1 0.6
v -0.1 0.2 0.6
v -0.1 0.1 0.2
v -0.1 0.2 0.2
v -0.1 0.1 -5.96046e-08
v -0.1 0.2 -5.96046e-08
v -0.1 0 -0.4
v -0.1 0.1 -0.4
v -0.1 0 -0.5
v -0.1 0.1 -0.5
v -0.1 0 -0.6
v -0.1 0.1 -0.6
v -0.2 0 -0.1
v -0.2 0.1 -0.1
v -0.2 0 -0.2
v -0.2 0.1 -0.2
v -0.2 0 -0.4
v -0.2 0.1 -0.4
v -0.3 0.1 0.6
v -0.3 0.2 0.6
v -0.3 0.1 0.5
v -0.3 0.2 0.5
v -0.3 0.1 0.4
v -0.3 0.2 0.4
v -0.3 0.1 0.3
v -0.3 0.2 0.3
v -0.3 0.1 0.2
v -0.3 0.2 0.2
v -0.3 0 0.1
v -0.3 0.1 0.1
v -0.3 0 -0.1
v -0.3 0.1 -0.1
v -0.4 0 0.8
v -0.4 0.1 0.8
v -0.4 0 0.7
v -0.4 0.1 0.7
v -0.4 0.1 0.5
v -0.4 0.2 0.5
v -0.4 0.1 0.4
v -0.4 0.2 0.4
v -0.4 0 0.2
v -0.4 0.1 0.2
v -0.4 0 0.1
v -0.4 0.1 0.1
v -0.5 0 0.7
v -0.5 0.1 0.7
v -0.5 0 0.6
v -0.5 0.1 0.6
v -0.5 0 0.3
v -0.5 0.1 0.3
v -0.5 0 0.2
v -0.5 0.1 0.2
v -0.6 0 0.6
v -0.6 0.1 0.6
v -0.6 0 0.5
v -0.6 0.1 0.5
v -0.6 0 0.4
v -0.6 0.1 0.4
v -0.6 0 0.3
v -0.6 0.1 0.3
v 0.7 0 0.3
v 0.7 0 0.2
v 0.7 0 0.1
v 0.7 0 -5.96046e-08
v 0.6 0 0.5
v 0.6 0 0.4
v 0.6 0 0.3
v 0.6 0 0.2
v 0.6 0 0.1
v 0.6 0 -5.96046e-08
v 0.6 0 -0.1
v 0.6 0 -0.3
v 0.6 0 -0.4
v 0.5 0 0.6
v 0.5 0 0.5
v 0.5 0 0.4
v 0.5 0 0.3
v 0.5 0 -5.96046e-08
v 0.5 0 -0.1
v 0.5 0 -0.3
v 0.5 0 -0.4
v 0.5 0 -0.5
v 0.4 0 0.5
v 0.4 0 0.4
v 0.4 0 0.3
v 0.4 0 0.2
v 0.4 0 -0.5
v 0.4 0 -0.6
v 0.3 0 -0.5
v 0.3 0 -0.6
v 0.3 0 -0.7
v 0.3 0 -0.8
v 0.3 0 -0.9
v 0.3 0 -1
v 0.2 0 0.7
v 0.2 0 0.6
v 0.2 0 -0.6
v 0.2 0 -0.7
v 0.2 0 -0.8
v 0.2 0 -0.9
v 0.1 0 0.8
v 0.1 0 0.7
v 0.1 0 -0.7
v 0.1 0 -0.8
v 0.1 0 -1
v 0 0 -5.96046e-08
v 0 0 -0.1
v 0 0 -0.4
v 0 0 -0.5
v 0 0 -0.6
v 0 0 -0.7
v 0 0 -0.8
v -0.1 0 0.8
v -0.1 0 0.6
v -0.1 0 -5.96046e-08
v -0.1 0 -0.1
v -0.1 0 -0.2
v -0.1 0 -0.4
v -0.1 0 -0.5
v -0.1 0 -0.6
v -0.2 0 0.7
v -0.2 0 0.6
v -0.2 0 -5.96046e-08
v -0.2 0 -0.1
v -0.2 0 -0.2
v -0.2 0 -0.4
v -0.3 0 0.8
v -0.3 0 0.7
v -0.3 0 0.6
v -0.3 0 0.5
v -0.3 0 0.4
v -0.3 0 0.3
v -0.3 0 0.1
v -0.3 0 -0.1
v -0.4 0 0.8
v -0.4 0 0.7
v -0.4 0 0.6
v -0.4 0 0.5
v -0.4 0 0.4
v -0.4 0 0.2
v -0.4 0 0.1
v -0.5 0 0.7
v -0.5 0 0.6
v -0.5 0 0.5
v -0.5 0 0.4
v -0.5 0 0.3
v -0.5 0 0.2
v -0.6 0 0.6
v -0.6 0 0.5
v -0.6 0 0.4
v -0.6 0 0.3
v 0.7 0.1 0.3
v 0.7 0.1 0.2
v 0.7 0.1 0.1
v 0.7 0.1 -5.96046e-08
v 0.6 0.1 0.5
v 0.6 0.1 0.4
v 0.6 0.1 0.3
v 0.6 0.1 0.2
v 0.6 0.1 0.1
v 0.6 0.1 -5.96046e-08
v 0.6 0.1 -0.1
v 0.6 0.1 -0.3
v 0.6 0.1 -0.4
v 0.5 0.1 0.6
v 0.5 0.1 0.5
v 0.5 0.1 0.4
v 0.5 0.1 0.3
v 0.5 0.1 0.2
v 0.5 0.1 -5.96046e-08
v 0.5 0.1 -0.1
v 0.5 0.1 -0.2
v 0.5 0.1 -0.3
v 0.5 0.1 -0.4
v 0.5 0.1 -0.5
v 0.4 0.1 0.5
v 0.4 0.1 0.4
v 0.4 0.1 0.3
v 0.4 0.1 0.2
v 0.4 0.1 -0.2
v 0.4 0.1 -0.4
v 0.4 0.1 -0.5
v 0.4 0.1 -0.6
v 0.3 0.1 0.5
v 0.3 0.1 0.4
v 0.3 0.1 -0.4
v 0.3 0.1 -0.5
v 0.3 0.1 -0.6
v 0.3 0.1 -0.8
v 0.3 0.1 -0.9
v 0.3 0.1 -1
v 0.2 0.1 0.7
v 0.2 0.1 0.6
v 0.2 0.1 0.5
v 0.2 0.1 -0.7
v 0.2 0.1 -0.8
v 0.2 0.1 -0.9
v 0.1 0.1 0.8
v 0.1 0.1 0.7
v 0.1 0.1 0.6
v 0.1 0.1 -0.4
v 0.1 0.1 -0.7
v 0.1 0.1 -0.8
v 0.1 0.1 -1
v 0 0.1 0.7
v 0 0.1 -5.96046e-08
v 0 0.1 -0.1
v 0 0.1 -0.2
v 0 0.1 -0.3
v 0 0.1 -0.4
v 0 0.1 -0.5
v 0 0.1 -0.6
v 0 0.1 -0.7
v 0 0.1 -0.8
v -0.1 0.1 0.8
v -0.1 0.1 0.7
v -0.1 0.1 0.6
v -0.1 0.1 0.2
v -0.1 0.1 -5.96046e-08
v -0.1 0.1 -0.1
v -0.1 0.1 -0.2
v -0.1 0.1 -0.4
v -0.1 0.1 -0.5
v -0.1 0.1 -0.6
v -0.2 0.1 0.7
v -0.2 0.1 0.6
v -0.2 0.1 -5.96046e-08
v -0.2 0.1 -0.1
v -0.2 0.1 -0.2
v -0.2 0.1 -0.4
v -0.3 0.1 0.8
v -0.3 0.1 0.7
v -0.3 0.1 0.6
v -0.3 0.1 0.5
v -0.3 0.1 0.4
v -0.3 0.1 0.3
v -0.3 0.1 0.2
v -0.3 0.1 0.1
v -0.3 0.1 -0.1
v -0.4 0.1 0.8
v -0.4 0.1 0.7
v -0.4 0.1 0.6
v -0.4 0.1 0.5
v -0.4 0.1 0.4
v -0.4 0.1 0.2
v -0.4 0.1 0.1
v -0.5 0.1 0.7
v -0.5 0.1 0.6
v -0.5 0.1 0.5
v -0.5 0.1 0.4
v -0.5 0.1 0.3
v -0.5 0.1 0.2
v -0.6 0.1 0.6
v -0.6 0.1 0.5
v -0.6 0.1 0.4
v -0.6 0.1 0.3
v 0.5 0.2 0.2
v 0.5 0.2 -0.1
v 0.5 0.2 -0.2
v 0.4 0.2 0.4
v 0.4 0.2 0.3
v 0.4 0.2 0.2
v 0.4 0.2 -5.96046e-08
v 0.4 0.2 -0.1
v 0.4 0.2 -0.2
v 0.4 0.2 -0.4
v 0.3 0.2 0.5
v 0.3 0.2 0.4
v 0.3 0.2 0.3
v 0.3 0.2 0.2
v 0.3 0.2 0.1
v 0.3 0.2 -5.96046e-08
v 0.3 0.2 -0.1
v 0.3 0.2 -0.4
v 0.3 0.2 -0.5
v 0.3 0.2 -0.7
v 0.3 0.2 -0.8
v 0.2 0.2 0.6
v 0.2 0.2 0.5
v 0.2 0.2 0.1
v 0.2 0.2 -5.96046e-08
v 0.2 0.2 -0.1
v 0.2 0.2 -0.2
v 0.2 0.2 -0.3
v 0.2 0.2 -0.5
v 0.2 0.2 -0.7
v 0.2 0.2 -0.8
v 0.1 0.2 0.7
v 0.1 0.2 0.6
v 0.1 0.2 0.2
v 0.1 0.2 -5.96046e-08
v 0.1 0.2 -0.1
v 0.1 0.2 -0.4
v 0.1 0.2 -0.7
v 0 0.2 0.7
v 0 0.2 0.5
v 0 0.2 0.2
v 0 0.2 -5.96046e-08
v 0 0.2 -0.2
v 0 0.2 -0.3
v 0 0.2 -0.4
v -0.1 0.2 0.7
v -0.1 0.2 0.6
v -0.1 0.2 0.5
v -0.1 0.2 0.4
v -0.1 0.2 0.2
v -0.1 0.2 -5.96046e-08
v -0.2 0.2 0.6
v -0.2 0.2 0.4
v -0.2 0.2 0.3
v -0.3 0.2 0.6
v -0.3 0.2 0.5
v -0.3 0.2 0.4
v -0.3 0.2 0.3
v -0.3 0.2 0.2
v -0.4 0.2 0.5
v -0.4 0.2 0.4

# faces
f 5/3/1 2/3/1 1/3/1
f 6/1/1 3/1/1 2/1/1
f 6/3/1 2/3/1 5/3/1
f 7/2/1 4/2/1 3/2/1
f 7/1/1 3/1/1 6/1/1
f 8/2/1 4/2/1 7/2/1
f 13/3/1 10/3/1 9/3/1
f 14/3/1 10/3/1 13/3/1
f 17/3/1 12/3/1 11/3/1
f 18/3/1 12/3/1 17/3/1
f 19/3/1 15/3/1 14/3/1
f 20/1/1 16/1/1 15/1/1
f 20/3/1 15/3/1 19/3/1
f 21/1/1 16/1/1 20/1/1
f 26/3/1 23/3/1 22/3/1
f 27/3/1 23/3/1 26/3/1
f 32/3/1 25/3/1 24/3/1
f 33/3/1 25/3/1 32/3/1
f 34/3/1 28/3/1 27/3/1
f 35/3/1 28/3/1 34/3/1
f 36/1/1 30/1/1 29/1/1
f 37/3/1 31/3/1 30/3/1
f 37/1/1 30/1/1 36/1/1
f 38/3/1 31/3/1 37/3/1
f 41/3/1 40/3/1 39/3/1
f 42/3/1 40/3/1 41/3/1
f 47/3/1 44/3/1 43/3/1
f 48/3/1 44/3/1 47/3/1
f 49/1/1 46/1/1 45/1/1
f 50/1/1 46/1/1 49/1/1
f 53/3/1 52/3/1 51/3/1
f 54/3/1 52/3/1 53/3/1
f 57/3/1 56/3/1 55/3/1
f 58/3/1 56/3/1 57/3/1
f 61/3/1 60/3/1 59/3/1
f 62/3/1 60/3/1 61/3/1
f 63/1/2 64/1/2 65/1/2
f 65/1/2 64/1/2 66/1/2
f 67/3/2 68/3/2 69/3/2
f 69/3/2 68/3/2 70/3/2
f 71/3/2 72/3/2 75/3/2
f 75/3/2 72/3/2 76/3/2
f 73/3/2 74/3/2 77/3/2
f 77/3/2 74/3/2 78/3/2
f 79/3/2 80/3/2 81/3/2
f 81/3/2 80/3/2 82/3/2
f 83/3/2 84/3/2 85/3/2
f 85/3/2 84/3/2 86/3/2
f 87/3/2 88/3/2 89/3/2
f 89/3/2 88/3/2 90/3/2
f 91/3/2 92/3/2 93/3/2
f 93/3/2 92/3/2 94/3/2
f 95/1/2 96/1/2 97/1/2
f 97/1/2 96/1/2 98/1/2
f 99/1/2 100/1/2 103/1/2
f 103/1/2 100/1/2 104/1/2
f 101/3/2 102/3/2 109/3/2
f 109/3/2 102/3/2 110/3/2
f 105/3/2 106/3/2 111/3/2
f 111/3/2 106/3/2 112/3/2
f 107/3/2 108/3/2 113/3/2
f 113/3/2 108/3/2 114/3/2
f 115/3/2 116/3/2 117/3/2
f 117/3/2 116/3/2 118/3/2
f 119/1/2 120/1/2 123/1/2
f 123/1/2 120/1/2 124/1/2
f 121/3/2 122/3/2 125/3/2
f 125/3/2 122/3/2 126/3/2
f 127/3/2 128/3/2 129/3/2
f 129/3/2 128/3/2 130/3/2
f 131/1/2 132/1/2 135/1/2
f 135/1/2 132/1/2 136/1/2
f 133/3/2 134/3/2 137/3/2
f 137/3/2 134/3/2 138/3/2
f 139/1/2 140/1/2 141/1/2
f 141/1/2 140/1/2 142/1/2
f 145/3/3 144/3/3 143/3/3
f 146/3/3 144/3/3 145/3/3
f 147/1/3 146/1/3 145/1/3
f 148/1/3 146/1/3 147/1/3
f 149/3/3 148/3/3 147/3/3
f 150/3/3 148/3/3 149/3/3
f 153/3/3 152/3/3 151/3/3
f 154/3/3 152/3/3 153/3/3
f 155/1/3 154/1/3 153/1/3
f 156/1/3 154/1/3 155/1/3
f 159/1/3 158/1/3 157/1/3
f 160/1/3 158/1/3 159/1/3
f 161/3/3 160/3/3 159/3/3
f 162/3/3 160/3/3 161/3/3
f 163/1/3 162/1/3 161/1/3
f 164/1/3 162/1/3 163/1/3
f 167/3/3 166/3/3 165/3/3
f 168/3/3 166/3/3 167/3/3
f 171/3/3 170/3/3 169/3/3
f 172/3/3 170/3/3 171/3/3
f 173/3/3 170/3/3 172/3/3
f 174/1/3 173/1/3 172/1/3
f 175/1/3 173/1/3 174/1/3
f 178/3/3 177/3/3 176/3/3
f 179/3/3 177/3/3 178/3/3
f 182/3/3 181/3/3 180/3/3
f 183/3/3 181/3/3 182/3/3
f 184/1/3 183/1/3 182/1/3
f 185/1/3 183/1/3 184/1/3
f 188/3/3 187/3/3 186/3/3
f 189/3/3 187/3/3 188/3/3
f 192/1/3 191/1/3 190/1/3
f 193/1/3 191/1/3 192/1/3
f 196/3/3 195/3/3 194/3/3
f 197/3/3 195/3/3 196/3/3
f 200/3/3 199/3/3 198/3/3
f 201/3/3 199/3/3 200/3/3
f 203/1/3 201/1/3 200/1/3
f 204/1/3 203/1/3 202/1/3
f 205/1/3 201/1/3 203/1/3
f 205/1/3 203/1/3 204/1/3
f 206/1/3 201/1/3 205/1/3
f 207/2/3 205/2/3 204/2/3
f 208/3/3 206/3/3 205/3/3
f 208/2/3 205/2/3 207/2/3
f 209/3/3 206/3/3 208/3/3
f 210/3/3 208/3/3 207/3/3
f 211/3/3 208/3/3 210/3/3
f 212/1/3 211/1/3 210/1/3
f 213/1/3 211/1/3 212/1/3
f 216/3/3 215/3/3 214/3/3
f 217/3/3 215/3/3 216/3/3
f 219/3/3 218/3/3 217/3/3
f 220/3/3 218/3/3 219/3/3
f 223/3/3 222/3/3 221/3/3
f 224/3/3 222/3/3 223/3/3
f 226/3/3 225/3/3 224/3/3
f 227/3/3 225/3/3 226/3/3
f 228/3/4 229/3/4 230/3/4
f 230/3/4 229/3/4 231/3/4
f 232/3/4 233/3/4 234/3/4
f 234/3/4 233/3/4 235/3/4
f 236/1/4 237/1/4 238/1/4
f 238/1/4 237/1/4 239/1/4
f 240/3/4 241/3/4 242/3/4
f 242/3/4 241/3/4 243/3/4
f 243/3/4 241/3/4 244/3/4
f 243/1/4 244/1/4 245/1/4
f 245/1/4 244/1/4 246/1/4
f 245/3/4 246/3/4 247/3/4
f 247/3/4 246/3/4 248/3/4
f 249/3/4 250/3/4 251/3/4
f 251/3/4 250/3/4 252/3/4
f 251/1/4 252/1/4 253/1/4
f 253/1/4 252/1/4 254/1/4
f 255/1/4 256/1/4 257/1/4
f 257/1/4 256/1/4 258/1/4
f 259/3/4 260/3/4 261/3/4
f 261/3/4 260/3/4 262/3/4
f 263/1/4 264/1/4 265/1/4
f 265/1/4 264/1/4 266/1/4
f 265/3/4 266/3/4 267/3/4
f 267/3/4 266/3/4 268/3/4
f 269/2/4 270/2/4 271/2/4
f 271/2/4 270/2/4 272/2/4
f 271/3/4 272/3/4 273/3/4
f 273/3/4 272/3/4 274/3/4
f 275/3/4 276/3/4 277/3/4
f 277/3/4 276/3/4 278/3/4
f 279/1/4 280/1/4 281/1/4
f 281/1/4 280/1/4 282/1/4
f 281/3/4 282/3/4 283/3/4
f 283/3/4 282/3/4 284/3/4
f 285/3/4 286/3/4 287/3/4
f 287/3/4 286/3/4 288/3/4
f 289/2/4 290/2/4 291/2/4
f 291/2/4 290/2/4 292/2/4
f 293/1/4 294/1/4 295/1/4
f 295/1/4 294/1/4 296/1/4
f 297/3/4 298/3/4 299/3/4
f 299/3/4 298/3/4 300/3/4
f 301/3/4 302/3/4 303/3/4
f 303/3/4 302/3/4 304/3/4
f 305/3/4 306/3/4 307/3/4
f 307/3/4 306/3/4 308/3/4
f 309/3/4 310/3/4 311/3/4
f 311/3/4 310/3/4 312/3/4
f 311/2/4 312/2/4 313/2/4
f 313/2/4 312/2/4 314/2/4
f 313/3/4 314/3/4 315/3/4
f 315/3/4 314/3/4 316/3/4
f 323/3/5 318/3/5 317/3/5
f 324/1/5 319/1/5 318/1/5
f 324/3/5 318/3/5 323/3/5
f 325/3/5 320/3/5 319/3/5
f 325/1/5 319/1/5 324/1/5
f 326/3/5 320/3/5 325/3/5
f 331/3/5 322/3/5 321/3/5
f 332/1/5 323/1/5 322/1/5
f 332/1/5 324/1/5 323/1/5
f 332/3/5 322/3/5 331/3/5
f 333/1/5 324/1/5 332/1/5
f 334/3/5 325/3/5 324/3/5
f 334/3/5 326/3/5 325/3/5
f 334/1/5 327/1/5 326/1/5
f 335/3/5 328/3/5 327/3/5
f 335/1/5 327/1/5 334/1/5
f 336/1/5 329/1/5 328/1/5
f 336/3/5 328/3/5 335/3/5
f 337/1/5 329/1/5 336/1/5
f 339/3/5 331/3/5 330/3/5
f 339/1/5 332/1/5 331/1/5
f 340/3/5 333/3/5 332/3/5
f 340/1/5 332/1/5 339/1/5
f 341/1/5 324/1/5 333/1/5
f 341/3/5 333/3/5 340/3/5
f 342/3/5 335/3/5 334/3/5
f 342/1/5 324/1/5 341/1/5
f 342/3/5 338/3/5 337/3/5
f 342/3/5 336/3/5 335/3/5
f 342/3/5 334/3/5 324/3/5
f 342/3/5 337/3/5 336/3/5
f 343/3/5 338/3/5 342/3/5
f 345/3/5 341/3/5 340/3/5
f 345/1/5 344/1/5 343/1/5
f 345/3/5 343/3/5 342/3/5
f 345/3/5 342/3/5 341/3/5
f 345/3/5 340/3/5 339/3/5
f 346/1/5 344/1/5 345/1/5
f 352/3/5 339/3/5 330/3/5
f 352/3/5 345/3/5 339/3/5
f 352/3/5 346/3/5 345/3/5
f 353/1/5 347/1/5 346/1/5
f 353/3/5 346/3/5 352/3/5
f 354/2/5 348/2/5 347/2/5
f 354/1/5 347/1/5 353/1/5
f 355/3/5 349/3/5 348/3/5
f 355/2/5 348/2/5 354/2/5
f 356/1/5 350/1/5 349/1/5
f 356/3/5 349/3/5 355/3/5
f 358/3/5 355/3/5 354/3/5
f 358/3/5 354/3/5 353/3/5
f 358/3/5 353/3/5 352/3/5
f 358/3/5 352/3/5 351/3/5
f 359/3/5 355/3/5 358/3/5
f 360/1/5 356/1/5 355/1/5
f 360/3/5 355/3/5 359/3/5
f 361/1/5 350/1/5 356/1/5
f 361/1/5 356/1/5 360/1/5
f 362/3/5 359/3/5 358/3/5
f 362/3/5 358/3/5 357/3/5
f 363/3/5 359/3/5 362/3/5
f 364/3/5 359/3/5 363/3/5
f 365/3/5 359/3/5 364/3/5
f 366/3/5 359/3/5 365/3/5
f 367/1/5 360/1/5 359/1/5
f 367/3/5 359/3/5 366/3/5
f 368/1/5 360/1/5 367/1/5
f 369/3/5 362/3/5 357/3/5
f 370/3/5 362/3/5 369/3/5
f 371/2/5 363/2/5 362/2/5
f 371/3/5 362/3/5 370/3/5
f 372/3/5 364/3/5 363/3/5
f 372/2/5 363/2/5 371/2/5
f 373/3/5 364/3/5 372/3/5
f 374/1/5 365/1/5 364/1/5
f 374/3/5 364/3/5 373/3/5
f 375/3/5 366/3/5 365/3/5
f 375/1/5 365/1/5 374/1/5
f 376/3/5 366/3/5 375/3/5
f 377/1/5 370/1/5 369/1/5
f 378/3/5 371/3/5 370/3/5
f 378/1/5 370/1/5 377/1/5
f 379/1/5 372/1/5 371/1/5
f 379/3/5 371/3/5 378/3/5
f 380/2/5 373/2/5 372/2/5
f 380/1/5 372/1/5 379/1/5
f 381/3/5 374/3/5 373/3/5
f 381/2/5 373/2/5 380/2/5
f 382/3/5 374/3/5 381/3/5
f 383/1/5 377/1/5 369/1/5
f 384/3/5 380/3/5 379/3/5
f 384/1/5 377/1/5 383/1/5
f 384/3/5 379/3/5 378/3/5
f 384/3/5 378/3/5 377/3/5
f 385/3/5 380/3/5 384/3/5
f 386/3/5 380/3/5 385/3/5
f 387/3/5 380/3/5 386/3/5
f 388/3/5 380/3/5 387/3/5
f 389/3/5 380/3/5 388/3/5
f 390/3/5 380/3/5 389/3/5
f 391/2/5 384/2/5 383/2/5
f 392/3/5 385/3/5 384/3/5
f 392/2/5 384/2/5 391/2/5
f 393/2/5 386/2/5 385/2/5
f 393/3/5 385/3/5 392/3/5
f 394/3/5 387/3/5 386/3/5
f 394/2/5 386/2/5 393/2/5
f 395/1/5 388/1/5 387/1/5
f 395/3/5 387/3/5 394/3/5
f 396/3/5 389/3/5 388/3/5
f 397/3/5 389/3/5 396/3/5
f 398/3/5 393/3/5 392/3/5
f 399/1/5 394/1/5 393/1/5
f 399/3/5 393/3/5 398/3/5
f 399/1/5 395/1/5 394/1/5
f 400/1/5 395/1/5 399/1/5
f 401/1/5 388/1/5 395/1/5
f 401/1/5 395/1/5 400/1/5
f 402/3/5 396/3/5 388/3/5
f 402/1/5 388/1/5 401/1/5
f 403/3/5 396/3/5 402/3/5
f 404/3/5 400/3/5 399/3/5
f 405/2/5 401/2/5 400/2/5
f 405/3/5 400/3/5 404/3/5
f 406/3/5 402/3/5 401/3/5
f 406/2/5 401/2/5 405/2/5
f 407/3/5 402/3/5 406/3/5
f 408/3/6 409/3/6 414/3/6
f 409/1/6 410/1/6 415/1/6
f 414/3/6 409/3/6 415/3/6
f 410/3/6 411/3/6 416/3/6
f 415/1/6 410/1/6 416/1/6
f 416/3/6 411/3/6 417/3/6
f 412/3/6 413/3/6 422/3/6
f 413/1/6 414/1/6 423/1/6
f 414/1/6 415/1/6 423/1/6
f 422/3/6 413/3/6 423/3/6
f 423/1/6 415/1/6 424/1/6
f 415/3/6 416/3/6 425/3/6
f 424/1/6 415/1/6 425/1/6
f 416/3/6 417/3/6 425/3/6
f 417/1/6 418/1/6 426/1/6
f 425/3/6 417/3/6 426/3/6
f 418/3/6 419/3/6 427/3/6
f 426/1/6 418/1/6 427/1/6
f 427/3/6 419/3/6 428/3/6
f 419/1/6 420/1/6 429/1/6
f 428/3/6 419/3/6 429/3/6
f 429/1/6 420/1/6 430/1/6
f 421/3/6 422/3/6 432/3/6
f 422/1/6 423/1/6 432/1/6
f 423/3/6 424/3/6 433/3/6
f 432/1/6 423/1/6 433/1/6
f 424/1/6 425/1/6 434/1/6
f 433/3/6 424/3/6 434/3/6
f 434/1/6 425/1/6 435/1/6
f 430/3/6 431/3/6 436/3/6
f 429/3/6 430/3/6 436/3/6
f 428/3/6 429/3/6 436/3/6
f 436/3/6 431/3/6 437/3/6
f 437/3/6 431/3/6 438/3/6
f 421/3/6 432/3/6 440/3/6
f 432/3/6 433/3/6 440/3/6
f 440/3/6 433/3/6 441/3/6
f 437/3/6 438/3/6 442/3/6
f 438/1/6 439/1/6 443/1/6
f 442/3/6 438/3/6 443/3/6
f 443/1/6 439/1/6 444/1/6
f 421/3/6 440/3/6 449/3/6
f 449/3/6 440/3/6 450/3/6
f 445/3/6 446/3/6 452/3/6
f 446/1/6 447/1/6 453/1/6
f 452/3/6 446/3/6 453/3/6
f 448/3/6 449/3/6 455/3/6
f 455/3/6 449/3/6 456/3/6
f 451/3/6 452/3/6 458/3/6
f 452/1/6 453/1/6 459/1/6
f 458/3/6 452/3/6 459/3/6
f 453/1/6 447/1/6 460/1/6
f 459/1/6 453/1/6 460/1/6
f 454/3/6 455/3/6 461/3/6
f 457/3/6 458/3/6 466/3/6
f 466/3/6 458/3/6 467/3/6
f 467/3/6 458/3/6 468/3/6
f 458/1/6 459/1/6 469/1/6
f 468/3/6 458/3/6 469/3/6
f 469/1/6 459/1/6 470/1/6
f 454/3/6 461/3/6 471/3/6
f 471/3/6 461/3/6 472/3/6
f 462/2/6 463/2/6 475/2/6
f 464/3/6 465/3/6 476/3/6
f 463/3/6 464/3/6 476/3/6
f 475/2/6 463/2/6 476/2/6
f 465/3/6 466/3/6 476/3/6
f 476/3/6 466/3/6 477/3/6
f 466/1/6 467/1/6 478/1/6
f 477/3/6 466/3/6 478/3/6
f 467/3/6 468/3/6 479/3/6
f 478/1/6 467/1/6 479/1/6
f 479/3/6 468/3/6 480/3/6
f 472/1/6 473/1/6 481/1/6
f 471/1/6 472/1/6 481/1/6
f 481/1/6 473/1/6 482/1/6
f 474/3/6 475/3/6 483/3/6
f 475/1/6 476/1/6 483/1/6
f 476/2/6 477/2/6 484/2/6
f 483/1/6 476/1/6 484/1/6
f 477/3/6 478/3/6 485/3/6
f 484/2/6 477/2/6 485/2/6
f 485/3/6 478/3/6 486/3/6
f 471/1/6 481/1/6 487/1/6
f 481/3/6 482/3/6 488/3/6
f 487/1/6 481/1/6 488/1/6
f 488/3/6 482/3/6 489/3/6
f 483/3/6 484/3/6 493/3/6
f 474/3/6 483/3/6 493/3/6
f 493/3/6 484/3/6 494/3/6
f 494/3/6 484/3/6 495/3/6
f 487/2/6 488/2/6 496/2/6
f 488/3/6 489/3/6 497/3/6
f 496/2/6 488/2/6 497/2/6
f 489/2/6 490/2/6 498/2/6
f 497/3/6 489/3/6 498/3/6
f 498/2/6 490/2/6 499/2/6
f 491/1/6 492/1/6 500/1/6
f 492/3/6 493/3/6 501/3/6
f 493/3/6 494/3/6 501/3/6
f 501/3/6 494/3/6 502/3/6
f 497/3/6 498/3/6 503/3/6
f 498/1/6 499/1/6 504/1/6
f 503/3/6 498/3/6 504/3/6
f 499/1/6 500/1/6 504/1/6
f 504/1/6 500/1/6 505/1/6
f 500/1/6 492/1/6 506/1/6
f 505/1/6 500/1/6 506/1/6
f 492/3/6 501/3/6 507/3/6
f 506/1/6 492/1/6 507/1/6
f 507/3/6 501/3/6 508/3/6
f 504/3/6 505/3/6 509/3/6
f 505/2/6 506/2/6 510/2/6
f 509/3/6 505/3/6 510/3/6
f 506/3/6 507/3/6 511/3/6
f 510/2/6 506/2/6 511/2/6
f 511/3/6 507/3/6 512/3/6
f 513/3/6 514/3/6 518/3/6
f 518/3/6 514/3/6 519/3/6
f 514/1/6 515/1/6 520/1/6
f 519/3/6 514/3/6 520/3/6
f 520/1/6 515/1/6 521/1/6
f 516/3/6 517/3/6 524/3/6
f 517/1/6 518/1/6 525/1/6
f 524/3/6 517/3/6 525/3/6
f 518/3/6 519/3/6 526/3/6
f 525/1/6 518/1/6 526/1/6
f 526/3/6 519/3/6 527/3/6
f 519/1/6 520/1/6 528/1/6
f 527/3/6 519/3/6 528/3/6
f 521/3/6 522/3/6 529/3/6
f 528/1/6 520/1/6 529/1/6
f 520/3/6 521/3/6 529/3/6
f 529/3/6 522/3/6 530/3/6
f 524/3/6 525/3/6 535/3/6
f 523/3/6 524/3/6 535/3/6
f 526/3/6 527/3/6 535/3/6
f 525/3/6 526/3/6 535/3/6
f 527/1/6 528/1/6 536/1/6
f 535/3/6 527/3/6 536/3/6
f 530/3/6 531/3/6 537/3/6
f 536/1/6 528/1/6 537/1/6
f 529/3/6 530/3/6 537/3/6
f 528/3/6 529/3/6 537/3/6
f 537/3/6 531/3/6 538/3/6
f 538/3/6 531/3/6 539/3/6
f 539/3/6 531/3/6 540/3/6
f 531/1/6 532/1/6 541/1/6
f 540/3/6 531/3/6 541/3/6
f 532/3/6 533/3/6 542/3/6
f 541/1/6 532/1/6 542/1/6
f 542/3/6 533/3/6 543/3/6
f 534/3/6 535/3/6 545/3/6
f 535/3/6 536/3/6 545/3/6
f 536/3/6 537/3/6 545/3/6
f 545/3/6 537/3/6 546/3/6
f 537/2/6 538/2/6 547/2/6
f 546/3/6 537/3/6 547/3/6
f 538/3/6 539/3/6 548/3/6
f 547/2/6 538/2/6 548/2/6
f 540/3/6 541/3/6 549/3/6
f 541/3/6 542/3/6 549/3/6
f 549/3/6 542/3/6 550/3/6
f 545/3/6 546/3/6 551/3/6
f 544/3/6 545/3/6 551/3/6
f 551/3/6 546/3/6 552/3/6
f 546/1/6 547/1/6 553/1/6
f 552/3/6 546/3/6 553/3/6
f 547/3/6 548/3/6 554/3/6
f 553/1/6 547/1/6 554/1/6
f 548/3/6 539/3/6 555/3/6
f 554/3/6 548/3/6 555/3/6
f 539/1/6 540/1/6 555/1/6
f 540/3/6 549/3/6 556/3/6
f 555/1/6 540/1/6 556/1/6
f 556/3/6 549/3/6 557/3/6
f 551/1/6 552/1/6 558/1/6
f 558/1/6 552/1/6 559/1/6
f 553/3/6 554/3/6 560/3/6
f 559/1/6 552/1/6 560/1/6
f 552/3/6 553/3/6 560/3/6
f 560/3/6 554/3/6 561/3/6
f 561/3/6 554/3/6 562/3/6
f 562/3/6 554/3/6 563/3/6
f 559/1/6 560/1/6 564/1/6
f 560/1/6 561/1/6 564/1/6
f 561/3/6 562/3/6 565/3/6
f 564/1/6 561/1/6 565/1/6
f 565/3/6 562/3/6 566/3/6
f 564/3/6 565/3/6 567/3/6
f 567/3/6 565/3/6 568/3/6
f 565/1/6 566/1/6 569/1/6
f 568/3/6 565/3/6 569/3/6
f 566/3/6 562/3/6 570/3/6
f 569/1/6 566/1/6 570/1/6
f 570/3/6 562/3/6 571/3/6
f 568/1/6 569/1/6 572/1/6
f 572/1/6 569/1/6 573/1/6
