# MagicaVoxel @ Ephtracy

# group
o 

# material
mtllib get-color.mtl
usemtl palette

# normals
vn 0 0 1
vn 0 0 -1
vn 1 0 0
vn -1 0 0
vn 0 -1 0
vn 0 1 0

# texcoords
vt 0.232422 0.5
vt 0.263672 0.5
vt 0.267578 0.5

# verts
v 0.3 0 0.8
v 0.1 0 0.8
v -0.3 0 0.8
v -0.5 0 0.8
v 0.3 0.1 0.8
v 0.1 0.1 0.8
v -0.3 0.1 0.8
v -0.5 0.1 0.8
v 0.1 0 0.7
v -0.2 0 0.7
v -0.3 0 0.7
v 0.1 0.1 0.7
v -0.2 0.1 0.7
v -0.3 0.1 0.7
v 0.5 0 0.6
v 0.1 0 0.6
v -0.3 0 0.6
v -0.4 0 0.6
v 0.5 0.1 0.6
v 0.3 0.1 0.6
v 0.2 0.1 0.6
v 0.1 0.1 0.6
v -0.2 0.1 0.6
v -0.3 0.1 0.6
v -0.4 0.1 0.6
v 0.3 0.2 0.6
v 0.2 0.2 0.6
v 0.1 0.2 0.6
v -0.3 0.2 0.6
v 0.6 0 0.5
v 0.5 0 0.5
v -0.4 0 0.5
v -0.5 0 0.5
v -0.6 0 0.5
v 0.5 0.1 0.5
v 0.3 0.1 0.5
v 0.2 0.1 0.5
v 0.1 0.1 0.5
v -0.3 0.1 0.5
v -0.4 0.1 0.5
v -0.5 0.1 0.5
v -0.6 0.1 0.5
v 0.6 0.2 0.5
v 0.5 0.2 0.5
v 0.3 0.2 0.5
v 0.2 0.2 0.5
v 0.1 0.2 0.5
v -0.3 0.2 0.5
v -0.4 0.2 0.5
v -0.5 0.2 0.5
v -0.7 0 0.4
v -0.8 0 0.4
v -0.7 0.1 0.4
v -0.8 0.1 0.4
v 0.7 0 0.3
v 0.6 0 0.3
v -0.6 0 0.3
v -0.7 0 0.3
v 0.7 0.1 0.3
v 0.6 0.1 0.3
v -0.6 0.1 0.3
v -0.7 0.1 0.3
v 0.5 0.1 0.2
v 0.4 0.1 0.2
v 0.5 0.2 0.2
v 0.4 0.2 0.2
v 0.8 0 0
v 0.7 0 0
v 0.8 0.1 0
v 0.7 0.1 0
v 0.9 0 -0.1
v 0.8 0 -0.1
v 0.9 0.1 -0.1
v 0.8 0.1 -0.1
v 0.6 0 -0.6
v 0.5 0 -0.6
v 0.6 0.1 -0.6
v 0.5 0.1 -0.6
v 0.3 0 0.7
v 0.1 0 0.7
v -0.3 0 0.7
v -0.5 0 0.7
v 0.3 0.1 0.7
v 0.1 0.1 0.7
v -0.3 0.1 0.7
v -0.5 0.1 0.7
v 0.6 0.1 0.4
v 0.5 0.1 0.4
v 0.4 0.1 0.4
v 0.6 0.2 0.4
v 0.5 0.2 0.4
v 0.4 0.2 0.4
v -0.7 0 0
v -0.8 0 0
v -0.7 0.1 0
v -0.8 0.1 0
v 0.9 0 -0.2
v 0.7 0 -0.2
v -0.6 0 -0.2
v -0.7 0 -0.2
v 0.9 0.1 -0.2
v 0.7 0.1 -0.2
v 0.5 0.1 -0.2
v 0.4 0.1 -0.2
v -0.4 0.1 -0.2
v -0.5 0.1 -0.2
v -0.6 0.1 -0.2
v -0.7 0.1 -0.2
v 0.5 0.2 -0.2
v 0.4 0.2 -0.2
v -0.4 0.2 -0.2
v -0.5 0.2 -0.2
v 0.7 0 -0.3
v 0.6 0 -0.3
v -0.5 0 -0.3
v -0.6 0 -0.3
v 0.7 0.1 -0.3
v 0.6 0.1 -0.3
v -0.3 0.1 -0.3
v -0.4 0.1 -0.3
v -0.5 0.1 -0.3
v -0.6 0.1 -0.3
v -0.3 0.2 -0.3
v -0.4 0.2 -0.3
v 0.6 0 -0.4
v 0.5 0 -0.4
v 0.6 0.1 -0.4
v 0.5 0.1 -0.4
v 0.4 0.1 -0.4
v 0.3 0.1 -0.4
v 0.2 0.1 -0.4
v 0.1 0.1 -0.4
v -0.2 0.1 -0.4
v -0.3 0.1 -0.4
v 0.4 0.2 -0.4
v 0.3 0.2 -0.4
v 0.2 0.2 -0.4
v 0.1 0.2 -0.4
v -0.2 0.2 -0.4
v -0.3 0.2 -0.4
v 0.4 0 -0.5
v 0.3 0 -0.5
v -0.4 0 -0.5
v -0.5 0 -0.5
v 0.4 0.1 -0.5
v 0.3 0.1 -0.5
v 0.2 0.1 -0.5
v 0.1 0.1 -0.5
v 0 0.1 -0.5
v -0.1 0.1 -0.5
v -0.2 0.1 -0.5
v -0.4 0.1 -0.5
v -0.5 0.1 -0.5
v 0.3 0.2 -0.5
v 0.2 0.2 -0.5
v 0.1 0.2 -0.5
v 0 0.2 -0.5
v -0.1 0.2 -0.5
v -0.2 0.2 -0.5
v 0.5 0 -0.6
v 0.4 0 -0.6
v 0.3 0 -0.6
v 0.2 0 -0.6
v 0.1 0 -0.6
v -0.1 0 -0.6
v -0.3 0 -0.6
v -0.4 0 -0.6
v 0.5 0.1 -0.6
v 0.4 0.1 -0.6
v 0.3 0.1 -0.6
v 0.2 0.1 -0.6
v 0.1 0.1 -0.6
v 0 0.1 -0.6
v -0.1 0.1 -0.6
v -0.3 0.1 -0.6
v -0.4 0.1 -0.6
v 0 0.2 -0.6
v -0.1 0.2 -0.6
v 0.6 0 -0.7
v 0.5 0 -0.7
v 0.2 0 -0.7
v 0.1 0 -0.7
v -0.2 0 -0.7
v -0.3 0 -0.7
v 0.6 0.1 -0.7
v 0.5 0.1 -0.7
v 0.2 0.1 -0.7
v 0.1 0.1 -0.7
v -0.2 0.1 -0.7
v -0.3 0.1 -0.7
v -0.1 0 -0.8
v -0.2 0 -0.8
v -0.1 0.1 -0.8
v -0.2 0.1 -0.8
v 0.9 0 -0.1
v 0.9 0.1 -0.1
v 0.9 0 -0.2
v 0.9 0.1 -0.2
v 0.8 0 0
v 0.8 0.1 0
v 0.8 0 -0.1
v 0.8 0.1 -0.1
v 0.7 0 0.3
v 0.7 0.1 0.3
v 0.7 0 0
v 0.7 0.1 0
v 0.7 0 -0.2
v 0.7 0.1 -0.2
v 0.7 0 -0.3
v 0.7 0.1 -0.3
v 0.6 0 0.5
v 0.6 0.2 0.5
v 0.6 0 0.4
v 0.6 0.1 0.4
v 0.6 0.2 0.4
v 0.6 0 0.3
v 0.6 0.1 0.3
v 0.6 0 -0.3
v 0.6 0.1 -0.3
v 0.6 0 -0.4
v 0.6 0.1 -0.4
v 0.6 0 -0.6
v 0.6 0.1 -0.6
v 0.6 0 -0.7
v 0.6 0.1 -0.7
v 0.5 0 0.6
v 0.5 0.1 0.6
v 0.5 0 0.5
v 0.5 0.1 0.5
v 0.5 0.1 0.2
v 0.5 0.2 0.2
v 0.5 0.1 -0.2
v 0.5 0.2 -0.2
v 0.5 0 -0.4
v 0.5 0.1 -0.4
v 0.5 0 -0.6
v 0.5 0.1 -0.6
v 0.4 0.1 0.4
v 0.4 0.2 0.4
v 0.4 0.1 0.3
v 0.4 0.2 0.3
v 0.4 0.1 0.2
v 0.4 0.2 0.2
v 0.4 0.1 -0.2
v 0.4 0.2 -0.2
v 0.4 0.1 -0.3
v 0.4 0.1 -0.4
v 0.4 0.2 -0.4
v 0.3 0 0.8
v 0.3 0.1 0.8
v 0.3 0 0.7
v 0.3 0.1 0.7
v 0.3 0.1 0.6
v 0.3 0.2 0.6
v 0.3 0.1 0.5
v 0.3 0.2 0.5
v 0.3 0.1 -0.4
v 0.3 0.2 -0.4
v 0.3 0 -0.5
v 0.3 0.1 -0.5
v 0.3 0.2 -0.5
v 0.3 0 -0.6
v 0.3 0.1 -0.6
v 0.2 0 -0.6
v 0.2 0.1 -0.6
v 0.2 0 -0.7
v 0.2 0.1 -0.7
v 0.1 0 0.7
v 0.1 0.1 0.7
v 0.1 0 0.6
v 0.1 0.1 0.6
v 0.1 0.2 0.6
v 0.1 0.1 0.5
v 0.1 0.2 0.5
v 0.1 0.1 -0.4
v 0.1 0.2 -0.4
v 0.1 0.1 -0.5
v 0.1 0.2 -0.5
v 0 0.1 -0.5
v 0 0.2 -0.5
v 0 0.1 -0.6
v 0 0.2 -0.6
v -0.1 0 -0.6
v -0.1 0.1 -0.6
v -0.1 0 -0.8
v -0.1 0.1 -0.8
v -0.3 0 0.8
v -0.3 0.1 0.8
v -0.3 0 0.7
v -0.3 0.1 0.7
v -0.7 0 0.4
v -0.7 0.1 0.4
v -0.7 0 0.3
v -0.7 0.1 0.3
v 0.5 0 -0.6
v 0.5 0.1 -0.6
v 0.5 0 -0.7
v 0.5 0.1 -0.7
v 0.4 0 -0.5
v 0.4 0.1 -0.5
v 0.4 0 -0.6
v 0.4 0.1 -0.6
v 0.2 0.1 0.6
v 0.2 0.2 0.6
v 0.2 0.1 0.5
v 0.2 0.2 0.5
v 0.2 0.1 -0.4
v 0.2 0.2 -0.4
v 0.2 0.1 -0.5
v 0.2 0.2 -0.5
v 0.1 0 0.8
v 0.1 0.1 0.8
v 0.1 0 0.7
v 0.1 0.1 0.7
v 0.1 0 -0.6
v 0.1 0.1 -0.6
v 0.1 0 -0.7
v 0.1 0.1 -0.7
v -0.1 0.1 -0.5
v -0.1 0.2 -0.5
v -0.1 0.1 -0.6
v -0.1 0.2 -0.6
v -0.2 0.1 -0.4
v -0.2 0.2 -0.4
v -0.2 0.1 -0.5
v -0.2 0.2 -0.5
v -0.2 0 -0.7
v -0.2 0.1 -0.7
v -0.2 0 -0.8
v -0.2 0.1 -0.8
v -0.3 0 0.7
v -0.3 0.1 0.7
v -0.3 0 0.6
v -0.3 0.1 0.6
v -0.3 0.2 0.6
v -0.3 0.1 0.5
v -0.3 0.2 0.5
v -0.3 0.1 -0.3
v -0.3 0.2 -0.3
v -0.3 0.1 -0.4
v -0.3 0.2 -0.4
v -0.3 0 -0.6
v -0.3 0.1 -0.6
v -0.3 0 -0.7
v -0.3 0.1 -0.7
v -0.4 0 0.6
v -0.4 0.1 0.6
v -0.4 0 0.5
v -0.4 0.1 0.5
v -0.4 0.1 -0.2
v -0.4 0.2 -0.2
v -0.4 0.1 -0.3
v -0.4 0.2 -0.3
v -0.4 0 -0.5
v -0.4 0.1 -0.5
v -0.4 0 -0.6
v -0.4 0.1 -0.6
v -0.5 0 0.8
v -0.5 0.1 0.8
v -0.5 0 0.7
v -0.5 0.1 0.7
v -0.5 0.1 0.5
v -0.5 0.2 0.5
v -0.5 0.1 0.3
v -0.5 0.2 0.3
v -0.5 0.1 0.1
v -0.5 0.1 -0.2
v -0.5 0.2 -0.2
v -0.5 0 -0.3
v -0.5 0.1 -0.3
v -0.5 0 -0.5
v -0.5 0.1 -0.5
v -0.6 0 0.5
v -0.6 0.1 0.5
v -0.6 0 0.3
v -0.6 0.1 0.3
v -0.6 0 -0.2
v -0.6 0.1 -0.2
v -0.6 0 -0.3
v -0.6 0.1 -0.3
v -0.7 0 0
v -0.7 0.1 0
v -0.7 0 -0.2
v -0.7 0.1 -0.2
v -0.8 0 0.4
v -0.8 0.1 0.4
v -0.8 0 0.3
v -0.8 0.1 0.3
v -0.8 0 0.2
v -0.8 0.1 0.2
v -0.8 0 0
v -0.8 0.1 0
v 0.9 0 -0.1
v 0.9 0 -0.2
v 0.8 0 0
v 0.8 0 -0.1
v 0.7 0 0.3
v 0.7 0 0
v 0.7 0 -0.1
v 0.7 0 -0.2
v 0.7 0 -0.3
v 0.6 0 0.5
v 0.6 0 0.4
v 0.6 0 0.3
v 0.6 0 0
v 0.6 0 -0.1
v 0.6 0 -0.2
v 0.6 0 -0.3
v 0.6 0 -0.4
v 0.6 0 -0.6
v 0.6 0 -0.7
v 0.5 0 0.6
v 0.5 0 0.5
v 0.5 0 0.4
v 0.5 0 0.3
v 0.5 0 -0.2
v 0.5 0 -0.3
v 0.5 0 -0.4
v 0.5 0 -0.6
v 0.5 0 -0.7
v 0.4 0 0.4
v 0.4 0 0.3
v 0.4 0 -0.3
v 0.4 0 -0.5
v 0.4 0 -0.6
v 0.3 0 0.8
v 0.3 0 0.7
v 0.3 0 -0.5
v 0.3 0 -0.6
v 0.2 0 -0.4
v 0.2 0 -0.6
v 0.2 0 -0.7
v 0.1 0 0.8
v 0.1 0 0.7
v 0.1 0 0.6
v 0.1 0 -0.4
v 0.1 0 -0.6
v 0.1 0 -0.7
v -0.1 0 -0.6
v -0.1 0 -0.8
v -0.2 0 0.7
v -0.2 0 0.6
v -0.2 0 -0.5
v -0.2 0 -0.6
v -0.2 0 -0.7
v -0.2 0 -0.8
v -0.3 0 0.8
v -0.3 0 0.7
v -0.3 0 0.6
v -0.3 0 0.5
v -0.3 0 -0.3
v -0.3 0 -0.5
v -0.3 0 -0.6
v -0.3 0 -0.7
v -0.4 0 0.6
v -0.4 0 0.5
v -0.4 0 -0.3
v -0.4 0 -0.5
v -0.4 0 -0.6
v -0.5 0 0.8
v -0.5 0 0.7
v -0.5 0 0.5
v -0.5 0 0.3
v -0.5 0 0.1
v -0.5 0 -0.3
v -0.5 0 -0.5
v -0.6 0 0.5
v -0.6 0 0.3
v -0.6 0 0.2
v -0.6 0 0.1
v -0.6 0 -0.2
v -0.6 0 -0.3
v -0.7 0 0.4
v -0.7 0 0.3
v -0.7 0 0.2
v -0.7 0 0
v -0.7 0 -0.2
v -0.8 0 0.4
v -0.8 0 0.3
v -0.8 0 0.2
v -0.8 0 0
v 0.9 0.1 -0.1
v 0.9 0.1 -0.2
v 0.8 0.1 0
v 0.8 0.1 -0.1
v 0.7 0.1 0.3
v 0.7 0.1 0
v 0.7 0.1 -0.1
v 0.7 0.1 -0.2
v 0.7 0.1 -0.3
v 0.6 0.1 0.4
v 0.6 0.1 0.3
v 0.6 0.1 0
v 0.6 0.1 -0.1
v 0.6 0.1 -0.2
v 0.6 0.1 -0.3
v 0.6 0.1 -0.4
v 0.6 0.1 -0.6
v 0.6 0.1 -0.7
v 0.5 0.1 0.6
v 0.5 0.1 0.5
v 0.5 0.1 0.4
v 0.5 0.1 0.3
v 0.5 0.1 0.2
v 0.5 0.1 -0.2
v 0.5 0.1 -0.3
v 0.5 0.1 -0.4
v 0.5 0.1 -0.6
v 0.5 0.1 -0.7
v 0.4 0.1 0.4
v 0.4 0.1 0.3
v 0.4 0.1 0.2
v 0.4 0.1 -0.2
v 0.4 0.1 -0.3
v 0.4 0.1 -0.4
v 0.4 0.1 -0.5
v 0.4 0.1 -0.6
v 0.3 0.1 0.8
v 0.3 0.1 0.7
v 0.3 0.1 0.6
v 0.3 0.1 0.5
v 0.3 0.1 -0.4
v 0.3 0.1 -0.5
v 0.3 0.1 -0.6
v 0.2 0.1 0.6
v 0.2 0.1 0.5
v 0.2 0.1 -0.4
v 0.2 0.1 -0.5
v 0.2 0.1 -0.6
v 0.2 0.1 -0.7
v 0.1 0.1 0.8
v 0.1 0.1 0.7
v 0.1 0.1 0.6
v 0.1 0.1 0.5
v 0.1 0.1 -0.4
v 0.1 0.1 -0.5
v 0.1 0.1 -0.6
v 0.1 0.1 -0.7
v 0 0.1 -0.5
v 0 0.1 -0.6
v -0.1 0.1 -0.5
v -0.1 0.1 -0.6
v -0.1 0.1 -0.8
v -0.2 0.1 0.7
v -0.2 0.1 0.6
v -0.2 0.1 -0.4
v -0.2 0.1 -0.5
v -0.2 0.1 -0.6
v -0.2 0.1 -0.7
v -0.2 0.1 -0.8
v -0.3 0.1 0.8
v -0.3 0.1 0.7
v -0.3 0.1 0.6
v -0.3 0.1 0.5
v -0.3 0.1 -0.3
v -0.3 0.1 -0.4
v -0.3 0.1 -0.5
v -0.3 0.1 -0.6
v -0.3 0.1 -0.7
v -0.4 0.1 0.6
v -0.4 0.1 0.5
v -0.4 0.1 -0.2
v -0.4 0.1 -0.3
v -0.4 0.1 -0.5
v -0.4 0.1 -0.6
v -0.5 0.1 0.8
v -0.5 0.1 0.7
v -0.5 0.1 0.5
v -0.5 0.1 0.3
v -0.5 0.1 0.1
v -0.5 0.1 -0.2
v -0.5 0.1 -0.3
v -0.5 0.1 -0.5
v -0.6 0.1 0.5
v -0.6 0.1 0.3
v -0.6 0.1 0.2
v -0.6 0.1 0.1
v -0.6 0.1 -0.2
v -0.6 0.1 -0.3
v -0.7 0.1 0.4
v -0.7 0.1 0.3
v -0.7 0.1 0.2
v -0.7 0.1 0
v -0.7 0.1 -0.2
v -0.8 0.1 0.4
v -0.8 0.1 0.3
v -0.8 0.1 0.2
v -0.8 0.1 0
v 0.6 0.2 0.5
v 0.6 0.2 0.4
v 0.5 0.2 0.5
v 0.5 0.2 0.4
v 0.5 0.2 0.2
v 0.5 0.2 -0.2
v 0.4 0.2 0.4
v 0.4 0.2 0.3
v 0.4 0.2 0.2
v 0.4 0.2 0.1
v 0.4 0.2 0
v 0.4 0.2 -0.1
v 0.4 0.2 -0.2
v 0.4 0.2 -0.4
v 0.3 0.2 0.6
v 0.3 0.2 0.5
v 0.3 0.2 0.3
v 0.3 0.2 0.2
v 0.3 0.2 0.1
v 0.3 0.2 0
v 0.3 0.2 -0.1
v 0.3 0.2 -0.2
v 0.3 0.2 -0.3
v 0.3 0.2 -0.4
v 0.3 0.2 -0.5
v 0.2 0.2 0.6
v 0.2 0.2 0.5
v 0.2 0.2 0.4
v 0.2 0.2 0.3
v 0.2 0.2 0
v 0.2 0.2 -0.1
v 0.2 0.2 -0.2
v 0.2 0.2 -0.3
v 0.2 0.2 -0.4
v 0.2 0.2 -0.5
v 0.1 0.2 0.6
v 0.1 0.2 0.5
v 0.1 0.2 0.4
v 0.1 0.2 0.3
v 0.1 0.2 0
v 0.1 0.2 -0.1
v 0.1 0.2 -0.4
v 0.1 0.2 -0.5
v 0 0.2 0.5
v 0 0.2 0.4
v 0 0.2 0.2
v 0 0.2 0
v 0 0.2 -0.5
v 0 0.2 -0.6
v -0.1 0.2 0.5
v -0.1 0.2 0.4
v -0.1 0.2 0.3
v -0.1 0.2 0.2
v -0.1 0.2 0
v -0.1 0.2 -0.5
v -0.1 0.2 -0.6
v -0.2 0.2 0.5
v -0.2 0.2 0.4
v -0.2 0.2 0.3
v -0.2 0.2 0
v -0.2 0.2 -0.1
v -0.2 0.2 -0.2
v -0.2 0.2 -0.3
v -0.2 0.2 -0.4
v -0.2 0.2 -0.5
v -0.3 0.2 0.6
v -0.3 0.2 0.5
v -0.3 0.2 0.3
v -0.3 0.2 0
v -0.3 0.2 -0.1
v -0.3 0.2 -0.3
v -0.3 0.2 -0.4
v -0.4 0.2 0.5
v -0.4 0.2 0.3
v -0.4 0.2 0
v -0.4 0.2 -0.2
v -0.4 0.2 -0.3
v -0.5 0.2 0.5
v -0.5 0.2 0.3
v -0.5 0.2 -0.2

# faces
f 5/3/1 2/3/1 1/3/1
f 6/3/1 2/3/1 5/3/1
f 7/1/1 4/1/1 3/1/1
f 8/1/1 4/1/1 7/1/1
f 12/3/1 10/3/1 9/3/1
f 13/2/1 11/2/1 10/2/1
f 13/3/1 10/3/1 12/3/1
f 14/2/1 11/2/1 13/2/1
f 19/3/1 16/3/1 15/3/1
f 20/3/1 16/3/1 19/3/1
f 21/3/1 16/3/1 20/3/1
f 22/3/1 16/3/1 21/3/1
f 24/1/1 18/1/1 17/1/1
f 25/1/1 18/1/1 24/1/1
f 26/3/1 21/3/1 20/3/1
f 27/3/1 21/3/1 26/3/1
f 28/3/1 23/3/1 22/3/1
f 28/3/1 24/3/1 23/3/1
f 29/3/1 24/3/1 28/3/1
f 35/1/1 31/1/1 30/1/1
f 40/3/1 33/3/1 32/3/1
f 41/1/1 34/1/1 33/1/1
f 41/3/1 33/3/1 40/3/1
f 42/1/1 34/1/1 41/1/1
f 43/1/1 35/1/1 30/1/1
f 44/3/1 36/3/1 35/3/1
f 44/1/1 35/1/1 43/1/1
f 45/3/1 36/3/1 44/3/1
f 46/3/1 38/3/1 37/3/1
f 47/3/1 38/3/1 46/3/1
f 48/3/1 40/3/1 39/3/1
f 49/1/1 41/1/1 40/1/1
f 49/3/1 40/3/1 48/3/1
f 50/1/1 41/1/1 49/1/1
f 53/2/1 52/2/1 51/2/1
f 54/2/1 52/2/1 53/2/1
f 59/3/1 56/3/1 55/3/1
f 60/3/1 56/3/1 59/3/1
f 61/2/1 58/2/1 57/2/1
f 62/2/1 58/2/1 61/2/1
f 65/3/1 64/3/1 63/3/1
f 66/3/1 64/3/1 65/3/1
f 69/1/1 68/1/1 67/1/1
f 70/1/1 68/1/1 69/1/1
f 73/1/1 72/1/1 71/1/1
f 74/1/1 72/1/1 73/1/1
f 77/1/1 76/1/1 75/1/1
f 78/1/1 76/1/1 77/1/1
f 79/3/2 80/3/2 83/3/2
f 83/3/2 80/3/2 84/3/2
f 81/1/2 82/1/2 85/1/2
f 85/1/2 82/1/2 86/1/2
f 87/1/2 88/1/2 90/1/2
f 88/3/2 89/3/2 91/3/2
f 90/1/2 88/1/2 91/1/2
f 91/3/2 89/3/2 92/3/2
f 93/1/2 94/1/2 95/1/2
f 95/1/2 94/1/2 96/1/2
f 97/1/2 98/1/2 101/1/2
f 101/1/2 98/1/2 102/1/2
f 99/3/2 100/3/2 107/3/2
f 107/3/2 100/3/2 108/3/2
f 103/3/2 104/3/2 109/3/2
f 109/3/2 104/3/2 110/3/2
f 105/3/2 106/3/2 111/3/2
f 111/3/2 106/3/2 112/3/2
f 113/2/2 114/2/2 117/2/2
f 117/2/2 114/2/2 118/2/2
f 115/3/2 116/3/2 121/3/2
f 121/3/2 116/3/2 122/3/2
f 119/1/2 120/1/2 123/1/2
f 123/1/2 120/1/2 124/1/2
f 125/1/2 126/1/2 127/1/2
f 127/1/2 126/1/2 128/1/2
f 129/3/2 130/3/2 135/3/2
f 135/3/2 130/3/2 136/3/2
f 131/3/2 132/3/2 137/3/2
f 137/3/2 132/3/2 138/3/2
f 133/3/2 134/3/2 139/3/2
f 139/3/2 134/3/2 140/3/2
f 141/3/2 142/3/2 145/3/2
f 145/3/2 142/3/2 146/3/2
f 143/3/2 144/3/2 152/3/2
f 152/3/2 144/3/2 153/3/2
f 146/3/2 147/3/2 154/3/2
f 154/3/2 147/3/2 155/3/2
f 148/3/2 149/3/2 156/3/2
f 156/3/2 149/3/2 157/3/2
f 150/3/2 151/3/2 158/3/2
f 158/3/2 151/3/2 159/3/2
f 160/1/2 161/1/2 168/1/2
f 168/1/2 161/1/2 169/1/2
f 162/3/2 163/3/2 170/3/2
f 170/3/2 163/3/2 171/3/2
f 164/3/2 165/3/2 172/3/2
f 172/3/2 165/3/2 173/3/2
f 173/3/2 165/3/2 174/3/2
f 166/3/2 167/3/2 175/3/2
f 175/3/2 167/3/2 176/3/2
f 173/3/2 174/3/2 177/3/2
f 177/3/2 174/3/2 178/3/2
f 179/1/2 180/1/2 185/1/2
f 185/1/2 180/1/2 186/1/2
f 181/3/2 182/3/2 187/3/2
f 187/3/2 182/3/2 188/3/2
f 183/3/2 184/3/2 189/3/2
f 189/3/2 184/3/2 190/3/2
f 191/2/2 192/2/2 193/2/2
f 193/2/2 192/2/2 194/2/2
f 197/1/3 196/1/3 195/1/3
f 198/1/3 196/1/3 197/1/3
f 201/1/3 200/1/3 199/1/3
f 202/1/3 200/1/3 201/1/3
f 205/3/3 204/3/3 203/3/3
f 206/3/3 204/3/3 205/3/3
f 209/2/3 208/2/3 207/2/3
f 210/2/3 208/2/3 209/2/3
f 213/1/3 212/1/3 211/1/3
f 214/1/3 212/1/3 213/1/3
f 215/1/3 212/1/3 214/1/3
f 216/3/3 214/3/3 213/3/3
f 217/3/3 214/3/3 216/3/3
f 220/1/3 219/1/3 218/1/3
f 221/1/3 219/1/3 220/1/3
f 224/1/3 223/1/3 222/1/3
f 225/1/3 223/1/3 224/1/3
f 228/3/3 227/3/3 226/3/3
f 229/3/3 227/3/3 228/3/3
f 232/3/3 231/3/3 230/3/3
f 233/3/3 231/3/3 232/3/3
f 236/1/3 235/1/3 234/1/3
f 237/1/3 235/1/3 236/1/3
f 240/3/3 239/3/3 238/3/3
f 241/3/3 239/3/3 240/3/3
f 242/1/3 241/1/3 240/1/3
f 243/1/3 241/1/3 242/1/3
f 246/3/3 245/3/3 244/3/3
f 247/3/3 245/3/3 246/3/3
f 248/3/3 245/3/3 247/3/3
f 251/3/3 250/3/3 249/3/3
f 252/3/3 250/3/3 251/3/3
f 255/3/3 254/3/3 253/3/3
f 256/3/3 254/3/3 255/3/3
f 260/3/3 258/3/3 257/3/3
f 261/3/3 258/3/3 260/3/3
f 262/3/3 260/3/3 259/3/3
f 263/3/3 260/3/3 262/3/3
f 266/3/3 265/3/3 264/3/3
f 267/3/3 265/3/3 266/3/3
f 270/3/3 269/3/3 268/3/3
f 271/3/3 269/3/3 270/3/3
f 273/3/3 272/3/3 271/3/3
f 274/3/3 272/3/3 273/3/3
f 277/3/3 276/3/3 275/3/3
f 278/3/3 276/3/3 277/3/3
f 281/3/3 280/3/3 279/3/3
f 282/3/3 280/3/3 281/3/3
f 285/2/3 284/2/3 283/2/3
f 286/2/3 284/2/3 285/2/3
f 289/1/3 288/1/3 287/1/3
f 290/1/3 288/1/3 289/1/3
f 293/2/3 292/2/3 291/2/3
f 294/2/3 292/2/3 293/2/3
f 295/1/4 296/1/4 297/1/4
f 297/1/4 296/1/4 298/1/4
f 299/1/4 300/1/4 301/1/4
f 301/1/4 300/1/4 302/1/4
f 303/3/4 304/3/4 305/3/4
f 305/3/4 304/3/4 306/3/4
f 307/3/4 308/3/4 309/3/4
f 309/3/4 308/3/4 310/3/4
f 311/3/4 312/3/4 313/3/4
f 313/3/4 312/3/4 314/3/4
f 315/3/4 316/3/4 317/3/4
f 317/3/4 316/3/4 318/3/4
f 319/3/4 320/3/4 321/3/4
f 321/3/4 320/3/4 322/3/4
f 323/3/4 324/3/4 325/3/4
f 325/3/4 324/3/4 326/3/4
f 327/2/4 328/2/4 329/2/4
f 329/2/4 328/2/4 330/2/4
f 331/2/4 332/2/4 333/2/4
f 333/2/4 332/2/4 334/2/4
f 334/3/4 335/3/4 336/3/4
f 336/3/4 335/3/4 337/3/4
f 338/3/4 339/3/4 340/3/4
f 340/3/4 339/3/4 341/3/4
f 342/3/4 343/3/4 344/3/4
f 344/3/4 343/3/4 345/3/4
f 346/1/4 347/1/4 348/1/4
f 348/1/4 347/1/4 349/1/4
f 350/1/4 351/1/4 352/1/4
f 352/1/4 351/1/4 353/1/4
f 354/3/4 355/3/4 356/3/4
f 356/3/4 355/3/4 357/3/4
f 358/1/4 359/1/4 360/1/4
f 360/1/4 359/1/4 361/1/4
f 362/1/4 363/1/4 364/1/4
f 364/1/4 363/1/4 365/1/4
f 364/3/4 365/3/4 366/3/4
f 366/3/4 365/3/4 367/3/4
f 367/3/4 365/3/4 368/3/4
f 369/3/4 370/3/4 371/3/4
f 371/3/4 370/3/4 372/3/4
f 373/1/4 374/1/4 375/1/4
f 375/1/4 374/1/4 376/1/4
f 377/3/4 378/3/4 379/3/4
f 379/3/4 378/3/4 380/3/4
f 381/3/4 382/3/4 383/3/4
f 383/3/4 382/3/4 384/3/4
f 385/2/4 386/2/4 387/2/4
f 387/2/4 386/2/4 388/2/4
f 387/3/4 388/3/4 389/3/4
f 389/3/4 388/3/4 390/3/4
f 389/1/4 390/1/4 391/1/4
f 391/1/4 390/1/4 392/1/4
f 396/1/5 394/1/5 393/1/5
f 398/1/5 396/1/5 395/1/5
f 399/1/5 394/1/5 396/1/5
f 399/1/5 396/1/5 398/1/5
f 400/1/5 394/1/5 399/1/5
f 404/3/5 398/3/5 397/3/5
f 405/1/5 399/1/5 398/1/5
f 405/3/5 398/3/5 404/3/5
f 406/3/5 400/3/5 399/3/5
f 406/1/5 399/1/5 405/1/5
f 407/2/5 401/2/5 400/2/5
f 407/3/5 400/3/5 406/3/5
f 408/2/5 401/2/5 407/2/5
f 413/1/5 403/1/5 402/1/5
f 414/3/5 404/3/5 403/3/5
f 414/3/5 405/3/5 404/3/5
f 414/1/5 403/1/5 413/1/5
f 414/3/5 406/3/5 405/3/5
f 414/3/5 407/3/5 406/3/5
f 415/3/5 407/3/5 414/3/5
f 416/1/5 409/1/5 408/1/5
f 416/3/5 407/3/5 415/3/5
f 416/1/5 408/1/5 407/1/5
f 417/1/5 409/1/5 416/1/5
f 418/1/5 409/1/5 417/1/5
f 419/1/5 411/1/5 410/1/5
f 420/1/5 411/1/5 419/1/5
f 421/3/5 413/3/5 412/3/5
f 421/2/5 415/2/5 414/2/5
f 421/3/5 414/3/5 413/3/5
f 422/3/5 416/3/5 415/3/5
f 422/2/5 415/2/5 421/2/5
f 422/3/5 417/3/5 416/3/5
f 423/1/5 418/1/5 417/1/5
f 423/3/5 417/3/5 422/3/5
f 423/1/5 419/1/5 418/1/5
f 424/1/5 419/1/5 423/1/5
f 425/1/5 419/1/5 424/1/5
f 428/3/5 422/3/5 421/3/5
f 428/3/5 423/3/5 422/3/5
f 428/3/5 424/3/5 423/3/5
f 430/3/5 428/3/5 421/3/5
f 430/3/5 429/3/5 428/3/5
f 431/3/5 429/3/5 430/3/5
f 433/3/5 427/3/5 426/3/5
f 434/3/5 427/3/5 433/3/5
f 435/3/5 421/3/5 412/3/5
f 435/3/5 430/3/5 421/3/5
f 436/2/5 431/2/5 430/2/5
f 436/3/5 430/3/5 435/3/5
f 437/3/5 432/3/5 431/3/5
f 437/2/5 431/2/5 436/2/5
f 438/3/5 432/3/5 437/3/5
f 439/3/5 436/3/5 435/3/5
f 439/3/5 437/3/5 436/3/5
f 439/3/5 435/3/5 434/3/5
f 441/3/5 439/3/5 434/3/5
f 442/3/5 439/3/5 441/3/5
f 443/3/5 439/3/5 442/3/5
f 444/2/5 440/2/5 439/2/5
f 444/3/5 439/3/5 443/3/5
f 445/2/5 440/2/5 444/2/5
f 446/2/5 440/2/5 445/2/5
f 448/2/5 442/2/5 441/2/5
f 449/3/5 443/3/5 442/3/5
f 449/2/5 442/2/5 448/2/5
f 450/3/5 443/3/5 449/3/5
f 451/3/5 443/3/5 450/3/5
f 452/2/5 444/2/5 443/2/5
f 452/3/5 443/3/5 451/3/5
f 453/3/5 445/3/5 444/3/5
f 453/2/5 444/2/5 452/2/5
f 454/3/5 445/3/5 453/3/5
f 455/1/5 450/1/5 449/1/5
f 456/3/5 451/3/5 450/3/5
f 456/1/5 450/1/5 455/1/5
f 457/2/5 452/2/5 451/2/5
f 457/3/5 451/3/5 456/3/5
f 458/3/5 453/3/5 452/3/5
f 458/2/5 452/2/5 457/2/5
f 459/3/5 453/3/5 458/3/5
f 460/1/5 448/1/5 447/1/5
f 461/1/5 448/1/5 460/1/5
f 462/3/5 458/3/5 457/3/5
f 462/3/5 457/3/5 456/3/5
f 463/3/5 458/3/5 462/3/5
f 464/3/5 458/3/5 463/3/5
f 465/3/5 458/3/5 464/3/5
f 466/3/5 458/3/5 465/3/5
f 467/1/5 463/1/5 462/1/5
f 468/2/5 464/2/5 463/2/5
f 468/1/5 463/1/5 467/1/5
f 469/2/5 464/2/5 468/2/5
f 470/3/5 465/3/5 464/3/5
f 470/2/5 464/2/5 469/2/5
f 471/3/5 465/3/5 470/3/5
f 472/3/5 465/3/5 471/3/5
f 474/2/5 469/2/5 468/2/5
f 475/3/5 471/3/5 470/3/5
f 475/3/5 470/3/5 469/3/5
f 475/2/5 469/2/5 474/2/5
f 476/3/5 471/3/5 475/3/5
f 477/3/5 471/3/5 476/3/5
f 478/2/5 474/2/5 473/2/5
f 479/3/5 475/3/5 474/3/5
f 479/2/5 474/2/5 478/2/5
f 480/1/5 476/1/5 475/1/5
f 480/3/5 475/3/5 479/3/5
f 481/1/5 476/1/5 480/1/5
f 482/1/6 483/1/6 485/1/6
f 484/1/6 485/1/6 487/1/6
f 485/1/6 483/1/6 488/1/6
f 487/1/6 485/1/6 488/1/6
f 488/1/6 483/1/6 489/1/6
f 486/3/6 487/3/6 492/3/6
f 487/1/6 488/1/6 493/1/6
f 492/3/6 487/3/6 493/3/6
f 488/3/6 489/3/6 494/3/6
f 493/1/6 488/1/6 494/1/6
f 489/2/6 490/2/6 495/2/6
f 494/3/6 489/3/6 495/3/6
f 495/2/6 490/2/6 496/2/6
f 493/3/6 494/3/6 502/3/6
f 491/3/6 492/3/6 502/3/6
f 492/3/6 493/3/6 502/3/6
f 494/3/6 495/3/6 502/3/6
f 502/3/6 495/3/6 503/3/6
f 503/3/6 495/3/6 504/3/6
f 496/1/6 497/1/6 505/1/6
f 504/3/6 495/3/6 505/3/6
f 495/1/6 496/1/6 505/1/6
f 505/1/6 497/1/6 506/1/6
f 506/1/6 497/1/6 507/1/6
f 498/1/6 499/1/6 508/1/6
f 508/1/6 499/1/6 509/1/6
f 502/2/6 503/2/6 510/2/6
f 503/3/6 504/3/6 511/3/6
f 510/2/6 503/2/6 511/2/6
f 511/3/6 504/3/6 512/3/6
f 505/3/6 506/3/6 513/3/6
f 506/1/6 507/1/6 514/1/6
f 513/3/6 506/3/6 514/3/6
f 507/1/6 508/1/6 514/1/6
f 514/1/6 508/1/6 515/1/6
f 515/1/6 508/1/6 516/1/6
f 516/1/6 508/1/6 517/1/6
f 500/3/6 501/3/6 520/3/6
f 520/3/6 501/3/6 521/3/6
f 515/3/6 516/3/6 522/3/6
f 522/3/6 516/3/6 523/3/6
f 523/3/6 524/3/6 528/3/6
f 528/3/6 524/3/6 529/3/6
f 518/3/6 519/3/6 531/3/6
f 531/3/6 519/3/6 532/3/6
f 525/3/6 526/3/6 533/3/6
f 533/3/6 526/3/6 534/3/6
f 528/2/6 529/2/6 535/2/6
f 527/2/6 528/2/6 535/2/6
f 535/2/6 529/2/6 536/2/6
f 529/3/6 530/3/6 537/3/6
f 536/2/6 529/2/6 537/2/6
f 537/3/6 530/3/6 538/3/6
f 536/3/6 537/3/6 539/3/6
f 539/3/6 537/3/6 540/3/6
f 532/3/6 533/3/6 544/3/6
f 544/3/6 533/3/6 545/3/6
f 541/3/6 542/3/6 547/3/6
f 542/2/6 543/2/6 548/2/6
f 547/3/6 542/3/6 548/3/6
f 548/2/6 543/2/6 549/2/6
f 549/2/6 543/2/6 550/2/6
f 544/2/6 545/2/6 552/2/6
f 552/2/6 545/2/6 553/2/6
f 546/3/6 547/3/6 556/3/6
f 547/2/6 548/2/6 557/2/6
f 556/3/6 547/3/6 557/3/6
f 548/3/6 549/3/6 558/3/6
f 557/2/6 548/2/6 558/2/6
f 558/3/6 549/3/6 559/3/6
f 553/1/6 554/1/6 560/1/6
f 560/1/6 554/1/6 561/1/6
f 555/2/6 556/2/6 563/2/6
f 556/2/6 557/2/6 563/2/6
f 557/3/6 558/3/6 564/3/6
f 563/2/6 557/2/6 564/2/6
f 564/3/6 558/3/6 565/3/6
f 551/1/6 552/1/6 566/1/6
f 566/1/6 552/1/6 567/1/6
f 563/3/6 564/3/6 571/3/6
f 562/3/6 563/3/6 571/3/6
f 571/3/6 564/3/6 572/3/6
f 572/3/6 564/3/6 573/3/6
f 568/1/6 569/1/6 574/1/6
f 569/2/6 570/2/6 575/2/6
f 574/1/6 569/1/6 575/1/6
f 575/2/6 570/2/6 576/2/6
f 571/3/6 572/3/6 577/3/6
f 576/2/6 570/2/6 577/2/6
f 570/3/6 571/3/6 577/3/6
f 577/3/6 572/3/6 578/3/6
f 578/3/6 572/3/6 579/3/6
f 575/2/6 576/2/6 581/2/6
f 577/3/6 578/3/6 582/3/6
f 576/3/6 577/3/6 582/3/6
f 581/2/6 576/2/6 582/2/6
f 582/3/6 578/3/6 583/3/6
f 583/3/6 578/3/6 584/3/6
f 580/2/6 581/2/6 585/2/6
f 581/3/6 582/3/6 586/3/6
f 585/2/6 581/2/6 586/2/6
f 582/1/6 583/1/6 587/1/6
f 586/3/6 582/3/6 587/3/6
f 587/1/6 583/1/6 588/1/6
f 589/1/6 590/1/6 591/1/6
f 591/1/6 590/1/6 592/1/6
f 591/3/6 592/3/6 595/3/6
f 593/3/6 594/3/6 597/3/6
f 597/3/6 594/3/6 598/3/6
f 598/3/6 594/3/6 599/3/6
f 599/3/6 594/3/6 600/3/6
f 600/3/6 594/3/6 601/3/6
f 595/3/6 596/3/6 604/3/6
f 591/3/6 595/3/6 604/3/6
f 596/1/6 597/1/6 605/1/6
f 604/3/6 596/3/6 605/3/6
f 597/3/6 598/3/6 606/3/6
f 605/1/6 597/1/6 606/1/6
f 598/2/6 599/2/6 607/2/6
f 606/3/6 598/3/6 607/3/6
f 599/1/6 600/1/6 608/1/6
f 607/2/6 599/2/6 608/2/6
f 601/3/6 602/3/6 609/3/6
f 608/1/6 600/1/6 609/1/6
f 600/3/6 601/3/6 609/3/6
f 609/3/6 602/3/6 610/3/6
f 610/3/6 602/3/6 611/3/6
f 611/3/6 602/3/6 612/3/6
f 607/3/6 608/3/6 614/3/6
f 603/3/6 604/3/6 614/3/6
f 604/3/6 605/3/6 614/3/6
f 605/3/6 606/3/6 614/3/6
f 606/3/6 607/3/6 614/3/6
f 608/3/6 609/3/6 614/3/6
f 614/3/6 609/3/6 615/3/6
f 615/3/6 609/3/6 616/3/6
f 616/3/6 609/3/6 617/3/6
f 617/3/6 609/3/6 618/3/6
f 609/2/6 610/2/6 619/2/6
f 618/3/6 609/3/6 619/3/6
f 610/3/6 611/3/6 620/3/6
f 619/2/6 610/2/6 620/2/6
f 611/2/6 612/2/6 621/2/6
f 620/3/6 611/3/6 621/3/6
f 612/3/6 613/3/6 622/3/6
f 621/2/6 612/2/6 622/2/6
f 622/3/6 613/3/6 623/3/6
f 615/3/6 616/3/6 625/3/6
f 616/1/6 617/1/6 626/1/6
f 625/3/6 616/3/6 626/3/6
f 617/3/6 618/3/6 627/3/6
f 626/1/6 617/1/6 627/1/6
f 618/1/6 619/1/6 628/1/6
f 627/3/6 618/3/6 628/3/6
f 620/3/6 621/3/6 629/3/6
f 628/1/6 619/1/6 629/1/6
f 619/3/6 620/3/6 629/3/6
f 621/3/6 622/3/6 629/3/6
f 629/3/6 622/3/6 630/3/6
f 625/1/6 626/1/6 632/1/6
f 624/3/6 625/3/6 632/3/6
f 627/3/6 628/3/6 633/3/6
f 632/1/6 626/1/6 633/1/6
f 626/3/6 627/3/6 633/3/6
f 628/3/6 629/3/6 633/3/6
f 629/3/6 630/3/6 633/3/6
f 630/3/6 631/3/6 633/3/6
f 633/3/6 631/3/6 634/3/6
f 634/3/6 631/3/6 635/3/6
f 635/3/6 631/3/6 636/3/6
f 624/3/6 632/3/6 638/3/6
f 632/3/6 633/3/6 638/3/6
f 633/3/6 634/3/6 638/3/6
f 638/3/6 634/3/6 639/3/6
f 639/3/6 634/3/6 640/3/6
f 634/1/6 635/1/6 641/1/6
f 640/3/6 634/3/6 641/3/6
f 636/3/6 637/3/6 642/3/6
f 641/1/6 635/1/6 642/1/6
f 635/3/6 636/3/6 642/3/6
f 642/3/6 637/3/6 643/3/6
f 643/3/6 637/3/6 644/3/6
f 638/2/6 639/2/6 645/2/6
f 624/3/6 638/3/6 645/3/6
f 639/1/6 640/1/6 646/1/6
f 645/2/6 639/2/6 646/2/6
f 640/3/6 641/3/6 647/3/6
f 646/1/6 640/1/6 647/1/6
f 642/3/6 643/3/6 647/3/6
f 641/3/6 642/3/6 647/3/6
f 647/3/6 643/3/6 648/3/6
f 648/3/6 643/3/6 649/3/6
f 649/3/6 643/3/6 650/3/6
f 650/3/6 643/3/6 651/3/6
f 651/3/6 643/3/6 652/3/6
f 652/3/6 643/3/6 653/3/6
f 645/3/6 646/3/6 654/3/6
f 624/3/6 645/3/6 654/3/6
f 646/3/6 647/3/6 654/3/6
f 654/3/6 647/3/6 655/3/6
f 647/1/6 648/1/6 656/1/6
f 655/3/6 647/3/6 656/3/6
f 648/3/6 649/3/6 657/3/6
f 656/1/6 648/1/6 657/1/6
f 649/2/6 650/2/6 658/2/6
f 657/3/6 649/3/6 658/3/6
f 651/3/6 652/3/6 659/3/6
f 650/1/6 651/1/6 659/1/6
f 659/3/6 652/3/6 660/3/6
f 655/3/6 656/3/6 661/3/6
f 656/3/6 657/3/6 661/3/6
f 661/3/6 657/3/6 662/3/6
f 657/2/6 658/2/6 663/2/6
f 662/3/6 657/3/6 663/3/6
f 658/2/6 650/2/6 664/2/6
f 663/2/6 658/2/6 664/2/6
f 650/1/6 659/1/6 664/1/6
f 664/1/6 659/1/6 665/1/6
f 661/1/6 662/1/6 666/1/6
f 662/3/6 663/3/6 667/3/6
f 666/1/6 662/1/6 667/1/6
f 663/3/6 664/3/6 667/3/6
f 667/3/6 664/3/6 668/3/6
