# MagicaVoxel @ Ephtracy

# group
o 

# material
mtllib get-color.mtl
usemtl palette

# normals
vn -1 0 0
vn 1 0 0
vn 0 0 1
vn 0 0 -1
vn 0 -1 0
vn 0 1 0

# texcoords
vt 0.232422 0.5
vt 0.263672 0.5

# verts
v -0.1 0 -0.1
v -0.1 0 -0.2
v -0.1 0.1 -0.1
v -0.1 0.1 -0.2
v 0 0 0.1
v 0 0 0
v 0 0 -0.1
v 0 0.1 -0.1
v 0 0.2 0.1
v 0 0.2 0
v 0 0.2 -0.1
v 0 0.3 0.1
v 0 0.3 0
v 0 0 -0.1
v 0 0 -0.2
v 0 0.1 -0.1
v 0 0.1 -0.2
v 0.1 0 0.1
v 0.1 0 0
v 0.1 0 -0.1
v 0.1 0.2 0.1
v 0.1 0.2 0
v 0.1 0.2 -0.1
v 0.1 0.3 0.1
v 0.1 0.3 0
v 0 0 0.1
v 0 0.2 0.1
v 0 0.3 0.1
v 0.1 0 0.1
v 0.1 0.2 0.1
v 0.1 0.3 0.1
v -0.1 0 -0.1
v -0.1 0.1 -0.1
v 0 0 -0.1
v 0 0.1 -0.1
v 0 0.2 0
v 0 0.3 0
v 0.1 0.2 0
v 0.1 0.3 0
v 0 0 -0.1
v 0 0.1 -0.1
v 0 0.2 -0.1
v 0.1 0 -0.1
v 0.1 0.2 -0.1
v -0.1 0 -0.2
v -0.1 0.1 -0.2
v 0 0 -0.2
v 0 0.1 -0.2
v 0 0 0.1
v 0.1 0 0.1
v 0 0 0
v 0.1 0 0
v -0.1 0 -0.1
v 0 0 -0.1
v 0.1 0 -0.1
v -0.1 0 -0.2
v 0 0 -0.2
v -0.1 0.1 -0.1
v 0 0.1 -0.1
v -0.1 0.1 -0.2
v 0 0.1 -0.2
v 0 0.2 0
v 0.1 0.2 0
v 0 0.2 -0.1
v 0.1 0.2 -0.1
v 0 0.3 0.1
v 0.1 0.3 0.1
v 0 0.3 0
v 0.1 0.3 0

# faces
f 3/2/1 2/2/1 1/2/1
f 4/2/1 2/2/1 3/2/1
f 8/2/1 7/2/1 6/2/1
f 9/1/1 6/1/1 5/1/1
f 10/2/1 8/2/1 6/2/1
f 10/1/1 6/1/1 9/1/1
f 11/2/1 8/2/1 10/2/1
f 12/2/1 10/2/1 9/2/1
f 13/2/1 10/2/1 12/2/1
f 14/2/2 15/2/2 16/2/2
f 16/2/2 15/2/2 17/2/2
f 18/1/2 19/1/2 21/1/2
f 19/2/2 20/2/2 22/2/2
f 21/1/2 19/1/2 22/1/2
f 22/2/2 20/2/2 23/2/2
f 21/2/2 22/2/2 24/2/2
f 24/2/2 22/2/2 25/2/2
f 29/1/3 27/1/3 26/1/3
f 30/2/3 28/2/3 27/2/3
f 30/1/3 27/1/3 29/1/3
f 31/2/3 28/2/3 30/2/3
f 34/2/3 33/2/3 32/2/3
f 35/2/3 33/2/3 34/2/3
f 36/2/4 37/2/4 38/2/4
f 38/2/4 37/2/4 39/2/4
f 40/2/4 41/2/4 43/2/4
f 41/2/4 42/2/4 43/2/4
f 43/2/4 42/2/4 44/2/4
f 45/2/4 46/2/4 47/2/4
f 47/2/4 46/2/4 48/2/4
f 51/1/5 50/1/5 49/1/5
f 52/1/5 50/1/5 51/1/5
f 54/2/5 52/2/5 51/2/5
f 55/2/5 52/2/5 54/2/5
f 56/2/5 54/2/5 53/2/5
f 57/2/5 54/2/5 56/2/5
f 58/2/6 59/2/6 60/2/6
f 60/2/6 59/2/6 61/2/6
f 62/2/6 63/2/6 64/2/6
f 64/2/6 63/2/6 65/2/6
f 66/2/6 67/2/6 68/2/6
f 68/2/6 67/2/6 69/2/6
