# MagicaVoxel @ Ephtracy

# group
o 

# material
mtllib get-color.mtl
usemtl palette

# normals
vn -1 0 0
vn 1 0 0
vn 0 0 1
vn 0 0 -1
vn 0 -1 0
vn 0 1 0

# texcoords
vt 0.0488281 0.5
vt 0.681641 0.5

# verts
v -0.6 0.4 0.4
v -0.6 0.4 0.3
v -0.6 0.9 0.4
v -0.6 0.9 0.3
v -0.5 0.2 0.4
v -0.5 0.2 0.3
v -0.5 0.4 0.4
v -0.5 0.4 0.3
v -0.5 0.9 0.4
v -0.5 0.9 0.3
v -0.5 1.1 0.4
v -0.5 1.1 0.3
v -0.4 0.1 0.4
v -0.4 0.1 0.3
v -0.4 0.2 0.4
v -0.4 0.2 0.3
v -0.4 1.1 0.4
v -0.4 1.1 0.3
v -0.4 1.2 0.4
v -0.4 1.2 0.3
v -0.2 0 0.4
v -0.2 0 0.3
v -0.2 0.1 0.4
v -0.2 0.1 0.3
v -0.2 0.3 0.4
v -0.2 0.3 0.3
v -0.2 0.4 0.4
v -0.2 0.4 0.3
v -0.2 0.9 0.4
v -0.2 0.9 0.3
v -0.2 1 0.4
v -0.2 1 0.3
v -0.2 1.2 0.4
v -0.2 1.2 0.3
v -0.2 1.3 0.4
v -0.2 1.3 0.3
v -0.1 0.4 0.4
v -0.1 0.4 0.3
v -0.1 0.5 0.4
v -0.1 0.5 0.3
v -0.1 0.8 0.4
v -0.1 0.8 0.3
v -0.1 0.9 0.4
v -0.1 0.9 0.3
v -5.96046e-08 0.5 0.4
v -5.96046e-08 0.5 0.3
v -5.96046e-08 0.6 0.4
v -5.96046e-08 0.6 0.3
v -5.96046e-08 0.7 0.4
v -5.96046e-08 0.7 0.3
v -5.96046e-08 0.8 0.4
v -5.96046e-08 0.8 0.3
v 0.1 0.4 0.4
v 0.1 0.4 0.3
v 0.1 0.5 0.4
v 0.1 0.5 0.3
v 0.1 0.8 0.4
v 0.1 0.8 0.3
v 0.1 0.9 0.4
v 0.1 0.9 0.3
v 0.2 0.3 0.4
v 0.2 0.3 0.3
v 0.2 0.4 0.4
v 0.2 0.4 0.3
v 0.2 0.9 0.4
v 0.2 0.9 0.3
v 0.2 1 0.4
v 0.2 1 0.3
v 0.3 0.1 0.4
v 0.3 0.1 0.3
v 0.3 0.2 0.4
v 0.3 0.2 0.3
v 0.3 0.3 0.4
v 0.3 0.3 0.3
v 0.3 1 0.4
v 0.3 1 0.3
v 0.3 1.1 0.4
v 0.3 1.1 0.3
v 0.3 1.2 0.4
v 0.3 1.2 0.3
v 0.5 0.3 0.4
v 0.5 0.3 0.3
v 0.5 0.4 0.4
v 0.5 0.4 0.3
v 0.5 0.9 0.4
v 0.5 0.9 0.3
v 0.5 1 0.4
v 0.5 1 0.3
v 0.6 0.4 0.4
v 0.6 0.4 0.3
v 0.6 0.6 0.4
v 0.6 0.6 0.3
v 0.6 0.7 0.4
v 0.6 0.7 0.3
v 0.6 0.9 0.4
v 0.6 0.9 0.3
v -0.5 0.4 0.4
v -0.5 0.4 0.3
v -0.5 0.6 0.4
v -0.5 0.6 0.3
v -0.5 0.7 0.4
v -0.5 0.7 0.3
v -0.5 0.9 0.4
v -0.5 0.9 0.3
v -0.4 0.3 0.4
v -0.4 0.3 0.3
v -0.4 0.4 0.4
v -0.4 0.4 0.3
v -0.4 0.9 0.4
v -0.4 0.9 0.3
v -0.4 1 0.4
v -0.4 1 0.3
v -0.2 0.1 0.4
v -0.2 0.1 0.3
v -0.2 0.2 0.4
v -0.2 0.2 0.3
v -0.2 0.3 0.4
v -0.2 0.3 0.3
v -0.2 1 0.4
v -0.2 1 0.3
v -0.2 1.1 0.4
v -0.2 1.1 0.3
v -0.2 1.2 0.4
v -0.2 1.2 0.3
v -0.1 0.3 0.4
v -0.1 0.3 0.3
v -0.1 0.4 0.4
v -0.1 0.4 0.3
v -0.1 0.9 0.4
v -0.1 0.9 0.3
v -0.1 1 0.4
v -0.1 1 0.3
v -5.96046e-08 0.4 0.4
v -5.96046e-08 0.4 0.3
v -5.96046e-08 0.5 0.4
v -5.96046e-08 0.5 0.3
v -5.96046e-08 0.8 0.4
v -5.96046e-08 0.8 0.3
v -5.96046e-08 0.9 0.4
v -5.96046e-08 0.9 0.3
v 0.1 0.5 0.4
v 0.1 0.5 0.3
v 0.1 0.6 0.4
v 0.1 0.6 0.3
v 0.1 0.7 0.4
v 0.1 0.7 0.3
v 0.1 0.8 0.4
v 0.1 0.8 0.3
v 0.2 0.4 0.4
v 0.2 0.4 0.3
v 0.2 0.5 0.4
v 0.2 0.5 0.3
v 0.2 0.8 0.4
v 0.2 0.8 0.3
v 0.2 0.9 0.4
v 0.2 0.9 0.3
v 0.3 0 0.4
v 0.3 0 0.3
v 0.3 0.1 0.4
v 0.3 0.1 0.3
v 0.3 0.3 0.4
v 0.3 0.3 0.3
v 0.3 0.4 0.4
v 0.3 0.4 0.3
v 0.3 0.9 0.4
v 0.3 0.9 0.3
v 0.3 1 0.4
v 0.3 1 0.3
v 0.3 1.2 0.4
v 0.3 1.2 0.3
v 0.3 1.3 0.4
v 0.3 1.3 0.3
v 0.5 0.1 0.4
v 0.5 0.1 0.3
v 0.5 0.2 0.4
v 0.5 0.2 0.3
v 0.5 1.1 0.4
v 0.5 1.1 0.3
v 0.5 1.2 0.4
v 0.5 1.2 0.3
v 0.6 0.2 0.4
v 0.6 0.2 0.3
v 0.6 0.4 0.4
v 0.6 0.4 0.3
v 0.6 0.9 0.4
v 0.6 0.9 0.3
v 0.6 1.1 0.4
v 0.6 1.1 0.3
v 0.7 0.4 0.4
v 0.7 0.4 0.3
v 0.7 0.9 0.4
v 0.7 0.9 0.3
v -0.6 0.4 0.4
v -0.6 0.9 0.4
v -0.5 0.2 0.4
v -0.5 0.4 0.4
v -0.5 0.6 0.4
v -0.5 0.7 0.4
v -0.5 0.9 0.4
v -0.5 1.1 0.4
v -0.4 0.1 0.4
v -0.4 0.2 0.4
v -0.4 0.3 0.4
v -0.4 0.4 0.4
v -0.4 0.9 0.4
v -0.4 1 0.4
v -0.4 1.1 0.4
v -0.4 1.2 0.4
v -0.3 0.2 0.4
v -0.3 0.3 0.4
v -0.3 1 0.4
v -0.3 1.1 0.4
v -0.2 0 0.4
v -0.2 0.1 0.4
v -0.2 0.2 0.4
v -0.2 0.3 0.4
v -0.2 0.4 0.4
v -0.2 0.9 0.4
v -0.2 1 0.4
v -0.2 1.1 0.4
v -0.2 1.2 0.4
v -0.2 1.3 0.4
v -0.1 0.3 0.4
v -0.1 0.4 0.4
v -0.1 0.5 0.4
v -0.1 0.8 0.4
v -0.1 0.9 0.4
v -0.1 1 0.4
v -5.96046e-08 0.4 0.4
v -5.96046e-08 0.5 0.4
v -5.96046e-08 0.6 0.4
v -5.96046e-08 0.7 0.4
v -5.96046e-08 0.8 0.4
v -5.96046e-08 0.9 0.4
v 0.1 0.4 0.4
v 0.1 0.5 0.4
v 0.1 0.6 0.4
v 0.1 0.7 0.4
v 0.1 0.8 0.4
v 0.1 0.9 0.4
v 0.2 0.3 0.4
v 0.2 0.4 0.4
v 0.2 0.5 0.4
v 0.2 0.8 0.4
v 0.2 0.9 0.4
v 0.2 1 0.4
v 0.3 0 0.4
v 0.3 0.1 0.4
v 0.3 0.2 0.4
v 0.3 0.3 0.4
v 0.3 0.4 0.4
v 0.3 0.9 0.4
v 0.3 1 0.4
v 0.3 1.1 0.4
v 0.3 1.2 0.4
v 0.3 1.3 0.4
v 0.4 0.2 0.4
v 0.4 0.3 0.4
v 0.4 1 0.4
v 0.4 1.1 0.4
v 0.5 0.1 0.4
v 0.5 0.2 0.4
v 0.5 0.3 0.4
v 0.5 0.4 0.4
v 0.5 0.9 0.4
v 0.5 1 0.4
v 0.5 1.1 0.4
v 0.5 1.2 0.4
v 0.6 0.2 0.4
v 0.6 0.4 0.4
v 0.6 0.6 0.4
v 0.6 0.7 0.4
v 0.6 0.9 0.4
v 0.6 1.1 0.4
v 0.7 0.4 0.4
v 0.7 0.9 0.4
v -0.6 0.4 0.3
v -0.6 0.9 0.3
v -0.5 0.2 0.3
v -0.5 0.4 0.3
v -0.5 0.6 0.3
v -0.5 0.7 0.3
v -0.5 0.9 0.3
v -0.5 1.1 0.3
v -0.4 0.1 0.3
v -0.4 0.2 0.3
v -0.4 0.3 0.3
v -0.4 0.4 0.3
v -0.4 0.9 0.3
v -0.4 1 0.3
v -0.4 1.1 0.3
v -0.4 1.2 0.3
v -0.3 0.2 0.3
v -0.3 0.3 0.3
v -0.3 1 0.3
v -0.3 1.1 0.3
v -0.2 0 0.3
v -0.2 0.1 0.3
v -0.2 0.2 0.3
v -0.2 0.3 0.3
v -0.2 0.4 0.3
v -0.2 0.9 0.3
v -0.2 1 0.3
v -0.2 1.1 0.3
v -0.2 1.2 0.3
v -0.2 1.3 0.3
v -0.1 0.3 0.3
v -0.1 0.4 0.3
v -0.1 0.5 0.3
v -0.1 0.8 0.3
v -0.1 0.9 0.3
v -0.1 1 0.3
v -5.96046e-08 0.4 0.3
v -5.96046e-08 0.5 0.3
v -5.96046e-08 0.6 0.3
v -5.96046e-08 0.7 0.3
v -5.96046e-08 0.8 0.3
v -5.96046e-08 0.9 0.3
v 0.1 0.4 0.3
v 0.1 0.5 0.3
v 0.1 0.6 0.3
v 0.1 0.7 0.3
v 0.1 0.8 0.3
v 0.1 0.9 0.3
v 0.2 0.3 0.3
v 0.2 0.4 0.3
v 0.2 0.5 0.3
v 0.2 0.8 0.3
v 0.2 0.9 0.3
v 0.2 1 0.3
v 0.3 0 0.3
v 0.3 0.1 0.3
v 0.3 0.2 0.3
v 0.3 0.3 0.3
v 0.3 0.4 0.3
v 0.3 0.9 0.3
v 0.3 1 0.3
v 0.3 1.1 0.3
v 0.3 1.2 0.3
v 0.3 1.3 0.3
v 0.4 0.2 0.3
v 0.4 0.3 0.3
v 0.4 1 0.3
v 0.4 1.1 0.3
v 0.5 0.1 0.3
v 0.5 0.2 0.3
v 0.5 0.3 0.3
v 0.5 0.4 0.3
v 0.5 0.9 0.3
v 0.5 1 0.3
v 0.5 1.1 0.3
v 0.5 1.2 0.3
v 0.6 0.2 0.3
v 0.6 0.4 0.3
v 0.6 0.6 0.3
v 0.6 0.7 0.3
v 0.6 0.9 0.3
v 0.6 1.1 0.3
v 0.7 0.4 0.3
v 0.7 0.9 0.3
v -0.2 0 0.4
v 0.3 0 0.4
v -0.2 0 0.3
v 0.3 0 0.3
v -0.4 0.1 0.4
v -0.2 0.1 0.4
v 0.3 0.1 0.4
v 0.5 0.1 0.4
v -0.4 0.1 0.3
v -0.2 0.1 0.3
v 0.3 0.1 0.3
v 0.5 0.1 0.3
v -0.5 0.2 0.4
v -0.4 0.2 0.4
v 0.5 0.2 0.4
v 0.6 0.2 0.4
v -0.5 0.2 0.3
v -0.4 0.2 0.3
v 0.5 0.2 0.3
v 0.6 0.2 0.3
v -0.2 0.3 0.4
v -0.1 0.3 0.4
v 0.2 0.3 0.4
v 0.3 0.3 0.4
v -0.2 0.3 0.3
v -0.1 0.3 0.3
v 0.2 0.3 0.3
v 0.3 0.3 0.3
v -0.6 0.4 0.4
v -0.5 0.4 0.4
v -0.1 0.4 0.4
v -5.96046e-08 0.4 0.4
v 0.1 0.4 0.4
v 0.2 0.4 0.4
v 0.6 0.4 0.4
v 0.7 0.4 0.4
v -0.6 0.4 0.3
v -0.5 0.4 0.3
v -0.1 0.4 0.3
v -5.96046e-08 0.4 0.3
v 0.1 0.4 0.3
v 0.2 0.4 0.3
v 0.6 0.4 0.3
v 0.7 0.4 0.3
v -5.96046e-08 0.5 0.4
v 0.1 0.5 0.4
v -5.96046e-08 0.5 0.3
v 0.1 0.5 0.3
v -0.5 0.6 0.4
v -5.96046e-08 0.6 0.4
v 0.1 0.6 0.4
v 0.6 0.6 0.4
v -0.5 0.6 0.3
v -5.96046e-08 0.6 0.3
v 0.1 0.6 0.3
v 0.6 0.6 0.3
v -0.1 0.8 0.4
v -5.96046e-08 0.8 0.4
v 0.1 0.8 0.4
v 0.2 0.8 0.4
v -0.1 0.8 0.3
v -5.96046e-08 0.8 0.3
v 0.1 0.8 0.3
v 0.2 0.8 0.3
v -0.5 0.9 0.4
v -0.4 0.9 0.4
v -0.2 0.9 0.4
v -0.1 0.9 0.4
v 0.2 0.9 0.4
v 0.3 0.9 0.4
v 0.5 0.9 0.4
v 0.6 0.9 0.4
v -0.5 0.9 0.3
v -0.4 0.9 0.3
v -0.2 0.9 0.3
v -0.1 0.9 0.3
v 0.2 0.9 0.3
v 0.3 0.9 0.3
v 0.5 0.9 0.3
v 0.6 0.9 0.3
v -0.4 1 0.4
v -0.3 1 0.4
v -0.2 1 0.4
v 0.3 1 0.4
v 0.4 1 0.4
v 0.5 1 0.4
v -0.4 1 0.3
v -0.3 1 0.3
v -0.2 1 0.3
v 0.3 1 0.3
v 0.4 1 0.3
v 0.5 1 0.3
v -0.2 1.2 0.4
v 0.3 1.2 0.4
v -0.2 1.2 0.3
v 0.3 1.2 0.3
v -0.2 0.1 0.4
v 0.3 0.1 0.4
v -0.2 0.1 0.3
v 0.3 0.1 0.3
v -0.4 0.3 0.4
v -0.3 0.3 0.4
v -0.2 0.3 0.4
v 0.3 0.3 0.4
v 0.4 0.3 0.4
v 0.5 0.3 0.4
v -0.4 0.3 0.3
v -0.3 0.3 0.3
v -0.2 0.3 0.3
v 0.3 0.3 0.3
v 0.4 0.3 0.3
v 0.5 0.3 0.3
v -0.5 0.4 0.4
v -0.4 0.4 0.4
v -0.2 0.4 0.4
v -0.1 0.4 0.4
v 0.2 0.4 0.4
v 0.3 0.4 0.4
v 0.5 0.4 0.4
v 0.6 0.4 0.4
v -0.5 0.4 0.3
v -0.4 0.4 0.3
v -0.2 0.4 0.3
v -0.1 0.4 0.3
v 0.2 0.4 0.3
v 0.3 0.4 0.3
v 0.5 0.4 0.3
v 0.6 0.4 0.3
v -0.1 0.5 0.4
v -5.96046e-08 0.5 0.4
v 0.1 0.5 0.4
v 0.2 0.5 0.4
v -0.1 0.5 0.3
v -5.96046e-08 0.5 0.3
v 0.1 0.5 0.3
v 0.2 0.5 0.3
v -0.5 0.7 0.4
v -5.96046e-08 0.7 0.4
v 0.1 0.7 0.4
v 0.6 0.7 0.4
v -0.5 0.7 0.3
v -5.96046e-08 0.7 0.3
v 0.1 0.7 0.3
v 0.6 0.7 0.3
v -5.96046e-08 0.8 0.4
v 0.1 0.8 0.4
v -5.96046e-08 0.8 0.3
v 0.1 0.8 0.3
v -0.6 0.9 0.4
v -0.5 0.9 0.4
v -0.1 0.9 0.4
v -5.96046e-08 0.9 0.4
v 0.1 0.9 0.4
v 0.2 0.9 0.4
v 0.6 0.9 0.4
v 0.7 0.9 0.4
v -0.6 0.9 0.3
v -0.5 0.9 0.3
v -0.1 0.9 0.3
v -5.96046e-08 0.9 0.3
v 0.1 0.9 0.3
v 0.2 0.9 0.3
v 0.6 0.9 0.3
v 0.7 0.9 0.3
v -0.2 1 0.4
v -0.1 1 0.4
v 0.2 1 0.4
v 0.3 1 0.4
v -0.2 1 0.3
v -0.1 1 0.3
v 0.2 1 0.3
v 0.3 1 0.3
v -0.5 1.1 0.4
v -0.4 1.1 0.4
v 0.5 1.1 0.4
v 0.6 1.1 0.4
v -0.5 1.1 0.3
v -0.4 1.1 0.3
v 0.5 1.1 0.3
v 0.6 1.1 0.3
v -0.4 1.2 0.4
v -0.2 1.2 0.4
v 0.3 1.2 0.4
v 0.5 1.2 0.4
v -0.4 1.2 0.3
v -0.2 1.2 0.3
v 0.3 1.2 0.3
v 0.5 1.2 0.3
v -0.2 1.3 0.4
v 0.3 1.3 0.4
v -0.2 1.3 0.3
v 0.3 1.3 0.3

# faces
f 3/2/1 2/2/1 1/2/1
f 4/2/1 2/2/1 3/2/1
f 7/2/1 6/2/1 5/2/1
f 8/2/1 6/2/1 7/2/1
f 11/2/1 10/2/1 9/2/1
f 12/2/1 10/2/1 11/2/1
f 15/2/1 14/2/1 13/2/1
f 16/2/1 14/2/1 15/2/1
f 19/2/1 18/2/1 17/2/1
f 20/2/1 18/2/1 19/2/1
f 23/2/1 22/2/1 21/2/1
f 24/2/1 22/2/1 23/2/1
f 27/1/1 26/1/1 25/1/1
f 28/1/1 26/1/1 27/1/1
f 31/1/1 30/1/1 29/1/1
f 32/1/1 30/1/1 31/1/1
f 35/2/1 34/2/1 33/2/1
f 36/2/1 34/2/1 35/2/1
f 39/1/1 38/1/1 37/1/1
f 40/1/1 38/1/1 39/1/1
f 43/1/1 42/1/1 41/1/1
f 44/1/1 42/1/1 43/1/1
f 47/1/1 46/1/1 45/1/1
f 48/1/1 46/1/1 47/1/1
f 51/1/1 50/1/1 49/1/1
f 52/1/1 50/1/1 51/1/1
f 55/1/1 54/1/1 53/1/1
f 56/1/1 54/1/1 55/1/1
f 59/1/1 58/1/1 57/1/1
f 60/1/1 58/1/1 59/1/1
f 63/1/1 62/1/1 61/1/1
f 64/1/1 62/1/1 63/1/1
f 67/1/1 66/1/1 65/1/1
f 68/1/1 66/1/1 67/1/1
f 71/2/1 70/2/1 69/2/1
f 72/2/1 70/2/1 71/2/1
f 73/1/1 72/1/1 71/1/1
f 74/1/1 72/1/1 73/1/1
f 77/1/1 76/1/1 75/1/1
f 78/1/1 76/1/1 77/1/1
f 79/2/1 78/2/1 77/2/1
f 80/2/1 78/2/1 79/2/1
f 83/2/1 82/2/1 81/2/1
f 84/2/1 82/2/1 83/2/1
f 87/2/1 86/2/1 85/2/1
f 88/2/1 86/2/1 87/2/1
f 91/2/1 90/2/1 89/2/1
f 92/2/1 90/2/1 91/2/1
f 95/2/1 94/2/1 93/2/1
f 96/2/1 94/2/1 95/2/1
f 97/2/2 98/2/2 99/2/2
f 99/2/2 98/2/2 100/2/2
f 101/2/2 102/2/2 103/2/2
f 103/2/2 102/2/2 104/2/2
f 105/2/2 106/2/2 107/2/2
f 107/2/2 106/2/2 108/2/2
f 109/2/2 110/2/2 111/2/2
f 111/2/2 110/2/2 112/2/2
f 113/2/2 114/2/2 115/2/2
f 115/2/2 114/2/2 116/2/2
f 115/1/2 116/1/2 117/1/2
f 117/1/2 116/1/2 118/1/2
f 119/1/2 120/1/2 121/1/2
f 121/1/2 120/1/2 122/1/2
f 121/2/2 122/2/2 123/2/2
f 123/2/2 122/2/2 124/2/2
f 125/1/2 126/1/2 127/1/2
f 127/1/2 126/1/2 128/1/2
f 129/1/2 130/1/2 131/1/2
f 131/1/2 130/1/2 132/1/2
f 133/1/2 134/1/2 135/1/2
f 135/1/2 134/1/2 136/1/2
f 137/1/2 138/1/2 139/1/2
f 139/1/2 138/1/2 140/1/2
f 141/1/2 142/1/2 143/1/2
f 143/1/2 142/1/2 144/1/2
f 145/1/2 146/1/2 147/1/2
f 147/1/2 146/1/2 148/1/2
f 149/1/2 150/1/2 151/1/2
f 151/1/2 150/1/2 152/1/2
f 153/1/2 154/1/2 155/1/2
f 155/1/2 154/1/2 156/1/2
f 157/2/2 158/2/2 159/2/2
f 159/2/2 158/2/2 160/2/2
f 161/1/2 162/1/2 163/1/2
f 163/1/2 162/1/2 164/1/2
f 165/1/2 166/1/2 167/1/2
f 167/1/2 166/1/2 168/1/2
f 169/2/2 170/2/2 171/2/2
f 171/2/2 170/2/2 172/2/2
f 173/2/2 174/2/2 175/2/2
f 175/2/2 174/2/2 176/2/2
f 177/2/2 178/2/2 179/2/2
f 179/2/2 178/2/2 180/2/2
f 181/2/2 182/2/2 183/2/2
f 183/2/2 182/2/2 184/2/2
f 185/2/2 186/2/2 187/2/2
f 187/2/2 186/2/2 188/2/2
f 189/2/2 190/2/2 191/2/2
f 191/2/2 190/2/2 192/2/2
f 196/2/3 194/2/3 193/2/3
f 197/2/3 194/2/3 196/2/3
f 198/2/3 194/2/3 197/2/3
f 199/2/3 194/2/3 198/2/3
f 202/2/3 196/2/3 195/2/3
f 203/2/3 196/2/3 202/2/3
f 204/2/3 196/2/3 203/2/3
f 205/2/3 200/2/3 199/2/3
f 206/2/3 200/2/3 205/2/3
f 207/2/3 200/2/3 206/2/3
f 209/2/3 202/2/3 201/2/3
f 209/2/3 203/2/3 202/2/3
f 210/2/3 203/2/3 209/2/3
f 211/2/3 208/2/3 207/2/3
f 211/2/3 207/2/3 206/2/3
f 212/2/3 208/2/3 211/2/3
f 214/2/3 209/2/3 201/2/3
f 215/1/3 210/1/3 209/1/3
f 215/2/3 209/2/3 214/2/3
f 216/1/3 210/1/3 215/1/3
f 219/1/3 212/1/3 211/1/3
f 220/2/3 208/2/3 212/2/3
f 220/1/3 212/1/3 219/1/3
f 221/2/3 208/2/3 220/2/3
f 223/1/3 217/1/3 216/1/3
f 224/1/3 217/1/3 223/1/3
f 227/1/3 219/1/3 218/1/3
f 228/1/3 219/1/3 227/1/3
f 229/1/3 225/1/3 224/1/3
f 230/1/3 225/1/3 229/1/3
f 231/1/3 198/1/3 197/1/3
f 232/1/3 198/1/3 231/1/3
f 233/1/3 227/1/3 226/1/3
f 234/1/3 227/1/3 233/1/3
f 236/1/3 231/1/3 230/1/3
f 237/2/3 232/2/3 231/2/3
f 237/1/3 231/1/3 236/1/3
f 238/1/3 233/1/3 232/1/3
f 238/2/3 232/2/3 237/2/3
f 239/1/3 233/1/3 238/1/3
f 242/1/3 236/1/3 235/1/3
f 243/1/3 236/1/3 242/1/3
f 244/1/3 240/1/3 239/1/3
f 245/1/3 240/1/3 244/1/3
f 247/2/3 214/2/3 213/2/3
f 248/2/3 214/2/3 247/2/3
f 250/1/3 242/1/3 241/1/3
f 251/1/3 242/1/3 250/1/3
f 252/1/3 246/1/3 245/1/3
f 253/1/3 246/1/3 252/1/3
f 255/2/3 222/2/3 221/2/3
f 256/2/3 222/2/3 255/2/3
f 257/2/3 249/2/3 248/2/3
f 257/1/3 250/1/3 249/1/3
f 258/1/3 250/1/3 257/1/3
f 259/1/3 254/1/3 253/1/3
f 260/2/3 255/2/3 254/2/3
f 260/1/3 254/1/3 259/1/3
f 261/2/3 258/2/3 257/2/3
f 261/2/3 257/2/3 248/2/3
f 262/2/3 258/2/3 261/2/3
f 263/2/3 258/2/3 262/2/3
f 266/2/3 260/2/3 259/2/3
f 267/2/3 255/2/3 260/2/3
f 267/2/3 260/2/3 266/2/3
f 268/2/3 255/2/3 267/2/3
f 269/2/3 264/2/3 263/2/3
f 269/2/3 263/2/3 262/2/3
f 270/2/3 264/2/3 269/2/3
f 271/1/3 238/1/3 237/1/3
f 272/1/3 238/1/3 271/1/3
f 273/2/3 266/2/3 265/2/3
f 273/2/3 267/2/3 266/2/3
f 274/2/3 267/2/3 273/2/3
f 275/2/3 272/2/3 271/2/3
f 275/2/3 273/2/3 272/2/3
f 275/2/3 271/2/3 270/2/3
f 276/2/3 273/2/3 275/2/3
f 277/2/4 278/2/4 280/2/4
f 280/2/4 278/2/4 281/2/4
f 281/2/4 278/2/4 282/2/4
f 282/2/4 278/2/4 283/2/4
f 279/2/4 280/2/4 286/2/4
f 286/2/4 280/2/4 287/2/4
f 287/2/4 280/2/4 288/2/4
f 283/2/4 284/2/4 289/2/4
f 289/2/4 284/2/4 290/2/4
f 290/2/4 284/2/4 291/2/4
f 285/2/4 286/2/4 293/2/4
f 286/2/4 287/2/4 293/2/4
f 293/2/4 287/2/4 294/2/4
f 291/2/4 292/2/4 295/2/4
f 290/2/4 291/2/4 295/2/4
f 295/2/4 292/2/4 296/2/4
f 285/2/4 293/2/4 298/2/4
f 293/1/4 294/1/4 299/1/4
f 298/2/4 293/2/4 299/2/4
f 299/1/4 294/1/4 300/1/4
f 295/1/4 296/1/4 303/1/4
f 296/2/4 292/2/4 304/2/4
f 303/1/4 296/1/4 304/1/4
f 304/2/4 292/2/4 305/2/4
f 300/1/4 301/1/4 307/1/4
f 307/1/4 301/1/4 308/1/4
f 302/1/4 303/1/4 311/1/4
f 311/1/4 303/1/4 312/1/4
f 308/1/4 309/1/4 313/1/4
f 313/1/4 309/1/4 314/1/4
f 281/1/4 282/1/4 315/1/4
f 315/1/4 282/1/4 316/1/4
f 310/1/4 311/1/4 317/1/4
f 317/1/4 311/1/4 318/1/4
f 314/1/4 315/1/4 320/1/4
f 315/2/4 316/2/4 321/2/4
f 320/1/4 315/1/4 321/1/4
f 316/1/4 317/1/4 322/1/4
f 321/2/4 316/2/4 322/2/4
f 322/1/4 317/1/4 323/1/4
f 319/1/4 320/1/4 326/1/4
f 326/1/4 320/1/4 327/1/4
f 323/1/4 324/1/4 328/1/4
f 328/1/4 324/1/4 329/1/4
f 297/2/4 298/2/4 331/2/4
f 331/2/4 298/2/4 332/2/4
f 325/1/4 326/1/4 334/1/4
f 334/1/4 326/1/4 335/1/4
f 329/1/4 330/1/4 336/1/4
f 336/1/4 330/1/4 337/1/4
f 305/2/4 306/2/4 339/2/4
f 339/2/4 306/2/4 340/2/4
f 332/2/4 333/2/4 341/2/4
f 333/1/4 334/1/4 341/1/4
f 341/1/4 334/1/4 342/1/4
f 337/1/4 338/1/4 343/1/4
f 338/2/4 339/2/4 344/2/4
f 343/1/4 338/1/4 344/1/4
f 341/2/4 342/2/4 345/2/4
f 332/2/4 341/2/4 345/2/4
f 345/2/4 342/2/4 346/2/4
f 346/2/4 342/2/4 347/2/4
f 343/2/4 344/2/4 350/2/4
f 344/2/4 339/2/4 351/2/4
f 350/2/4 344/2/4 351/2/4
f 351/2/4 339/2/4 352/2/4
f 347/2/4 348/2/4 353/2/4
f 346/2/4 347/2/4 353/2/4
f 353/2/4 348/2/4 354/2/4
f 321/1/4 322/1/4 355/1/4
f 355/1/4 322/1/4 356/1/4
f 349/2/4 350/2/4 357/2/4
f 350/2/4 351/2/4 357/2/4
f 357/2/4 351/2/4 358/2/4
f 355/2/4 356/2/4 359/2/4
f 356/2/4 357/2/4 359/2/4
f 354/2/4 355/2/4 359/2/4
f 359/2/4 357/2/4 360/2/4
f 363/2/5 362/2/5 361/2/5
f 364/2/5 362/2/5 363/2/5
f 369/2/5 366/2/5 365/2/5
f 370/2/5 366/2/5 369/2/5
f 371/2/5 368/2/5 367/2/5
f 372/2/5 368/2/5 371/2/5
f 377/2/5 374/2/5 373/2/5
f 378/2/5 374/2/5 377/2/5
f 379/2/5 376/2/5 375/2/5
f 380/2/5 376/2/5 379/2/5
f 385/1/5 382/1/5 381/1/5
f 386/1/5 382/1/5 385/1/5
f 387/1/5 384/1/5 383/1/5
f 388/1/5 384/1/5 387/1/5
f 397/2/5 390/2/5 389/2/5
f 398/2/5 390/2/5 397/2/5
f 399/1/5 392/1/5 391/1/5
f 400/1/5 392/1/5 399/1/5
f 401/1/5 394/1/5 393/1/5
f 402/1/5 394/1/5 401/1/5
f 403/2/5 396/2/5 395/2/5
f 404/2/5 396/2/5 403/2/5
f 407/1/5 406/1/5 405/1/5
f 408/1/5 406/1/5 407/1/5
f 413/1/5 410/1/5 409/1/5
f 414/1/5 410/1/5 413/1/5
f 415/1/5 412/1/5 411/1/5
f 416/1/5 412/1/5 415/1/5
f 421/1/5 418/1/5 417/1/5
f 422/1/5 418/1/5 421/1/5
f 423/1/5 420/1/5 419/1/5
f 424/1/5 420/1/5 423/1/5
f 433/2/5 426/2/5 425/2/5
f 434/2/5 426/2/5 433/2/5
f 435/1/5 428/1/5 427/1/5
f 436/1/5 428/1/5 435/1/5
f 437/1/5 430/1/5 429/1/5
f 438/1/5 430/1/5 437/1/5
f 439/2/5 432/2/5 431/2/5
f 440/2/5 432/2/5 439/2/5
f 447/2/5 442/2/5 441/2/5
f 448/1/5 443/1/5 442/1/5
f 448/2/5 442/2/5 447/2/5
f 449/1/5 443/1/5 448/1/5
f 450/1/5 445/1/5 444/1/5
f 451/2/5 446/2/5 445/2/5
f 451/1/5 445/1/5 450/1/5
f 452/2/5 446/2/5 451/2/5
f 455/2/5 454/2/5 453/2/5
f 456/2/5 454/2/5 455/2/5
f 457/2/6 458/2/6 459/2/6
f 459/2/6 458/2/6 460/2/6
f 461/2/6 462/2/6 467/2/6
f 462/1/6 463/1/6 468/1/6
f 467/2/6 462/2/6 468/2/6
f 468/1/6 463/1/6 469/1/6
f 464/1/6 465/1/6 470/1/6
f 465/2/6 466/2/6 471/2/6
f 470/1/6 465/1/6 471/1/6
f 471/2/6 466/2/6 472/2/6
f 473/2/6 474/2/6 481/2/6
f 481/2/6 474/2/6 482/2/6
f 475/1/6 476/1/6 483/1/6
f 483/1/6 476/1/6 484/1/6
f 477/1/6 478/1/6 485/1/6
f 485/1/6 478/1/6 486/1/6
f 479/2/6 480/2/6 487/2/6
f 487/2/6 480/2/6 488/2/6
f 489/1/6 490/1/6 493/1/6
f 493/1/6 490/1/6 494/1/6
f 491/1/6 492/1/6 495/1/6
f 495/1/6 492/1/6 496/1/6
f 497/1/6 498/1/6 501/1/6
f 501/1/6 498/1/6 502/1/6
f 499/1/6 500/1/6 503/1/6
f 503/1/6 500/1/6 504/1/6
f 505/1/6 506/1/6 507/1/6
f 507/1/6 506/1/6 508/1/6
f 509/2/6 510/2/6 517/2/6
f 517/2/6 510/2/6 518/2/6
f 511/1/6 512/1/6 519/1/6
f 519/1/6 512/1/6 520/1/6
f 513/1/6 514/1/6 521/1/6
f 521/1/6 514/1/6 522/1/6
f 515/2/6 516/2/6 523/2/6
f 523/2/6 516/2/6 524/2/6
f 525/1/6 526/1/6 529/1/6
f 529/1/6 526/1/6 530/1/6
f 527/1/6 528/1/6 531/1/6
f 531/1/6 528/1/6 532/1/6
f 533/2/6 534/2/6 537/2/6
f 537/2/6 534/2/6 538/2/6
f 535/2/6 536/2/6 539/2/6
f 539/2/6 536/2/6 540/2/6
f 541/2/6 542/2/6 545/2/6
f 545/2/6 542/2/6 546/2/6
f 543/2/6 544/2/6 547/2/6
f 547/2/6 544/2/6 548/2/6
f 549/2/6 550/2/6 551/2/6
f 551/2/6 550/2/6 552/2/6
