# MagicaVoxel @ Ephtracy

# group
o 

# material
mtllib get-color.mtl
usemtl palette

# normals
vn -1 0 0
vn 1 0 0
vn 0 0 1
vn 0 0 -1
vn 0 -1 0
vn 0 1 0

# texcoords
vt 0.142578 0.5
vt 0.146484 0.5

# verts
v -0.5 0 0.5
v -0.5 0 -0.2
v -0.5 0 -0.5
v -0.5 0.1 0.5
v -0.5 0.1 -0.2
v -0.5 0.1 -0.5
v -0.4 0 -0.4
v -0.4 0 -0.5
v -0.4 0.1 -0.4
v -0.4 0.1 -0.5
v -0.3 0 -0.3
v -0.3 0 -0.4
v -0.3 0.1 -0.3
v -0.3 0.1 -0.4
v -0.2 0 -0.2
v -0.2 0 -0.3
v -0.2 0.1 -0.2
v -0.2 0.1 -0.3
v -0.1 0 -0.1
v -0.1 0 -0.2
v -0.1 0.1 -0.1
v -0.1 0.1 -0.2
v 0 0 0
v 0 0 -0.1
v 0 0.1 0
v 0 0.1 -0.1
v 0.1 0 0.1
v 0.1 0 0
v 0.1 0.1 0.1
v 0.1 0.1 0
v 0.2 0 0.2
v 0.2 0 0.1
v 0.2 0.1 0.2
v 0.2 0.1 0.1
v 0.3 0 0.3
v 0.3 0 0.2
v 0.3 0.1 0.3
v 0.3 0.1 0.2
v 0.4 0 0.4
v 0.4 0 0.3
v 0.4 0.1 0.4
v 0.4 0.1 0.3
v 0.5 0 0.5
v 0.5 0 0.4
v 0.5 0.1 0.5
v 0.5 0.1 0.4
v -0.5 0 0.5
v -0.5 0.1 0.5
v 0.2 0 0.5
v 0.2 0.1 0.5
v 0.5 0 0.5
v 0.5 0.1 0.5
v 0.4 0 0.4
v 0.4 0.1 0.4
v 0.5 0 0.4
v 0.5 0.1 0.4
v 0.3 0 0.3
v 0.3 0.1 0.3
v 0.4 0 0.3
v 0.4 0.1 0.3
v 0.2 0 0.2
v 0.2 0.1 0.2
v 0.3 0 0.2
v 0.3 0.1 0.2
v 0.1 0 0.1
v 0.1 0.1 0.1
v 0.2 0 0.1
v 0.2 0.1 0.1
v 0 0 0
v 0 0.1 0
v 0.1 0 0
v 0.1 0.1 0
v -0.1 0 -0.1
v -0.1 0.1 -0.1
v 0 0 -0.1
v 0 0.1 -0.1
v -0.2 0 -0.2
v -0.2 0.1 -0.2
v -0.1 0 -0.2
v -0.1 0.1 -0.2
v -0.3 0 -0.3
v -0.3 0.1 -0.3
v -0.2 0 -0.3
v -0.2 0.1 -0.3
v -0.4 0 -0.4
v -0.4 0.1 -0.4
v -0.3 0 -0.4
v -0.3 0.1 -0.4
v -0.5 0 -0.5
v -0.5 0.1 -0.5
v -0.4 0 -0.5
v -0.4 0.1 -0.5
v -0.5 0 0.5
v 0.2 0 0.5
v 0.5 0 0.5
v 0.1 0 0.4
v 0.2 0 0.4
v 0.4 0 0.4
v 0.5 0 0.4
v 0 0 0.3
v 0.1 0 0.3
v 0.3 0 0.3
v 0.4 0 0.3
v -0.1 0 0.2
v 0 0 0.2
v 0.2 0 0.2
v 0.3 0 0.2
v -0.2 0 0.1
v -0.1 0 0.1
v 0.1 0 0.1
v 0.2 0 0.1
v -0.3 0 0
v -0.2 0 0
v 0 0 0
v 0.1 0 0
v -0.4 0 -0.1
v -0.3 0 -0.1
v -0.1 0 -0.1
v 0 0 -0.1
v -0.5 0 -0.2
v -0.4 0 -0.2
v -0.2 0 -0.2
v -0.1 0 -0.2
v -0.3 0 -0.3
v -0.2 0 -0.3
v -0.4 0 -0.4
v -0.3 0 -0.4
v -0.5 0 -0.5
v -0.4 0 -0.5
v -0.5 0.1 0.5
v 0.2 0.1 0.5
v 0.5 0.1 0.5
v 0.1 0.1 0.4
v 0.2 0.1 0.4
v 0.4 0.1 0.4
v 0.5 0.1 0.4
v 0 0.1 0.3
v 0.1 0.1 0.3
v 0.3 0.1 0.3
v 0.4 0.1 0.3
v -0.1 0.1 0.2
v 0 0.1 0.2
v 0.2 0.1 0.2
v 0.3 0.1 0.2
v -0.2 0.1 0.1
v -0.1 0.1 0.1
v 0.1 0.1 0.1
v 0.2 0.1 0.1
v -0.3 0.1 0
v -0.2 0.1 0
v 0 0.1 0
v 0.1 0.1 0
v -0.4 0.1 -0.1
v -0.3 0.1 -0.1
v -0.1 0.1 -0.1
v 0 0.1 -0.1
v -0.5 0.1 -0.2
v -0.4 0.1 -0.2
v -0.2 0.1 -0.2
v -0.1 0.1 -0.2
v -0.3 0.1 -0.3
v -0.2 0.1 -0.3
v -0.4 0.1 -0.4
v -0.3 0.1 -0.4
v -0.5 0.1 -0.5
v -0.4 0.1 -0.5

# faces
f 4/1/1 2/1/1 1/1/1
f 5/2/1 3/2/1 2/2/1
f 5/1/1 2/1/1 4/1/1
f 6/2/1 3/2/1 5/2/1
f 7/2/2 8/2/2 9/2/2
f 9/2/2 8/2/2 10/2/2
f 11/2/2 12/2/2 13/2/2
f 13/2/2 12/2/2 14/2/2
f 15/2/2 16/2/2 17/2/2
f 17/2/2 16/2/2 18/2/2
f 19/2/2 20/2/2 21/2/2
f 21/2/2 20/2/2 22/2/2
f 23/2/2 24/2/2 25/2/2
f 25/2/2 24/2/2 26/2/2
f 27/2/2 28/2/2 29/2/2
f 29/2/2 28/2/2 30/2/2
f 31/2/2 32/2/2 33/2/2
f 33/2/2 32/2/2 34/2/2
f 35/2/2 36/2/2 37/2/2
f 37/2/2 36/2/2 38/2/2
f 39/2/2 40/2/2 41/2/2
f 41/2/2 40/2/2 42/2/2
f 43/2/2 44/2/2 45/2/2
f 45/2/2 44/2/2 46/2/2
f 49/1/3 48/1/3 47/1/3
f 50/1/3 48/1/3 49/1/3
f 51/2/3 50/2/3 49/2/3
f 52/2/3 50/2/3 51/2/3
f 53/2/4 54/2/4 55/2/4
f 55/2/4 54/2/4 56/2/4
f 57/2/4 58/2/4 59/2/4
f 59/2/4 58/2/4 60/2/4
f 61/2/4 62/2/4 63/2/4
f 63/2/4 62/2/4 64/2/4
f 65/2/4 66/2/4 67/2/4
f 67/2/4 66/2/4 68/2/4
f 69/2/4 70/2/4 71/2/4
f 71/2/4 70/2/4 72/2/4
f 73/2/4 74/2/4 75/2/4
f 75/2/4 74/2/4 76/2/4
f 77/2/4 78/2/4 79/2/4
f 79/2/4 78/2/4 80/2/4
f 81/2/4 82/2/4 83/2/4
f 83/2/4 82/2/4 84/2/4
f 85/2/4 86/2/4 87/2/4
f 87/2/4 86/2/4 88/2/4
f 89/2/4 90/2/4 91/2/4
f 91/2/4 90/2/4 92/2/4
f 96/1/5 94/1/5 93/1/5
f 97/2/5 95/2/5 94/2/5
f 97/1/5 94/1/5 96/1/5
f 98/2/5 95/2/5 97/2/5
f 99/2/5 95/2/5 98/2/5
f 100/1/5 96/1/5 93/1/5
f 101/2/5 97/2/5 96/2/5
f 101/1/5 96/1/5 100/1/5
f 101/2/5 98/2/5 97/2/5
f 102/2/5 98/2/5 101/2/5
f 103/2/5 98/2/5 102/2/5
f 104/1/5 100/1/5 93/1/5
f 105/2/5 101/2/5 100/2/5
f 105/1/5 100/1/5 104/1/5
f 105/2/5 102/2/5 101/2/5
f 106/2/5 102/2/5 105/2/5
f 107/2/5 102/2/5 106/2/5
f 108/1/5 104/1/5 93/1/5
f 109/2/5 105/2/5 104/2/5
f 109/1/5 104/1/5 108/1/5
f 109/2/5 106/2/5 105/2/5
f 110/2/5 106/2/5 109/2/5
f 111/2/5 106/2/5 110/2/5
f 112/1/5 108/1/5 93/1/5
f 113/2/5 109/2/5 108/2/5
f 113/1/5 108/1/5 112/1/5
f 113/2/5 110/2/5 109/2/5
f 114/2/5 110/2/5 113/2/5
f 115/2/5 110/2/5 114/2/5
f 116/1/5 112/1/5 93/1/5
f 117/2/5 113/2/5 112/2/5
f 117/1/5 112/1/5 116/1/5
f 117/2/5 114/2/5 113/2/5
f 118/2/5 114/2/5 117/2/5
f 119/2/5 114/2/5 118/2/5
f 120/1/5 116/1/5 93/1/5
f 121/2/5 117/2/5 116/2/5
f 121/1/5 116/1/5 120/1/5
f 121/2/5 118/2/5 117/2/5
f 122/2/5 118/2/5 121/2/5
f 123/2/5 118/2/5 122/2/5
f 124/2/5 121/2/5 120/2/5
f 124/2/5 122/2/5 121/2/5
f 125/2/5 122/2/5 124/2/5
f 126/2/5 124/2/5 120/2/5
f 127/2/5 124/2/5 126/2/5
f 128/2/5 126/2/5 120/2/5
f 129/2/5 126/2/5 128/2/5
f 130/1/6 131/1/6 133/1/6
f 131/2/6 132/2/6 134/2/6
f 133/1/6 131/1/6 134/1/6
f 134/2/6 132/2/6 135/2/6
f 135/2/6 132/2/6 136/2/6
f 130/1/6 133/1/6 137/1/6
f 133/2/6 134/2/6 138/2/6
f 137/1/6 133/1/6 138/1/6
f 134/2/6 135/2/6 138/2/6
f 138/2/6 135/2/6 139/2/6
f 139/2/6 135/2/6 140/2/6
f 130/1/6 137/1/6 141/1/6
f 137/2/6 138/2/6 142/2/6
f 141/1/6 137/1/6 142/1/6
f 138/2/6 139/2/6 142/2/6
f 142/2/6 139/2/6 143/2/6
f 143/2/6 139/2/6 144/2/6
f 130/1/6 141/1/6 145/1/6
f 141/2/6 142/2/6 146/2/6
f 145/1/6 141/1/6 146/1/6
f 142/2/6 143/2/6 146/2/6
f 146/2/6 143/2/6 147/2/6
f 147/2/6 143/2/6 148/2/6
f 130/1/6 145/1/6 149/1/6
f 145/2/6 146/2/6 150/2/6
f 149/1/6 145/1/6 150/1/6
f 146/2/6 147/2/6 150/2/6
f 150/2/6 147/2/6 151/2/6
f 151/2/6 147/2/6 152/2/6
f 130/1/6 149/1/6 153/1/6
f 149/2/6 150/2/6 154/2/6
f 153/1/6 149/1/6 154/1/6
f 150/2/6 151/2/6 154/2/6
f 154/2/6 151/2/6 155/2/6
f 155/2/6 151/2/6 156/2/6
f 130/1/6 153/1/6 157/1/6
f 153/2/6 154/2/6 158/2/6
f 157/1/6 153/1/6 158/1/6
f 154/2/6 155/2/6 158/2/6
f 158/2/6 155/2/6 159/2/6
f 159/2/6 155/2/6 160/2/6
f 157/2/6 158/2/6 161/2/6
f 158/2/6 159/2/6 161/2/6
f 161/2/6 159/2/6 162/2/6
f 157/2/6 161/2/6 163/2/6
f 163/2/6 161/2/6 164/2/6
f 157/2/6 163/2/6 165/2/6
f 165/2/6 163/2/6 166/2/6
