# MagicaVoxel @ Ephtracy

# group
o 

# material
mtllib get-color.mtl
usemtl palette

# normals
vn -1 0 0
vn 1 0 0
vn 0 0 1
vn 0 0 -1
vn 0 -1 0
vn 0 1 0

# texcoords
vt 0.662109 0.5
vt 0.666016 0.5

# verts
v -0.5 0 -0.4
v -0.5 0 -0.5
v -0.5 0.1 -0.4
v -0.5 0.1 -0.5
v -0.3 0 -0.3
v -0.3 0 -0.4
v -0.3 0.1 -0.3
v -0.3 0.1 -0.4
v -0.1 0 -0.2
v -0.1 0 -0.3
v -0.1 0.1 -0.2
v -0.1 0.1 -0.3
v 0.1 0 -0.1
v 0.1 0 -0.2
v 0.1 0.1 -0.1
v 0.1 0.1 -0.2
v 0.4 0 -7.45058e-09
v 0.4 0 -0.1
v 0.4 0.1 -7.45058e-09
v 0.4 0.1 -0.1
v 0.5 0 -7.45058e-09
v 0.5 0 -0.2
v 0.5 0 -0.5
v 0.5 0.1 -7.45058e-09
v 0.5 0.1 -0.2
v 0.5 0.1 -0.5
v 0.4 0 -7.45058e-09
v 0.4 0.1 -7.45058e-09
v 0.5 0 -7.45058e-09
v 0.5 0.1 -7.45058e-09
v 0.1 0 -0.1
v 0.1 0.1 -0.1
v 0.4 0 -0.1
v 0.4 0.1 -0.1
v -0.1 0 -0.2
v -0.1 0.1 -0.2
v 0.1 0 -0.2
v 0.1 0.1 -0.2
v -0.3 0 -0.3
v -0.3 0.1 -0.3
v -0.1 0 -0.3
v -0.1 0.1 -0.3
v -0.5 0 -0.4
v -0.5 0.1 -0.4
v -0.3 0 -0.4
v -0.3 0.1 -0.4
v -0.5 0 -0.5
v -0.5 0.1 -0.5
v -0.1 0 -0.5
v -0.1 0.1 -0.5
v 0.5 0 -0.5
v 0.5 0.1 -0.5
v 0.4 0 -7.45058e-09
v 0.5 0 -7.45058e-09
v 0.1 0 -0.1
v 0.4 0 -0.1
v -0.1 0 -0.2
v 0.1 0 -0.2
v 0.4 0 -0.2
v 0.5 0 -0.2
v -0.3 0 -0.3
v -0.1 0 -0.3
v 0.1 0 -0.3
v 0.4 0 -0.3
v -0.5 0 -0.4
v -0.3 0 -0.4
v -0.1 0 -0.4
v 0.1 0 -0.4
v -0.5 0 -0.5
v -0.1 0 -0.5
v 0.5 0 -0.5
v 0.4 0.1 -7.45058e-09
v 0.5 0.1 -7.45058e-09
v 0.1 0.1 -0.1
v 0.4 0.1 -0.1
v -0.1 0.1 -0.2
v 0.1 0.1 -0.2
v 0.4 0.1 -0.2
v 0.5 0.1 -0.2
v -0.3 0.1 -0.3
v -0.1 0.1 -0.3
v 0.1 0.1 -0.3
v 0.4 0.1 -0.3
v -0.5 0.1 -0.4
v -0.3 0.1 -0.4
v -0.1 0.1 -0.4
v 0.1 0.1 -0.4
v -0.5 0.1 -0.5
v -0.1 0.1 -0.5
v 0.5 0.1 -0.5

# faces
f 3/2/1 2/2/1 1/2/1
f 4/2/1 2/2/1 3/2/1
f 7/2/1 6/2/1 5/2/1
f 8/2/1 6/2/1 7/2/1
f 11/2/1 10/2/1 9/2/1
f 12/2/1 10/2/1 11/2/1
f 15/2/1 14/2/1 13/2/1
f 16/2/1 14/2/1 15/2/1
f 19/2/1 18/2/1 17/2/1
f 20/2/1 18/2/1 19/2/1
f 21/2/2 22/2/2 24/2/2
f 22/1/2 23/1/2 25/1/2
f 24/2/2 22/2/2 25/2/2
f 25/1/2 23/1/2 26/1/2
f 29/2/3 28/2/3 27/2/3
f 30/2/3 28/2/3 29/2/3
f 33/2/3 32/2/3 31/2/3
f 34/2/3 32/2/3 33/2/3
f 37/2/3 36/2/3 35/2/3
f 38/2/3 36/2/3 37/2/3
f 41/2/3 40/2/3 39/2/3
f 42/2/3 40/2/3 41/2/3
f 45/2/3 44/2/3 43/2/3
f 46/2/3 44/2/3 45/2/3
f 47/2/4 48/2/4 49/2/4
f 49/2/4 48/2/4 50/2/4
f 49/1/4 50/1/4 51/1/4
f 51/1/4 50/1/4 52/1/4
f 56/2/5 54/2/5 53/2/5
f 58/2/5 56/2/5 55/2/5
f 59/2/5 54/2/5 56/2/5
f 59/2/5 56/2/5 58/2/5
f 60/2/5 54/2/5 59/2/5
f 62/2/5 58/2/5 57/2/5
f 62/2/5 59/2/5 58/2/5
f 63/2/5 59/2/5 62/2/5
f 64/1/5 60/1/5 59/1/5
f 64/2/5 59/2/5 63/2/5
f 66/2/5 63/2/5 62/2/5
f 66/2/5 62/2/5 61/2/5
f 67/2/5 63/2/5 66/2/5
f 68/1/5 64/1/5 63/1/5
f 68/2/5 63/2/5 67/2/5
f 69/2/5 67/2/5 66/2/5
f 69/2/5 66/2/5 65/2/5
f 70/1/5 68/1/5 67/1/5
f 70/2/5 67/2/5 69/2/5
f 71/1/5 60/1/5 64/1/5
f 71/1/5 68/1/5 70/1/5
f 71/1/5 64/1/5 68/1/5
f 72/2/6 73/2/6 75/2/6
f 74/2/6 75/2/6 77/2/6
f 75/2/6 73/2/6 78/2/6
f 77/2/6 75/2/6 78/2/6
f 78/2/6 73/2/6 79/2/6
f 76/2/6 77/2/6 81/2/6
f 77/2/6 78/2/6 81/2/6
f 81/2/6 78/2/6 82/2/6
f 78/1/6 79/1/6 83/1/6
f 82/2/6 78/2/6 83/2/6
f 81/2/6 82/2/6 85/2/6
f 80/2/6 81/2/6 85/2/6
f 85/2/6 82/2/6 86/2/6
f 82/1/6 83/1/6 87/1/6
f 86/2/6 82/2/6 87/2/6
f 85/2/6 86/2/6 88/2/6
f 84/2/6 85/2/6 88/2/6
f 86/1/6 87/1/6 89/1/6
f 88/2/6 86/2/6 89/2/6
f 83/1/6 79/1/6 90/1/6
f 89/1/6 87/1/6 90/1/6
f 87/1/6 83/1/6 90/1/6
