# MagicaVoxel @ Ephtracy

# group
o 

# material
mtllib get-color.mtl
usemtl palette

# normals
vn -1 0 0
vn 1 0 0
vn 0 0 1
vn 0 0 -1
vn 0 -1 0
vn 0 1 0

# texcoords
vt 0.662109 0.5
vt 0.666016 0.5

# verts
v -0.5 0 0.4
v -0.5 0 0.2
v -0.5 0 -0.5
v -0.5 0.1 0.4
v -0.5 0.1 0.2
v -0.5 0.1 -0.5
v -0.2 0 0.4
v -0.2 0 0.3
v -0.2 0.1 0.4
v -0.2 0.1 0.3
v 0 0 0.3
v 0 0 0.2
v 0 0.1 0.3
v 0 0.1 0.2
v 0.1 0 0.2
v 0.1 0 0.1
v 0.1 0.1 0.2
v 0.1 0.1 0.1
v 0.2 0 0.1
v 0.2 0 0
v 0.2 0.1 0.1
v 0.2 0.1 0
v 0.3 0 0
v 0.3 0 -0.2
v 0.3 0.1 0
v 0.3 0.1 -0.2
v 0.4 0 -0.2
v 0.4 0 -0.5
v 0.4 0.1 -0.2
v 0.4 0.1 -0.5
v -0.5 0 0.4
v -0.5 0.1 0.4
v -0.2 0 0.4
v -0.2 0.1 0.4
v -0.2 0 0.3
v -0.2 0.1 0.3
v 0 0 0.3
v 0 0.1 0.3
v 0 0 0.2
v 0 0.1 0.2
v 0.1 0 0.2
v 0.1 0.1 0.2
v 0.1 0 0.1
v 0.1 0.1 0.1
v 0.2 0 0.1
v 0.2 0.1 0.1
v 0.2 0 0
v 0.2 0.1 0
v 0.3 0 0
v 0.3 0.1 0
v 0.3 0 -0.2
v 0.3 0.1 -0.2
v 0.4 0 -0.2
v 0.4 0.1 -0.2
v -0.5 0 -0.5
v -0.5 0.1 -0.5
v 0.2 0 -0.5
v 0.2 0.1 -0.5
v 0.4 0 -0.5
v 0.4 0.1 -0.5
v -0.5 0 0.4
v -0.2 0 0.4
v -0.2 0 0.3
v 0 0 0.3
v -0.5 0 0.2
v -0.3 0 0.2
v 0 0 0.2
v 0.1 0 0.2
v -0.3 0 0.1
v -0.1 0 0.1
v 0.1 0 0.1
v 0.2 0 0.1
v -0.1 0 0
v 0 0 0
v 0.2 0 0
v 0.3 0 0
v 0 0 -0.1
v 0.1 0 -0.1
v 0.3 0 -0.2
v 0.4 0 -0.2
v 0.1 0 -0.3
v 0.2 0 -0.3
v -0.5 0 -0.5
v 0.2 0 -0.5
v 0.4 0 -0.5
v -0.5 0.1 0.4
v -0.2 0.1 0.4
v -0.2 0.1 0.3
v 0 0.1 0.3
v -0.5 0.1 0.2
v -0.3 0.1 0.2
v 0 0.1 0.2
v 0.1 0.1 0.2
v -0.3 0.1 0.1
v -0.1 0.1 0.1
v 0.1 0.1 0.1
v 0.2 0.1 0.1
v -0.1 0.1 0
v 0 0.1 0
v 0.2 0.1 0
v 0.3 0.1 0
v 0 0.1 -0.1
v 0.1 0.1 -0.1
v 0.3 0.1 -0.2
v 0.4 0.1 -0.2
v 0.1 0.1 -0.3
v 0.2 0.1 -0.3
v -0.5 0.1 -0.5
v 0.2 0.1 -0.5
v 0.4 0.1 -0.5

# faces
f 4/2/1 2/2/1 1/2/1
f 5/1/1 3/1/1 2/1/1
f 5/2/1 2/2/1 4/2/1
f 6/1/1 3/1/1 5/1/1
f 7/2/2 8/2/2 9/2/2
f 9/2/2 8/2/2 10/2/2
f 11/2/2 12/2/2 13/2/2
f 13/2/2 12/2/2 14/2/2
f 15/2/2 16/2/2 17/2/2
f 17/2/2 16/2/2 18/2/2
f 19/2/2 20/2/2 21/2/2
f 21/2/2 20/2/2 22/2/2
f 23/2/2 24/2/2 25/2/2
f 25/2/2 24/2/2 26/2/2
f 27/2/2 28/2/2 29/2/2
f 29/2/2 28/2/2 30/2/2
f 33/2/3 32/2/3 31/2/3
f 34/2/3 32/2/3 33/2/3
f 37/2/3 36/2/3 35/2/3
f 38/2/3 36/2/3 37/2/3
f 41/2/3 40/2/3 39/2/3
f 42/2/3 40/2/3 41/2/3
f 45/2/3 44/2/3 43/2/3
f 46/2/3 44/2/3 45/2/3
f 49/2/3 48/2/3 47/2/3
f 50/2/3 48/2/3 49/2/3
f 53/2/3 52/2/3 51/2/3
f 54/2/3 52/2/3 53/2/3
f 55/1/4 56/1/4 57/1/4
f 57/1/4 56/1/4 58/1/4
f 57/2/4 58/2/4 59/2/4
f 59/2/4 58/2/4 60/2/4
f 63/2/5 62/2/5 61/2/5
f 65/2/5 63/2/5 61/2/5
f 65/2/5 64/2/5 63/2/5
f 66/2/5 64/2/5 65/2/5
f 67/2/5 64/2/5 66/2/5
f 69/1/5 66/1/5 65/1/5
f 69/2/5 68/2/5 67/2/5
f 69/2/5 67/2/5 66/2/5
f 70/2/5 68/2/5 69/2/5
f 71/2/5 68/2/5 70/2/5
f 73/1/5 70/1/5 69/1/5
f 73/2/5 72/2/5 71/2/5
f 73/2/5 71/2/5 70/2/5
f 74/2/5 72/2/5 73/2/5
f 75/2/5 72/2/5 74/2/5
f 77/1/5 74/1/5 73/1/5
f 77/2/5 76/2/5 75/2/5
f 77/2/5 75/2/5 74/2/5
f 78/2/5 76/2/5 77/2/5
f 79/2/5 76/2/5 78/2/5
f 81/1/5 78/1/5 77/1/5
f 81/2/5 80/2/5 79/2/5
f 81/2/5 79/2/5 78/2/5
f 82/2/5 80/2/5 81/2/5
f 83/1/5 69/1/5 65/1/5
f 83/1/5 73/1/5 69/1/5
f 83/1/5 82/1/5 81/1/5
f 83/1/5 81/1/5 77/1/5
f 83/1/5 77/1/5 73/1/5
f 84/2/5 80/2/5 82/2/5
f 84/1/5 82/1/5 83/1/5
f 85/2/5 80/2/5 84/2/5
f 86/2/6 87/2/6 88/2/6
f 86/2/6 88/2/6 90/2/6
f 88/2/6 89/2/6 90/2/6
f 90/2/6 89/2/6 91/2/6
f 91/2/6 89/2/6 92/2/6
f 90/1/6 91/1/6 94/1/6
f 92/2/6 93/2/6 94/2/6
f 91/2/6 92/2/6 94/2/6
f 94/2/6 93/2/6 95/2/6
f 95/2/6 93/2/6 96/2/6
f 94/1/6 95/1/6 98/1/6
f 96/2/6 97/2/6 98/2/6
f 95/2/6 96/2/6 98/2/6
f 98/2/6 97/2/6 99/2/6
f 99/2/6 97/2/6 100/2/6
f 98/1/6 99/1/6 102/1/6
f 100/2/6 101/2/6 102/2/6
f 99/2/6 100/2/6 102/2/6
f 102/2/6 101/2/6 103/2/6
f 103/2/6 101/2/6 104/2/6
f 102/1/6 103/1/6 106/1/6
f 104/2/6 105/2/6 106/2/6
f 103/2/6 104/2/6 106/2/6
f 106/2/6 105/2/6 107/2/6
f 90/1/6 94/1/6 108/1/6
f 94/1/6 98/1/6 108/1/6
f 106/1/6 107/1/6 108/1/6
f 102/1/6 106/1/6 108/1/6
f 98/1/6 102/1/6 108/1/6
f 107/2/6 105/2/6 109/2/6
f 108/1/6 107/1/6 109/1/6
f 109/2/6 105/2/6 110/2/6
