# MagicaVoxel @ Ephtracy

# group
o 

# material
mtllib get-color.mtl
usemtl palette

# normals
vn 0 0 1
vn 0 0 -1
vn 1 0 0
vn -1 0 0
vn 0 -1 0
vn 0 1 0

# texcoords
vt 0.232422 0.5
vt 0.263672 0.5
vt 0.267578 0.5

# verts
v -0.4 0 0.7
v -0.5 0 0.7
v -0.4 0.1 0.7
v -0.5 0.1 0.7
v 0.1 0 0.6
v 0 0 0.6
v -0.2 0 0.6
v -0.4 0 0.6
v -0.6 0 0.6
v -0.7 0 0.6
v 0.1 0.1 0.6
v 0 0.1 0.6
v -0.2 0.1 0.6
v -0.4 0.1 0.6
v -0.6 0.1 0.6
v -0.7 0.1 0.6
v -0.1 0 0.5
v -0.2 0 0.5
v -0.4 0 0.5
v -0.5 0 0.5
v -0.1 0.1 0.5
v -0.2 0.1 0.5
v -0.3 0.1 0.5
v -0.4 0.1 0.5
v -0.5 0.1 0.5
v -0.2 0.2 0.5
v -0.3 0.2 0.5
v -0.4 0.2 0.5
v 0.3 0 0.4
v 0.2 0 0.4
v -0.5 0 0.4
v -0.6 0 0.4
v 0.3 0.1 0.4
v 0.2 0.1 0.4
v -0.1 0.1 0.4
v -0.2 0.1 0.4
v -0.4 0.1 0.4
v -0.5 0.1 0.4
v -0.6 0.1 0.4
v -0.1 0.2 0.4
v -0.2 0.2 0.4
v -0.4 0.2 0.4
v -0.5 0.2 0.4
v 0.2 0 0.3
v 0 0 0.3
v -0.1 0 0.3
v -0.6 0 0.3
v -0.7 0 0.3
v 0.2 0.1 0.3
v 0 0.1 0.3
v -0.1 0.1 0.3
v -0.6 0.1 0.3
v -0.7 0.1 0.3
v 0 0.2 0.3
v -0.1 0.2 0.3
v 0.6 0 0.2
v 0.5 0 0.2
v 0.3 0 0.2
v 0.2 0 0.2
v 0.6 0.1 0.2
v 0.5 0.1 0.2
v 0.3 0.1 0.2
v 0.2 0.1 0.2
v 0.5 0 0.1
v 0.4 0 0.1
v 0.5 0.1 0.1
v 0.4 0.1 0.1
v 0 0.1 0.1
v -0.1 0.1 0.1
v 0 0.2 0.1
v -0.1 0.2 0.1
v 0.4 0 0
v 0.3 0 0
v 0.4 0.1 0
v 0.3 0.1 0
v 0.1 0.1 0
v 0.4 0.2 0
v 0.1 0.2 0
v 0.6 0 -0.1
v 0.5 0 -0.1
v 0.6 0.1 -0.1
v 0.5 0.1 -0.1
v 0.4 0.1 -0.1
v 0.1 0.1 -0.1
v 0 0.1 -0.1
v 0.5 0.2 -0.1
v 0.4 0.2 -0.1
v 0.1 0.2 -0.1
v 0 0.2 -0.1
v 0.7 0 -0.2
v 0.6 0 -0.2
v 0.7 0.1 -0.2
v 0.6 0.1 -0.2
v 0.7 0 -0.5
v 0.6 0 -0.5
v 0.7 0.1 -0.5
v 0.6 0.1 -0.5
v 0.4 0 -0.7
v 0.3 0 -0.7
v 0.4 0.1 -0.7
v 0.3 0.1 -0.7
v -0.4 0 0.6
v -0.5 0 0.6
v -0.4 0.1 0.6
v -0.5 0.1 0.6
v 0.1 0 0.5
v 0 0 0.5
v -0.6 0 0.5
v -0.7 0 0.5
v 0.1 0.1 0.5
v 0 0.1 0.5
v -0.6 0.1 0.5
v -0.7 0.1 0.5
v 0.3 0 0.3
v 0.2 0 0.3
v 0.3 0.1 0.3
v 0.2 0.1 0.3
v -0.6 0 0.2
v -0.7 0 0.2
v 0 0.1 0.2
v -0.1 0.1 0.2
v -0.6 0.1 0.2
v -0.7 0.1 0.2
v 0 0.2 0.2
v -0.1 0.2 0.2
v 0.6 0 0.1
v 0.5 0 0.1
v 0.6 0.1 0.1
v 0.5 0.1 0.1
v -0.4 0.1 0.1
v -0.5 0.1 0.1
v -0.4 0.2 0.1
v -0.5 0.2 0.1
v -0.5 0 0
v -0.6 0 0
v -0.5 0.1 0
v -0.6 0.1 0
v -0.4 0 -0.1
v -0.5 0 -0.1
v -0.1 0.1 -0.1
v -0.2 0.1 -0.1
v -0.3 0.1 -0.1
v -0.4 0.1 -0.1
v -0.5 0.1 -0.1
v -0.1 0.2 -0.1
v -0.3 0.2 -0.1
v -0.4 0.2 -0.1
v -0.3 0 -0.2
v -0.4 0 -0.2
v -0.3 0.1 -0.2
v -0.4 0.1 -0.2
v -0.2 0 -0.3
v -0.3 0 -0.3
v 0.5 0.1 -0.3
v 0.4 0.1 -0.3
v 0 0.1 -0.3
v -0.1 0.1 -0.3
v -0.2 0.1 -0.3
v -0.3 0.1 -0.3
v 0.5 0.2 -0.3
v 0.4 0.2 -0.3
v 0 0.2 -0.3
v -0.1 0.2 -0.3
v 0.7 0 -0.4
v 0.6 0 -0.4
v -0.1 0 -0.4
v -0.2 0 -0.4
v 0.7 0.1 -0.4
v 0.6 0.1 -0.4
v 0.4 0.1 -0.4
v 0.3 0.1 -0.4
v 0.1 0.1 -0.4
v 0 0.1 -0.4
v -0.1 0.1 -0.4
v -0.2 0.1 -0.4
v 0.4 0.2 -0.4
v 0.3 0.2 -0.4
v 0.1 0.2 -0.4
v 0 0.2 -0.4
v 0.6 0 -0.5
v 0.5 0 -0.5
v 0.1 0 -0.5
v 0 0 -0.5
v 0.6 0.1 -0.5
v 0.5 0.1 -0.5
v 0.3 0.1 -0.5
v 0.1 0.1 -0.5
v 0 0.1 -0.5
v 0.3 0.2 -0.5
v 0.1 0.2 -0.5
v 0.5 0 -0.6
v 0.4 0 -0.6
v 0.3 0 -0.6
v 0.2 0 -0.6
v 0.1 0 -0.6
v 0 0 -0.6
v -0.1 0 -0.6
v 0.5 0.1 -0.6
v 0.4 0.1 -0.6
v 0.3 0.1 -0.6
v 0.2 0.1 -0.6
v 0.1 0.1 -0.6
v 0 0.1 -0.6
v -0.1 0.1 -0.6
v 0.7 0 -0.7
v 0.6 0 -0.7
v 0.3 0 -0.7
v 0.2 0 -0.7
v 0.7 0.1 -0.7
v 0.6 0.1 -0.7
v 0.3 0.1 -0.7
v 0.2 0.1 -0.7
v 0.4 0 -0.8
v 0.3 0 -0.8
v 0.4 0.1 -0.8
v 0.3 0.1 -0.8
v 0.7 0 -0.2
v 0.7 0.1 -0.2
v 0.7 0 -0.3
v 0.7 0.1 -0.3
v 0.7 0 -0.4
v 0.7 0.1 -0.4
v 0.7 0 -0.5
v 0.7 0.1 -0.5
v 0.7 0 -0.7
v 0.7 0.1 -0.7
v 0.6 0 0.2
v 0.6 0.1 0.2
v 0.6 0 0.1
v 0.6 0.1 0.1
v 0.6 0 -0.1
v 0.6 0.1 -0.1
v 0.6 0 -0.2
v 0.6 0.1 -0.2
v 0.6 0 -0.4
v 0.6 0.1 -0.4
v 0.6 0 -0.5
v 0.6 0.1 -0.5
v 0.5 0 0.1
v 0.5 0.1 0.1
v 0.5 0 -0.1
v 0.5 0.1 -0.1
v 0.5 0.2 -0.1
v 0.5 0.1 -0.2
v 0.5 0.1 -0.3
v 0.5 0.2 -0.3
v 0.5 0 -0.5
v 0.5 0.1 -0.5
v 0.5 0 -0.6
v 0.5 0.1 -0.6
v 0.4 0.1 0
v 0.4 0.2 0
v 0.4 0.1 -0.1
v 0.4 0.2 -0.1
v 0.4 0.1 -0.3
v 0.4 0.2 -0.3
v 0.4 0.1 -0.4
v 0.4 0.2 -0.4
v 0.4 0 -0.7
v 0.4 0.1 -0.7
v 0.4 0 -0.8
v 0.4 0.1 -0.8
v 0.3 0 0.4
v 0.3 0.1 0.4
v 0.3 0 0.3
v 0.3 0.1 0.3
v 0.3 0 0.2
v 0.3 0.1 0.2
v 0.3 0 0
v 0.3 0.1 0
v 0.3 0.1 -0.4
v 0.3 0.2 -0.4
v 0.3 0.1 -0.5
v 0.3 0.2 -0.5
v 0.3 0 -0.6
v 0.3 0.1 -0.6
v 0.3 0 -0.7
v 0.3 0.1 -0.7
v 0.2 0 0.3
v 0.2 0.1 0.3
v 0.2 0 0.2
v 0.2 0.1 0.2
v 0.1 0 0.6
v 0.1 0.1 0.6
v 0.1 0 0.5
v 0.1 0.1 0.5
v 0 0.1 0.3
v 0 0.2 0.3
v 0 0.1 0.2
v 0 0.2 0.2
v 0 0.1 0.1
v 0 0.2 0.1
v 0 0.1 0
v 0 0.2 0
v 0 0.1 -0.1
v 0 0.2 -0.1
v 0 0 -0.5
v 0 0.1 -0.5
v 0 0 -0.6
v 0 0.1 -0.6
v -0.1 0 0.5
v -0.1 0.1 0.5
v -0.1 0 0.4
v -0.1 0.1 0.4
v -0.1 0.2 0.4
v -0.1 0 0.3
v -0.1 0.1 0.3
v -0.1 0.2 0.3
v -0.1 0.1 0.2
v -0.1 0.2 0.2
v -0.1 0.1 0.1
v -0.1 0.2 0.1
v -0.2 0 0.6
v -0.2 0.1 0.6
v -0.2 0 0.5
v -0.2 0.1 0.5
v -0.2 0.2 0.5
v -0.2 0.1 0.4
v -0.2 0.2 0.4
v -0.4 0 0.7
v -0.4 0.1 0.7
v -0.4 0 0.6
v -0.4 0.1 0.6
v -0.6 0 0.6
v -0.6 0.1 0.6
v -0.6 0 0.5
v -0.6 0.1 0.5
v 0.6 0 -0.5
v 0.6 0.1 -0.5
v 0.6 0 -0.7
v 0.6 0.1 -0.7
v 0.5 0 0.2
v 0.5 0.1 0.2
v 0.5 0 0.1
v 0.5 0.1 0.1
v 0.4 0 0.1
v 0.4 0.1 0.1
v 0.4 0 0
v 0.4 0.1 0
v 0.3 0 -0.7
v 0.3 0.1 -0.7
v 0.3 0 -0.8
v 0.3 0.1 -0.8
v 0.2 0 0.4
v 0.2 0.1 0.4
v 0.2 0 0.3
v 0.2 0.1 0.3
v 0.2 0 -0.6
v 0.2 0.1 -0.6
v 0.2 0 -0.7
v 0.2 0.1 -0.7
v 0.1 0.1 0
v 0.1 0.2 0
v 0.1 0.1 -0.1
v 0.1 0.2 -0.1
v 0.1 0.1 -0.4
v 0.1 0.2 -0.4
v 0.1 0 -0.5
v 0.1 0.1 -0.5
v 0.1 0.2 -0.5
v 0.1 0 -0.6
v 0.1 0.1 -0.6
v 0 0 0.6
v 0 0.1 0.6
v 0 0 0.5
v 0 0.1 0.5
v 0 0.1 -0.3
v 0 0.2 -0.3
v 0 0.1 -0.4
v 0 0.2 -0.4
v -0.1 0.1 -0.1
v -0.1 0.2 -0.1
v -0.1 0.1 -0.2
v -0.1 0.1 -0.3
v -0.1 0.2 -0.3
v -0.1 0 -0.4
v -0.1 0.1 -0.4
v -0.1 0 -0.6
v -0.1 0.1 -0.6
v -0.2 0 -0.3
v -0.2 0.1 -0.3
v -0.2 0 -0.4
v -0.2 0.1 -0.4
v -0.3 0 -0.2
v -0.3 0.1 -0.2
v -0.3 0 -0.3
v -0.3 0.1 -0.3
v -0.4 0 0.6
v -0.4 0.1 0.6
v -0.4 0 0.5
v -0.4 0.1 0.5
v -0.4 0.2 0.5
v -0.4 0.1 0.4
v -0.4 0.2 0.4
v -0.4 0.1 0.1
v -0.4 0.2 0.1
v -0.4 0 -0.1
v -0.4 0.1 -0.1
v -0.4 0.2 -0.1
v -0.4 0 -0.2
v -0.4 0.1 -0.2
v -0.5 0 0.7
v -0.5 0.1 0.7
v -0.5 0 0.6
v -0.5 0.1 0.6
v -0.5 0 0.5
v -0.5 0.1 0.5
v -0.5 0 0.4
v -0.5 0.1 0.4
v -0.5 0.2 0.4
v -0.5 0.1 0.2
v -0.5 0.2 0.2
v -0.5 0.1 0.1
v -0.5 0.2 0.1
v -0.5 0 0
v -0.5 0.1 0
v -0.5 0 -0.1
v -0.5 0.1 -0.1
v -0.6 0 0.4
v -0.6 0.1 0.4
v -0.6 0 0.3
v -0.6 0.1 0.3
v -0.6 0 0.2
v -0.6 0.1 0.2
v -0.6 0 0
v -0.6 0.1 0
v -0.7 0 0.6
v -0.7 0.1 0.6
v -0.7 0 0.5
v -0.7 0.1 0.5
v -0.7 0 0.3
v -0.7 0.1 0.3
v -0.7 0 0.2
v -0.7 0.1 0.2
v 0.7 0 -0.2
v 0.7 0 -0.3
v 0.7 0 -0.4
v 0.7 0 -0.5
v 0.7 0 -0.7
v 0.6 0 0.2
v 0.6 0 0.1
v 0.6 0 -0.1
v 0.6 0 -0.2
v 0.6 0 -0.3
v 0.6 0 -0.4
v 0.6 0 -0.5
v 0.6 0 -0.7
v 0.5 0 0.2
v 0.5 0 0.1
v 0.5 0 -0.1
v 0.5 0 -0.2
v 0.5 0 -0.3
v 0.5 0 -0.4
v 0.5 0 -0.5
v 0.5 0 -0.6
v 0.4 0 0.1
v 0.4 0 0
v 0.4 0 -0.3
v 0.4 0 -0.4
v 0.4 0 -0.5
v 0.4 0 -0.6
v 0.4 0 -0.7
v 0.4 0 -0.8
v 0.3 0 0.4
v 0.3 0 0.3
v 0.3 0 0.2
v 0.3 0 0
v 0.3 0 -0.4
v 0.3 0 -0.5
v 0.3 0 -0.6
v 0.3 0 -0.7
v 0.3 0 -0.8
v 0.2 0 0.4
v 0.2 0 0.3
v 0.2 0 0.2
v 0.2 0 0.1
v 0.2 0 -0.6
v 0.2 0 -0.7
v 0.1 0 0.6
v 0.1 0 0.5
v 0.1 0 0.2
v 0.1 0 0.1
v 0.1 0 0
v 0.1 0 -0.5
v 0.1 0 -0.6
v 0 0 0.6
v 0 0 0.5
v 0 0 0.3
v 0 0 0.2
v 0 0 0.1
v 0 0 0
v 0 0 -0.5
v 0 0 -0.6
v -0.1 0 0.5
v -0.1 0 0.4
v -0.1 0 0.3
v -0.1 0 0.2
v -0.1 0 0.1
v -0.1 0 -0.1
v -0.1 0 -0.2
v -0.1 0 -0.4
v -0.1 0 -0.6
v -0.2 0 0.6
v -0.2 0 0.5
v -0.2 0 0.4
v -0.2 0 -0.1
v -0.2 0 -0.2
v -0.2 0 -0.3
v -0.2 0 -0.4
v -0.3 0 -0.2
v -0.3 0 -0.3
v -0.4 0 0.7
v -0.4 0 0.6
v -0.4 0 0.5
v -0.4 0 0.4
v -0.4 0 -0.1
v -0.4 0 -0.2
v -0.5 0 0.7
v -0.5 0 0.6
v -0.5 0 0.5
v -0.5 0 0.4
v -0.5 0 0.2
v -0.5 0 0
v -0.5 0 -0.1
v -0.6 0 0.6
v -0.6 0 0.5
v -0.6 0 0.4
v -0.6 0 0.3
v -0.6 0 0.2
v -0.6 0 0
v -0.7 0 0.6
v -0.7 0 0.5
v -0.7 0 0.3
v -0.7 0 0.2
v 0.7 0.1 -0.2
v 0.7 0.1 -0.3
v 0.7 0.1 -0.4
v 0.7 0.1 -0.5
v 0.7 0.1 -0.7
v 0.6 0.1 0.2
v 0.6 0.1 0.1
v 0.6 0.1 -0.1
v 0.6 0.1 -0.2
v 0.6 0.1 -0.3
v 0.6 0.1 -0.4
v 0.6 0.1 -0.5
v 0.6 0.1 -0.7
v 0.5 0.1 0.2
v 0.5 0.1 0.1
v 0.5 0.1 -0.1
v 0.5 0.1 -0.2
v 0.5 0.1 -0.3
v 0.5 0.1 -0.4
v 0.5 0.1 -0.5
v 0.5 0.1 -0.6
v 0.4 0.1 0.1
v 0.4 0.1 0
v 0.4 0.1 -0.1
v 0.4 0.1 -0.3
v 0.4 0.1 -0.4
v 0.4 0.1 -0.5
v 0.4 0.1 -0.6
v 0.4 0.1 -0.7
v 0.4 0.1 -0.8
v 0.3 0.1 0.4
v 0.3 0.1 0.3
v 0.3 0.1 0.2
v 0.3 0.1 0
v 0.3 0.1 -0.4
v 0.3 0.1 -0.5
v 0.3 0.1 -0.6
v 0.3 0.1 -0.7
v 0.3 0.1 -0.8
v 0.2 0.1 0.4
v 0.2 0.1 0.3
v 0.2 0.1 0.2
v 0.2 0.1 0.1
v 0.2 0.1 -0.6
v 0.2 0.1 -0.7
v 0.1 0.1 0.6
v 0.1 0.1 0.5
v 0.1 0.1 0.2
v 0.1 0.1 0.1
v 0.1 0.1 0
v 0.1 0.1 -0.1
v 0.1 0.1 -0.4
v 0.1 0.1 -0.5
v 0.1 0.1 -0.6
v 0 0.1 0.6
v 0 0.1 0.5
v 0 0.1 0.3
v 0 0.1 0.2
v 0 0.1 0.1
v 0 0.1 0
v 0 0.1 -0.1
v 0 0.1 -0.3
v 0 0.1 -0.4
v 0 0.1 -0.5
v 0 0.1 -0.6
v -0.1 0.1 0.5
v -0.1 0.1 0.4
v -0.1 0.1 0.2
v -0.1 0.1 0.1
v -0.1 0.1 -0.1
v -0.1 0.1 -0.2
v -0.1 0.1 -0.3
v -0.1 0.1 -0.4
v -0.1 0.1 -0.6
v -0.2 0.1 0.6
v -0.2 0.1 0.5
v -0.2 0.1 0.4
v -0.2 0.1 -0.1
v -0.2 0.1 -0.2
v -0.2 0.1 -0.3
v -0.2 0.1 -0.4
v -0.3 0.1 0.5
v -0.3 0.1 -0.1
v -0.3 0.1 -0.2
v -0.3 0.1 -0.3
v -0.4 0.1 0.7
v -0.4 0.1 0.6
v -0.4 0.1 0.5
v -0.4 0.1 0.4
v -0.4 0.1 0.1
v -0.4 0.1 -0.1
v -0.4 0.1 -0.2
v -0.5 0.1 0.7
v -0.5 0.1 0.6
v -0.5 0.1 0.5
v -0.5 0.1 0.4
v -0.5 0.1 0.2
v -0.5 0.1 0.1
v -0.5 0.1 0
v -0.5 0.1 -0.1
v -0.6 0.1 0.6
v -0.6 0.1 0.5
v -0.6 0.1 0.4
v -0.6 0.1 0.3
v -0.6 0.1 0.2
v -0.6 0.1 0
v -0.7 0.1 0.6
v -0.7 0.1 0.5
v -0.7 0.1 0.3
v -0.7 0.1 0.2
v 0.5 0.2 -0.1
v 0.5 0.2 -0.3
v 0.4 0.2 0
v 0.4 0.2 -0.1
v 0.4 0.2 -0.3
v 0.4 0.2 -0.4
v 0.3 0.2 -0.1
v 0.3 0.2 -0.2
v 0.3 0.2 -0.4
v 0.3 0.2 -0.5
v 0.2 0.2 -0.1
v 0.2 0.2 -0.2
v 0.1 0.2 0
v 0.1 0.2 -0.1
v 0.1 0.2 -0.4
v 0.1 0.2 -0.5
v 0 0.2 0.3
v 0 0.2 0.2
v 0 0.2 0.1
v 0 0.2 0
v 0 0.2 -0.1
v 0 0.2 -0.3
v 0 0.2 -0.4
v -0.1 0.2 0.4
v -0.1 0.2 0.3
v -0.1 0.2 0.2
v -0.1 0.2 0.1
v -0.1 0.2 0
v -0.1 0.2 -0.1
v -0.1 0.2 -0.3
v -0.2 0.2 0.5
v -0.2 0.2 0.4
v -0.2 0.2 0.1
v -0.2 0.2 0
v -0.3 0.2 0.5
v -0.3 0.2 0.3
v -0.3 0.2 0
v -0.3 0.2 -0.1
v -0.4 0.2 0.5
v -0.4 0.2 0.4
v -0.4 0.2 0.3
v -0.4 0.2 0.2
v -0.4 0.2 0.1
v -0.4 0.2 -0.1
v -0.5 0.2 0.4
v -0.5 0.2 0.2
v -0.5 0.2 0.1

# faces
f 3/1/1 2/1/1 1/1/1
f 4/1/1 2/1/1 3/1/1
f 11/3/1 6/3/1 5/3/1
f 12/3/1 6/3/1 11/3/1
f 13/1/1 8/1/1 7/1/1
f 14/1/1 8/1/1 13/1/1
f 15/3/1 10/3/1 9/3/1
f 16/3/1 10/3/1 15/3/1
f 21/1/1 18/1/1 17/1/1
f 22/1/1 18/1/1 21/1/1
f 24/1/1 20/1/1 19/1/1
f 25/1/1 20/1/1 24/1/1
f 26/3/1 23/3/1 22/3/1
f 27/1/1 24/1/1 23/1/1
f 27/3/1 23/3/1 26/3/1
f 28/1/1 24/1/1 27/1/1
f 33/3/1 30/3/1 29/3/1
f 34/3/1 30/3/1 33/3/1
f 38/1/1 32/1/1 31/1/1
f 39/1/1 32/1/1 38/1/1
f 40/3/1 36/3/1 35/3/1
f 41/3/1 36/3/1 40/3/1
f 42/1/1 38/1/1 37/1/1
f 43/1/1 38/1/1 42/1/1
f 49/1/1 45/1/1 44/1/1
f 50/3/1 46/3/1 45/3/1
f 50/1/1 45/1/1 49/1/1
f 51/3/1 46/3/1 50/3/1
f 52/3/1 48/3/1 47/3/1
f 53/3/1 48/3/1 52/3/1
f 54/1/1 51/1/1 50/1/1
f 55/1/1 51/1/1 54/1/1
f 60/3/1 57/3/1 56/3/1
f 61/3/1 57/3/1 60/3/1
f 62/3/1 59/3/1 58/3/1
f 63/3/1 59/3/1 62/3/1
f 66/3/1 65/3/1 64/3/1
f 67/3/1 65/3/1 66/3/1
f 70/2/1 69/2/1 68/2/1
f 71/2/1 69/2/1 70/2/1
f 74/3/1 73/3/1 72/3/1
f 75/3/1 73/3/1 74/3/1
f 77/3/1 75/3/1 74/3/1
f 77/3/1 76/3/1 75/3/1
f 78/3/1 76/3/1 77/3/1
f 81/1/1 80/1/1 79/1/1
f 82/1/1 80/1/1 81/1/1
f 86/3/1 83/3/1 82/3/1
f 87/3/1 83/3/1 86/3/1
f 88/3/1 85/3/1 84/3/1
f 89/3/1 85/3/1 88/3/1
f 92/1/1 91/1/1 90/1/1
f 93/1/1 91/1/1 92/1/1
f 96/1/1 95/1/1 94/1/1
f 97/1/1 95/1/1 96/1/1
f 100/1/1 99/1/1 98/1/1
f 101/1/1 99/1/1 100/1/1
f 102/1/2 103/1/2 104/1/2
f 104/1/2 103/1/2 105/1/2
f 106/3/2 107/3/2 110/3/2
f 110/3/2 107/3/2 111/3/2
f 108/3/2 109/3/2 112/3/2
f 112/3/2 109/3/2 113/3/2
f 114/3/2 115/3/2 116/3/2
f 116/3/2 115/3/2 117/3/2
f 118/3/2 119/3/2 122/3/2
f 122/3/2 119/3/2 123/3/2
f 120/1/2 121/1/2 124/1/2
f 124/1/2 121/1/2 125/1/2
f 126/3/2 127/3/2 128/3/2
f 128/3/2 127/3/2 129/3/2
f 130/3/2 131/3/2 132/3/2
f 132/3/2 131/3/2 133/3/2
f 134/3/2 135/3/2 136/3/2
f 136/3/2 135/3/2 137/3/2
f 138/3/2 139/3/2 143/3/2
f 143/3/2 139/3/2 144/3/2
f 141/1/2 142/1/2 145/1/2
f 140/1/2 141/1/2 145/1/2
f 142/3/2 143/3/2 146/3/2
f 145/1/2 142/1/2 146/1/2
f 146/3/2 143/3/2 147/3/2
f 148/3/2 149/3/2 150/3/2
f 150/3/2 149/3/2 151/3/2
f 152/3/2 153/3/2 158/3/2
f 158/3/2 153/3/2 159/3/2
f 154/3/2 155/3/2 160/3/2
f 160/3/2 155/3/2 161/3/2
f 156/3/2 157/3/2 162/3/2
f 162/3/2 157/3/2 163/3/2
f 164/3/2 165/3/2 168/3/2
f 168/3/2 165/3/2 169/3/2
f 166/3/2 167/3/2 174/3/2
f 174/3/2 167/3/2 175/3/2
f 170/3/2 171/3/2 176/3/2
f 176/3/2 171/3/2 177/3/2
f 172/3/2 173/3/2 178/3/2
f 178/3/2 173/3/2 179/3/2
f 180/1/2 181/1/2 184/1/2
f 184/1/2 181/1/2 185/1/2
f 182/3/2 183/3/2 187/3/2
f 187/3/2 183/3/2 188/3/2
f 186/3/2 187/3/2 189/3/2
f 189/3/2 187/3/2 190/3/2
f 191/1/2 192/1/2 198/1/2
f 192/2/2 193/2/2 199/2/2
f 198/1/2 192/1/2 199/1/2
f 199/2/2 193/2/2 200/2/2
f 194/3/2 195/3/2 201/3/2
f 201/3/2 195/3/2 202/3/2
f 196/3/2 197/3/2 203/3/2
f 203/3/2 197/3/2 204/3/2
f 205/1/2 206/1/2 209/1/2
f 209/1/2 206/1/2 210/1/2
f 207/3/2 208/3/2 211/3/2
f 211/3/2 208/3/2 212/3/2
f 213/1/2 214/1/2 215/1/2
f 215/1/2 214/1/2 216/1/2
f 219/1/3 218/1/3 217/1/3
f 220/1/3 218/1/3 219/1/3
f 221/3/3 220/3/3 219/3/3
f 222/3/3 220/3/3 221/3/3
f 225/1/3 224/1/3 223/1/3
f 226/1/3 224/1/3 225/1/3
f 229/3/3 228/3/3 227/3/3
f 230/3/3 228/3/3 229/3/3
f 233/1/3 232/1/3 231/1/3
f 234/1/3 232/1/3 233/1/3
f 237/1/3 236/1/3 235/1/3
f 238/1/3 236/1/3 237/1/3
f 241/3/3 240/3/3 239/3/3
f 242/3/3 240/3/3 241/3/3
f 244/3/3 243/3/3 242/3/3
f 245/3/3 243/3/3 244/3/3
f 246/3/3 243/3/3 245/3/3
f 249/1/3 248/1/3 247/1/3
f 250/1/3 248/1/3 249/1/3
f 253/3/3 252/3/3 251/3/3
f 254/3/3 252/3/3 253/3/3
f 257/3/3 256/3/3 255/3/3
f 258/3/3 256/3/3 257/3/3
f 261/1/3 260/1/3 259/1/3
f 262/1/3 260/1/3 261/1/3
f 265/3/3 264/3/3 263/3/3
f 266/3/3 264/3/3 265/3/3
f 269/3/3 268/3/3 267/3/3
f 270/3/3 268/3/3 269/3/3
f 273/3/3 272/3/3 271/3/3
f 274/3/3 272/3/3 273/3/3
f 277/3/3 276/3/3 275/3/3
f 278/3/3 276/3/3 277/3/3
f 281/1/3 280/1/3 279/1/3
f 282/1/3 280/1/3 281/1/3
f 285/3/3 284/3/3 283/3/3
f 286/3/3 284/3/3 285/3/3
f 289/1/3 288/1/3 287/1/3
f 290/1/3 288/1/3 289/1/3
f 293/2/3 292/2/3 291/2/3
f 294/2/3 292/2/3 293/2/3
f 295/1/3 294/1/3 293/1/3
f 296/1/3 294/1/3 295/1/3
f 299/3/3 298/3/3 297/3/3
f 300/3/3 298/3/3 299/3/3
f 303/1/3 302/1/3 301/1/3
f 304/1/3 302/1/3 303/1/3
f 306/3/3 304/3/3 303/3/3
f 306/3/3 305/3/3 304/3/3
f 307/3/3 305/3/3 306/3/3
f 308/3/3 305/3/3 307/3/3
f 311/3/3 310/3/3 309/3/3
f 312/3/3 310/3/3 311/3/3
f 315/1/3 314/1/3 313/1/3
f 316/1/3 314/1/3 315/1/3
f 318/3/3 317/3/3 316/3/3
f 319/3/3 317/3/3 318/3/3
f 322/1/3 321/1/3 320/1/3
f 323/1/3 321/1/3 322/1/3
f 326/3/3 325/3/3 324/3/3
f 327/3/3 325/3/3 326/3/3
f 328/1/4 329/1/4 330/1/4
f 330/1/4 329/1/4 331/1/4
f 332/3/4 333/3/4 334/3/4
f 334/3/4 333/3/4 335/3/4
f 336/3/4 337/3/4 338/3/4
f 338/3/4 337/3/4 339/3/4
f 340/1/4 341/1/4 342/1/4
f 342/1/4 341/1/4 343/1/4
f 344/3/4 345/3/4 346/3/4
f 346/3/4 345/3/4 347/3/4
f 348/3/4 349/3/4 350/3/4
f 350/3/4 349/3/4 351/3/4
f 352/3/4 353/3/4 354/3/4
f 354/3/4 353/3/4 355/3/4
f 356/3/4 357/3/4 359/3/4
f 359/3/4 357/3/4 360/3/4
f 358/3/4 359/3/4 361/3/4
f 361/3/4 359/3/4 362/3/4
f 363/3/4 364/3/4 365/3/4
f 365/3/4 364/3/4 366/3/4
f 367/3/4 368/3/4 369/3/4
f 369/3/4 368/3/4 370/3/4
f 371/3/4 372/3/4 373/3/4
f 373/3/4 372/3/4 374/3/4
f 374/3/4 372/3/4 375/3/4
f 376/3/4 377/3/4 378/3/4
f 378/3/4 377/3/4 379/3/4
f 380/3/4 381/3/4 382/3/4
f 382/3/4 381/3/4 383/3/4
f 384/3/4 385/3/4 386/3/4
f 386/3/4 385/3/4 387/3/4
f 388/1/4 389/1/4 390/1/4
f 390/1/4 389/1/4 391/1/4
f 391/1/4 392/1/4 393/1/4
f 393/1/4 392/1/4 394/1/4
f 395/3/4 396/3/4 398/3/4
f 398/3/4 396/3/4 399/3/4
f 397/3/4 398/3/4 400/3/4
f 400/3/4 398/3/4 401/3/4
f 402/1/4 403/1/4 404/1/4
f 404/1/4 403/1/4 405/1/4
f 406/1/4 407/1/4 408/1/4
f 408/1/4 407/1/4 409/1/4
f 409/1/4 410/1/4 411/1/4
f 411/1/4 410/1/4 412/1/4
f 411/3/4 412/3/4 413/3/4
f 413/3/4 412/3/4 414/3/4
f 415/3/4 416/3/4 417/3/4
f 417/3/4 416/3/4 418/3/4
f 419/1/4 420/1/4 421/1/4
f 421/1/4 420/1/4 422/1/4
f 423/3/4 424/3/4 425/3/4
f 425/3/4 424/3/4 426/3/4
f 427/3/4 428/3/4 429/3/4
f 429/3/4 428/3/4 430/3/4
f 431/3/4 432/3/4 433/3/4
f 433/3/4 432/3/4 434/3/4
f 443/1/5 436/1/5 435/1/5
f 444/3/5 437/3/5 436/3/5
f 444/1/5 436/1/5 443/1/5
f 445/3/5 437/3/5 444/3/5
f 446/1/5 439/1/5 438/1/5
f 447/1/5 439/1/5 446/1/5
f 448/3/5 441/3/5 440/3/5
f 449/3/5 441/3/5 448/3/5
f 450/1/5 443/1/5 442/1/5
f 451/2/5 444/2/5 443/2/5
f 451/1/5 443/1/5 450/1/5
f 452/3/5 445/3/5 444/3/5
f 452/2/5 444/2/5 451/2/5
f 453/1/5 446/1/5 445/1/5
f 453/3/5 445/3/5 452/3/5
f 454/1/5 446/1/5 453/1/5
f 456/3/5 451/3/5 450/3/5
f 456/3/5 450/3/5 449/3/5
f 456/3/5 452/3/5 451/3/5
f 457/3/5 452/3/5 456/3/5
f 458/1/5 455/1/5 454/1/5
f 458/3/5 452/3/5 457/3/5
f 458/1/5 454/1/5 453/1/5
f 458/1/5 453/1/5 452/1/5
f 459/1/5 455/1/5 458/1/5
f 460/1/5 455/1/5 459/1/5
f 461/1/5 455/1/5 460/1/5
f 467/3/5 458/3/5 457/3/5
f 467/3/5 459/3/5 458/3/5
f 468/1/5 460/1/5 459/1/5
f 468/3/5 459/3/5 467/3/5
f 469/2/5 461/2/5 460/2/5
f 469/1/5 460/1/5 468/1/5
f 470/2/5 461/2/5 469/2/5
f 471/1/5 463/1/5 462/1/5
f 472/1/5 463/1/5 471/1/5
f 473/3/5 465/3/5 464/3/5
f 474/3/5 465/3/5 473/3/5
f 475/3/5 468/3/5 467/3/5
f 475/3/5 470/3/5 469/3/5
f 475/3/5 467/3/5 466/3/5
f 475/3/5 471/3/5 470/3/5
f 475/3/5 469/3/5 468/3/5
f 476/3/5 471/3/5 475/3/5
f 477/3/5 471/3/5 476/3/5
f 478/3/5 471/3/5 477/3/5
f 481/1/5 475/1/5 474/1/5
f 481/2/5 476/2/5 475/2/5
f 482/3/5 477/3/5 476/3/5
f 482/2/5 476/2/5 481/2/5
f 483/3/5 477/3/5 482/3/5
f 484/3/5 477/3/5 483/3/5
f 485/3/5 477/3/5 484/3/5
f 486/3/5 480/3/5 479/3/5
f 487/3/5 480/3/5 486/3/5
f 488/1/5 481/1/5 474/1/5
f 488/1/5 482/1/5 481/1/5
f 489/1/5 482/1/5 488/1/5
f 490/2/5 483/2/5 482/2/5
f 490/1/5 482/1/5 489/1/5
f 491/3/5 484/3/5 483/3/5
f 491/2/5 483/2/5 490/2/5
f 492/3/5 484/3/5 491/3/5
f 496/3/5 489/3/5 488/3/5
f 497/2/5 490/2/5 489/2/5
f 497/3/5 489/3/5 496/3/5
f 498/3/5 493/3/5 492/3/5
f 498/2/5 490/2/5 497/2/5
f 498/3/5 491/3/5 490/3/5
f 498/3/5 492/3/5 491/3/5
f 499/3/5 493/3/5 498/3/5
f 500/3/5 493/3/5 499/3/5
f 501/3/5 493/3/5 500/3/5
f 502/3/5 493/3/5 501/3/5
f 504/1/5 495/1/5 494/1/5
f 505/3/5 497/3/5 496/3/5
f 505/3/5 496/3/5 495/3/5
f 505/1/5 495/1/5 504/1/5
f 505/3/5 498/3/5 497/3/5
f 505/3/5 499/3/5 498/3/5
f 506/1/5 500/1/5 499/1/5
f 506/3/5 499/3/5 505/3/5
f 507/3/5 501/3/5 500/3/5
f 507/1/5 500/1/5 506/1/5
f 508/3/5 501/3/5 507/3/5
f 509/3/5 501/3/5 508/3/5
f 510/3/5 506/3/5 505/3/5
f 510/3/5 505/3/5 504/3/5
f 510/3/5 508/3/5 507/3/5
f 510/3/5 507/3/5 506/3/5
f 511/3/5 508/3/5 510/3/5
f 513/1/5 504/1/5 503/1/5
f 514/3/5 510/3/5 504/3/5
f 514/1/5 504/1/5 513/1/5
f 515/3/5 510/3/5 514/3/5
f 516/3/5 510/3/5 515/3/5
f 517/3/5 510/3/5 516/3/5
f 518/1/5 513/1/5 512/1/5
f 519/1/5 513/1/5 518/1/5
f 520/1/5 515/1/5 514/1/5
f 521/3/5 516/3/5 515/3/5
f 521/1/5 515/1/5 520/1/5
f 522/3/5 516/3/5 521/3/5
f 523/3/5 516/3/5 522/3/5
f 524/3/5 516/3/5 523/3/5
f 527/1/5 522/1/5 521/1/5
f 528/1/5 522/1/5 527/1/5
f 529/3/5 523/3/5 522/3/5
f 529/1/5 522/1/5 528/1/5
f 530/3/5 523/3/5 529/3/5
f 531/3/5 526/3/5 525/3/5
f 532/3/5 526/3/5 531/3/5
f 533/3/5 529/3/5 528/3/5
f 534/3/5 529/3/5 533/3/5
f 535/1/6 536/1/6 543/1/6
f 536/3/6 537/3/6 544/3/6
f 543/1/6 536/1/6 544/1/6
f 544/3/6 537/3/6 545/3/6
f 538/1/6 539/1/6 546/1/6
f 546/1/6 539/1/6 547/1/6
f 540/3/6 541/3/6 548/3/6
f 548/3/6 541/3/6 549/3/6
f 542/1/6 543/1/6 550/1/6
f 543/2/6 544/2/6 551/2/6
f 550/1/6 543/1/6 551/1/6
f 544/3/6 545/3/6 552/3/6
f 551/2/6 544/2/6 552/2/6
f 545/1/6 546/1/6 553/1/6
f 552/3/6 545/3/6 553/3/6
f 553/1/6 546/1/6 554/1/6
f 549/3/6 550/3/6 556/3/6
f 556/3/6 550/3/6 557/3/6
f 557/3/6 550/3/6 558/3/6
f 554/1/6 555/1/6 559/1/6
f 553/1/6 554/1/6 559/1/6
f 552/1/6 553/1/6 559/1/6
f 559/1/6 555/1/6 560/1/6
f 560/1/6 555/1/6 561/1/6
f 561/1/6 555/1/6 562/1/6
f 560/1/6 561/1/6 569/1/6
f 561/2/6 562/2/6 570/2/6
f 569/1/6 561/1/6 570/1/6
f 570/2/6 562/2/6 571/2/6
f 563/1/6 564/1/6 572/1/6
f 572/1/6 564/1/6 573/1/6
f 565/3/6 566/3/6 574/3/6
f 574/3/6 566/3/6 575/3/6
f 567/3/6 568/3/6 576/3/6
f 576/3/6 568/3/6 577/3/6
f 570/3/6 571/3/6 578/3/6
f 571/3/6 572/3/6 578/3/6
f 578/3/6 572/3/6 579/3/6
f 576/2/6 577/2/6 582/2/6
f 575/1/6 576/1/6 582/1/6
f 577/3/6 568/3/6 583/3/6
f 582/2/6 577/2/6 583/2/6
f 583/3/6 568/3/6 584/3/6
f 570/3/6 578/3/6 587/3/6
f 587/3/6 578/3/6 588/3/6
f 580/3/6 581/3/6 589/3/6
f 589/3/6 581/3/6 590/3/6
f 575/1/6 582/1/6 591/1/6
f 582/1/6 583/1/6 591/1/6
f 591/1/6 583/1/6 592/1/6
f 583/2/6 584/2/6 593/2/6
f 592/1/6 583/1/6 593/1/6
f 584/3/6 585/3/6 594/3/6
f 593/2/6 584/2/6 594/2/6
f 594/3/6 585/3/6 595/3/6
f 586/3/6 587/3/6 597/3/6
f 597/3/6 587/3/6 598/3/6
f 592/2/6 593/2/6 602/2/6
f 602/2/6 593/2/6 603/2/6
f 598/3/6 599/3/6 606/3/6
f 597/3/6 598/3/6 606/3/6
f 596/3/6 597/3/6 606/3/6
f 606/3/6 599/3/6 607/3/6
f 607/3/6 599/3/6 608/3/6
f 600/1/6 601/1/6 610/1/6
f 610/1/6 601/1/6 611/1/6
f 604/1/6 605/1/6 612/1/6
f 606/3/6 607/3/6 613/3/6
f 612/1/6 605/1/6 613/1/6
f 605/3/6 606/3/6 613/3/6
f 613/3/6 607/3/6 614/3/6
f 614/3/6 607/3/6 615/3/6
f 609/1/6 610/1/6 616/1/6
f 613/3/6 614/3/6 617/3/6
f 612/3/6 613/3/6 617/3/6
f 617/3/6 614/3/6 618/3/6
f 618/3/6 614/3/6 619/3/6
f 609/1/6 616/1/6 621/1/6
f 621/1/6 616/1/6 622/1/6
f 617/3/6 618/3/6 625/3/6
f 625/3/6 618/3/6 626/3/6
f 620/1/6 621/1/6 627/1/6
f 627/1/6 621/1/6 628/1/6
f 622/1/6 623/1/6 629/1/6
f 629/1/6 623/1/6 630/1/6
f 624/3/6 625/3/6 632/3/6
f 632/3/6 625/3/6 633/3/6
f 633/3/6 625/3/6 634/3/6
f 630/1/6 631/1/6 637/1/6
f 637/1/6 631/1/6 638/1/6
f 632/3/6 633/3/6 639/3/6
f 638/1/6 631/1/6 639/1/6
f 631/3/6 632/3/6 639/3/6
f 639/3/6 633/3/6 640/3/6
f 635/3/6 636/3/6 641/3/6
f 641/3/6 636/3/6 642/3/6
f 638/3/6 639/3/6 643/3/6
f 643/3/6 639/3/6 644/3/6
f 645/3/6 646/3/6 648/3/6
f 648/3/6 646/3/6 649/3/6
f 647/3/6 648/3/6 651/3/6
f 649/3/6 650/3/6 651/3/6
f 648/3/6 649/3/6 651/3/6
f 651/3/6 650/3/6 652/3/6
f 652/3/6 650/3/6 653/3/6
f 647/3/6 651/3/6 655/3/6
f 651/1/6 652/1/6 655/1/6
f 653/3/6 654/3/6 656/3/6
f 655/1/6 652/1/6 656/1/6
f 652/3/6 653/3/6 656/3/6
f 647/3/6 655/3/6 657/3/6
f 655/3/6 656/3/6 657/3/6
f 657/3/6 656/3/6 658/3/6
f 656/3/6 654/3/6 659/3/6
f 658/3/6 656/3/6 659/3/6
f 659/3/6 654/3/6 660/3/6
f 658/3/6 659/3/6 665/3/6
f 665/3/6 659/3/6 666/3/6
f 666/3/6 659/3/6 667/3/6
f 661/1/6 662/1/6 669/1/6
f 669/1/6 662/1/6 670/1/6
f 663/2/6 664/2/6 671/2/6
f 664/1/6 665/1/6 672/1/6
f 671/2/6 664/2/6 672/2/6
f 665/3/6 666/3/6 673/3/6
f 672/1/6 665/1/6 673/1/6
f 673/3/6 666/3/6 674/3/6
f 669/3/6 670/3/6 676/3/6
f 670/3/6 671/3/6 676/3/6
f 668/3/6 669/3/6 676/3/6
f 672/1/6 673/1/6 677/1/6
f 671/1/6 672/1/6 677/1/6
f 676/3/6 671/3/6 677/3/6
f 677/1/6 673/1/6 678/1/6
f 675/3/6 676/3/6 679/3/6
f 676/3/6 677/3/6 679/3/6
f 677/3/6 678/3/6 679/3/6
f 679/3/6 678/3/6 680/3/6
f 678/1/6 673/1/6 681/1/6
f 680/3/6 678/3/6 681/3/6
f 681/1/6 673/1/6 682/1/6
f 679/1/6 680/1/6 683/1/6
f 683/1/6 680/1/6 684/1/6
f 680/3/6 681/3/6 685/3/6
f 684/1/6 680/1/6 685/1/6
f 681/3/6 682/3/6 685/3/6
f 685/3/6 682/3/6 686/3/6
f 686/3/6 682/3/6 687/3/6
f 687/3/6 682/3/6 688/3/6
f 684/1/6 685/1/6 689/1/6
f 685/1/6 686/1/6 689/1/6
f 686/3/6 687/3/6 690/3/6
f 689/1/6 686/1/6 690/1/6
f 690/3/6 687/3/6 691/3/6
