# MagicaVoxel @ Ephtracy

# group
o 

# material
mtllib get-color.mtl
usemtl palette

# normals
vn -1 0 0
vn 1 0 0
vn 0 0 1
vn 0 0 -1
vn 0 -1 0
vn 0 1 0

# texcoords
vt 0.267578 0.5
vt 0.271484 0.5

# verts
v -0.5 0 0.5
v -0.5 0 0
v -0.5 0 -0.5
v -0.5 0.1 0.5
v -0.5 0.1 0
v -0.5 0.1 -0.5
v -0.4 0 -0.2
v -0.4 0 -0.5
v -0.4 0.1 -0.2
v -0.4 0.1 -0.5
v -0.3 0 0
v -0.3 0 -0.2
v -0.3 0.1 0
v -0.3 0.1 -0.2
v -0.2 0 0.1
v -0.2 0 0
v -0.2 0.1 0.1
v -0.2 0.1 0
v -0.1 0 0.2
v -0.1 0 0.1
v -0.1 0.1 0.2
v -0.1 0.1 0.1
v 0 0 0.3
v 0 0 0.2
v 0 0.1 0.3
v 0 0.1 0.2
v 0.2 0 0.4
v 0.2 0 0.3
v 0.2 0.1 0.4
v 0.2 0.1 0.3
v 0.5 0 0.5
v 0.5 0 0.4
v 0.5 0.1 0.5
v 0.5 0.1 0.4
v -0.5 0 0.5
v -0.5 0.1 0.5
v 0 0 0.5
v 0 0.1 0.5
v 0.5 0 0.5
v 0.5 0.1 0.5
v 0.2 0 0.4
v 0.2 0.1 0.4
v 0.5 0 0.4
v 0.5 0.1 0.4
v 0 0 0.3
v 0 0.1 0.3
v 0.2 0 0.3
v 0.2 0.1 0.3
v -0.1 0 0.2
v -0.1 0.1 0.2
v 0 0 0.2
v 0 0.1 0.2
v -0.2 0 0.1
v -0.2 0.1 0.1
v -0.1 0 0.1
v -0.1 0.1 0.1
v -0.3 0 0
v -0.3 0.1 0
v -0.2 0 0
v -0.2 0.1 0
v -0.4 0 -0.2
v -0.4 0.1 -0.2
v -0.3 0 -0.2
v -0.3 0.1 -0.2
v -0.5 0 -0.5
v -0.5 0.1 -0.5
v -0.4 0 -0.5
v -0.4 0.1 -0.5
v -0.5 0 0.5
v 0 0 0.5
v 0.5 0 0.5
v -0.2 0 0.4
v 0 0 0.4
v 0.2 0 0.4
v 0.5 0 0.4
v -0.3 0 0.3
v -0.2 0 0.3
v 0 0 0.3
v 0.2 0 0.3
v -0.4 0 0.2
v -0.3 0 0.2
v -0.1 0 0.2
v 0 0 0.2
v -0.2 0 0.1
v -0.1 0 0.1
v -0.5 0 0
v -0.4 0 0
v -0.3 0 0
v -0.2 0 0
v -0.4 0 -0.2
v -0.3 0 -0.2
v -0.5 0 -0.5
v -0.4 0 -0.5
v -0.5 0.1 0.5
v 0 0.1 0.5
v 0.5 0.1 0.5
v -0.2 0.1 0.4
v 0 0.1 0.4
v 0.2 0.1 0.4
v 0.5 0.1 0.4
v -0.3 0.1 0.3
v -0.2 0.1 0.3
v 0 0.1 0.3
v 0.2 0.1 0.3
v -0.4 0.1 0.2
v -0.3 0.1 0.2
v -0.1 0.1 0.2
v 0 0.1 0.2
v -0.2 0.1 0.1
v -0.1 0.1 0.1
v -0.5 0.1 0
v -0.4 0.1 0
v -0.3 0.1 0
v -0.2 0.1 0
v -0.4 0.1 -0.2
v -0.3 0.1 -0.2
v -0.5 0.1 -0.5
v -0.4 0.1 -0.5

# faces
f 4/1/1 2/1/1 1/1/1
f 5/2/1 3/2/1 2/2/1
f 5/1/1 2/1/1 4/1/1
f 6/2/1 3/2/1 5/2/1
f 7/2/2 8/2/2 9/2/2
f 9/2/2 8/2/2 10/2/2
f 11/2/2 12/2/2 13/2/2
f 13/2/2 12/2/2 14/2/2
f 15/2/2 16/2/2 17/2/2
f 17/2/2 16/2/2 18/2/2
f 19/2/2 20/2/2 21/2/2
f 21/2/2 20/2/2 22/2/2
f 23/2/2 24/2/2 25/2/2
f 25/2/2 24/2/2 26/2/2
f 27/2/2 28/2/2 29/2/2
f 29/2/2 28/2/2 30/2/2
f 31/2/2 32/2/2 33/2/2
f 33/2/2 32/2/2 34/2/2
f 37/1/3 36/1/3 35/1/3
f 38/1/3 36/1/3 37/1/3
f 39/2/3 38/2/3 37/2/3
f 40/2/3 38/2/3 39/2/3
f 41/2/4 42/2/4 43/2/4
f 43/2/4 42/2/4 44/2/4
f 45/2/4 46/2/4 47/2/4
f 47/2/4 46/2/4 48/2/4
f 49/2/4 50/2/4 51/2/4
f 51/2/4 50/2/4 52/2/4
f 53/2/4 54/2/4 55/2/4
f 55/2/4 54/2/4 56/2/4
f 57/2/4 58/2/4 59/2/4
f 59/2/4 58/2/4 60/2/4
f 61/2/4 62/2/4 63/2/4
f 63/2/4 62/2/4 64/2/4
f 65/2/4 66/2/4 67/2/4
f 67/2/4 66/2/4 68/2/4
f 72/1/5 70/1/5 69/1/5
f 73/2/5 71/2/5 70/2/5
f 73/1/5 70/1/5 72/1/5
f 74/2/5 71/2/5 73/2/5
f 75/2/5 71/2/5 74/2/5
f 76/1/5 72/1/5 69/1/5
f 77/2/5 73/2/5 72/2/5
f 77/1/5 72/1/5 76/1/5
f 77/2/5 74/2/5 73/2/5
f 78/2/5 74/2/5 77/2/5
f 79/2/5 74/2/5 78/2/5
f 80/1/5 76/1/5 69/1/5
f 81/2/5 77/2/5 76/2/5
f 81/1/5 76/1/5 80/1/5
f 81/2/5 78/2/5 77/2/5
f 82/2/5 78/2/5 81/2/5
f 83/2/5 78/2/5 82/2/5
f 84/2/5 81/2/5 80/2/5
f 84/2/5 82/2/5 81/2/5
f 85/2/5 82/2/5 84/2/5
f 86/1/5 80/1/5 69/1/5
f 87/2/5 84/2/5 80/2/5
f 87/1/5 80/1/5 86/1/5
f 88/2/5 84/2/5 87/2/5
f 89/2/5 84/2/5 88/2/5
f 90/2/5 87/2/5 86/2/5
f 90/2/5 88/2/5 87/2/5
f 91/2/5 88/2/5 90/2/5
f 92/2/5 90/2/5 86/2/5
f 93/2/5 90/2/5 92/2/5
f 94/1/6 95/1/6 97/1/6
f 95/2/6 96/2/6 98/2/6
f 97/1/6 95/1/6 98/1/6
f 98/2/6 96/2/6 99/2/6
f 99/2/6 96/2/6 100/2/6
f 94/1/6 97/1/6 101/1/6
f 97/2/6 98/2/6 102/2/6
f 101/1/6 97/1/6 102/1/6
f 98/2/6 99/2/6 102/2/6
f 102/2/6 99/2/6 103/2/6
f 103/2/6 99/2/6 104/2/6
f 94/1/6 101/1/6 105/1/6
f 101/2/6 102/2/6 106/2/6
f 105/1/6 101/1/6 106/1/6
f 102/2/6 103/2/6 106/2/6
f 106/2/6 103/2/6 107/2/6
f 107/2/6 103/2/6 108/2/6
f 105/2/6 106/2/6 109/2/6
f 106/2/6 107/2/6 109/2/6
f 109/2/6 107/2/6 110/2/6
f 94/1/6 105/1/6 111/1/6
f 105/2/6 109/2/6 112/2/6
f 111/1/6 105/1/6 112/1/6
f 112/2/6 109/2/6 113/2/6
f 113/2/6 109/2/6 114/2/6
f 111/2/6 112/2/6 115/2/6
f 112/2/6 113/2/6 115/2/6
f 115/2/6 113/2/6 116/2/6
f 111/2/6 115/2/6 117/2/6
f 117/2/6 115/2/6 118/2/6
