# MagicaVoxel @ Ephtracy

# group
o 

# material
mtllib get-color.mtl
usemtl palette

# normals
vn -1 0 0
vn 1 0 0
vn 0 0 1
vn 0 0 -1
vn 0 -1 0
vn 0 1 0

# texcoords
vt 0.314453 0.5
vt 0.455078 0.5
vt 0.681641 0.5
vt 0.689453 0.5

# verts
v -2.23517e-08 1.5 0.4
v -2.23517e-08 1.5 0.3
v -2.23517e-08 1.6 0.4
v -2.23517e-08 1.6 0.3
v 0.1 1.1 0.3
v 0.1 1.1 0.2
v 0.1 1.3 0.4
v 0.1 1.3 0.3
v 0.1 1.4 0.4
v 0.1 1.4 0.3
v 0.1 1.5 0.4
v 0.1 1.5 0.3
v 0.1 1.6 0.4
v 0.1 1.6 0.3
v 0.1 1.8 0.4
v 0.1 1.8 0.2
v 0.2 1.2 0.5
v 0.2 1.2 0.4
v 0.2 1.3 0.4
v 0.2 1.4 0.6
v 0.2 1.4 0.5
v 0.2 1.4 0.4
v 0.2 1.5 0.6
v 0.2 1.5 0.5
v 0.2 1.5 0.4
v 0.2 1.6 0.5
v 0.2 1.6 0.4
v 0.2 1.7 0.5
v 0.2 1.7 0.4
v 0.3 1.3 0.6
v 0.3 1.3 0.5
v 0.3 1.4 0.6
v 0.3 1.4 0.5
v 0.4 1.1 0.5
v 0.4 1.1 0.4
v 0.4 1.2 0.6
v 0.4 1.2 0.5
v 0.4 1.2 0.4
v 0.4 1.3 0.6
v 0.4 1.3 0.5
v 0.5 1.1 0.6
v 0.5 1.1 0.5
v 0.5 1.2 0.6
v 0.5 1.2 0.5
v 0.3 1.3 0.4
v 0.3 1.3 0.3
v 0.3 1.4 0.4
v 0.3 1.4 0.3
v 0.3 1.5 0.4
v 0.3 1.5 0.3
v 0.3 1.6 0.5
v 0.3 1.6 0.4
v 0.3 1.7 0.5
v 0.3 1.7 0.4
v 0.3 1.7 0.3
v 0.3 1.8 0.4
v 0.3 1.8 0.3
v 0.4 1.4 0.6
v 0.4 1.4 0.5
v 0.4 1.5 0.6
v 0.4 1.5 0.5
v 0.4 1.5 0.4
v 0.4 1.5 0.3
v 0.4 1.6 0.5
v 0.4 1.6 0.4
v 0.4 1.6 0.3
v 0.4 1.7 0.4
v 0.4 1.7 0.3
v 0.4 1.7 0.2
v 0.4 1.8 0.3
v 0.4 1.8 0.2
v 0.5 1.1 0.3
v 0.5 1.1 0.2
v 0.5 1.4 0.5
v 0.5 1.4 0.4
v 0.5 1.5 0.5
v 0.5 1.5 0.4
v 0.5 1.7 0.3
v 0.5 1.7 0.2
v 0.6 1.3 0.6
v 0.6 1.3 0.4
v 0.6 1.4 0.6
v 0.6 1.4 0.4
v 0.7 1.1 0.6
v 0.7 1.1 0.4
v 0.7 1.3 0.6
v 0.7 1.3 0.4
v 0.2 1.4 0.6
v 0.2 1.5 0.6
v 0.3 1.3 0.6
v 0.3 1.4 0.6
v 0.4 1.2 0.6
v 0.4 1.3 0.6
v 0.4 1.4 0.6
v 0.4 1.5 0.6
v 0.5 1.1 0.6
v 0.5 1.2 0.6
v 0.6 1.3 0.6
v 0.6 1.4 0.6
v 0.7 1.1 0.6
v 0.7 1.3 0.6
v 0.2 1.2 0.5
v 0.2 1.4 0.5
v 0.2 1.5 0.5
v 0.2 1.6 0.5
v 0.2 1.7 0.5
v 0.3 1.3 0.5
v 0.3 1.4 0.5
v 0.3 1.6 0.5
v 0.3 1.7 0.5
v 0.4 1.1 0.5
v 0.4 1.2 0.5
v 0.4 1.3 0.5
v 0.4 1.4 0.5
v 0.4 1.5 0.5
v 0.4 1.6 0.5
v 0.5 1.1 0.5
v 0.5 1.2 0.5
v 0.5 1.4 0.5
v 0.5 1.5 0.5
v -2.23517e-08 1.5 0.4
v -2.23517e-08 1.6 0.4
v 0.1 1.3 0.4
v 0.1 1.4 0.4
v 0.1 1.5 0.4
v 0.1 1.6 0.4
v 0.1 1.8 0.4
v 0.2 1.3 0.4
v 0.2 1.4 0.4
v 0.2 1.5 0.4
v 0.2 1.6 0.4
v 0.2 1.7 0.4
v 0.3 1.6 0.4
v 0.3 1.7 0.4
v 0.3 1.8 0.4
v 0.4 1.6 0.4
v 0.4 1.7 0.4
v 0.1 1.1 0.3
v 0.1 1.3 0.3
v 0.3 1.3 0.3
v 0.3 1.4 0.3
v 0.3 1.5 0.3
v 0.3 1.7 0.3
v 0.3 1.8 0.3
v 0.4 1.5 0.3
v 0.4 1.6 0.3
v 0.4 1.7 0.3
v 0.4 1.8 0.3
v 0.5 1.1 0.3
v 0.5 1.7 0.3
v 0.2 1.2 0.4
v 0.2 1.3 0.4
v 0.3 1.3 0.4
v 0.3 1.4 0.4
v 0.3 1.5 0.4
v 0.4 1.1 0.4
v 0.4 1.2 0.4
v 0.4 1.5 0.4
v 0.5 1.4 0.4
v 0.5 1.5 0.4
v 0.6 1.3 0.4
v 0.6 1.4 0.4
v 0.7 1.1 0.4
v 0.7 1.3 0.4
v -2.23517e-08 1.5 0.3
v -2.23517e-08 1.6 0.3
v 0.1 1.5 0.3
v 0.1 1.6 0.3
v 0.1 1.1 0.2
v 0.1 1.8 0.2
v 0.2 1.5 0.2
v 0.2 1.6 0.2
v 0.2 1.7 0.2
v 0.4 1.5 0.2
v 0.4 1.6 0.2
v 0.4 1.7 0.2
v 0.4 1.8 0.2
v 0.5 1.1 0.2
v 0.5 1.7 0.2
v 0.5 1.1 0.6
v 0.7 1.1 0.6
v 0.4 1.1 0.5
v 0.5 1.1 0.5
v 0.4 1.1 0.4
v 0.7 1.1 0.4
v 0.1 1.1 0.3
v 0.5 1.1 0.3
v 0.1 1.1 0.2
v 0.5 1.1 0.2
v 0.4 1.2 0.6
v 0.5 1.2 0.6
v 0.2 1.2 0.5
v 0.4 1.2 0.5
v 0.5 1.2 0.5
v 0.2 1.2 0.4
v 0.4 1.2 0.4
v 0.3 1.3 0.6
v 0.4 1.3 0.6
v 0.3 1.3 0.5
v 0.4 1.3 0.5
v 0.1 1.3 0.4
v 0.2 1.3 0.4
v 0.3 1.3 0.4
v 0.1 1.3 0.3
v 0.3 1.3 0.3
v 0.2 1.4 0.6
v 0.3 1.4 0.6
v 0.2 1.4 0.5
v 0.3 1.4 0.5
v -2.23517e-08 1.5 0.4
v 0.1 1.5 0.4
v 0.3 1.5 0.4
v 0.4 1.5 0.4
v -2.23517e-08 1.5 0.3
v 0.1 1.5 0.3
v 0.3 1.5 0.3
v 0.4 1.5 0.3
v 0.6 1.3 0.6
v 0.7 1.3 0.6
v 0.6 1.3 0.4
v 0.7 1.3 0.4
v 0.4 1.4 0.6
v 0.6 1.4 0.6
v 0.4 1.4 0.5
v 0.5 1.4 0.5
v 0.5 1.4 0.4
v 0.6 1.4 0.4
v 0.2 1.5 0.6
v 0.4 1.5 0.6
v 0.2 1.5 0.5
v 0.4 1.5 0.5
v 0.5 1.5 0.5
v 0.4 1.5 0.4
v 0.5 1.5 0.4
v 0.3 1.6 0.5
v 0.4 1.6 0.5
v -2.23517e-08 1.6 0.4
v 0.1 1.6 0.4
v 0.3 1.6 0.4
v 0.4 1.6 0.4
v -2.23517e-08 1.6 0.3
v 0.1 1.6 0.3
v 0.2 1.7 0.5
v 0.3 1.7 0.5
v 0.2 1.7 0.4
v 0.3 1.7 0.4
v 0.4 1.7 0.4
v 0.3 1.7 0.3
v 0.4 1.7 0.3
v 0.5 1.7 0.3
v 0.4 1.7 0.2
v 0.5 1.7 0.2
v 0.1 1.8 0.4
v 0.3 1.8 0.4
v 0.3 1.8 0.3
v 0.4 1.8 0.3
v 0.1 1.8 0.2
v 0.4 1.8 0.2

# faces
f 3/2/1 2/2/1 1/2/1
f 4/2/1 2/2/1 3/2/1
f 8/2/1 6/2/1 5/2/1
f 9/4/1 8/4/1 7/4/1
f 10/2/1 6/2/1 8/2/1
f 10/4/1 8/4/1 9/4/1
f 11/1/1 10/1/1 9/1/1
f 12/2/1 6/2/1 10/2/1
f 12/1/1 10/1/1 11/1/1
f 14/2/1 6/2/1 12/2/1
f 15/2/1 14/2/1 13/2/1
f 16/2/1 6/2/1 14/2/1
f 16/2/1 14/2/1 15/2/1
f 19/4/1 18/4/1 17/4/1
f 21/4/1 19/4/1 17/4/1
f 22/4/1 19/4/1 21/4/1
f 23/4/1 21/4/1 20/4/1
f 24/1/1 22/1/1 21/1/1
f 24/4/1 21/4/1 23/4/1
f 25/1/1 22/1/1 24/1/1
f 26/1/1 25/1/1 24/1/1
f 27/1/1 25/1/1 26/1/1
f 28/2/1 27/2/1 26/2/1
f 29/2/1 27/2/1 28/2/1
f 32/4/1 31/4/1 30/4/1
f 33/4/1 31/4/1 32/4/1
f 37/4/1 35/4/1 34/4/1
f 38/4/1 35/4/1 37/4/1
f 39/4/1 37/4/1 36/4/1
f 40/4/1 37/4/1 39/4/1
f 43/4/1 42/4/1 41/4/1
f 44/4/1 42/4/1 43/4/1
f 45/4/2 46/4/2 47/4/2
f 47/4/2 46/4/2 48/4/2
f 47/1/2 48/1/2 49/1/2
f 49/1/2 48/1/2 50/1/2
f 51/2/2 52/2/2 53/2/2
f 53/2/2 52/2/2 54/2/2
f 54/2/2 55/2/2 56/2/2
f 56/2/2 55/2/2 57/2/2
f 58/4/2 59/4/2 60/4/2
f 60/4/2 59/4/2 61/4/2
f 62/1/2 63/1/2 64/1/2
f 61/1/2 62/1/2 64/1/2
f 64/1/2 63/1/2 65/1/2
f 65/1/2 63/1/2 66/1/2
f 65/2/2 66/2/2 67/2/2
f 67/2/2 66/2/2 68/2/2
f 68/2/2 69/2/2 70/2/2
f 70/2/2 69/2/2 71/2/2
f 74/4/2 75/4/2 76/4/2
f 76/4/2 75/4/2 77/4/2
f 72/2/2 73/2/2 78/2/2
f 78/2/2 73/2/2 79/2/2
f 80/4/2 81/4/2 82/4/2
f 82/4/2 81/4/2 83/4/2
f 84/4/2 85/4/2 86/4/2
f 86/4/2 85/4/2 87/4/2
f 91/4/3 89/4/3 88/4/3
f 93/4/3 91/4/3 90/4/3
f 94/4/3 89/4/3 91/4/3
f 94/4/3 91/4/3 93/4/3
f 95/4/3 89/4/3 94/4/3
f 97/4/3 93/4/3 92/4/3
f 97/4/3 94/4/3 93/4/3
f 98/4/3 94/4/3 97/4/3
f 98/4/3 97/4/3 96/4/3
f 99/4/3 94/4/3 98/4/3
f 100/4/3 98/4/3 96/4/3
f 101/4/3 98/4/3 100/4/3
f 107/4/3 103/4/3 102/4/3
f 108/4/3 103/4/3 107/4/3
f 109/2/3 106/2/3 105/2/3
f 109/1/3 105/1/3 104/1/3
f 110/2/3 106/2/3 109/2/3
f 112/4/3 107/4/3 102/4/3
f 113/4/3 107/4/3 112/4/3
f 115/1/3 109/1/3 104/1/3
f 116/1/3 109/1/3 115/1/3
f 117/4/3 112/4/3 111/4/3
f 118/4/3 112/4/3 117/4/3
f 119/4/3 115/4/3 114/4/3
f 120/4/3 115/4/3 119/4/3
f 125/2/3 122/2/3 121/2/3
f 126/2/3 122/2/3 125/2/3
f 128/4/3 124/4/3 123/4/3
f 129/1/3 125/1/3 124/1/3
f 129/4/3 124/4/3 128/4/3
f 130/2/3 127/2/3 126/2/3
f 130/1/3 125/1/3 129/1/3
f 130/2/3 126/2/3 125/2/3
f 131/2/3 127/2/3 130/2/3
f 132/2/3 127/2/3 131/2/3
f 134/2/3 127/2/3 132/2/3
f 135/2/3 127/2/3 134/2/3
f 136/2/3 134/2/3 133/2/3
f 137/2/3 134/2/3 136/2/3
f 140/2/3 139/2/3 138/2/3
f 145/2/3 141/2/3 140/2/3
f 145/2/3 142/2/3 141/2/3
f 147/2/3 144/2/3 143/2/3
f 148/2/3 144/2/3 147/2/3
f 149/2/3 140/2/3 138/2/3
f 149/2/3 146/2/3 145/2/3
f 149/2/3 147/2/3 146/2/3
f 149/2/3 145/2/3 140/2/3
f 150/2/3 147/2/3 149/2/3
f 151/4/4 152/4/4 153/4/4
f 151/4/4 153/4/4 157/4/4
f 154/4/4 155/4/4 157/4/4
f 153/4/4 154/4/4 157/4/4
f 157/4/4 155/4/4 158/4/4
f 156/4/4 157/4/4 159/4/4
f 157/4/4 158/4/4 159/4/4
f 159/4/4 158/4/4 160/4/4
f 156/4/4 159/4/4 161/4/4
f 161/4/4 159/4/4 162/4/4
f 156/4/4 161/4/4 163/4/4
f 163/4/4 161/4/4 164/4/4
f 165/2/4 166/2/4 167/2/4
f 167/2/4 166/2/4 168/2/4
f 169/2/4 170/2/4 171/2/4
f 171/2/4 170/2/4 172/2/4
f 172/2/4 170/2/4 173/2/4
f 169/2/4 171/2/4 174/2/4
f 171/3/4 172/3/4 174/3/4
f 172/4/4 173/4/4 175/4/4
f 174/3/4 172/3/4 175/3/4
f 173/2/4 170/2/4 176/2/4
f 175/4/4 173/4/4 176/4/4
f 176/2/4 170/2/4 177/2/4
f 174/2/4 175/2/4 178/2/4
f 169/2/4 174/2/4 178/2/4
f 175/2/4 176/2/4 178/2/4
f 178/2/4 176/2/4 179/2/4
f 183/4/5 181/4/5 180/4/5
f 184/4/5 183/4/5 182/4/5
f 185/4/5 181/4/5 183/4/5
f 185/4/5 183/4/5 184/4/5
f 188/2/5 187/2/5 186/2/5
f 189/2/5 187/2/5 188/2/5
f 193/4/5 191/4/5 190/4/5
f 194/4/5 191/4/5 193/4/5
f 195/4/5 193/4/5 192/4/5
f 196/4/5 193/4/5 195/4/5
f 199/4/5 198/4/5 197/4/5
f 200/4/5 198/4/5 199/4/5
f 204/4/5 202/4/5 201/4/5
f 204/4/5 203/4/5 202/4/5
f 205/4/5 203/4/5 204/4/5
f 208/4/5 207/4/5 206/4/5
f 209/4/5 207/4/5 208/4/5
f 214/2/5 211/2/5 210/2/5
f 215/2/5 211/2/5 214/2/5
f 216/1/5 213/1/5 212/1/5
f 217/1/5 213/1/5 216/1/5
f 218/4/6 219/4/6 220/4/6
f 220/4/6 219/4/6 221/4/6
f 222/4/6 223/4/6 224/4/6
f 224/4/6 223/4/6 225/4/6
f 225/4/6 223/4/6 226/4/6
f 226/4/6 223/4/6 227/4/6
f 228/4/6 229/4/6 230/4/6
f 230/4/6 229/4/6 231/4/6
f 231/4/6 232/4/6 233/4/6
f 233/4/6 232/4/6 234/4/6
f 235/1/6 236/1/6 239/1/6
f 239/1/6 236/1/6 240/1/6
f 237/2/6 238/2/6 241/2/6
f 241/2/6 238/2/6 242/2/6
f 243/2/6 244/2/6 245/2/6
f 245/2/6 244/2/6 246/2/6
f 246/2/6 247/2/6 248/2/6
f 248/2/6 247/2/6 249/2/6
f 249/2/6 250/2/6 251/2/6
f 251/2/6 250/2/6 252/2/6
f 253/2/6 254/2/6 255/2/6
f 253/2/6 255/2/6 257/2/6
f 255/2/6 256/2/6 257/2/6
f 257/2/6 256/2/6 258/2/6
