# MagicaVoxel @ Ephtracy

# group
o 

# material
mtllib get-color.mtl
usemtl palette

# normals
vn -1 0 0
vn 1 0 0
vn 0 0 1
vn 0 0 -1
vn 0 -1 0
vn 0 1 0

# texcoords
vt 0.314453 0.5
vt 0.455078 0.5
vt 0.689453 0.5

# verts
v 0.1 1.6 0.4
v 0.1 1.6 0.3
v 0.1 1.7 0.4
v 0.1 1.7 0.3
v 0.1 1.7 0.2
v 0.1 1.8 0.3
v 0.1 1.8 0.2
v 0.2 1.3 0.5
v 0.2 1.3 0.4
v 0.2 1.4 0.6
v 0.2 1.4 0.5
v 0.2 1.4 0.4
v 0.2 1.4 0.3
v 0.2 1.5 0.6
v 0.2 1.5 0.5
v 0.2 1.5 0.4
v 0.2 1.5 0.3
v 0.2 1.6 0.5
v 0.2 1.6 0.4
v 0.2 1.6 0.3
v 0.2 1.7 0.5
v 0.2 1.7 0.4
v 0.3 1.3 0.6
v 0.3 1.3 0.5
v 0.3 1.4 0.6
v 0.3 1.4 0.5
v 0.3 1.5 0.6
v 0.3 1.5 0.5
v 0.3 1.6 0.6
v 0.3 1.6 0.5
v 0.4 1.2 0.5
v 0.4 1.2 0.4
v 0.4 1.3 0.5
v 0.4 1.3 0.4
v 0.5 1.1 0.5
v 0.5 1.1 0.4
v 0.5 1.2 0.6
v 0.5 1.2 0.5
v 0.5 1.2 0.4
v 0.5 1.3 0.6
v 0.5 1.3 0.5
v 0.6 1.1 0.6
v 0.6 1.1 0.5
v 0.6 1.2 0.6
v 0.6 1.2 0.5
v 0.2 1.7 0.3
v 0.2 1.7 0.2
v 0.2 1.8 0.3
v 0.2 1.8 0.2
v 0.4 1.4 0.4
v 0.4 1.4 0.3
v 0.4 1.5 0.6
v 0.4 1.5 0.4
v 0.4 1.5 0.3
v 0.4 1.6 0.6
v 0.4 1.6 0.5
v 0.4 1.6 0.4
v 0.4 1.7 0.5
v 0.4 1.7 0.3
v 0.5 1.4 0.6
v 0.5 1.4 0.4
v 0.5 1.5 0.6
v 0.5 1.5 0.4
v 0.7 1.3 0.6
v 0.7 1.3 0.4
v 0.7 1.4 0.6
v 0.7 1.4 0.4
v 0.8 1.1 0.6
v 0.8 1.1 0.4
v 0.8 1.3 0.6
v 0.8 1.3 0.4
v 0.2 1.4 0.6
v 0.2 1.5 0.6
v 0.3 1.3 0.6
v 0.3 1.4 0.6
v 0.3 1.5 0.6
v 0.3 1.6 0.6
v 0.4 1.5 0.6
v 0.4 1.6 0.6
v 0.5 1.2 0.6
v 0.5 1.3 0.6
v 0.5 1.4 0.6
v 0.5 1.5 0.6
v 0.6 1.1 0.6
v 0.6 1.2 0.6
v 0.7 1.3 0.6
v 0.7 1.4 0.6
v 0.8 1.1 0.6
v 0.8 1.3 0.6
v 0.2 1.3 0.5
v 0.2 1.4 0.5
v 0.2 1.5 0.5
v 0.2 1.6 0.5
v 0.2 1.7 0.5
v 0.3 1.3 0.5
v 0.3 1.4 0.5
v 0.3 1.5 0.5
v 0.3 1.6 0.5
v 0.4 1.2 0.5
v 0.4 1.3 0.5
v 0.4 1.6 0.5
v 0.4 1.7 0.5
v 0.5 1.1 0.5
v 0.5 1.2 0.5
v 0.5 1.3 0.5
v 0.6 1.1 0.5
v 0.6 1.2 0.5
v 0.1 1.6 0.4
v 0.1 1.7 0.4
v 0.2 1.6 0.4
v 0.2 1.7 0.4
v 0.1 1.7 0.3
v 0.1 1.8 0.3
v 0.2 1.7 0.3
v 0.2 1.8 0.3
v 0.2 1.3 0.4
v 0.2 1.4 0.4
v 0.4 1.2 0.4
v 0.4 1.3 0.4
v 0.4 1.4 0.4
v 0.4 1.5 0.4
v 0.5 1.1 0.4
v 0.5 1.2 0.4
v 0.5 1.4 0.4
v 0.5 1.5 0.4
v 0.7 1.3 0.4
v 0.7 1.4 0.4
v 0.8 1.1 0.4
v 0.8 1.3 0.4
v 0.1 1.6 0.3
v 0.1 1.7 0.3
v 0.2 1.4 0.3
v 0.2 1.5 0.3
v 0.2 1.6 0.3
v 0.2 1.7 0.3
v 0.4 1.4 0.3
v 0.4 1.5 0.3
v 0.4 1.7 0.3
v 0.1 1.7 0.2
v 0.1 1.8 0.2
v 0.2 1.7 0.2
v 0.2 1.8 0.2
v 0.6 1.1 0.6
v 0.8 1.1 0.6
v 0.5 1.1 0.5
v 0.6 1.1 0.5
v 0.5 1.1 0.4
v 0.8 1.1 0.4
v 0.5 1.2 0.6
v 0.6 1.2 0.6
v 0.4 1.2 0.5
v 0.5 1.2 0.5
v 0.6 1.2 0.5
v 0.4 1.2 0.4
v 0.5 1.2 0.4
v 0.3 1.3 0.6
v 0.5 1.3 0.6
v 0.2 1.3 0.5
v 0.3 1.3 0.5
v 0.4 1.3 0.5
v 0.5 1.3 0.5
v 0.2 1.3 0.4
v 0.4 1.3 0.4
v 0.2 1.4 0.6
v 0.3 1.4 0.6
v 0.2 1.4 0.5
v 0.3 1.4 0.5
v 0.2 1.4 0.4
v 0.4 1.4 0.4
v 0.2 1.4 0.3
v 0.4 1.4 0.3
v 0.1 1.6 0.4
v 0.2 1.6 0.4
v 0.1 1.6 0.3
v 0.2 1.6 0.3
v 0.1 1.7 0.3
v 0.2 1.7 0.3
v 0.1 1.7 0.2
v 0.2 1.7 0.2
v 0.7 1.3 0.6
v 0.8 1.3 0.6
v 0.7 1.3 0.4
v 0.8 1.3 0.4
v 0.5 1.4 0.6
v 0.7 1.4 0.6
v 0.5 1.4 0.4
v 0.7 1.4 0.4
v 0.2 1.5 0.6
v 0.3 1.5 0.6
v 0.4 1.5 0.6
v 0.5 1.5 0.6
v 0.2 1.5 0.5
v 0.3 1.5 0.5
v 0.4 1.5 0.4
v 0.5 1.5 0.4
v 0.3 1.6 0.6
v 0.4 1.6 0.6
v 0.3 1.6 0.5
v 0.4 1.6 0.5
v 0.2 1.7 0.5
v 0.4 1.7 0.5
v 0.1 1.7 0.4
v 0.2 1.7 0.4
v 0.1 1.7 0.3
v 0.2 1.7 0.3
v 0.4 1.7 0.3
v 0.1 1.8 0.3
v 0.2 1.8 0.3
v 0.1 1.8 0.2
v 0.2 1.8 0.2

# faces
f 3/2/1 2/2/1 1/2/1
f 4/2/1 2/2/1 3/2/1
f 6/2/1 5/2/1 4/2/1
f 7/2/1 5/2/1 6/2/1
f 11/3/1 9/3/1 8/3/1
f 12/3/1 9/3/1 11/3/1
f 14/3/1 11/3/1 10/3/1
f 15/1/1 13/1/1 12/1/1
f 15/3/1 11/3/1 14/3/1
f 15/1/1 12/1/1 11/1/1
f 16/1/1 13/1/1 15/1/1
f 17/1/1 13/1/1 16/1/1
f 18/1/1 16/1/1 15/1/1
f 19/2/1 17/2/1 16/2/1
f 19/1/1 16/1/1 18/1/1
f 20/2/1 17/2/1 19/2/1
f 21/2/1 19/2/1 18/2/1
f 22/2/1 19/2/1 21/2/1
f 25/3/1 24/3/1 23/3/1
f 26/3/1 24/3/1 25/3/1
f 29/1/1 28/1/1 27/1/1
f 30/1/1 28/1/1 29/1/1
f 33/3/1 32/3/1 31/3/1
f 34/3/1 32/3/1 33/3/1
f 38/3/1 36/3/1 35/3/1
f 39/3/1 36/3/1 38/3/1
f 40/3/1 38/3/1 37/3/1
f 41/3/1 38/3/1 40/3/1
f 44/3/1 43/3/1 42/3/1
f 45/3/1 43/3/1 44/3/1
f 46/2/2 47/2/2 48/2/2
f 48/2/2 47/2/2 49/2/2
f 50/1/2 51/1/2 53/1/2
f 53/1/2 51/1/2 54/1/2
f 52/1/2 53/1/2 55/1/2
f 55/1/2 53/1/2 56/1/2
f 53/2/2 54/2/2 57/2/2
f 56/1/2 53/1/2 57/1/2
f 56/2/2 57/2/2 58/2/2
f 57/2/2 54/2/2 59/2/2
f 58/2/2 57/2/2 59/2/2
f 60/3/2 61/3/2 62/3/2
f 62/3/2 61/3/2 63/3/2
f 64/3/2 65/3/2 66/3/2
f 66/3/2 65/3/2 67/3/2
f 68/3/2 69/3/2 70/3/2
f 70/3/2 69/3/2 71/3/2
f 75/3/3 73/3/3 72/3/3
f 76/3/3 73/3/3 75/3/3
f 78/3/3 75/3/3 74/3/3
f 78/1/3 77/1/3 76/1/3
f 78/3/3 76/3/3 75/3/3
f 79/1/3 77/1/3 78/1/3
f 81/3/3 78/3/3 74/3/3
f 82/3/3 78/3/3 81/3/3
f 83/3/3 78/3/3 82/3/3
f 85/3/3 81/3/3 80/3/3
f 85/3/3 82/3/3 81/3/3
f 86/3/3 82/3/3 85/3/3
f 86/3/3 85/3/3 84/3/3
f 87/3/3 82/3/3 86/3/3
f 88/3/3 86/3/3 84/3/3
f 89/3/3 86/3/3 88/3/3
f 95/3/3 91/3/3 90/3/3
f 96/3/3 91/3/3 95/3/3
f 97/1/3 93/1/3 92/1/3
f 98/2/3 94/2/3 93/2/3
f 98/1/3 93/1/3 97/1/3
f 101/2/3 94/2/3 98/2/3
f 102/2/3 94/2/3 101/2/3
f 104/3/3 100/3/3 99/3/3
f 105/3/3 100/3/3 104/3/3
f 106/3/3 104/3/3 103/3/3
f 107/3/3 104/3/3 106/3/3
f 110/2/3 109/2/3 108/2/3
f 111/2/3 109/2/3 110/2/3
f 114/2/3 113/2/3 112/2/3
f 115/2/3 113/2/3 114/2/3
f 116/3/4 117/3/4 119/3/4
f 119/3/4 117/3/4 120/3/4
f 118/3/4 119/3/4 123/3/4
f 120/3/4 121/3/4 123/3/4
f 119/3/4 120/3/4 123/3/4
f 123/3/4 121/3/4 124/3/4
f 124/3/4 121/3/4 125/3/4
f 122/3/4 123/3/4 126/3/4
f 123/3/4 124/3/4 126/3/4
f 126/3/4 124/3/4 127/3/4
f 122/3/4 126/3/4 128/3/4
f 128/3/4 126/3/4 129/3/4
f 130/2/4 131/2/4 134/2/4
f 134/2/4 131/2/4 135/2/4
f 132/1/4 133/1/4 136/1/4
f 133/2/4 134/2/4 137/2/4
f 136/1/4 133/1/4 137/1/4
f 134/2/4 135/2/4 137/2/4
f 137/2/4 135/2/4 138/2/4
f 139/2/4 140/2/4 141/2/4
f 141/2/4 140/2/4 142/2/4
f 146/3/5 144/3/5 143/3/5
f 147/3/5 146/3/5 145/3/5
f 148/3/5 144/3/5 146/3/5
f 148/3/5 146/3/5 147/3/5
f 152/3/5 150/3/5 149/3/5
f 153/3/5 150/3/5 152/3/5
f 154/3/5 152/3/5 151/3/5
f 155/3/5 152/3/5 154/3/5
f 159/3/5 157/3/5 156/3/5
f 160/3/5 157/3/5 159/3/5
f 161/3/5 157/3/5 160/3/5
f 162/3/5 159/3/5 158/3/5
f 162/3/5 160/3/5 159/3/5
f 163/3/5 160/3/5 162/3/5
f 166/3/5 165/3/5 164/3/5
f 167/3/5 165/3/5 166/3/5
f 170/1/5 169/1/5 168/1/5
f 171/1/5 169/1/5 170/1/5
f 174/2/5 173/2/5 172/2/5
f 175/2/5 173/2/5 174/2/5
f 178/2/5 177/2/5 176/2/5
f 179/2/5 177/2/5 178/2/5
f 180/3/6 181/3/6 182/3/6
f 182/3/6 181/3/6 183/3/6
f 184/3/6 185/3/6 186/3/6
f 186/3/6 185/3/6 187/3/6
f 188/3/6 189/3/6 192/3/6
f 192/3/6 189/3/6 193/3/6
f 190/3/6 191/3/6 194/3/6
f 194/3/6 191/3/6 195/3/6
f 196/1/6 197/1/6 198/1/6
f 198/1/6 197/1/6 199/1/6
f 200/2/6 201/2/6 203/2/6
f 202/2/6 203/2/6 204/2/6
f 203/2/6 201/2/6 205/2/6
f 204/2/6 203/2/6 205/2/6
f 205/2/6 201/2/6 206/2/6
f 207/2/6 208/2/6 209/2/6
f 209/2/6 208/2/6 210/2/6
