# MagicaVoxel @ Ephtracy

# group
o 

# material
mtllib get-color.mtl
usemtl palette

# normals
vn -1 0 0
vn 1 0 0
vn 0 0 1
vn 0 0 -1
vn 0 -1 0
vn 0 1 0

# texcoords
vt 0.314453 0.5
vt 0.455078 0.5
vt 0.681641 0.5
vt 0.689453 0.5

# verts
v 0.1 1.1 0.3
v 0.1 1.1 0.2
v 0.1 1.5 0.4
v 0.1 1.5 0.3
v 0.1 1.7 0.4
v 0.1 1.7 0.3
v 0.1 1.8 0.3
v 0.1 1.8 0.2
v 0.2 1.3 0.5
v 0.2 1.3 0.3
v 0.2 1.4 0.5
v 0.2 1.4 0.3
v 0.2 1.5 0.4
v 0.2 1.5 0.3
v 0.2 1.6 0.5
v 0.2 1.6 0.4
v 0.2 1.7 0.5
v 0.2 1.7 0.4
v 0.2 1.7 0.3
v 0.2 1.8 0.4
v 0.2 1.8 0.3
v 0.3 1.2 0.5
v 0.3 1.2 0.4
v 0.3 1.3 0.6
v 0.3 1.3 0.5
v 0.3 1.3 0.4
v 0.3 1.4 0.5
v 0.3 1.5 0.6
v 0.3 1.5 0.5
v 0.3 1.6 0.6
v 0.3 1.6 0.5
v 0.4 1.2 0.6
v 0.4 1.2 0.5
v 0.4 1.3 0.6
v 0.4 1.3 0.5
v 0.5 1.1 0.5
v 0.5 1.1 0.4
v 0.5 1.2 0.5
v 0.5 1.2 0.4
v 0.6 1.1 0.6
v 0.6 1.1 0.5
v 0.6 1.2 0.6
v 0.6 1.2 0.5
v 0.3 1.3 0.4
v 0.3 1.3 0.3
v 0.3 1.4 0.4
v 0.3 1.4 0.3
v 0.3 1.6 0.5
v 0.3 1.6 0.4
v 0.3 1.7 0.5
v 0.3 1.7 0.4
v 0.3 1.7 0.3
v 0.3 1.8 0.4
v 0.3 1.8 0.3
v 0.4 1.4 0.4
v 0.4 1.4 0.3
v 0.4 1.5 0.6
v 0.4 1.5 0.4
v 0.4 1.6 0.6
v 0.4 1.6 0.4
v 0.4 1.6 0.3
v 0.4 1.7 0.4
v 0.4 1.7 0.3
v 0.4 1.7 0.2
v 0.4 1.8 0.3
v 0.4 1.8 0.2
v 0.5 1.1 0.3
v 0.5 1.1 0.2
v 0.5 1.4 0.6
v 0.5 1.4 0.4
v 0.5 1.5 0.6
v 0.5 1.5 0.4
v 0.5 1.7 0.3
v 0.5 1.7 0.2
v 0.6 1.3 0.6
v 0.6 1.3 0.5
v 0.6 1.4 0.6
v 0.6 1.4 0.5
v 0.7 1.3 0.5
v 0.7 1.3 0.4
v 0.7 1.4 0.5
v 0.7 1.4 0.4
v 0.8 1.1 0.6
v 0.8 1.1 0.4
v 0.8 1.3 0.6
v 0.8 1.3 0.4
v 0.3 1.3 0.6
v 0.3 1.5 0.6
v 0.3 1.6 0.6
v 0.4 1.2 0.6
v 0.4 1.3 0.6
v 0.4 1.5 0.6
v 0.4 1.6 0.6
v 0.5 1.4 0.6
v 0.5 1.5 0.6
v 0.6 1.1 0.6
v 0.6 1.2 0.6
v 0.6 1.3 0.6
v 0.6 1.4 0.6
v 0.8 1.1 0.6
v 0.8 1.3 0.6
v 0.2 1.3 0.5
v 0.2 1.4 0.5
v 0.2 1.6 0.5
v 0.2 1.7 0.5
v 0.3 1.2 0.5
v 0.3 1.3 0.5
v 0.3 1.4 0.5
v 0.3 1.5 0.5
v 0.3 1.6 0.5
v 0.3 1.7 0.5
v 0.4 1.2 0.5
v 0.4 1.3 0.5
v 0.5 1.1 0.5
v 0.5 1.2 0.5
v 0.6 1.1 0.5
v 0.6 1.2 0.5
v 0.6 1.3 0.5
v 0.6 1.4 0.5
v 0.7 1.3 0.5
v 0.7 1.4 0.5
v 0.1 1.5 0.4
v 0.1 1.7 0.4
v 0.2 1.5 0.4
v 0.2 1.6 0.4
v 0.2 1.7 0.4
v 0.2 1.8 0.4
v 0.3 1.6 0.4
v 0.3 1.7 0.4
v 0.3 1.8 0.4
v 0.4 1.6 0.4
v 0.4 1.7 0.4
v 0.1 1.1 0.3
v 0.1 1.5 0.3
v 0.1 1.7 0.3
v 0.1 1.8 0.3
v 0.2 1.3 0.3
v 0.2 1.4 0.3
v 0.2 1.5 0.3
v 0.2 1.7 0.3
v 0.2 1.8 0.3
v 0.3 1.3 0.3
v 0.3 1.4 0.3
v 0.3 1.7 0.3
v 0.3 1.8 0.3
v 0.4 1.4 0.3
v 0.4 1.6 0.3
v 0.4 1.7 0.3
v 0.4 1.8 0.3
v 0.5 1.1 0.3
v 0.5 1.7 0.3
v 0.3 1.2 0.4
v 0.3 1.3 0.4
v 0.3 1.4 0.4
v 0.4 1.4 0.4
v 0.4 1.5 0.4
v 0.5 1.1 0.4
v 0.5 1.2 0.4
v 0.5 1.4 0.4
v 0.5 1.5 0.4
v 0.7 1.3 0.4
v 0.7 1.4 0.4
v 0.8 1.1 0.4
v 0.8 1.3 0.4
v 0.1 1.1 0.2
v 0.1 1.8 0.2
v 0.2 1.5 0.2
v 0.2 1.6 0.2
v 0.2 1.7 0.2
v 0.4 1.5 0.2
v 0.4 1.6 0.2
v 0.4 1.7 0.2
v 0.4 1.8 0.2
v 0.5 1.1 0.2
v 0.5 1.7 0.2
v 0.6 1.1 0.6
v 0.8 1.1 0.6
v 0.5 1.1 0.5
v 0.6 1.1 0.5
v 0.5 1.1 0.4
v 0.8 1.1 0.4
v 0.1 1.1 0.3
v 0.5 1.1 0.3
v 0.1 1.1 0.2
v 0.5 1.1 0.2
v 0.4 1.2 0.6
v 0.6 1.2 0.6
v 0.3 1.2 0.5
v 0.4 1.2 0.5
v 0.5 1.2 0.5
v 0.6 1.2 0.5
v 0.3 1.2 0.4
v 0.5 1.2 0.4
v 0.3 1.3 0.6
v 0.4 1.3 0.6
v 0.2 1.3 0.5
v 0.3 1.3 0.5
v 0.4 1.3 0.5
v 0.3 1.3 0.4
v 0.2 1.3 0.3
v 0.3 1.3 0.3
v 0.3 1.4 0.4
v 0.4 1.4 0.4
v 0.3 1.4 0.3
v 0.4 1.4 0.3
v 0.1 1.5 0.4
v 0.2 1.5 0.4
v 0.1 1.5 0.3
v 0.2 1.5 0.3
v 0.6 1.3 0.6
v 0.8 1.3 0.6
v 0.6 1.3 0.5
v 0.7 1.3 0.5
v 0.7 1.3 0.4
v 0.8 1.3 0.4
v 0.5 1.4 0.6
v 0.6 1.4 0.6
v 0.6 1.4 0.5
v 0.7 1.4 0.5
v 0.5 1.4 0.4
v 0.7 1.4 0.4
v 0.4 1.5 0.6
v 0.5 1.5 0.6
v 0.4 1.5 0.4
v 0.5 1.5 0.4
v 0.3 1.6 0.6
v 0.4 1.6 0.6
v 0.3 1.6 0.5
v 0.3 1.6 0.4
v 0.4 1.6 0.4
v 0.2 1.7 0.5
v 0.3 1.7 0.5
v 0.1 1.7 0.4
v 0.2 1.7 0.4
v 0.3 1.7 0.4
v 0.4 1.7 0.4
v 0.1 1.7 0.3
v 0.2 1.7 0.3
v 0.3 1.7 0.3
v 0.4 1.7 0.3
v 0.5 1.7 0.3
v 0.4 1.7 0.2
v 0.5 1.7 0.2
v 0.2 1.8 0.4
v 0.3 1.8 0.4
v 0.1 1.8 0.3
v 0.2 1.8 0.3
v 0.3 1.8 0.3
v 0.4 1.8 0.3
v 0.1 1.8 0.2
v 0.4 1.8 0.2

# faces
f 4/2/1 2/2/1 1/2/1
f 5/2/1 4/2/1 3/2/1
f 6/2/1 2/2/1 4/2/1
f 6/2/1 4/2/1 5/2/1
f 7/2/1 2/2/1 6/2/1
f 8/2/1 2/2/1 7/2/1
f 11/4/1 10/4/1 9/4/1
f 12/4/1 10/4/1 11/4/1
f 13/1/1 12/1/1 11/1/1
f 14/1/1 12/1/1 13/1/1
f 15/1/1 13/1/1 11/1/1
f 16/1/1 13/1/1 15/1/1
f 17/2/1 16/2/1 15/2/1
f 18/2/1 16/2/1 17/2/1
f 20/2/1 19/2/1 18/2/1
f 21/2/1 19/2/1 20/2/1
f 25/4/1 23/4/1 22/4/1
f 26/4/1 23/4/1 25/4/1
f 27/4/1 25/4/1 24/4/1
f 28/4/1 27/4/1 24/4/1
f 29/4/1 27/4/1 28/4/1
f 30/1/1 29/1/1 28/1/1
f 31/1/1 29/1/1 30/1/1
f 34/4/1 33/4/1 32/4/1
f 35/4/1 33/4/1 34/4/1
f 38/4/1 37/4/1 36/4/1
f 39/4/1 37/4/1 38/4/1
f 42/4/1 41/4/1 40/4/1
f 43/4/1 41/4/1 42/4/1
f 44/4/2 45/4/2 46/4/2
f 46/4/2 45/4/2 47/4/2
f 48/2/2 49/2/2 50/2/2
f 50/2/2 49/2/2 51/2/2
f 51/2/2 52/2/2 53/2/2
f 53/2/2 52/2/2 54/2/2
f 55/1/2 56/1/2 58/1/2
f 57/1/2 58/1/2 59/1/2
f 58/1/2 56/1/2 60/1/2
f 59/1/2 58/1/2 60/1/2
f 60/1/2 56/1/2 61/1/2
f 60/2/2 61/2/2 62/2/2
f 62/2/2 61/2/2 63/2/2
f 63/2/2 64/2/2 65/2/2
f 65/2/2 64/2/2 66/2/2
f 69/4/2 70/4/2 71/4/2
f 71/4/2 70/4/2 72/4/2
f 67/2/2 68/2/2 73/2/2
f 73/2/2 68/2/2 74/2/2
f 75/4/2 76/4/2 77/4/2
f 77/4/2 76/4/2 78/4/2
f 79/4/2 80/4/2 81/4/2
f 81/4/2 80/4/2 82/4/2
f 83/4/2 84/4/2 85/4/2
f 85/4/2 84/4/2 86/4/2
f 91/4/3 88/4/3 87/4/3
f 92/1/3 89/1/3 88/1/3
f 92/4/3 88/4/3 91/4/3
f 93/1/3 89/1/3 92/1/3
f 94/4/3 91/4/3 90/4/3
f 94/4/3 92/4/3 91/4/3
f 95/4/3 92/4/3 94/4/3
f 97/4/3 94/4/3 90/4/3
f 98/4/3 94/4/3 97/4/3
f 99/4/3 94/4/3 98/4/3
f 100/4/3 97/4/3 96/4/3
f 100/4/3 98/4/3 97/4/3
f 101/4/3 98/4/3 100/4/3
f 107/4/3 103/4/3 102/4/3
f 108/1/3 104/1/3 103/1/3
f 108/4/3 103/4/3 107/4/3
f 109/1/3 104/1/3 108/1/3
f 110/2/3 105/2/3 104/2/3
f 110/1/3 104/1/3 109/1/3
f 111/2/3 105/2/3 110/2/3
f 112/4/3 107/4/3 106/4/3
f 113/4/3 107/4/3 112/4/3
f 116/4/3 115/4/3 114/4/3
f 117/4/3 115/4/3 116/4/3
f 120/4/3 119/4/3 118/4/3
f 121/4/3 119/4/3 120/4/3
f 124/2/3 123/2/3 122/2/3
f 125/2/3 123/2/3 124/2/3
f 126/2/3 123/2/3 125/2/3
f 129/2/3 127/2/3 126/2/3
f 130/2/3 127/2/3 129/2/3
f 131/2/3 129/2/3 128/2/3
f 132/2/3 129/2/3 131/2/3
f 137/2/3 134/2/3 133/2/3
f 138/2/3 134/2/3 137/2/3
f 139/2/3 134/2/3 138/2/3
f 140/2/3 136/2/3 135/2/3
f 141/2/3 136/2/3 140/2/3
f 142/2/3 137/2/3 133/2/3
f 146/2/3 143/2/3 142/2/3
f 148/2/3 145/2/3 144/2/3
f 149/2/3 145/2/3 148/2/3
f 150/2/3 142/2/3 133/2/3
f 150/2/3 147/2/3 146/2/3
f 150/2/3 148/2/3 147/2/3
f 150/2/3 146/2/3 142/2/3
f 151/2/3 148/2/3 150/2/3
f 152/4/4 153/4/4 155/4/4
f 153/4/4 154/4/4 155/4/4
f 152/4/4 155/4/4 158/4/4
f 155/4/4 156/4/4 158/4/4
f 158/4/4 156/4/4 159/4/4
f 159/4/4 156/4/4 160/4/4
f 157/4/4 158/4/4 161/4/4
f 158/4/4 159/4/4 161/4/4
f 161/4/4 159/4/4 162/4/4
f 157/4/4 161/4/4 163/4/4
f 163/4/4 161/4/4 164/4/4
f 165/2/4 166/2/4 167/2/4
f 167/2/4 166/2/4 168/2/4
f 168/2/4 166/2/4 169/2/4
f 165/2/4 167/2/4 170/2/4
f 167/3/4 168/3/4 170/3/4
f 168/4/4 169/4/4 171/4/4
f 170/3/4 168/3/4 171/3/4
f 169/2/4 166/2/4 172/2/4
f 171/4/4 169/4/4 172/4/4
f 172/2/4 166/2/4 173/2/4
f 170/2/4 171/2/4 174/2/4
f 165/2/4 170/2/4 174/2/4
f 171/2/4 172/2/4 174/2/4
f 174/2/4 172/2/4 175/2/4
f 179/4/5 177/4/5 176/4/5
f 180/4/5 179/4/5 178/4/5
f 181/4/5 177/4/5 179/4/5
f 181/4/5 179/4/5 180/4/5
f 184/2/5 183/2/5 182/2/5
f 185/2/5 183/2/5 184/2/5
f 189/4/5 187/4/5 186/4/5
f 190/4/5 187/4/5 189/4/5
f 191/4/5 187/4/5 190/4/5
f 192/4/5 189/4/5 188/4/5
f 192/4/5 190/4/5 189/4/5
f 193/4/5 190/4/5 192/4/5
f 197/4/5 195/4/5 194/4/5
f 198/4/5 195/4/5 197/4/5
f 199/4/5 197/4/5 196/4/5
f 200/4/5 199/4/5 196/4/5
f 201/4/5 199/4/5 200/4/5
f 204/1/5 203/1/5 202/1/5
f 205/1/5 203/1/5 204/1/5
f 208/2/5 207/2/5 206/2/5
f 209/2/5 207/2/5 208/2/5
f 210/4/6 211/4/6 212/4/6
f 212/4/6 211/4/6 213/4/6
f 213/4/6 211/4/6 214/4/6
f 214/4/6 211/4/6 215/4/6
f 216/4/6 217/4/6 218/4/6
f 216/4/6 218/4/6 220/4/6
f 218/4/6 219/4/6 220/4/6
f 220/4/6 219/4/6 221/4/6
f 222/4/6 223/4/6 224/4/6
f 224/4/6 223/4/6 225/4/6
f 226/1/6 227/1/6 228/1/6
f 228/1/6 227/1/6 229/1/6
f 229/1/6 227/1/6 230/1/6
f 231/2/6 232/2/6 234/2/6
f 234/2/6 232/2/6 235/2/6
f 233/2/6 234/2/6 237/2/6
f 237/2/6 234/2/6 238/2/6
f 235/2/6 236/2/6 239/2/6
f 239/2/6 236/2/6 240/2/6
f 240/2/6 241/2/6 242/2/6
f 242/2/6 241/2/6 243/2/6
f 244/2/6 245/2/6 247/2/6
f 247/2/6 245/2/6 248/2/6
f 246/2/6 247/2/6 250/2/6
f 248/2/6 249/2/6 250/2/6
f 247/2/6 248/2/6 250/2/6
f 250/2/6 249/2/6 251/2/6
