# MagicaVoxel @ Ephtracy

# group
o 

# material
mtllib get-color.mtl
usemtl palette

# normals
vn -1 0 0
vn 1 0 0
vn 0 0 1
vn 0 0 -1
vn 0 -1 0
vn 0 1 0

# texcoords
vt 0.314453 0.5
vt 0.455078 0.5
vt 0.689453 0.5

# verts
v 0.2 1.3 0.5
v 0.2 1.3 0.4
v 0.2 1.4 0.5
v 0.2 1.4 0.4
v 0.2 1.4 0.3
v 0.2 1.5 0.5
v 0.2 1.5 0.3
v 0.2 1.7 0.5
v 0.2 1.7 0.3
v 0.3 1.3 0.6
v 0.3 1.3 0.5
v 0.3 1.4 0.5
v 0.3 1.5 0.6
v 0.3 1.5 0.5
v 0.3 1.6 0.6
v 0.3 1.6 0.5
v 0.5 1.2 0.6
v 0.5 1.2 0.4
v 0.5 1.3 0.6
v 0.5 1.3 0.4
v 0.6 1.1 0.6
v 0.6 1.1 0.4
v 0.6 1.2 0.6
v 0.6 1.2 0.4
v 0.4 1.4 0.4
v 0.4 1.4 0.3
v 0.4 1.5 0.6
v 0.4 1.5 0.4
v 0.4 1.5 0.3
v 0.4 1.6 0.6
v 0.4 1.6 0.5
v 0.4 1.6 0.4
v 0.4 1.7 0.5
v 0.4 1.7 0.3
v 0.5 1.4 0.6
v 0.5 1.4 0.4
v 0.5 1.5 0.6
v 0.5 1.5 0.4
v 0.7 1.3 0.6
v 0.7 1.3 0.4
v 0.7 1.4 0.6
v 0.7 1.4 0.4
v 0.8 1.1 0.6
v 0.8 1.1 0.4
v 0.8 1.3 0.6
v 0.8 1.3 0.4
v 0.3 1.3 0.6
v 0.3 1.5 0.6
v 0.3 1.6 0.6
v 0.4 1.5 0.6
v 0.4 1.6 0.6
v 0.5 1.2 0.6
v 0.5 1.3 0.6
v 0.5 1.4 0.6
v 0.5 1.5 0.6
v 0.6 1.1 0.6
v 0.6 1.2 0.6
v 0.7 1.3 0.6
v 0.7 1.4 0.6
v 0.8 1.1 0.6
v 0.8 1.3 0.6
v 0.2 1.3 0.5
v 0.2 1.4 0.5
v 0.2 1.5 0.5
v 0.2 1.7 0.5
v 0.3 1.3 0.5
v 0.3 1.4 0.5
v 0.3 1.5 0.5
v 0.3 1.6 0.5
v 0.4 1.6 0.5
v 0.4 1.7 0.5
v 0.2 1.3 0.4
v 0.2 1.4 0.4
v 0.4 1.4 0.4
v 0.4 1.5 0.4
v 0.5 1.2 0.4
v 0.5 1.3 0.4
v 0.5 1.4 0.4
v 0.5 1.5 0.4
v 0.6 1.1 0.4
v 0.6 1.2 0.4
v 0.7 1.3 0.4
v 0.7 1.4 0.4
v 0.8 1.1 0.4
v 0.8 1.3 0.4
v 0.2 1.4 0.3
v 0.2 1.5 0.3
v 0.2 1.7 0.3
v 0.4 1.4 0.3
v 0.4 1.5 0.3
v 0.4 1.7 0.3
v 0.6 1.1 0.6
v 0.8 1.1 0.6
v 0.6 1.1 0.4
v 0.8 1.1 0.4
v 0.5 1.2 0.6
v 0.6 1.2 0.6
v 0.5 1.2 0.4
v 0.6 1.2 0.4
v 0.3 1.3 0.6
v 0.5 1.3 0.6
v 0.2 1.3 0.5
v 0.3 1.3 0.5
v 0.2 1.3 0.4
v 0.5 1.3 0.4
v 0.2 1.4 0.4
v 0.4 1.4 0.4
v 0.2 1.4 0.3
v 0.4 1.4 0.3
v 0.7 1.3 0.6
v 0.8 1.3 0.6
v 0.7 1.3 0.4
v 0.8 1.3 0.4
v 0.5 1.4 0.6
v 0.7 1.4 0.6
v 0.5 1.4 0.4
v 0.7 1.4 0.4
v 0.4 1.5 0.6
v 0.5 1.5 0.6
v 0.4 1.5 0.4
v 0.5 1.5 0.4
v 0.3 1.6 0.6
v 0.4 1.6 0.6
v 0.3 1.6 0.5
v 0.4 1.6 0.5
v 0.2 1.7 0.5
v 0.4 1.7 0.5
v 0.2 1.7 0.3
v 0.4 1.7 0.3

# faces
f 3/3/1 2/3/1 1/3/1
f 4/3/1 2/3/1 3/3/1
f 6/1/1 4/1/1 3/1/1
f 6/1/1 5/1/1 4/1/1
f 7/1/1 5/1/1 6/1/1
f 8/2/1 7/2/1 6/2/1
f 9/2/1 7/2/1 8/2/1
f 12/3/1 11/3/1 10/3/1
f 13/3/1 12/3/1 10/3/1
f 14/3/1 12/3/1 13/3/1
f 15/1/1 14/1/1 13/1/1
f 16/1/1 14/1/1 15/1/1
f 19/3/1 18/3/1 17/3/1
f 20/3/1 18/3/1 19/3/1
f 23/3/1 22/3/1 21/3/1
f 24/3/1 22/3/1 23/3/1
f 25/1/2 26/1/2 28/1/2
f 28/1/2 26/1/2 29/1/2
f 27/1/2 28/1/2 30/1/2
f 30/1/2 28/1/2 31/1/2
f 28/2/2 29/2/2 32/2/2
f 31/1/2 28/1/2 32/1/2
f 31/2/2 32/2/2 33/2/2
f 32/2/2 29/2/2 34/2/2
f 33/2/2 32/2/2 34/2/2
f 35/3/2 36/3/2 37/3/2
f 37/3/2 36/3/2 38/3/2
f 39/3/2 40/3/2 41/3/2
f 41/3/2 40/3/2 42/3/2
f 43/3/2 44/3/2 45/3/2
f 45/3/2 44/3/2 46/3/2
f 50/3/3 48/3/3 47/3/3
f 50/1/3 49/1/3 48/1/3
f 51/1/3 49/1/3 50/1/3
f 53/3/3 50/3/3 47/3/3
f 54/3/3 50/3/3 53/3/3
f 55/3/3 50/3/3 54/3/3
f 57/3/3 53/3/3 52/3/3
f 57/3/3 54/3/3 53/3/3
f 58/3/3 54/3/3 57/3/3
f 58/3/3 57/3/3 56/3/3
f 59/3/3 54/3/3 58/3/3
f 60/3/3 58/3/3 56/3/3
f 61/3/3 58/3/3 60/3/3
f 66/3/3 63/3/3 62/3/3
f 67/1/3 64/1/3 63/1/3
f 67/3/3 63/3/3 66/3/3
f 68/2/3 65/2/3 64/2/3
f 68/1/3 64/1/3 67/1/3
f 69/2/3 65/2/3 68/2/3
f 70/2/3 65/2/3 69/2/3
f 71/2/3 65/2/3 70/2/3
f 72/3/4 73/3/4 74/3/4
f 72/3/4 74/3/4 77/3/4
f 74/3/4 75/3/4 77/3/4
f 77/3/4 75/3/4 78/3/4
f 78/3/4 75/3/4 79/3/4
f 76/3/4 77/3/4 81/3/4
f 77/3/4 78/3/4 81/3/4
f 81/3/4 78/3/4 82/3/4
f 80/3/4 81/3/4 82/3/4
f 82/3/4 78/3/4 83/3/4
f 80/3/4 82/3/4 84/3/4
f 84/3/4 82/3/4 85/3/4
f 86/1/4 87/1/4 89/1/4
f 87/2/4 88/2/4 90/2/4
f 89/1/4 87/1/4 90/1/4
f 90/2/4 88/2/4 91/2/4
f 94/3/5 93/3/5 92/3/5
f 95/3/5 93/3/5 94/3/5
f 98/3/5 97/3/5 96/3/5
f 99/3/5 97/3/5 98/3/5
f 103/3/5 101/3/5 100/3/5
f 104/3/5 103/3/5 102/3/5
f 105/3/5 101/3/5 103/3/5
f 105/3/5 103/3/5 104/3/5
f 108/1/5 107/1/5 106/1/5
f 109/1/5 107/1/5 108/1/5
f 110/3/6 111/3/6 112/3/6
f 112/3/6 111/3/6 113/3/6
f 114/3/6 115/3/6 116/3/6
f 116/3/6 115/3/6 117/3/6
f 118/3/6 119/3/6 120/3/6
f 120/3/6 119/3/6 121/3/6
f 122/1/6 123/1/6 124/1/6
f 124/1/6 123/1/6 125/1/6
f 126/2/6 127/2/6 128/2/6
f 128/2/6 127/2/6 129/2/6
