# MagicaVoxel @ Ephtracy

# group
o 

# material
mtllib get-color.mtl
usemtl palette

# normals
vn -1 0 0
vn 1 0 0
vn 0 0 1
vn 0 0 -1
vn 0 -1 0
vn 0 1 0

# texcoords
vt 0.119141 0.5
vt 0.123047 0.5
vt 0.669922 0.5

# verts
v -0.2 0 1.5
v -0.2 0 1.3
v -0.2 0 -1.3
v -0.2 0 -1.5
v -0.2 0.1 -1.3
v -0.2 0.1 -1.4
v -0.2 0.2 1.4
v -0.2 0.2 1.3
v -0.2 0.2 -1.3
v -0.2 0.2 -1.4
v -0.2 0.3 1.5
v -0.2 0.3 1.4
v -0.2 0.3 1.3
v -0.2 0.3 -1.3
v -0.2 0.3 -1.4
v -0.2 0.4 1.4
v -0.2 0.4 1.3
v -0.2 0.4 -1.3
v -0.2 0.4 -1.4
v -0.2 0.5 1.4
v -0.2 0.5 1.3
v -0.2 0.5 -1.4
v -0.2 0.5 -1.5
v -0.2 0.6 -1.3
v -0.2 0.6 -1.4
v -0.2 0.7 1.5
v -0.2 0.7 1.4
v -0.2 0.7 1.3
v -0.2 0.9 -1.3
v -0.2 0.9 -1.4
v -0.2 1 -1.3
v -0.2 1 -1.4
v -0.2 1.1 -1.3
v -0.2 1.1 -1.4
v -0.2 1.2 1.5
v -0.2 1.2 1.4
v -0.2 1.2 1.3
v -0.2 1.2 -1.3
v -0.2 1.2 -1.4
v -0.2 1.2 -1.5
v -0.2 1.3 1.4
v -0.2 1.3 1.3
v -0.2 1.4 1.4
v -0.2 1.4 1.3
v -0.2 1.5 1.5
v -0.2 1.5 1.3
v -0.2 1.5 -1.3
v -0.2 1.5 -1.4
v -0.2 1.5 -1.5
v -0.1 0.2 -0.6
v -0.1 0.2 -1.3
v -0.1 0.3 0.6
v -0.1 0.3 0.2
v -0.1 0.3 -0.6
v -0.1 0.3 -0.8
v -0.1 0.3 -1.3
v -0.1 0.4 1.3
v -0.1 0.4 0.8
v -0.1 0.4 0.6
v -0.1 0.4 0.3
v -0.1 0.4 0.2
v -0.1 0.4 -0.6
v -0.1 0.4 -0.8
v -0.1 0.4 -1.3
v -0.1 0.5 1.3
v -0.1 0.5 0.8
v -0.1 0.5 0.6
v -0.1 0.5 0.3
v -0.1 0.5 -0.6
v -0.1 0.6 1.3
v -0.1 0.6 0.6
v -0.1 1.1 0
v -0.1 1.1 -0.6
v -0.1 1.1 -1.2
v -0.1 1.1 -1.3
v -0.1 1.2 1.3
v -0.1 1.2 0.6
v -0.1 1.2 0.2
v -0.1 1.2 0
v -0.1 1.2 -0.2
v -0.1 1.2 -0.6
v -0.1 1.2 -1.2
v -0.1 1.2 -1.3
v -0.1 1.3 1.3
v -0.1 1.3 1.2
v -0.1 1.3 0.6
v -0.1 1.3 0.2
v -0.1 1.3 0
v -0.1 1.3 -0.2
v -0.1 1.3 -0.6
v -0.1 1.3 -1.3
v -0.1 1.4 1.3
v -0.1 1.4 1.2
v -0.1 1.4 0.6
v -0.1 1.4 0
v 0.1 0.2 -0.6
v 0.1 0.2 -1.3
v 0.1 0.3 0.6
v 0.1 0.3 0.2
v 0.1 0.3 -0.6
v 0.1 0.3 -0.8
v 0.1 0.3 -1.3
v 0.1 0.4 1.3
v 0.1 0.4 0.8
v 0.1 0.4 0.6
v 0.1 0.4 0.3
v 0.1 0.4 0.2
v 0.1 0.4 -0.6
v 0.1 0.4 -0.8
v 0.1 0.4 -1.3
v 0.1 0.5 1.3
v 0.1 0.5 0.8
v 0.1 0.5 0.6
v 0.1 0.5 0.3
v 0.1 0.5 -0.6
v 0.1 0.6 1.3
v 0.1 0.6 0.6
v 0.1 1.1 0
v 0.1 1.1 -0.6
v 0.1 1.1 -1.2
v 0.1 1.1 -1.3
v 0.1 1.2 1.3
v 0.1 1.2 0.6
v 0.1 1.2 0.2
v 0.1 1.2 0
v 0.1 1.2 -0.2
v 0.1 1.2 -0.6
v 0.1 1.2 -1.2
v 0.1 1.2 -1.3
v 0.1 1.3 1.3
v 0.1 1.3 1.2
v 0.1 1.3 0.6
v 0.1 1.3 0.2
v 0.1 1.3 0
v 0.1 1.3 -0.2
v 0.1 1.3 -0.6
v 0.1 1.3 -1.3
v 0.1 1.4 1.3
v 0.1 1.4 1.2
v 0.1 1.4 0.6
v 0.1 1.4 0
v 0.2 0 1.5
v 0.2 0 1.3
v 0.2 0 -1.3
v 0.2 0 -1.5
v 0.2 0.1 -1.3
v 0.2 0.1 -1.4
v 0.2 0.2 1.4
v 0.2 0.2 1.3
v 0.2 0.2 -1.3
v 0.2 0.2 -1.4
v 0.2 0.3 1.5
v 0.2 0.3 1.4
v 0.2 0.3 1.3
v 0.2 0.3 -1.3
v 0.2 0.3 -1.4
v 0.2 0.4 1.4
v 0.2 0.4 1.3
v 0.2 0.4 -1.3
v 0.2 0.4 -1.4
v 0.2 0.5 1.4
v 0.2 0.5 1.3
v 0.2 0.5 -1.4
v 0.2 0.5 -1.5
v 0.2 0.6 -1.3
v 0.2 0.6 -1.4
v 0.2 0.7 1.5
v 0.2 0.7 1.4
v 0.2 0.7 1.3
v 0.2 0.9 -1.3
v 0.2 0.9 -1.4
v 0.2 1 -1.3
v 0.2 1 -1.4
v 0.2 1.1 -1.3
v 0.2 1.1 -1.4
v 0.2 1.2 1.5
v 0.2 1.2 1.4
v 0.2 1.2 1.3
v 0.2 1.2 -1.3
v 0.2 1.2 -1.4
v 0.2 1.2 -1.5
v 0.2 1.3 1.4
v 0.2 1.3 1.3
v 0.2 1.4 1.4
v 0.2 1.4 1.3
v 0.2 1.5 1.5
v 0.2 1.5 1.3
v 0.2 1.5 -1.3
v 0.2 1.5 -1.4
v 0.2 1.5 -1.5
v -0.2 0 1.5
v -0.2 0.3 1.5
v -0.2 0.7 1.5
v -0.2 1.2 1.5
v -0.2 1.5 1.5
v 0.2 0 1.5
v 0.2 0.3 1.5
v 0.2 0.7 1.5
v 0.2 1.2 1.5
v 0.2 1.5 1.5
v -0.1 0.3 0.6
v -0.1 0.4 0.6
v 0.1 0.3 0.6
v 0.1 0.4 0.6
v -0.1 1.1 0
v -0.1 1.2 0
v 0.1 1.1 0
v 0.1 1.2 0
v -0.1 0.2 -0.6
v -0.1 0.3 -0.6
v 0.1 0.2 -0.6
v 0.1 0.3 -0.6
v -0.2 0 -1.3
v -0.2 0.1 -1.3
v -0.2 0.2 -1.3
v -0.2 0.3 -1.3
v -0.2 0.4 -1.3
v -0.2 0.6 -1.3
v -0.2 0.9 -1.3
v -0.2 1 -1.3
v -0.2 1.1 -1.3
v -0.2 1.2 -1.3
v -0.2 1.5 -1.3
v -0.1 0.2 -1.3
v -0.1 0.3 -1.3
v -0.1 0.4 -1.3
v -0.1 1.1 -1.3
v -0.1 1.2 -1.3
v -0.1 1.3 -1.3
v 0.1 0.2 -1.3
v 0.1 0.3 -1.3
v 0.1 0.4 -1.3
v 0.1 1.1 -1.3
v 0.1 1.2 -1.3
v 0.1 1.3 -1.3
v 0.2 0 -1.3
v 0.2 0.1 -1.3
v 0.2 0.2 -1.3
v 0.2 0.3 -1.3
v 0.2 0.4 -1.3
v 0.2 0.6 -1.3
v 0.2 0.9 -1.3
v 0.2 1 -1.3
v 0.2 1.1 -1.3
v 0.2 1.2 -1.3
v 0.2 1.5 -1.3
v -0.2 0 1.3
v -0.2 0.2 1.3
v -0.2 0.3 1.3
v -0.2 0.4 1.3
v -0.2 0.5 1.3
v -0.2 0.7 1.3
v -0.2 1.2 1.3
v -0.2 1.3 1.3
v -0.2 1.4 1.3
v -0.2 1.5 1.3
v -0.1 0.4 1.3
v -0.1 0.5 1.3
v -0.1 0.6 1.3
v -0.1 1.2 1.3
v -0.1 1.3 1.3
v -0.1 1.4 1.3
v 0.1 0.4 1.3
v 0.1 0.5 1.3
v 0.1 0.6 1.3
v 0.1 1.2 1.3
v 0.1 1.3 1.3
v 0.1 1.4 1.3
v 0.2 0 1.3
v 0.2 0.2 1.3
v 0.2 0.3 1.3
v 0.2 0.4 1.3
v 0.2 0.5 1.3
v 0.2 0.7 1.3
v 0.2 1.2 1.3
v 0.2 1.3 1.3
v 0.2 1.4 1.3
v 0.2 1.5 1.3
v -0.1 0.5 0.6
v -0.1 0.6 0.6
v 0.1 0.5 0.6
v 0.1 0.6 0.6
v -0.1 1.3 0
v -0.1 1.4 0
v 0.1 1.3 0
v 0.1 1.4 0
v -0.1 0.4 -0.6
v -0.1 0.5 -0.6
v 0.1 0.4 -0.6
v 0.1 0.5 -0.6
v -0.2 0 -1.5
v -0.2 0.5 -1.5
v -0.2 1.2 -1.5
v -0.2 1.5 -1.5
v 0.2 0 -1.5
v 0.2 0.5 -1.5
v 0.2 1.2 -1.5
v 0.2 1.5 -1.5
v -0.2 0 1.5
v 0.2 0 1.5
v -0.2 0 1.3
v 0.2 0 1.3
v -0.2 0 -1.3
v 0.2 0 -1.3
v -0.2 0 -1.5
v 0.2 0 -1.5
v -0.1 0.2 -0.6
v 0.1 0.2 -0.6
v -0.1 0.2 -1.3
v 0.1 0.2 -1.3
v -0.1 0.3 0.6
v 0.1 0.3 0.6
v -0.1 0.3 0.2
v 0.1 0.3 0.2
v -0.1 0.3 -0.6
v 0.1 0.3 -0.6
v -0.1 0.4 1.3
v 0.1 0.4 1.3
v -0.1 0.4 0.8
v 0.1 0.4 0.8
v -0.1 0.4 0.6
v 0.1 0.4 0.6
v -0.1 1.1 0
v 0.1 1.1 0
v -0.1 1.1 -0.6
v 0.1 1.1 -0.6
v -0.1 1.1 -1.2
v 0.1 1.1 -1.2
v -0.1 1.1 -1.3
v 0.1 1.1 -1.3
v -0.1 1.2 1.3
v 0.1 1.2 1.3
v -0.1 1.2 0.6
v 0.1 1.2 0.6
v -0.1 1.2 0.2
v 0.1 1.2 0.2
v -0.1 1.2 0
v 0.1 1.2 0
v -0.1 0.4 -0.6
v 0.1 0.4 -0.6
v -0.1 0.4 -0.8
v 0.1 0.4 -0.8
v -0.1 0.4 -1.3
v 0.1 0.4 -1.3
v -0.1 0.5 0.6
v 0.1 0.5 0.6
v -0.1 0.5 0.3
v 0.1 0.5 0.3
v -0.1 0.5 -0.6
v 0.1 0.5 -0.6
v -0.1 0.6 1.3
v 0.1 0.6 1.3
v -0.1 0.6 0.6
v 0.1 0.6 0.6
v -0.1 1.3 0
v 0.1 1.3 0
v -0.1 1.3 -0.2
v 0.1 1.3 -0.2
v -0.1 1.3 -0.6
v 0.1 1.3 -0.6
v -0.1 1.3 -1.3
v 0.1 1.3 -1.3
v -0.1 1.4 1.3
v 0.1 1.4 1.3
v -0.1 1.4 1.2
v 0.1 1.4 1.2
v -0.1 1.4 0.6
v 0.1 1.4 0.6
v -0.1 1.4 0
v 0.1 1.4 0
v -0.2 1.5 1.5
v 0.2 1.5 1.5
v -0.2 1.5 1.3
v 0.2 1.5 1.3
v -0.2 1.5 -1.3
v 0.2 1.5 -1.3
v -0.2 1.5 -1.4
v 0.2 1.5 -1.4
v -0.2 1.5 -1.5
v 0.2 1.5 -1.5

# faces
f 5/2/1 4/2/1 3/2/1
f 6/2/1 4/2/1 5/2/1
f 7/2/1 2/2/1 1/2/1
f 8/2/1 2/2/1 7/2/1
f 9/1/1 6/1/1 5/1/1
f 10/2/1 4/2/1 6/2/1
f 10/1/1 6/1/1 9/1/1
f 11/2/1 7/2/1 1/2/1
f 12/1/1 8/1/1 7/1/1
f 12/2/1 7/2/1 11/2/1
f 13/1/1 8/1/1 12/1/1
f 14/2/1 10/2/1 9/2/1
f 15/2/1 4/2/1 10/2/1
f 15/2/1 10/2/1 14/2/1
f 16/2/1 13/2/1 12/2/1
f 16/1/1 12/1/1 11/1/1
f 17/2/1 13/2/1 16/2/1
f 18/3/1 15/3/1 14/3/1
f 19/2/1 4/2/1 15/2/1
f 19/3/1 15/3/1 18/3/1
f 20/3/1 17/3/1 16/3/1
f 20/1/1 16/1/1 11/1/1
f 21/3/1 17/3/1 20/3/1
f 22/2/1 4/2/1 19/2/1
f 22/1/1 19/1/1 18/1/1
f 23/2/1 4/2/1 22/2/1
f 24/1/1 22/1/1 18/1/1
f 24/1/1 23/1/1 22/1/1
f 25/1/1 23/1/1 24/1/1
f 26/1/1 20/1/1 11/1/1
f 27/2/1 21/2/1 20/2/1
f 27/1/1 20/1/1 26/1/1
f 28/2/1 21/2/1 27/2/1
f 29/2/1 25/2/1 24/2/1
f 30/1/1 23/1/1 25/1/1
f 30/2/1 25/2/1 29/2/1
f 31/1/1 30/1/1 29/1/1
f 32/1/1 23/1/1 30/1/1
f 32/1/1 30/1/1 31/1/1
f 33/2/1 32/2/1 31/2/1
f 34/1/1 23/1/1 32/1/1
f 34/2/1 32/2/1 33/2/1
f 35/2/1 27/2/1 26/2/1
f 36/1/1 28/1/1 27/1/1
f 36/2/1 27/2/1 35/2/1
f 37/1/1 28/1/1 36/1/1
f 38/3/1 34/3/1 33/3/1
f 39/1/1 23/1/1 34/1/1
f 39/3/1 34/3/1 38/3/1
f 40/1/1 23/1/1 39/1/1
f 41/2/1 37/2/1 36/2/1
f 41/1/1 36/1/1 35/1/1
f 42/2/1 37/2/1 41/2/1
f 43/1/1 41/1/1 35/1/1
f 43/3/1 42/3/1 41/3/1
f 44/3/1 42/3/1 43/3/1
f 45/1/1 43/1/1 35/1/1
f 45/1/1 44/1/1 43/1/1
f 46/1/1 44/1/1 45/1/1
f 47/1/1 39/1/1 38/1/1
f 48/2/1 40/2/1 39/2/1
f 48/1/1 39/1/1 47/1/1
f 49/2/1 40/2/1 48/2/1
f 54/1/1 51/1/1 50/1/1
f 55/1/1 51/1/1 54/1/1
f 56/1/1 51/1/1 55/1/1
f 59/1/1 53/1/1 52/1/1
f 60/1/1 53/1/1 59/1/1
f 61/2/1 54/2/1 53/2/1
f 61/1/1 53/1/1 60/1/1
f 62/1/1 55/1/1 54/1/1
f 62/2/1 54/2/1 61/2/1
f 63/2/1 56/2/1 55/2/1
f 63/1/1 55/1/1 62/1/1
f 64/2/1 56/2/1 63/2/1
f 65/2/1 58/2/1 57/2/1
f 66/1/1 59/1/1 58/1/1
f 66/2/1 58/2/1 65/2/1
f 67/2/1 60/2/1 59/2/1
f 67/1/1 59/1/1 66/1/1
f 68/1/1 61/1/1 60/1/1
f 68/2/1 60/2/1 67/2/1
f 68/1/1 62/1/1 61/1/1
f 69/1/1 62/1/1 68/1/1
f 70/1/1 66/1/1 65/1/1
f 70/1/1 67/1/1 66/1/1
f 71/1/1 67/1/1 70/1/1
f 79/1/1 73/1/1 72/1/1
f 80/1/1 73/1/1 79/1/1
f 81/2/1 74/2/1 73/2/1
f 81/1/1 73/1/1 80/1/1
f 82/1/1 75/1/1 74/1/1
f 82/2/1 74/2/1 81/2/1
f 83/1/1 75/1/1 82/1/1
f 84/1/1 77/1/1 76/1/1
f 85/1/1 77/1/1 84/1/1
f 86/2/1 78/2/1 77/2/1
f 86/1/1 77/1/1 85/1/1
f 87/1/1 80/1/1 79/1/1
f 87/2/1 78/2/1 86/2/1
f 87/1/1 79/1/1 78/1/1
f 88/1/1 80/1/1 87/1/1
f 89/2/1 81/2/1 80/2/1
f 89/1/1 80/1/1 88/1/1
f 90/1/1 82/1/1 81/1/1
f 90/2/1 81/2/1 89/2/1
f 90/1/1 83/1/1 82/1/1
f 91/1/1 83/1/1 90/1/1
f 92/1/1 85/1/1 84/1/1
f 93/2/1 86/2/1 85/2/1
f 93/1/1 85/1/1 92/1/1
f 94/1/1 88/1/1 87/1/1
f 94/2/1 86/2/1 93/2/1
f 94/1/1 87/1/1 86/1/1
f 95/1/1 88/1/1 94/1/1
f 96/1/2 97/1/2 100/1/2
f 100/1/2 97/1/2 101/1/2
f 101/1/2 97/1/2 102/1/2
f 98/1/2 99/1/2 105/1/2
f 105/1/2 99/1/2 106/1/2
f 99/2/2 100/2/2 107/2/2
f 106/1/2 99/1/2 107/1/2
f 100/1/2 101/1/2 108/1/2
f 107/2/2 100/2/2 108/2/2
f 101/2/2 102/2/2 109/2/2
f 108/1/2 101/1/2 109/1/2
f 109/2/2 102/2/2 110/2/2
f 103/2/2 104/2/2 111/2/2
f 104/1/2 105/1/2 112/1/2
f 111/2/2 104/2/2 112/2/2
f 105/2/2 106/2/2 113/2/2
f 112/1/2 105/1/2 113/1/2
f 106/1/2 107/1/2 114/1/2
f 113/2/2 106/2/2 114/2/2
f 107/1/2 108/1/2 114/1/2
f 114/1/2 108/1/2 115/1/2
f 111/1/2 112/1/2 116/1/2
f 112/1/2 113/1/2 116/1/2
f 116/1/2 113/1/2 117/1/2
f 118/1/2 119/1/2 125/1/2
f 125/1/2 119/1/2 126/1/2
f 119/2/2 120/2/2 127/2/2
f 126/1/2 119/1/2 127/1/2
f 120/1/2 121/1/2 128/1/2
f 127/2/2 120/2/2 128/2/2
f 128/1/2 121/1/2 129/1/2
f 122/1/2 123/1/2 130/1/2
f 130/1/2 123/1/2 131/1/2
f 123/2/2 124/2/2 132/2/2
f 131/1/2 123/1/2 132/1/2
f 125/1/2 126/1/2 133/1/2
f 132/2/2 124/2/2 133/2/2
f 124/1/2 125/1/2 133/1/2
f 133/1/2 126/1/2 134/1/2
f 126/2/2 127/2/2 135/2/2
f 134/1/2 126/1/2 135/1/2
f 127/1/2 128/1/2 136/1/2
f 135/2/2 127/2/2 136/2/2
f 128/1/2 129/1/2 136/1/2
f 136/1/2 129/1/2 137/1/2
f 130/1/2 131/1/2 138/1/2
f 131/2/2 132/2/2 139/2/2
f 138/1/2 131/1/2 139/1/2
f 133/1/2 134/1/2 140/1/2
f 139/2/2 132/2/2 140/2/2
f 132/1/2 133/1/2 140/1/2
f 140/1/2 134/1/2 141/1/2
f 144/2/2 145/2/2 146/2/2
f 146/2/2 145/2/2 147/2/2
f 142/2/2 143/2/2 148/2/2
f 148/2/2 143/2/2 149/2/2
f 146/1/2 147/1/2 150/1/2
f 147/2/2 145/2/2 151/2/2
f 150/1/2 147/1/2 151/1/2
f 142/2/2 148/2/2 152/2/2
f 148/1/2 149/1/2 153/1/2
f 152/2/2 148/2/2 153/2/2
f 153/1/2 149/1/2 154/1/2
f 150/2/2 151/2/2 155/2/2
f 151/2/2 145/2/2 156/2/2
f 155/2/2 151/2/2 156/2/2
f 153/2/2 154/2/2 157/2/2
f 152/1/2 153/1/2 157/1/2
f 157/2/2 154/2/2 158/2/2
f 155/3/2 156/3/2 159/3/2
f 156/2/2 145/2/2 160/2/2
f 159/3/2 156/3/2 160/3/2
f 157/3/2 158/3/2 161/3/2
f 152/1/2 157/1/2 161/1/2
f 161/3/2 158/3/2 162/3/2
f 160/2/2 145/2/2 163/2/2
f 159/1/2 160/1/2 163/1/2
f 163/2/2 145/2/2 164/2/2
f 159/1/2 163/1/2 165/1/2
f 163/1/2 164/1/2 165/1/2
f 165/1/2 164/1/2 166/1/2
f 152/1/2 161/1/2 167/1/2
f 161/2/2 162/2/2 168/2/2
f 167/1/2 161/1/2 168/1/2
f 168/2/2 162/2/2 169/2/2
f 165/2/2 166/2/2 170/2/2
f 166/1/2 164/1/2 171/1/2
f 170/2/2 166/2/2 171/2/2
f 170/1/2 171/1/2 172/1/2
f 171/1/2 164/1/2 173/1/2
f 172/1/2 171/1/2 173/1/2
f 172/2/2 173/2/2 174/2/2
f 173/1/2 164/1/2 175/1/2
f 174/2/2 173/2/2 175/2/2
f 167/2/2 168/2/2 176/2/2
f 168/1/2 169/1/2 177/1/2
f 176/2/2 168/2/2 177/2/2
f 177/1/2 169/1/2 178/1/2
f 174/3/2 175/3/2 179/3/2
f 175/1/2 164/1/2 180/1/2
f 179/3/2 175/3/2 180/3/2
f 180/1/2 164/1/2 181/1/2
f 177/2/2 178/2/2 182/2/2
f 176/1/2 177/1/2 182/1/2
f 182/2/2 178/2/2 183/2/2
f 176/1/2 182/1/2 184/1/2
f 182/3/2 183/3/2 184/3/2
f 184/3/2 183/3/2 185/3/2
f 176/1/2 184/1/2 186/1/2
f 184/1/2 185/1/2 186/1/2
f 186/1/2 185/1/2 187/1/2
f 179/1/2 180/1/2 188/1/2
f 180/2/2 181/2/2 189/2/2
f 188/1/2 180/1/2 189/1/2
f 189/2/2 181/2/2 190/2/2
f 196/2/3 192/2/3 191/2/3
f 197/1/3 193/1/3 192/1/3
f 197/2/3 192/2/3 196/2/3
f 198/2/3 194/2/3 193/2/3
f 198/1/3 193/1/3 197/1/3
f 199/1/3 195/1/3 194/1/3
f 199/2/3 194/2/3 198/2/3
f 200/1/3 195/1/3 199/1/3
f 203/1/3 202/1/3 201/1/3
f 204/1/3 202/1/3 203/1/3
f 207/1/3 206/1/3 205/1/3
f 208/1/3 206/1/3 207/1/3
f 211/1/3 210/1/3 209/1/3
f 212/1/3 210/1/3 211/1/3
f 224/1/3 215/1/3 214/1/3
f 224/2/3 216/2/3 215/2/3
f 225/3/3 217/3/3 216/3/3
f 225/2/3 216/2/3 224/2/3
f 226/1/3 218/1/3 217/1/3
f 226/3/3 217/3/3 225/3/3
f 227/3/3 222/3/3 221/3/3
f 227/2/3 221/2/3 220/2/3
f 228/1/3 223/1/3 222/1/3
f 228/3/3 222/3/3 227/3/3
f 229/1/3 223/1/3 228/1/3
f 230/1/3 224/1/3 214/1/3
f 232/1/3 218/1/3 226/1/3
f 233/2/3 227/2/3 220/2/3
f 235/1/3 223/1/3 229/1/3
f 236/2/3 214/2/3 213/2/3
f 237/1/3 230/1/3 214/1/3
f 237/2/3 214/2/3 236/2/3
f 238/2/3 231/2/3 230/2/3
f 238/1/3 230/1/3 237/1/3
f 239/3/3 232/3/3 231/3/3
f 239/2/3 231/2/3 238/2/3
f 240/1/3 218/1/3 232/1/3
f 240/3/3 232/3/3 239/3/3
f 241/2/3 219/2/3 218/2/3
f 241/1/3 218/1/3 240/1/3
f 242/1/3 220/1/3 219/1/3
f 242/2/3 219/2/3 241/2/3
f 243/2/3 233/2/3 220/2/3
f 243/1/3 220/1/3 242/1/3
f 244/3/3 234/3/3 233/3/3
f 244/2/3 233/2/3 243/2/3
f 245/1/3 235/1/3 234/1/3
f 245/3/3 234/3/3 244/3/3
f 246/1/3 223/1/3 235/1/3
f 246/1/3 235/1/3 245/1/3
f 249/2/4 250/2/4 257/2/4
f 250/3/4 251/3/4 257/3/4
f 251/2/4 252/2/4 258/2/4
f 257/3/4 251/3/4 258/3/4
f 258/2/4 252/2/4 259/2/4
f 252/1/4 253/1/4 260/1/4
f 253/2/4 254/2/4 260/2/4
f 254/3/4 255/3/4 261/3/4
f 260/2/4 254/2/4 261/2/4
f 255/1/4 256/1/4 262/1/4
f 261/3/4 255/3/4 262/3/4
f 249/2/4 257/2/4 263/2/4
f 259/2/4 252/2/4 265/2/4
f 252/1/4 260/1/4 266/1/4
f 262/1/4 256/1/4 268/1/4
f 247/2/4 248/2/4 269/2/4
f 248/1/4 249/1/4 270/1/4
f 269/2/4 248/2/4 270/2/4
f 249/2/4 263/2/4 271/2/4
f 270/1/4 249/1/4 271/1/4
f 263/3/4 264/3/4 272/3/4
f 271/2/4 263/2/4 272/2/4
f 264/2/4 265/2/4 273/2/4
f 272/3/4 264/3/4 273/3/4
f 265/2/4 252/2/4 274/2/4
f 273/2/4 265/2/4 274/2/4
f 252/1/4 266/1/4 274/1/4
f 266/2/4 267/2/4 275/2/4
f 274/1/4 266/1/4 275/1/4
f 267/3/4 268/3/4 276/3/4
f 275/2/4 267/2/4 276/2/4
f 268/1/4 256/1/4 277/1/4
f 276/3/4 268/3/4 277/3/4
f 277/1/4 256/1/4 278/1/4
f 279/1/4 280/1/4 281/1/4
f 281/1/4 280/1/4 282/1/4
f 283/1/4 284/1/4 285/1/4
f 285/1/4 284/1/4 286/1/4
f 287/1/4 288/1/4 289/1/4
f 289/1/4 288/1/4 290/1/4
f 291/2/4 292/2/4 295/2/4
f 292/1/4 293/1/4 296/1/4
f 295/2/4 292/2/4 296/2/4
f 293/2/4 294/2/4 297/2/4
f 296/1/4 293/1/4 297/1/4
f 297/2/4 294/2/4 298/2/4
f 301/2/5 300/2/5 299/2/5
f 302/2/5 300/2/5 301/2/5
f 305/2/5 304/2/5 303/2/5
f 306/2/5 304/2/5 305/2/5
f 309/1/5 308/1/5 307/1/5
f 310/1/5 308/1/5 309/1/5
f 313/1/5 312/1/5 311/1/5
f 314/1/5 312/1/5 313/1/5
f 315/2/5 314/2/5 313/2/5
f 316/2/5 314/2/5 315/2/5
f 319/2/5 318/2/5 317/2/5
f 320/2/5 318/2/5 319/2/5
f 321/1/5 320/1/5 319/1/5
f 322/1/5 320/1/5 321/1/5
f 325/1/5 324/1/5 323/1/5
f 326/1/5 324/1/5 325/1/5
f 327/2/5 326/2/5 325/2/5
f 328/2/5 326/2/5 327/2/5
f 329/1/5 328/1/5 327/1/5
f 330/1/5 328/1/5 329/1/5
f 333/1/5 332/1/5 331/1/5
f 334/1/5 332/1/5 333/1/5
f 335/2/5 334/2/5 333/2/5
f 336/2/5 334/2/5 335/2/5
f 337/1/5 336/1/5 335/1/5
f 338/1/5 336/1/5 337/1/5
f 339/1/6 340/1/6 341/1/6
f 341/1/6 340/1/6 342/1/6
f 341/2/6 342/2/6 343/2/6
f 343/2/6 342/2/6 344/2/6
f 345/2/6 346/2/6 347/2/6
f 347/2/6 346/2/6 348/2/6
f 347/1/6 348/1/6 349/1/6
f 349/1/6 348/1/6 350/1/6
f 351/1/6 352/1/6 353/1/6
f 353/1/6 352/1/6 354/1/6
f 355/1/6 356/1/6 357/1/6
f 357/1/6 356/1/6 358/1/6
f 357/2/6 358/2/6 359/2/6
f 359/2/6 358/2/6 360/2/6
f 359/1/6 360/1/6 361/1/6
f 361/1/6 360/1/6 362/1/6
f 363/1/6 364/1/6 365/1/6
f 365/1/6 364/1/6 366/1/6
f 365/2/6 366/2/6 367/2/6
f 367/2/6 366/2/6 368/2/6
f 367/1/6 368/1/6 369/1/6
f 369/1/6 368/1/6 370/1/6
f 371/1/6 372/1/6 373/1/6
f 373/1/6 372/1/6 374/1/6
f 375/1/6 376/1/6 377/1/6
f 377/1/6 376/1/6 378/1/6
f 377/2/6 378/2/6 379/2/6
f 379/2/6 378/2/6 380/2/6
