# MagicaVoxel @ Ephtracy

# group
o 

# material
mtllib get-color.mtl
usemtl palette

# normals
vn 0 0 1
vn 0 0 -1
vn 1 0 0
vn -1 0 0
vn 0 -1 0
vn 0 1 0

# texcoords
vt 0.232422 0.5
vt 0.263672 0.5
vt 0.267578 0.5

# verts
v 0.2 0 0.4
v 0.1 0 0.4
v -0.2 0 0.4
v 0.2 0.1 0.4
v 0.1 0.1 0.4
v -0.2 0.1 0.4
v 0.3 0 0.3
v 0.2 0 0.3
v -0.2 0 0.3
v -0.3 0 0.3
v 0.3 0.1 0.3
v 0.2 0.1 0.3
v 0.1 0.1 0.3
v -0.1 0.1 0.3
v -0.2 0.1 0.3
v -0.3 0.1 0.3
v 0.2 0.2 0.3
v 0.1 0.2 0.3
v -0.1 0.2 0.3
v 0.5 0 0.2
v 0.3 0 0.2
v -0.3 0 0.2
v -0.4 0 0.2
v 0.5 0.1 0.2
v 0.3 0.1 0.2
v 0.2 0.1 0.2
v -0.1 0.1 0.2
v -0.2 0.1 0.2
v -0.3 0.1 0.2
v -0.4 0.1 0.2
v 0.3 0.2 0.2
v 0.2 0.2 0.2
v -0.1 0.2 0.2
v -0.2 0.2 0.2
v -0.4 0 0.1
v -0.5 0 0.1
v -0.4 0.1 0.1
v -0.5 0.1 0.1
v -0.5 0 0
v -0.6 0 0
v 0.4 0.1 0
v 0.3 0.1 0
v -0.2 0.1 0
v -0.3 0.1 0
v -0.5 0.1 0
v -0.6 0.1 0
v 0.4 0.2 0
v 0.3 0.2 0
v -0.2 0.2 0
v -0.3 0.2 0
v 0.6 0 -0.1
v 0.5 0 -0.1
v 0.6 0.1 -0.1
v 0.5 0.1 -0.1
v -0.3 0 -0.3
v -0.4 0 -0.3
v -0.3 0.1 -0.3
v -0.4 0.1 -0.3
v -0.5 0 -0.1
v -0.6 0 -0.1
v -0.2 0.1 -0.1
v -0.3 0.1 -0.1
v -0.5 0.1 -0.1
v -0.6 0.1 -0.1
v -0.2 0.2 -0.1
v -0.3 0.2 -0.1
v -0.3 0 -0.2
v -0.5 0 -0.2
v 0.4 0.1 -0.2
v 0.3 0.1 -0.2
v -0.3 0.1 -0.2
v -0.5 0.1 -0.2
v 0.4 0.2 -0.2
v 0.3 0.2 -0.2
v 0.6 0 -0.3
v 0.5 0 -0.3
v 0.6 0.1 -0.3
v 0.5 0.1 -0.3
v 0.3 0.1 -0.3
v 0.2 0.1 -0.3
v 0.1 0.1 -0.3
v -0.1 0.1 -0.3
v -0.2 0.1 -0.3
v 0.3 0.2 -0.3
v 0.1 0.2 -0.3
v -0.1 0.2 -0.3
v -0.2 0.2 -0.3
v 0.5 0 -0.4
v 0.4 0 -0.4
v 0.1 0 -0.4
v 5.96046e-08 0 -0.4
v -0.2 0 -0.4
v -0.4 0 -0.4
v 0.5 0.1 -0.4
v 0.4 0.1 -0.4
v 0.1 0.1 -0.4
v 5.96046e-08 0.1 -0.4
v -0.1 0.1 -0.4
v -0.2 0.1 -0.4
v -0.4 0.1 -0.4
v 0.1 0.2 -0.4
v -0.1 0.2 -0.4
v 0.4 0 -0.5
v 0.3 0 -0.5
v 0.2 0 -0.5
v 0.1 0 -0.5
v 5.96046e-08 0 -0.5
v -0.2 0 -0.5
v 0.4 0.1 -0.5
v 0.3 0.1 -0.5
v 0.2 0.1 -0.5
v 0.1 0.1 -0.5
v 5.96046e-08 0.1 -0.5
v -0.2 0.1 -0.5
v 0.6 0 -0.1
v 0.6 0.1 -0.1
v 0.6 0 -0.3
v 0.6 0.1 -0.3
v 0.5 0 0.2
v 0.5 0.1 0.2
v 0.5 0 -0.1
v 0.5 0.1 -0.1
v 0.5 0 -0.3
v 0.5 0.1 -0.3
v 0.5 0 -0.4
v 0.5 0.1 -0.4
v 0.4 0.1 0
v 0.4 0.2 0
v 0.4 0.1 -0.1
v 0.4 0.2 -0.1
v 0.4 0.1 -0.2
v 0.4 0.2 -0.2
v 0.4 0 -0.4
v 0.4 0.1 -0.4
v 0.4 0 -0.5
v 0.4 0.1 -0.5
v 0.3 0 0.3
v 0.3 0.1 0.3
v 0.3 0 0.2
v 0.3 0.1 0.2
v 0.3 0.2 0.2
v 0.3 0.1 0
v 0.3 0.2 0
v 0.3 0.1 -0.2
v 0.3 0.2 -0.2
v 0.3 0.1 -0.3
v 0.3 0.2 -0.3
v 0.2 0 0.4
v 0.2 0.1 0.4
v 0.2 0 0.3
v 0.2 0.1 0.3
v 0.2 0.2 0.3
v 0.2 0.1 0.2
v 0.2 0.2 0.2
v 0.1 0.1 -0.3
v 0.1 0.2 -0.3
v 0.1 0.1 -0.4
v 0.1 0.2 -0.4
v 5.96046e-08 0 -0.4
v 5.96046e-08 0.1 -0.4
v 5.96046e-08 0 -0.5
v 5.96046e-08 0.1 -0.5
v 0.1 0 -0.4
v 0.1 0.1 -0.4
v 0.1 0 -0.5
v 0.1 0.1 -0.5
v -0.1 0.1 0.3
v -0.1 0.2 0.3
v -0.1 0.1 0.2
v -0.1 0.2 0.2
v -0.1 0.1 -0.3
v -0.1 0.2 -0.3
v -0.1 0.1 -0.4
v -0.1 0.2 -0.4
v -0.2 0 0.4
v -0.2 0.1 0.4
v -0.2 0 0.3
v -0.2 0.1 0.3
v -0.2 0.1 0.2
v -0.2 0.2 0.2
v -0.2 0.1 0
v -0.2 0.2 0
v -0.2 0.1 -0.1
v -0.2 0.2 -0.1
v -0.2 0.1 -0.2
v -0.2 0.2 -0.2
v -0.2 0.1 -0.3
v -0.2 0.2 -0.3
v -0.2 0 -0.4
v -0.2 0.1 -0.4
v -0.2 0 -0.5
v -0.2 0.1 -0.5
v -0.3 0 0.3
v -0.3 0.1 0.3
v -0.3 0 0.2
v -0.3 0.1 0.2
v -0.3 0.1 0
v -0.3 0.2 0
v -0.3 0.1 -0.1
v -0.3 0.2 -0.1
v -0.3 0 -0.2
v -0.3 0.1 -0.2
v -0.3 0 -0.3
v -0.3 0.1 -0.3
v -0.4 0 0.2
v -0.4 0.1 0.2
v -0.4 0 0.1
v -0.4 0.1 0.1
v -0.4 0 -0.3
v -0.4 0.1 -0.3
v -0.4 0 -0.4
v -0.4 0.1 -0.4
v -0.5 0 0.1
v -0.5 0.1 0.1
v -0.5 0 0
v -0.5 0.1 0
v -0.5 0 -0.1
v -0.5 0.1 -0.1
v -0.5 0 -0.2
v -0.5 0.1 -0.2
v -0.6 0 0
v -0.6 0.1 0
v -0.6 0 -0.1
v -0.6 0.1 -0.1
v 0.6 0 -0.1
v 0.6 0 -0.3
v 0.5 0 0.2
v 0.5 0 -0.1
v 0.5 0 -0.2
v 0.5 0 -0.3
v 0.5 0 -0.4
v 0.4 0 -0.2
v 0.4 0 -0.3
v 0.4 0 -0.4
v 0.4 0 -0.5
v 0.3 0 0.3
v 0.3 0 0.2
v 0.3 0 -0.4
v 0.3 0 -0.5
v 0.2 0 0.4
v 0.2 0 0.3
v 0.2 0 0.2
v 0.2 0 -0.3
v 0.2 0 -0.4
v 0.2 0 -0.5
v 0.1 0 0.4
v 0.1 0 0.3
v 0.1 0 -0.3
v 0.1 0 -0.4
v 0.1 0 -0.5
v 5.96046e-08 0 -0.4
v 5.96046e-08 0 -0.5
v -0.2 0 0.4
v -0.2 0 0.3
v -0.2 0 0.2
v -0.2 0 -0.2
v -0.2 0 -0.3
v -0.2 0 -0.4
v -0.2 0 -0.5
v -0.3 0 0.3
v -0.3 0 0.2
v -0.3 0 -0.2
v -0.3 0 -0.3
v -0.4 0 0.2
v -0.4 0 0.1
v -0.4 0 0
v -0.4 0 -0.1
v -0.4 0 -0.3
v -0.4 0 -0.4
v -0.5 0 0.1
v -0.5 0 0
v -0.5 0 -0.1
v -0.5 0 -0.2
v -0.6 0 0
v -0.6 0 -0.1
v 0.6 0.1 -0.1
v 0.6 0.1 -0.3
v 0.5 0.1 0.2
v 0.5 0.1 -0.1
v 0.5 0.1 -0.2
v 0.5 0.1 -0.3
v 0.5 0.1 -0.4
v 0.4 0.1 0
v 0.4 0.1 -0.1
v 0.4 0.1 -0.2
v 0.4 0.1 -0.3
v 0.4 0.1 -0.4
v 0.4 0.1 -0.5
v 0.3 0.1 0.3
v 0.3 0.1 0.2
v 0.3 0.1 0
v 0.3 0.1 -0.2
v 0.3 0.1 -0.3
v 0.3 0.1 -0.4
v 0.3 0.1 -0.5
v 0.2 0.1 0.4
v 0.2 0.1 0.3
v 0.2 0.1 0.2
v 0.2 0.1 -0.3
v 0.2 0.1 -0.4
v 0.2 0.1 -0.5
v 0.1 0.1 0.4
v 0.1 0.1 0.3
v 0.1 0.1 -0.3
v 0.1 0.1 -0.4
v 0.1 0.1 -0.5
v 5.96046e-08 0.1 -0.4
v 5.96046e-08 0.1 -0.5
v -0.1 0.1 0.3
v -0.1 0.1 0.2
v -0.1 0.1 -0.3
v -0.1 0.1 -0.4
v -0.2 0.1 0.4
v -0.2 0.1 0.3
v -0.2 0.1 0.2
v -0.2 0.1 0
v -0.2 0.1 -0.1
v -0.2 0.1 -0.2
v -0.2 0.1 -0.3
v -0.2 0.1 -0.4
v -0.2 0.1 -0.5
v -0.3 0.1 0.3
v -0.3 0.1 0.2
v -0.3 0.1 0
v -0.3 0.1 -0.1
v -0.3 0.1 -0.2
v -0.3 0.1 -0.3
v -0.4 0.1 0.2
v -0.4 0.1 0.1
v -0.4 0.1 0
v -0.4 0.1 -0.1
v -0.4 0.1 -0.3
v -0.4 0.1 -0.4
v -0.5 0.1 0.1
v -0.5 0.1 0
v -0.5 0.1 -0.1
v -0.5 0.1 -0.2
v -0.6 0.1 0
v -0.6 0.1 -0.1
v 0.4 0.2 0
v 0.4 0.2 -0.1
v 0.4 0.2 -0.2
v 0.3 0.2 0.2
v 0.3 0.2 0
v 0.3 0.2 -0.1
v 0.3 0.2 -0.2
v 0.3 0.2 -0.3
v 0.2 0.2 0.3
v 0.2 0.2 0.2
v 0.2 0.2 0
v 0.2 0.2 -0.1
v 0.2 0.2 -0.2
v 0.1 0.2 0.3
v 0.1 0.2 0.2
v 0.1 0.2 0
v 0.1 0.2 -0.1
v 0.1 0.2 -0.2
v 0.1 0.2 -0.3
v 0.1 0.2 -0.4
v 5.96046e-08 0.2 0.2
v 5.96046e-08 0.2 0
v 5.96046e-08 0.2 -0.1
v 5.96046e-08 0.2 -0.2
v 5.96046e-08 0.2 -0.3
v -0.1 0.2 0.3
v -0.1 0.2 0.2
v -0.1 0.2 -0.1
v -0.1 0.2 -0.2
v -0.1 0.2 -0.3
v -0.1 0.2 -0.4
v -0.2 0.2 0.2
v -0.2 0.2 0
v -0.2 0.2 -0.1
v -0.2 0.2 -0.2
v -0.2 0.2 -0.3
v -0.3 0.2 0
v -0.3 0.2 -0.1

# faces
f 4/1/1 2/1/1 1/1/1
f 5/3/1 3/3/1 2/3/1
f 5/1/1 2/1/1 4/1/1
f 6/3/1 3/3/1 5/3/1
f 11/1/1 8/1/1 7/1/1
f 12/1/1 8/1/1 11/1/1
f 15/1/1 10/1/1 9/1/1
f 16/1/1 10/1/1 15/1/1
f 17/1/1 13/1/1 12/1/1
f 18/3/1 14/3/1 13/3/1
f 18/1/1 13/1/1 17/1/1
f 19/3/1 14/3/1 18/3/1
f 24/3/1 21/3/1 20/3/1
f 25/3/1 21/3/1 24/3/1
f 29/3/1 23/3/1 22/3/1
f 30/3/1 23/3/1 29/3/1
f 31/3/1 26/3/1 25/3/1
f 32/3/1 26/3/1 31/3/1
f 33/3/1 28/3/1 27/3/1
f 34/3/1 28/3/1 33/3/1
f 37/1/1 36/1/1 35/1/1
f 38/1/1 36/1/1 37/1/1
f 45/1/1 40/1/1 39/1/1
f 46/1/1 40/1/1 45/1/1
f 47/1/1 42/1/1 41/1/1
f 48/1/1 42/1/1 47/1/1
f 49/3/1 44/3/1 43/3/1
f 50/3/1 44/3/1 49/3/1
f 53/3/1 52/3/1 51/3/1
f 54/3/1 52/3/1 53/3/1
f 57/3/1 56/3/1 55/3/1
f 58/3/1 56/3/1 57/3/1
f 59/1/2 60/1/2 63/1/2
f 63/1/2 60/1/2 64/1/2
f 61/3/2 62/3/2 65/3/2
f 65/3/2 62/3/2 66/3/2
f 67/3/2 68/3/2 71/3/2
f 71/3/2 68/3/2 72/3/2
f 69/3/2 70/3/2 73/3/2
f 73/3/2 70/3/2 74/3/2
f 75/3/2 76/3/2 77/3/2
f 77/3/2 76/3/2 78/3/2
f 79/3/2 80/3/2 84/3/2
f 80/3/2 81/3/2 84/3/2
f 84/3/2 81/3/2 85/3/2
f 82/3/2 83/3/2 86/3/2
f 86/3/2 83/3/2 87/3/2
f 88/3/2 89/3/2 94/3/2
f 94/3/2 89/3/2 95/3/2
f 90/3/2 91/3/2 96/3/2
f 96/3/2 91/3/2 97/3/2
f 92/3/2 93/3/2 99/3/2
f 99/3/2 93/3/2 100/3/2
f 97/3/2 98/3/2 101/3/2
f 96/3/2 97/3/2 101/3/2
f 101/3/2 98/3/2 102/3/2
f 103/3/2 104/3/2 109/3/2
f 104/1/2 105/1/2 110/1/2
f 109/3/2 104/3/2 110/3/2
f 105/3/2 106/3/2 111/3/2
f 110/1/2 105/1/2 111/1/2
f 111/3/2 106/3/2 112/3/2
f 107/3/2 108/3/2 113/3/2
f 113/3/2 108/3/2 114/3/2
f 117/3/3 116/3/3 115/3/3
f 118/3/3 116/3/3 117/3/3
f 121/3/3 120/3/3 119/3/3
f 122/3/3 120/3/3 121/3/3
f 125/3/3 124/3/3 123/3/3
f 126/3/3 124/3/3 125/3/3
f 129/1/3 128/1/3 127/1/3
f 130/1/3 128/1/3 129/1/3
f 131/3/3 130/3/3 129/3/3
f 132/3/3 130/3/3 131/3/3
f 135/3/3 134/3/3 133/3/3
f 136/3/3 134/3/3 135/3/3
f 139/1/3 138/1/3 137/1/3
f 140/1/3 138/1/3 139/1/3
f 142/3/3 141/3/3 140/3/3
f 143/3/3 141/3/3 142/3/3
f 146/3/3 145/3/3 144/3/3
f 147/3/3 145/3/3 146/3/3
f 150/1/3 149/1/3 148/1/3
f 151/1/3 149/1/3 150/1/3
f 153/1/3 152/1/3 151/1/3
f 154/1/3 152/1/3 153/1/3
f 157/3/3 156/3/3 155/3/3
f 158/3/3 156/3/3 157/3/3
f 161/3/3 160/3/3 159/3/3
f 162/3/3 160/3/3 161/3/3
f 163/3/4 164/3/4 165/3/4
f 165/3/4 164/3/4 166/3/4
f 167/3/4 168/3/4 169/3/4
f 169/3/4 168/3/4 170/3/4
f 171/3/4 172/3/4 173/3/4
f 173/3/4 172/3/4 174/3/4
f 175/3/4 176/3/4 177/3/4
f 177/3/4 176/3/4 178/3/4
f 179/3/4 180/3/4 181/3/4
f 181/3/4 180/3/4 182/3/4
f 183/1/4 184/1/4 185/1/4
f 185/1/4 184/1/4 186/1/4
f 185/3/4 186/3/4 187/3/4
f 187/3/4 186/3/4 188/3/4
f 189/3/4 190/3/4 191/3/4
f 191/3/4 190/3/4 192/3/4
f 193/1/4 194/1/4 195/1/4
f 195/1/4 194/1/4 196/1/4
f 197/3/4 198/3/4 199/3/4
f 199/3/4 198/3/4 200/3/4
f 201/1/4 202/1/4 203/1/4
f 203/1/4 202/1/4 204/1/4
f 205/3/4 206/3/4 207/3/4
f 207/3/4 206/3/4 208/3/4
f 209/3/4 210/3/4 211/3/4
f 211/3/4 210/3/4 212/3/4
f 213/1/4 214/1/4 215/1/4
f 215/1/4 214/1/4 216/1/4
f 217/3/4 218/3/4 219/3/4
f 219/3/4 218/3/4 220/3/4
f 221/1/4 222/1/4 223/1/4
f 223/1/4 222/1/4 224/1/4
f 228/3/5 226/3/5 225/3/5
f 229/3/5 226/3/5 228/3/5
f 230/3/5 226/3/5 229/3/5
f 232/3/5 228/3/5 227/3/5
f 232/3/5 229/3/5 228/3/5
f 232/1/5 230/1/5 229/1/5
f 233/3/5 231/3/5 230/3/5
f 233/1/5 230/1/5 232/1/5
f 234/3/5 231/3/5 233/3/5
f 237/3/5 232/3/5 227/3/5
f 237/3/5 235/3/5 234/3/5
f 237/3/5 234/3/5 233/3/5
f 237/3/5 233/3/5 232/3/5
f 238/3/5 235/3/5 237/3/5
f 239/3/5 235/3/5 238/3/5
f 241/1/5 237/1/5 236/1/5
f 242/3/5 238/3/5 237/3/5
f 242/1/5 237/1/5 241/1/5
f 243/3/5 238/3/5 242/3/5
f 244/1/5 239/1/5 238/1/5
f 244/3/5 238/3/5 243/3/5
f 245/1/5 239/1/5 244/1/5
f 246/1/5 241/1/5 240/1/5
f 247/3/5 243/3/5 242/3/5
f 247/1/5 241/1/5 246/1/5
f 247/3/5 242/3/5 241/3/5
f 248/1/5 244/1/5 243/1/5
f 248/3/5 243/3/5 247/3/5
f 249/3/5 245/3/5 244/3/5
f 249/1/5 244/1/5 248/1/5
f 250/3/5 245/3/5 249/3/5
f 251/3/5 248/3/5 247/3/5
f 251/3/5 247/3/5 246/3/5
f 251/3/5 249/3/5 248/3/5
f 253/3/5 251/3/5 246/3/5
f 253/3/5 252/3/5 251/3/5
f 254/3/5 252/3/5 253/3/5
f 255/3/5 252/3/5 254/3/5
f 256/3/5 252/3/5 255/3/5
f 257/3/5 252/3/5 256/3/5
f 258/3/5 252/3/5 257/3/5
f 259/3/5 252/3/5 258/3/5
f 260/1/5 255/1/5 254/1/5
f 261/3/5 256/3/5 255/3/5
f 261/1/5 255/1/5 260/1/5
f 262/1/5 257/1/5 256/1/5
f 262/3/5 256/3/5 261/3/5
f 263/3/5 258/3/5 257/3/5
f 263/1/5 257/1/5 262/1/5
f 264/3/5 262/3/5 261/3/5
f 265/3/5 262/3/5 264/3/5
f 266/3/5 262/3/5 265/3/5
f 267/3/5 262/3/5 266/3/5
f 268/3/5 258/3/5 263/3/5
f 269/3/5 258/3/5 268/3/5
f 270/1/5 266/1/5 265/1/5
f 271/2/5 267/2/5 266/2/5
f 271/1/5 266/1/5 270/1/5
f 272/3/5 262/3/5 267/3/5
f 272/2/5 267/2/5 271/2/5
f 273/3/5 262/3/5 272/3/5
f 274/1/5 272/1/5 271/1/5
f 275/1/5 272/1/5 274/1/5
f 276/3/6 277/3/6 279/3/6
f 279/3/6 277/3/6 280/3/6
f 280/3/6 277/3/6 281/3/6
f 278/3/6 279/3/6 283/3/6
f 279/3/6 280/3/6 283/3/6
f 283/3/6 280/3/6 284/3/6
f 280/1/6 281/1/6 285/1/6
f 284/3/6 280/3/6 285/3/6
f 281/3/6 282/3/6 286/3/6
f 285/1/6 281/1/6 286/1/6
f 286/3/6 282/3/6 287/3/6
f 278/3/6 283/3/6 290/3/6
f 290/3/6 283/3/6 291/3/6
f 287/3/6 288/3/6 292/3/6
f 286/3/6 287/3/6 292/3/6
f 285/3/6 286/3/6 292/3/6
f 292/3/6 288/3/6 293/3/6
f 293/3/6 288/3/6 294/3/6
f 294/3/6 288/3/6 295/3/6
f 289/1/6 290/1/6 297/1/6
f 297/1/6 290/1/6 298/1/6
f 293/3/6 294/3/6 299/3/6
f 294/1/6 295/1/6 300/1/6
f 299/3/6 294/3/6 300/3/6
f 300/1/6 295/1/6 301/1/6
f 296/1/6 297/1/6 302/1/6
f 302/1/6 297/1/6 303/1/6
f 299/1/6 300/1/6 304/1/6
f 300/3/6 301/3/6 305/3/6
f 304/1/6 300/1/6 305/1/6
f 305/3/6 301/3/6 306/3/6
f 302/3/6 303/3/6 309/3/6
f 307/3/6 308/3/6 312/3/6
f 309/3/6 310/3/6 313/3/6
f 302/3/6 309/3/6 313/3/6
f 313/3/6 310/3/6 314/3/6
f 314/3/6 310/3/6 315/3/6
f 311/3/6 312/3/6 319/3/6
f 312/3/6 308/3/6 320/3/6
f 319/3/6 312/3/6 320/3/6
f 320/3/6 308/3/6 321/3/6
f 314/1/6 315/1/6 322/1/6
f 315/3/6 316/3/6 323/3/6
f 322/1/6 315/1/6 323/1/6
f 323/3/6 316/3/6 324/3/6
f 317/3/6 318/3/6 325/3/6
f 318/1/6 319/1/6 326/1/6
f 325/3/6 318/3/6 326/3/6
f 319/3/6 320/3/6 327/3/6
f 326/1/6 319/1/6 327/1/6
f 323/3/6 324/3/6 328/3/6
f 324/3/6 325/3/6 328/3/6
f 325/3/6 326/3/6 328/3/6
f 328/3/6 326/3/6 329/3/6
f 329/3/6 326/3/6 330/3/6
f 330/3/6 326/3/6 331/3/6
f 327/3/6 320/3/6 332/3/6
f 332/3/6 320/3/6 333/3/6
f 329/1/6 330/1/6 334/1/6
f 330/2/6 331/2/6 335/2/6
f 334/1/6 330/1/6 335/1/6
f 331/3/6 326/3/6 336/3/6
f 335/2/6 331/2/6 336/2/6
f 336/3/6 326/3/6 337/3/6
f 335/1/6 336/1/6 338/1/6
f 338/1/6 336/1/6 339/1/6
f 340/1/6 341/1/6 344/1/6
f 341/3/6 342/3/6 345/3/6
f 344/1/6 341/1/6 345/1/6
f 345/3/6 342/3/6 346/3/6
f 343/3/6 344/3/6 349/3/6
f 344/3/6 345/3/6 349/3/6
f 349/3/6 345/3/6 350/3/6
f 345/1/6 346/1/6 351/1/6
f 350/3/6 345/3/6 351/3/6
f 346/3/6 347/3/6 352/3/6
f 351/1/6 346/1/6 352/1/6
f 349/1/6 350/1/6 353/1/6
f 348/1/6 349/1/6 353/1/6
f 353/1/6 350/1/6 354/1/6
f 350/3/6 351/3/6 355/3/6
f 354/1/6 350/1/6 355/1/6
f 351/3/6 352/3/6 355/3/6
f 355/3/6 352/3/6 356/3/6
f 352/3/6 347/3/6 357/3/6
f 356/3/6 352/3/6 357/3/6
f 357/3/6 347/3/6 358/3/6
f 353/3/6 354/3/6 360/3/6
f 354/1/6 355/1/6 360/1/6
f 355/2/6 356/2/6 361/2/6
f 360/1/6 355/1/6 361/1/6
f 356/3/6 357/3/6 362/3/6
f 361/2/6 356/2/6 362/2/6
f 357/2/6 358/2/6 363/2/6
f 362/3/6 357/3/6 363/3/6
f 358/3/6 359/3/6 364/3/6
f 363/2/6 358/2/6 364/2/6
f 353/3/6 360/3/6 365/3/6
f 360/3/6 361/3/6 365/3/6
f 365/3/6 361/3/6 366/3/6
f 362/3/6 363/3/6 367/3/6
f 361/1/6 362/1/6 367/1/6
f 363/3/6 364/3/6 367/3/6
f 367/3/6 364/3/6 368/3/6
f 364/3/6 359/3/6 369/3/6
f 368/3/6 364/3/6 369/3/6
f 369/3/6 359/3/6 370/3/6
f 366/3/6 361/3/6 371/3/6
f 367/1/6 368/1/6 372/1/6
f 371/3/6 361/3/6 372/3/6
f 361/1/6 367/1/6 372/1/6
f 372/1/6 368/1/6 373/1/6
f 368/3/6 369/3/6 374/3/6
f 373/1/6 368/1/6 374/1/6
f 374/3/6 369/3/6 375/3/6
f 372/3/6 373/3/6 376/3/6
f 376/3/6 373/3/6 377/3/6
