# MagicaVoxel @ Ephtracy

# group
o 

# material
mtllib get-color.mtl
usemtl palette

# normals
vn -1 0 0
vn 1 0 0
vn 0 0 1
vn 0 0 -1
vn 0 -1 0
vn 0 1 0

# texcoords
vt 0.173828 0.5
vt 0.263672 0.5
vt 0.541016 0.5

# verts
v -0.1 0.1 0
v -0.1 0.1 -0.1
v -0.1 0.2 0.2
v -0.1 0.2 0.1
v -0.1 0.2 0
v -0.1 0.2 -0.1
v -0.1 0.3 0.2
v -0.1 0.3 0.1
v -0.1 0.3 0
v -0.1 0.3 -0.1
v -0.1 0.4 0.1
v -0.1 0.4 0
v 0 0 0
v 0 0 -0.1
v 0 0.1 0.1
v 0 0.1 0
v 0 0.1 -0.1
v 0 0.1 -0.2
v 0 0.2 0.1
v 0 0.2 0
v 0 0.2 -0.1
v 0 0.2 -0.2
v 0 0.3 0.1
v 0 0.3 0
v 0 0.3 -0.1
v 0 0.3 -0.2
v 0 0.4 0.1
v 0 0.4 0
v 0 0.4 -0.1
v 0 0.5 0.1
v 0 0.5 0
v 0.1 0.3 -0.1
v 0.1 0.3 -0.2
v 0.1 0.4 0
v 0.1 0.4 -0.1
v 0.1 0.4 -0.2
v 0.1 0.5 0
v 0.1 0.5 -0.1
v 0.2 0.1 -0.1
v 0.2 0.1 -0.2
v 0.2 0.2 -0.1
v 0.2 0.2 -0.2
v 0 0.2 0.2
v 0 0.2 0.1
v 0 0.3 0.2
v 0 0.3 0.1
v 0.1 0 0
v 0.1 0 -0.1
v 0.1 0.1 0
v 0.1 0.1 -0.1
v 0.1 0.1 -0.2
v 0.1 0.2 0.1
v 0.1 0.2 0
v 0.1 0.2 -0.1
v 0.1 0.2 -0.2
v 0.1 0.3 0.1
v 0.1 0.3 0
v 0.1 0.3 -0.1
v 0.1 0.3 -0.2
v 0.1 0.5 0.1
v 0.1 0.5 0
v 0.2 0.1 0.1
v 0.2 0.1 -0.1
v 0.2 0.2 0.1
v 0.2 0.2 0
v 0.2 0.2 -0.1
v 0.2 0.3 0
v 0.2 0.3 -0.1
v 0.2 0.3 -0.2
v 0.2 0.4 -0.1
v 0.2 0.4 -0.2
v 0.2 0.5 0
v 0.2 0.5 -0.1
v 0.3 0.1 -0.1
v 0.3 0.1 -0.2
v 0.3 0.2 -0.1
v 0.3 0.2 -0.2
v -0.1 0.2 0.2
v -0.1 0.3 0.2
v 0 0.2 0.2
v 0 0.3 0.2
v -0.1 0.3 0.1
v -0.1 0.4 0.1
v 0 0.1 0.1
v 0 0.2 0.1
v 0 0.3 0.1
v 0 0.4 0.1
v 0 0.5 0.1
v 0.1 0.2 0.1
v 0.1 0.3 0.1
v 0.1 0.5 0.1
v 0.2 0.1 0.1
v 0.2 0.2 0.1
v -0.1 0.1 0
v -0.1 0.2 0
v -0.1 0.3 0
v 0 0 0
v 0 0.1 0
v 0 0.2 0
v 0 0.3 0
v 0.1 0 0
v 0.1 0.1 0
v 0.1 0.2 0
v 0.1 0.3 0
v 0.1 0.5 0
v 0.2 0.2 0
v 0.2 0.3 0
v 0.2 0.5 0
v 0.2 0.1 -0.1
v 0.2 0.2 -0.1
v 0.3 0.1 -0.1
v 0.3 0.2 -0.1
v -0.1 0.2 0.1
v -0.1 0.3 0.1
v 0 0.2 0.1
v 0 0.3 0.1
v -0.1 0.3 0
v -0.1 0.4 0
v 0 0.3 0
v 0 0.4 0
v 0 0.5 0
v 0.1 0.4 0
v 0.1 0.5 0
v -0.1 0.1 -0.1
v -0.1 0.2 -0.1
v -0.1 0.3 -0.1
v 0 0 -0.1
v 0 0.1 -0.1
v 0 0.2 -0.1
v 0 0.3 -0.1
v 0 0.4 -0.1
v 0.1 0 -0.1
v 0.1 0.1 -0.1
v 0.1 0.2 -0.1
v 0.1 0.3 -0.1
v 0.1 0.4 -0.1
v 0.1 0.5 -0.1
v 0.2 0.1 -0.1
v 0.2 0.2 -0.1
v 0.2 0.3 -0.1
v 0.2 0.4 -0.1
v 0.2 0.5 -0.1
v 0 0.1 -0.2
v 0 0.2 -0.2
v 0 0.3 -0.2
v 0.1 0.1 -0.2
v 0.1 0.2 -0.2
v 0.1 0.3 -0.2
v 0.1 0.4 -0.2
v 0.2 0.1 -0.2
v 0.2 0.2 -0.2
v 0.2 0.3 -0.2
v 0.2 0.4 -0.2
v 0.3 0.1 -0.2
v 0.3 0.2 -0.2
v 0 0 0
v 0.1 0 0
v 0 0 -0.1
v 0.1 0 -0.1
v 0 0.1 0.1
v 0.2 0.1 0.1
v -0.1 0.1 0
v 0 0.1 0
v 0.1 0.1 0
v -0.1 0.1 -0.1
v 0 0.1 -0.1
v 0.1 0.1 -0.1
v 0.2 0.1 -0.1
v 0.3 0.1 -0.1
v 0 0.1 -0.2
v 0.1 0.1 -0.2
v 0.2 0.1 -0.2
v 0.3 0.1 -0.2
v -0.1 0.2 0.2
v 0 0.2 0.2
v -0.1 0.2 0.1
v 0 0.2 0.1
v -0.1 0.3 0.1
v 0 0.3 0.1
v -0.1 0.3 0
v 0 0.3 0
v 0.1 0.3 -0.1
v 0.2 0.3 -0.1
v 0.1 0.3 -0.2
v 0.2 0.3 -0.2
v 0.1 0.2 0.1
v 0.2 0.2 0.1
v 0.1 0.2 0
v 0.2 0.2 0
v 0.2 0.2 -0.1
v 0.3 0.2 -0.1
v 0.2 0.2 -0.2
v 0.3 0.2 -0.2
v -0.1 0.3 0.2
v 0 0.3 0.2
v -0.1 0.3 0.1
v 0 0.3 0.1
v -0.1 0.3 0
v 0 0.3 0
v -0.1 0.3 -0.1
v 0 0.3 -0.1
v 0.1 0.3 -0.1
v 0 0.3 -0.2
v 0.1 0.3 -0.2
v -0.1 0.4 0.1
v 0 0.4 0.1
v -0.1 0.4 0
v 0 0.4 0
v 0.1 0.4 0
v 0 0.4 -0.1
v 0.1 0.4 -0.1
v 0.2 0.4 -0.1
v 0.1 0.4 -0.2
v 0.2 0.4 -0.2
v 0 0.5 0.1
v 0.1 0.5 0.1
v 0 0.5 0
v 0.1 0.5 0
v 0.2 0.5 0
v 0.1 0.5 -0.1
v 0.2 0.5 -0.1

# faces
f 5/2/1 2/2/1 1/2/1
f 6/2/1 2/2/1 5/2/1
f 7/2/1 4/2/1 3/2/1
f 8/2/1 4/2/1 7/2/1
f 9/3/1 6/3/1 5/3/1
f 10/3/1 6/3/1 9/3/1
f 11/3/1 9/3/1 8/3/1
f 12/3/1 9/3/1 11/3/1
f 16/2/1 14/2/1 13/2/1
f 17/2/1 14/2/1 16/2/1
f 19/2/1 16/2/1 15/2/1
f 20/2/1 16/2/1 19/2/1
f 21/2/1 18/2/1 17/2/1
f 22/2/1 18/2/1 21/2/1
f 23/2/1 20/2/1 19/2/1
f 24/2/1 20/2/1 23/2/1
f 25/3/1 22/3/1 21/3/1
f 26/3/1 22/3/1 25/3/1
f 28/1/1 25/1/1 24/1/1
f 29/1/1 25/1/1 28/1/1
f 30/3/1 28/3/1 27/3/1
f 31/3/1 28/3/1 30/3/1
f 35/3/1 33/3/1 32/3/1
f 36/3/1 33/3/1 35/3/1
f 37/3/1 35/3/1 34/3/1
f 38/3/1 35/3/1 37/3/1
f 41/2/1 40/2/1 39/2/1
f 42/2/1 40/2/1 41/2/1
f 43/2/2 44/2/2 45/2/2
f 45/2/2 44/2/2 46/2/2
f 47/2/2 48/2/2 49/2/2
f 49/2/2 48/2/2 50/2/2
f 50/2/2 51/2/2 54/2/2
f 54/2/2 51/2/2 55/2/2
f 52/2/2 53/2/2 56/2/2
f 56/2/2 53/2/2 57/2/2
f 54/3/2 55/3/2 58/3/2
f 58/3/2 55/3/2 59/3/2
f 56/3/2 57/3/2 60/3/2
f 60/3/2 57/3/2 61/3/2
f 62/2/2 63/2/2 64/2/2
f 64/2/2 63/2/2 65/2/2
f 65/2/2 63/2/2 66/2/2
f 65/2/2 66/2/2 67/2/2
f 67/2/2 66/2/2 68/2/2
f 67/3/2 68/3/2 70/3/2
f 68/3/2 69/3/2 70/3/2
f 70/3/2 69/3/2 71/3/2
f 67/3/2 70/3/2 72/3/2
f 72/3/2 70/3/2 73/3/2
f 74/2/2 75/2/2 76/2/2
f 76/2/2 75/2/2 77/2/2
f 80/2/3 79/2/3 78/2/3
f 81/2/3 79/2/3 80/2/3
f 86/3/3 83/3/3 82/3/3
f 87/3/3 83/3/3 86/3/3
f 89/2/3 85/2/3 84/2/3
f 89/2/3 86/2/3 85/2/3
f 90/3/3 88/3/3 87/3/3
f 90/2/3 86/2/3 89/2/3
f 90/3/3 87/3/3 86/3/3
f 91/3/3 88/3/3 90/3/3
f 92/2/3 89/2/3 84/2/3
f 93/2/3 89/2/3 92/2/3
f 98/2/3 95/2/3 94/2/3
f 99/3/3 96/3/3 95/3/3
f 99/2/3 95/2/3 98/2/3
f 100/3/3 96/3/3 99/3/3
f 101/2/3 98/2/3 97/2/3
f 102/2/3 98/2/3 101/2/3
f 106/2/3 104/2/3 103/2/3
f 107/3/3 105/3/3 104/3/3
f 107/2/3 104/2/3 106/2/3
f 108/3/3 105/3/3 107/3/3
f 111/2/3 110/2/3 109/2/3
f 112/2/3 110/2/3 111/2/3
f 113/2/4 114/2/4 115/2/4
f 115/2/4 114/2/4 116/2/4
f 117/3/4 118/3/4 119/3/4
f 119/3/4 118/3/4 120/3/4
f 120/3/4 121/3/4 122/3/4
f 122/3/4 121/3/4 123/3/4
f 124/2/4 125/2/4 128/2/4
f 125/3/4 126/3/4 129/3/4
f 128/2/4 125/2/4 129/2/4
f 129/3/4 126/3/4 130/3/4
f 127/2/4 128/2/4 132/2/4
f 132/2/4 128/2/4 133/2/4
f 130/1/4 131/1/4 135/1/4
f 135/1/4 131/1/4 136/1/4
f 133/2/4 134/2/4 138/2/4
f 134/2/4 135/2/4 138/2/4
f 138/2/4 135/2/4 139/2/4
f 139/2/4 135/2/4 140/2/4
f 136/3/4 137/3/4 141/3/4
f 141/3/4 137/3/4 142/3/4
f 143/2/4 144/2/4 146/2/4
f 144/3/4 145/3/4 147/3/4
f 146/2/4 144/2/4 147/2/4
f 147/3/4 145/3/4 148/3/4
f 148/3/4 149/3/4 152/3/4
f 152/3/4 149/3/4 153/3/4
f 150/2/4 151/2/4 154/2/4
f 154/2/4 151/2/4 155/2/4
f 158/2/5 157/2/5 156/2/5
f 159/2/5 157/2/5 158/2/5
f 163/2/5 161/2/5 160/2/5
f 164/2/5 161/2/5 163/2/5
f 165/2/5 163/2/5 162/2/5
f 166/2/5 163/2/5 165/2/5
f 167/2/5 161/2/5 164/2/5
f 168/2/5 161/2/5 167/2/5
f 170/2/5 167/2/5 166/2/5
f 171/2/5 167/2/5 170/2/5
f 172/2/5 169/2/5 168/2/5
f 173/2/5 169/2/5 172/2/5
f 176/2/5 175/2/5 174/2/5
f 177/2/5 175/2/5 176/2/5
f 180/3/5 179/3/5 178/3/5
f 181/3/5 179/3/5 180/3/5
f 184/3/5 183/3/5 182/3/5
f 185/3/5 183/3/5 184/3/5
f 186/2/6 187/2/6 188/2/6
f 188/2/6 187/2/6 189/2/6
f 190/2/6 191/2/6 192/2/6
f 192/2/6 191/2/6 193/2/6
f 194/2/6 195/2/6 196/2/6
f 196/2/6 195/2/6 197/2/6
f 198/3/6 199/3/6 200/3/6
f 200/3/6 199/3/6 201/3/6
f 201/3/6 202/3/6 203/3/6
f 203/3/6 202/3/6 204/3/6
f 205/3/6 206/3/6 207/3/6
f 207/3/6 206/3/6 208/3/6
f 208/1/6 209/1/6 210/1/6
f 210/1/6 209/1/6 211/1/6
f 211/3/6 212/3/6 213/3/6
f 213/3/6 212/3/6 214/3/6
f 215/3/6 216/3/6 217/3/6
f 217/3/6 216/3/6 218/3/6
f 218/3/6 219/3/6 220/3/6
f 220/3/6 219/3/6 221/3/6
