# MagicaVoxel @ Ephtracy

# group
o 

# material
mtllib get-color.mtl
usemtl palette

# normals
vn -1 0 0
vn 1 0 0
vn 0 0 1
vn 0 0 -1
vn 0 -1 0
vn 0 1 0

# texcoords
vt 0.0175781 0.5
vt 0.0683594 0.5
vt 0.251953 0.5

# verts
v -0.1 0.2 0.1
v -0.1 0.2 0
v -0.1 0.2 -0.1
v -0.1 0.2 -0.2
v -0.1 0.3 0.1
v -0.1 0.3 0
v -0.1 0.3 -0.1
v -0.1 0.3 -0.2
v -0.1 0.4 0
v -0.1 0.4 -0.1
v 0 0 0
v 0 0 -0.1
v 0 0.2 0
v 0 0.2 -0.1
v 0 0.3 0.1
v 0 0.3 0
v 0 0.3 -0.1
v 0 0.3 -0.2
v 0 0.4 0.1
v 0 0.4 0
v 0 0.4 -0.1
v 0 0.4 -0.2
v 0.1 0 0
v 0.1 0 -0.1
v 0.1 0.2 0
v 0.1 0.2 -0.1
v 0.1 0.3 0.1
v 0.1 0.3 0
v 0.1 0.3 -0.1
v 0.1 0.3 -0.2
v 0.1 0.4 0.1
v 0.1 0.4 0
v 0.1 0.4 -0.1
v 0.1 0.4 -0.2
v 0.2 0.2 0.1
v 0.2 0.2 0
v 0.2 0.2 -0.1
v 0.2 0.2 -0.2
v 0.2 0.3 0.1
v 0.2 0.3 0
v 0.2 0.3 -0.1
v 0.2 0.3 -0.2
v 0.2 0.4 0
v 0.2 0.4 -0.1
v -0.1 0.2 0.1
v -0.1 0.3 0.1
v 0 0.2 0.1
v 0 0.3 0.1
v 0 0.4 0.1
v 0.1 0.2 0.1
v 0.1 0.3 0.1
v 0.1 0.4 0.1
v 0.2 0.2 0.1
v 0.2 0.3 0.1
v -0.1 0.3 0
v -0.1 0.4 0
v 0 0 0
v 0 0.2 0
v 0 0.3 0
v 0 0.4 0
v 0.1 0 0
v 0.1 0.2 0
v 0.1 0.3 0
v 0.1 0.4 0
v 0.2 0.3 0
v 0.2 0.4 0
v -0.1 0.3 -0.1
v -0.1 0.4 -0.1
v 0 0 -0.1
v 0 0.2 -0.1
v 0 0.3 -0.1
v 0 0.4 -0.1
v 0.1 0 -0.1
v 0.1 0.2 -0.1
v 0.1 0.3 -0.1
v 0.1 0.4 -0.1
v 0.2 0.3 -0.1
v 0.2 0.4 -0.1
v -0.1 0.2 -0.2
v -0.1 0.3 -0.2
v 0 0.2 -0.2
v 0 0.3 -0.2
v 0 0.4 -0.2
v 0.1 0.2 -0.2
v 0.1 0.3 -0.2
v 0.1 0.4 -0.2
v 0.2 0.2 -0.2
v 0.2 0.3 -0.2
v 0 0 0
v 0.1 0 0
v 0 0 -0.1
v 0.1 0 -0.1
v -0.1 0.2 0.1
v 0 0.2 0.1
v 0.1 0.2 0.1
v 0.2 0.2 0.1
v -0.1 0.2 0
v 0 0.2 0
v 0.1 0.2 0
v 0.2 0.2 0
v -0.1 0.2 -0.1
v 0 0.2 -0.1
v 0.1 0.2 -0.1
v 0.2 0.2 -0.1
v -0.1 0.2 -0.2
v 0 0.2 -0.2
v 0.1 0.2 -0.2
v 0.2 0.2 -0.2
v -0.1 0.3 0.1
v 0 0.3 0.1
v 0.1 0.3 0.1
v 0.2 0.3 0.1
v -0.1 0.3 0
v 0 0.3 0
v 0.1 0.3 0
v 0.2 0.3 0
v -0.1 0.3 -0.1
v 0 0.3 -0.1
v 0.1 0.3 -0.1
v 0.2 0.3 -0.1
v -0.1 0.3 -0.2
v 0 0.3 -0.2
v 0.1 0.3 -0.2
v 0.2 0.3 -0.2
v 0 0.4 0.1
v 0.1 0.4 0.1
v -0.1 0.4 0
v 0 0.4 0
v 0.1 0.4 0
v 0.2 0.4 0
v -0.1 0.4 -0.1
v 0 0.4 -0.1
v 0.1 0.4 -0.1
v 0.2 0.4 -0.1
v 0 0.4 -0.2
v 0.1 0.4 -0.2

# faces
f 5/3/1 2/3/1 1/3/1
f 6/1/1 3/1/1 2/1/1
f 6/3/1 2/3/1 5/3/1
f 7/3/1 4/3/1 3/3/1
f 7/1/1 3/1/1 6/1/1
f 8/3/1 4/3/1 7/3/1
f 9/1/1 7/1/1 6/1/1
f 10/1/1 7/1/1 9/1/1
f 13/2/1 12/2/1 11/2/1
f 14/2/1 12/2/1 13/2/1
f 19/1/1 16/1/1 15/1/1
f 20/1/1 16/1/1 19/1/1
f 21/1/1 18/1/1 17/1/1
f 22/1/1 18/1/1 21/1/1
f 23/2/2 24/2/2 25/2/2
f 25/2/2 24/2/2 26/2/2
f 27/1/2 28/1/2 31/1/2
f 31/1/2 28/1/2 32/1/2
f 29/1/2 30/1/2 33/1/2
f 33/1/2 30/1/2 34/1/2
f 35/3/2 36/3/2 39/3/2
f 36/1/2 37/1/2 40/1/2
f 39/3/2 36/3/2 40/3/2
f 37/3/2 38/3/2 41/3/2
f 40/1/2 37/1/2 41/1/2
f 41/3/2 38/3/2 42/3/2
f 40/1/2 41/1/2 43/1/2
f 43/1/2 41/1/2 44/1/2
f 47/3/3 46/3/3 45/3/3
f 48/3/3 46/3/3 47/3/3
f 50/1/3 48/1/3 47/1/3
f 50/1/3 49/1/3 48/1/3
f 51/1/3 49/1/3 50/1/3
f 52/1/3 49/1/3 51/1/3
f 53/3/3 51/3/3 50/3/3
f 54/3/3 51/3/3 53/3/3
f 59/1/3 56/1/3 55/1/3
f 60/1/3 56/1/3 59/1/3
f 61/2/3 58/2/3 57/2/3
f 62/2/3 58/2/3 61/2/3
f 65/1/3 64/1/3 63/1/3
f 66/1/3 64/1/3 65/1/3
f 67/1/4 68/1/4 71/1/4
f 71/1/4 68/1/4 72/1/4
f 69/2/4 70/2/4 73/2/4
f 73/2/4 70/2/4 74/2/4
f 75/1/4 76/1/4 77/1/4
f 77/1/4 76/1/4 78/1/4
f 79/3/4 80/3/4 81/3/4
f 81/3/4 80/3/4 82/3/4
f 81/1/4 82/1/4 84/1/4
f 82/1/4 83/1/4 84/1/4
f 84/1/4 83/1/4 85/1/4
f 85/1/4 83/1/4 86/1/4
f 84/3/4 85/3/4 87/3/4
f 87/3/4 85/3/4 88/3/4
f 91/2/5 90/2/5 89/2/5
f 92/2/5 90/2/5 91/2/5
f 97/3/5 94/3/5 93/3/5
f 98/1/5 95/1/5 94/1/5
f 98/3/5 94/3/5 97/3/5
f 99/3/5 96/3/5 95/3/5
f 99/1/5 95/1/5 98/1/5
f 100/3/5 96/3/5 99/3/5
f 101/1/5 98/1/5 97/1/5
f 102/1/5 98/1/5 101/1/5
f 103/1/5 100/1/5 99/1/5
f 104/1/5 100/1/5 103/1/5
f 105/3/5 102/3/5 101/3/5
f 106/1/5 103/1/5 102/1/5
f 106/3/5 102/3/5 105/3/5
f 107/3/5 104/3/5 103/3/5
f 107/1/5 103/1/5 106/1/5
f 108/3/5 104/3/5 107/3/5
f 109/3/6 110/3/6 113/3/6
f 113/3/6 110/3/6 114/3/6
f 111/3/6 112/3/6 115/3/6
f 115/3/6 112/3/6 116/3/6
f 117/3/6 118/3/6 121/3/6
f 121/3/6 118/3/6 122/3/6
f 119/3/6 120/3/6 123/3/6
f 123/3/6 120/3/6 124/3/6
f 125/1/6 126/1/6 128/1/6
f 128/1/6 126/1/6 129/1/6
f 127/1/6 128/1/6 131/1/6
f 128/3/6 129/3/6 132/3/6
f 131/1/6 128/1/6 132/1/6
f 129/1/6 130/1/6 133/1/6
f 132/3/6 129/3/6 133/3/6
f 133/1/6 130/1/6 134/1/6
f 132/1/6 133/1/6 135/1/6
f 135/1/6 133/1/6 136/1/6
